<svg width="111" height="111" viewBox="0 0 111 111" fill="none" xmlns="http://www.w3.org/2000/svg">
<g id="Group 974">
<g id="Rectangle 462" filter="url(#filter0_d_309_87)">
<rect x="16" y="6" width="63" height="63" rx="14" fill="url(#paint0_linear_309_87)"/>
</g>
<g id="Vector" filter="url(#filter1_di_309_87)">
<path fill-rule="evenodd" clip-rule="evenodd" d="M29 47.5909C29 49.4727 30.5793 51 32.531 51H58.469C60.4207 51 62 49.4727 62 47.5909V42.9682C62.0002 42.7185 61.9152 42.4757 61.758 42.2773C61.6008 42.0788 61.3801 41.9359 61.1302 41.8705C60.3631 41.6691 59.6861 41.23 59.2034 40.6209C58.7207 40.0118 58.4592 39.2665 58.4592 38.5C58.4592 37.7335 58.7207 36.9882 59.2034 36.3791C59.6861 35.77 60.3631 35.3309 61.1302 35.1295C61.3801 35.0641 61.6008 34.9212 61.758 34.7227C61.9152 34.5243 62.0002 34.2815 62 34.0318V29.4091C62 27.5273 60.4207 26 58.469 26H32.531C30.5793 26 29 27.5273 29 29.4091V34.0227C29.0003 34.2736 29.0867 34.5174 29.2458 34.7159C29.4048 34.9145 29.6275 35.0567 29.8792 35.1205C30.6544 35.3159 31.3406 35.7536 31.8303 36.3651C32.3199 36.9766 32.5856 37.7274 32.5856 38.5C32.5856 39.2726 32.3199 40.0234 31.8303 40.6349C31.3406 41.2464 30.6544 41.6841 29.8792 41.8795C29.6275 41.9433 29.4048 42.0855 29.2458 42.2841C29.0867 42.4827 29.0003 42.7264 29 42.9773V47.5909ZM40.6961 45.1864L52.4819 33.8227C52.7449 33.554 52.889 33.1971 52.8836 32.8276C52.8781 32.4582 52.7236 32.1053 52.4528 31.8439C52.182 31.5825 51.8162 31.4331 51.433 31.4275C51.0498 31.4218 50.6795 31.5603 50.4005 31.8136L38.6148 43.1773C38.4713 43.3076 38.3564 43.4643 38.2768 43.6382C38.1973 43.8121 38.1547 43.9996 38.1517 44.1897C38.1487 44.3797 38.1853 44.5684 38.2593 44.7445C38.3333 44.9207 38.4432 45.0808 38.5825 45.2152C38.7218 45.3497 38.8876 45.4558 39.0703 45.5274C39.2529 45.5989 39.4485 45.6344 39.6456 45.6317C39.8427 45.629 40.0373 45.5882 40.2177 45.5117C40.3982 45.4352 40.5608 45.3246 40.6961 45.1864ZM38.4781 33.9545C38.4781 33.3518 38.7264 32.7737 39.1685 32.3475C39.6105 31.9213 40.2101 31.6818 40.8352 31.6818C41.4604 31.6818 42.0599 31.9213 42.502 32.3475C42.944 32.7737 43.1924 33.3518 43.1924 33.9545C43.1924 34.5573 42.944 35.1354 42.502 35.5616C42.0599 35.9878 41.4604 36.2273 40.8352 36.2273C40.2101 36.2273 39.6105 35.9878 39.1685 35.5616C38.7264 35.1354 38.4781 34.5573 38.4781 33.9545ZM47.9066 43.0455C47.9066 42.4427 48.155 41.8646 48.597 41.4384C49.0391 41.0122 49.6386 40.7727 50.2638 40.7727C50.8889 40.7727 51.4885 41.0122 51.9305 41.4384C52.3726 41.8646 52.6209 42.4427 52.6209 43.0455C52.6209 43.6482 52.3726 44.2263 51.9305 44.6525C51.4885 45.0787 50.8889 45.3182 50.2638 45.3182C49.6386 45.3182 49.0391 45.0787 48.597 44.6525C48.155 44.2263 47.9066 43.6482 47.9066 43.0455Z" fill="url(#paint1_linear_309_87)"/>
</g>
<g id="Vector_2" filter="url(#filter2_i_309_87)">
<path d="M65.5444 37C66.0168 37 66.4699 37.1794 66.804 37.4987C67.138 37.8181 67.3257 38.2512 67.3257 38.7028V52.1892L72.0044 47.7164C72.3421 47.4157 72.7887 47.2519 73.2502 47.2597C73.7116 47.2675 74.1519 47.4462 74.4783 47.7582C74.8046 48.0702 74.9916 48.4911 74.9997 48.9322C75.0079 49.3734 74.8366 49.8003 74.5219 50.1231L66.8032 57.502C66.4692 57.8209 66.0165 58 65.5444 58C65.0724 58 64.6197 57.8209 64.2857 57.502L56.5669 50.1231C56.3919 49.9672 56.2516 49.7792 56.1542 49.5703C56.0568 49.3615 56.0045 49.136 56.0003 48.9073C55.9961 48.6787 56.0401 48.4516 56.1296 48.2396C56.2192 48.0275 56.3526 47.8349 56.5217 47.6732C56.6909 47.5115 56.8923 47.384 57.1141 47.2984C57.3359 47.2128 57.5735 47.1707 57.8127 47.1747C58.0518 47.1788 58.2877 47.2288 58.5062 47.3219C58.7247 47.415 58.9214 47.5491 59.0844 47.7164L63.7632 52.1892V38.7028C63.7632 38.2512 63.9508 37.8181 64.2849 37.4987C64.6189 37.1794 65.072 37 65.5444 37Z" fill="#00BBFF"/>
</g>
</g>
<defs>
<filter id="filter0_d_309_87" x="0" y="0" width="111" height="111" filterUnits="userSpaceOnUse" color-interpolation-filters="sRGB">
<feFlood flood-opacity="0" result="BackgroundImageFix"/>
<feColorMatrix in="SourceAlpha" type="matrix" values="0 0 0 0 0 0 0 0 0 0 0 0 0 0 0 0 0 0 127 0" result="hardAlpha"/>
<feOffset dx="8" dy="18"/>
<feGaussianBlur stdDeviation="12"/>
<feComposite in2="hardAlpha" operator="out"/>
<feColorMatrix type="matrix" values="0 0 0 0 0 0 0 0 0 0 0 0 0 0 0 0 0 0 0.1 0"/>
<feBlend mode="normal" in2="BackgroundImageFix" result="effect1_dropShadow_309_87"/>
<feBlend mode="normal" in="SourceGraphic" in2="effect1_dropShadow_309_87" result="shape"/>
</filter>
<filter id="filter1_di_309_87" x="27" y="25" width="37" height="30" filterUnits="userSpaceOnUse" color-interpolation-filters="sRGB">
<feFlood flood-opacity="0" result="BackgroundImageFix"/>
<feColorMatrix in="SourceAlpha" type="matrix" values="0 0 0 0 0 0 0 0 0 0 0 0 0 0 0 0 0 0 127 0" result="hardAlpha"/>
<feOffset dy="2"/>
<feGaussianBlur stdDeviation="1"/>
<feComposite in2="hardAlpha" operator="out"/>
<feColorMatrix type="matrix" values="0 0 0 0 0 0 0 0 0 0 0 0 0 0 0 0 0 0 0.15 0"/>
<feBlend mode="normal" in2="BackgroundImageFix" result="effect1_dropShadow_309_87"/>
<feBlend mode="normal" in="SourceGraphic" in2="effect1_dropShadow_309_87" result="shape"/>
<feColorMatrix in="SourceAlpha" type="matrix" values="0 0 0 0 0 0 0 0 0 0 0 0 0 0 0 0 0 0 127 0" result="hardAlpha"/>
<feOffset dy="-1"/>
<feGaussianBlur stdDeviation="1"/>
<feComposite in2="hardAlpha" operator="arithmetic" k2="-1" k3="1"/>
<feColorMatrix type="matrix" values="0 0 0 0 0.85 0 0 0 0 0.371966 0 0 0 0 0.0566667 0 0 0 1 0"/>
<feBlend mode="normal" in2="shape" result="effect2_innerShadow_309_87"/>
</filter>
<filter id="filter2_i_309_87" x="56" y="37" width="19" height="21" filterUnits="userSpaceOnUse" color-interpolation-filters="sRGB">
<feFlood flood-opacity="0" result="BackgroundImageFix"/>
<feBlend mode="normal" in="SourceGraphic" in2="BackgroundImageFix" result="shape"/>
<feColorMatrix in="SourceAlpha" type="matrix" values="0 0 0 0 0 0 0 0 0 0 0 0 0 0 0 0 0 0 127 0" result="hardAlpha"/>
<feOffset/>
<feGaussianBlur stdDeviation="1.5"/>
<feComposite in2="hardAlpha" operator="arithmetic" k2="-1" k3="1"/>
<feColorMatrix type="matrix" values="0 0 0 0 0 0 0 0 0 0.501111 0 0 0 0 0.683333 0 0 0 1 0"/>
<feBlend mode="normal" in2="shape" result="effect1_innerShadow_309_87"/>
</filter>
<linearGradient id="paint0_linear_309_87" x1="37.6313" y1="18.2611" x2="-9.51898" y2="-50.4209" gradientUnits="userSpaceOnUse">
<stop stop-color="white"/>
<stop offset="1" stop-color="#889BAD"/>
</linearGradient>
<linearGradient id="paint1_linear_309_87" x1="88.1724" y1="25.4505" x2="51.514" y2="24.2907" gradientUnits="userSpaceOnUse">
<stop stop-color="#FD7013"/>
<stop offset="1" stop-color="#FF8C40"/>
</linearGradient>
</defs>
</svg>
