<svg width="22" height="27" viewBox="0 0 22 27" fill="none" xmlns="http://www.w3.org/2000/svg">
<path d="M21 12V17C21 17.7956 20.6839 18.5587 20.1213 19.1213C19.5587 19.6839 18.7956 20 18 20H4C3.20435 20 2.44129 19.6839 1.87868 19.1213C1.31607 18.5587 1 17.7956 1 17V12H21ZM17 15H14C13.7348 15 13.4804 15.1054 13.2929 15.2929C13.1054 15.4804 13 15.7348 13 16C13 16.2652 13.1054 16.5196 13.2929 16.7071C13.4804 16.8946 13.7348 17 14 17H17C17.2652 17 17.5196 16.8946 17.7071 16.7071C17.8946 16.5196 18 16.2652 18 16C18 15.7348 17.8946 15.4804 17.7071 15.2929C17.5196 15.1054 17.2652 15 17 15ZM18 6C18.7956 6 19.5587 6.31607 20.1213 6.87868C20.6839 7.44129 21 8.20435 21 9V10H1V9C1 8.20435 1.31607 7.44129 1.87868 6.87868C2.44129 6.31607 3.20435 6 4 6H18Z" fill="#0F172B"/>
<path d="M11.0752 3.5C11.4084 3.5 11.7329 3.61073 11.9932 3.81543L12.1006 3.90918L12.1025 3.91113L15.0654 6.79102L15.1621 6.89453C15.2539 7.00201 15.3295 7.12258 15.3857 7.25293V7.25391L15.4355 7.38672C15.4781 7.52167 15.5 7.66251 15.5 7.80469C15.5 7.94716 15.4783 8.08843 15.4355 8.22363L15.3857 8.35645C15.3295 8.48681 15.2539 8.60735 15.1621 8.71484L15.0654 8.81836C14.9631 8.91668 14.8464 8.99884 14.7207 9.06348L14.5918 9.12207C14.4161 9.19203 14.2282 9.2285 14.0391 9.22852C13.8972 9.22852 13.7559 9.20852 13.6201 9.16895L13.4863 9.12207C13.3106 9.05209 13.1492 8.94952 13.0127 8.81836L13.0078 8.81348L12.5361 8.34766V11.0771C12.536 11.413 12.4145 11.7338 12.1992 11.9863L12.1016 12.0898C11.8262 12.3544 11.4563 12.5 11.0752 12.5C10.6941 12.5 10.3251 12.3544 10.0498 12.0898C9.7739 11.8247 9.61436 11.461 9.61426 11.0771V8.2627L8.98633 8.81738L8.9873 8.81836C8.71192 9.083 8.34215 9.22852 7.96094 9.22852C7.62757 9.2285 7.30329 9.11701 7.04297 8.91211L6.93457 8.81836C6.65864 8.55309 6.5 8.1887 6.5 7.80469L6.50781 7.66211C6.54195 7.33142 6.69304 7.02319 6.93457 6.79102L6.94141 6.78418L7.28125 7.15137L6.94238 6.78516L10.0498 3.91016V3.90918C10.325 3.64502 10.6944 3.50004 11.0752 3.5Z" fill="#0F172B" stroke="white"/>
</svg>
