<svg width="22" height="23" viewBox="0 0 22 23" fill="none" xmlns="http://www.w3.org/2000/svg">
<path fill-rule="evenodd" clip-rule="evenodd" d="M3 12.0133C3 7.79822 6.36855 4 11.0173 4C15.562 4 19.0026 7.72621 19.0026 11.9893C19.0026 16.9341 14.9699 20.0026 11.0013 20.0026C9.68909 20.0026 8.23285 19.6505 7.06466 18.9608C6.6566 18.7128 6.31254 18.5288 5.87247 18.6728L4.2562 19.1529C3.84814 19.2809 3.48008 18.9608 3.6001 18.5288L4.13619 16.7333C4.2242 16.4852 4.2082 16.2204 4.08018 16.0116C3.39206 14.7457 3 13.3591 3 12.0133Z" fill="#0F172B"/>
<path d="M10.9862 13.0471C10.4181 13.0391 9.96204 12.5822 9.96204 12.0133C9.96204 11.4524 10.4261 10.9875 10.9862 10.9955C11.2512 11.006 11.5019 11.1186 11.6858 11.3099C11.8696 11.5011 11.9722 11.756 11.9722 12.0213C11.9722 12.2865 11.8696 12.5415 11.6858 12.7327C11.5019 12.9239 11.2512 13.0366 10.9862 13.0471Z" fill="white"/>
<path d="M14.6748 13.0471C14.1067 13.0471 13.6506 12.5822 13.6506 12.0213C13.6506 11.4524 14.1067 10.9955 14.6748 10.9955C14.9398 11.006 15.1905 11.1186 15.3744 11.3099C15.5582 11.5011 15.6608 11.756 15.6608 12.0213C15.6608 12.2865 15.5582 12.5415 15.3744 12.7327C15.1905 12.9239 14.9398 13.0366 14.6748 13.0471Z" fill="white"/>
<path d="M6.27344 12.0213C6.27344 12.583 6.73751 13.0471 7.2976 13.0471C7.56886 13.045 7.82838 12.9362 8.02005 12.7442C8.21171 12.5522 8.3201 12.2925 8.32177 12.0213C8.32177 11.4524 7.8657 10.9955 7.2976 10.9955C6.72951 10.9955 6.27344 11.4524 6.27344 12.0213Z" fill="white"/>
</svg>
