<svg width="22" height="27" viewBox="0 0 22 27" fill="none" xmlns="http://www.w3.org/2000/svg">
<path fill-rule="evenodd" clip-rule="evenodd" d="M8.768 5C9.03779 5.00003 9.30412 5.05996 9.5473 5.17536C9.79048 5.29075 10.0043 5.45866 10.1729 5.66667L11.4329 7.22222H18.2C18.6774 7.22222 19.1352 7.40952 19.4728 7.74292C19.8104 8.07632 20 8.5285 20 9V19.2222C20 19.6937 19.8104 20.1459 19.4728 20.4793C19.1352 20.8127 18.6774 21 18.2 21H3.8C3.32261 21 2.86477 20.8127 2.52721 20.4793C2.18964 20.1459 2 19.6937 2 19.2222V6.77778C2 6.30628 2.18964 5.8541 2.52721 5.5207C2.86477 5.1873 3.32261 5 3.8 5H8.768ZM10.991 12.1111H10.1C9.87061 12.1114 9.64997 12.1981 9.48317 12.3536C9.31637 12.5092 9.21599 12.7217 9.20254 12.9479C9.1891 13.1741 9.26361 13.3968 9.41084 13.5705C9.55807 13.7443 9.76691 13.8559 9.9947 13.8827L10.1 13.8889V17.4356C10.1 17.8978 10.4546 18.28 10.91 18.328L11.009 18.3333H11.45C11.6393 18.3333 11.8237 18.2744 11.9772 18.1649C12.1306 18.0554 12.2451 17.9009 12.3045 17.7234C12.3639 17.5459 12.3652 17.3545 12.3081 17.1762C12.2509 16.998 12.1384 16.8421 11.9864 16.7307L11.9 16.6747V13.0089C11.9 12.5467 11.5454 12.1644 11.09 12.1164L10.991 12.1111ZM11 9.44444C10.7613 9.44444 10.5324 9.53809 10.3636 9.70479C10.1948 9.87149 10.1 10.0976 10.1 10.3333C10.1 10.5691 10.1948 10.7952 10.3636 10.9619C10.5324 11.1286 10.7613 11.2222 11 11.2222C11.2387 11.2222 11.4676 11.1286 11.6364 10.9619C11.8052 10.7952 11.9 10.5691 11.9 10.3333C11.9 10.0976 11.8052 9.87149 11.6364 9.70479C11.4676 9.53809 11.2387 9.44444 11 9.44444Z" fill="#0F172B"/>
</svg>
