<svg width="22" height="27" viewBox="0 0 22 27" fill="none" xmlns="http://www.w3.org/2000/svg">
<path d="M1.83301 13.1667C1.83301 8.8455 1.83301 6.68492 3.17501 5.342C4.51884 4 6.67851 4 10.9997 4C15.3208 4 17.4814 4 18.8234 5.342C20.1663 6.68583 20.1663 8.8455 20.1663 13.1667C20.1663 17.4878 20.1663 19.6484 18.8234 20.9904C17.4823 22.3333 15.3208 22.3333 10.9997 22.3333C6.67851 22.3333 4.51792 22.3333 3.17501 20.9904C1.83301 19.6493 1.83301 17.4878 1.83301 13.1667Z" fill="#FF6900"/>
<path fill-rule="evenodd" clip-rule="evenodd" d="M13.4874 12.1587C13.4874 12.5521 13.41 12.9415 13.2595 13.3049C13.109 13.6683 12.8884 13.9984 12.6103 14.2765C12.3322 14.5547 12.0021 14.7753 11.6387 14.9258C11.2754 15.0763 10.886 15.1538 10.4927 15.1538C10.0994 15.1538 9.70997 15.0763 9.34663 14.9258C8.98329 14.7753 8.65315 14.5547 8.37506 14.2765C8.09697 13.9984 7.87638 13.6683 7.72588 13.3049C7.57538 12.9415 7.49791 12.5521 7.49791 12.1587C7.49791 11.3644 7.81343 10.6026 8.37506 10.0409C8.93669 9.47926 9.69842 9.16371 10.4927 9.16371C11.2869 9.16371 12.0487 9.47926 12.6103 10.0409C13.1719 10.6026 13.4874 11.3644 13.4874 12.1587ZM13.0951 15.8207C12.1771 16.4734 11.0474 16.7574 9.92983 16.6164C8.81229 16.4754 7.7885 15.9197 7.06137 15.0593C6.33423 14.199 5.95682 13.0968 6.00393 11.9713C6.05104 10.8458 6.51924 9.77905 7.31572 8.9825C8.11221 8.18594 9.17885 7.7177 10.3043 7.67059C11.4297 7.62348 12.5317 8.00092 13.392 8.72812C14.2523 9.45532 14.808 10.4792 14.949 11.5968C15.09 12.7145 14.806 13.8443 14.1533 14.7624L16.7617 17.3701C16.8353 17.4386 16.8943 17.5213 16.9352 17.6132C16.9761 17.705 16.9981 17.8042 16.9999 17.9047C17.0017 18.0052 16.9832 18.1051 16.9455 18.1983C16.9079 18.2916 16.8518 18.3762 16.7807 18.4473C16.7096 18.5184 16.6249 18.5745 16.5317 18.6122C16.4385 18.6498 16.3386 18.6683 16.2381 18.6665C16.1376 18.6648 16.0384 18.6428 15.9466 18.6018C15.8548 18.5609 15.7721 18.5019 15.7036 18.4283L13.0951 15.8207Z" fill="white"/>
</svg>
