<svg width="22" height="23" viewBox="0 0 22 23" fill="none" xmlns="http://www.w3.org/2000/svg">
<rect width="22" height="23" fill="#686868"/>
<g id="SMS">
<rect width="1440" height="1611" transform="translate(-1324 -564)" fill="white"/>
<g id="Group 1149">
<g id="Rectangle 283" filter="url(#filter0_d_0_1)">
<rect x="-34" y="-423" width="90" height="660" rx="20" fill="white"/>
<rect x="-33.5" y="-422.5" width="89" height="659" rx="19.5" stroke="#E8EDF1"/>
</g>
<g id="Frame 344">
<g id="svgviewer-output (4) 1">
<g id="Group 1036">
<path id="Vector" fill-rule="evenodd" clip-rule="evenodd" d="M3 12.0729C3 7.85779 6.36855 4.05957 11.0173 4.05957C15.562 4.05957 19.0026 7.78578 19.0026 12.0489C19.0026 16.9937 14.9699 20.0622 11.0013 20.0622C9.68909 20.0622 8.23285 19.7101 7.06466 19.0204C6.6566 18.7724 6.31254 18.5883 5.87247 18.7324L4.2562 19.2124C3.84814 19.3405 3.48008 19.0204 3.6001 18.5883L4.13619 16.7928C4.2242 16.5448 4.2082 16.28 4.08018 16.0711C3.39206 14.8053 3 13.4187 3 12.0729Z" fill="#FD7013"/>
</g>
<g id="SMS_2">
<path d="M7.80047 11.0044C7.73565 11.1189 7.62544 11.1761 7.46986 11.1761C7.40071 11.1761 7.33805 11.1639 7.28187 11.1393C7.22568 11.1148 7.16734 11.0882 7.10684 11.0596C7.05065 11.0309 6.99015 11.0044 6.92532 10.9798C6.8605 10.9553 6.78271 10.943 6.69195 10.943C6.46722 10.943 6.35486 11.0371 6.35486 11.2252C6.35486 11.3029 6.39807 11.3663 6.48451 11.4154C6.57094 11.4645 6.67899 11.5115 6.80864 11.5565C6.94261 11.6015 7.08523 11.6506 7.23649 11.7037C7.38775 11.7528 7.5282 11.8203 7.65785 11.9062C7.79183 11.9921 7.90203 12.1025 7.98847 12.2375C8.0749 12.3684 8.11812 12.534 8.11812 12.7344C8.11812 12.9185 8.08138 13.0902 8.00791 13.2498C7.93877 13.4093 7.83721 13.5504 7.70323 13.6731C7.56926 13.7917 7.40287 13.8857 7.20407 13.9553C7.0096 14.0248 6.78703 14.0596 6.53637 14.0596C6.39807 14.0596 6.25762 14.0453 6.115 14.0166C5.97239 13.988 5.83409 13.9471 5.70012 13.8939C5.56614 13.8408 5.43865 13.7794 5.31765 13.7099C5.19664 13.6403 5.09076 13.5626 5 13.4767L5.30468 13.0166C5.33493 12.9798 5.38031 12.9471 5.44081 12.9185C5.50564 12.8857 5.57695 12.8694 5.65474 12.8694C5.73685 12.8694 5.81032 12.8857 5.87515 12.9185C5.93997 12.9512 6.0048 12.988 6.06962 13.0289C6.13877 13.0657 6.21008 13.1005 6.28355 13.1332C6.36134 13.1659 6.4521 13.1823 6.55582 13.1823C6.66818 13.1823 6.75678 13.1557 6.8216 13.1025C6.88643 13.0493 6.91884 12.9635 6.91884 12.8448C6.91884 12.7508 6.87562 12.6772 6.78919 12.624C6.70276 12.5708 6.59471 12.5238 6.46506 12.4829C6.33541 12.4379 6.19495 12.3929 6.04369 12.3479C5.89243 12.2988 5.75198 12.2313 5.62233 12.1455C5.49268 12.0596 5.38463 11.9471 5.2982 11.808C5.21176 11.669 5.16855 11.487 5.16855 11.262C5.16855 11.1107 5.20096 10.9635 5.26579 10.8203C5.33493 10.6731 5.43433 10.5442 5.56398 10.4338C5.69364 10.3193 5.85138 10.2293 6.03721 10.1639C6.22737 10.0943 6.44345 10.0596 6.68547 10.0596C6.95342 10.0596 7.2084 10.1025 7.45041 10.1884C7.69675 10.2743 7.90419 10.3929 8.07274 10.5442L7.80047 11.0044Z" fill="white"/>
<path d="M13.3874 10.1087V14.0166H12.2529V12.1087C12.1362 12.3295 12.0174 12.5463 11.8964 12.759C11.7797 12.9716 11.663 13.1864 11.5463 13.4031C11.4988 13.4727 11.4361 13.5299 11.3583 13.5749C11.2805 13.6158 11.1855 13.6363 11.0731 13.6363H10.9564C10.7274 13.6363 10.5696 13.5585 10.4832 13.4031L9.77659 12.0902V14.0166H8.64214V10.1087H9.49784C9.61453 10.1087 9.70744 10.1189 9.77659 10.1393C9.85006 10.1557 9.90624 10.2048 9.94514 10.2866L11.0083 12.2682L12.0779 10.2866C12.1298 10.1966 12.1859 10.1455 12.2465 10.1332C12.3113 10.1168 12.4064 10.1087 12.5317 10.1087H13.3874Z" fill="white"/>
<path d="M16.6824 11.0044C16.6175 11.1189 16.5073 11.1761 16.3517 11.1761C16.2826 11.1761 16.2199 11.1639 16.1637 11.1393C16.1076 11.1148 16.0492 11.0882 15.9887 11.0596C15.9325 11.0309 15.872 11.0044 15.8072 10.9798C15.7424 10.9553 15.6646 10.943 15.5738 10.943C15.3491 10.943 15.2367 11.0371 15.2367 11.2252C15.2367 11.3029 15.28 11.3663 15.3664 11.4154C15.4528 11.4645 15.5609 11.5115 15.6905 11.5565C15.8245 11.6015 15.9671 11.6506 16.1184 11.7037C16.2696 11.7528 16.4101 11.8203 16.5397 11.9062C16.6737 11.9921 16.7839 12.1025 16.8703 12.2375C16.9568 12.3684 17 12.534 17 12.7344C17 12.9185 16.9633 13.0902 16.8898 13.2498C16.8206 13.4093 16.7191 13.5504 16.5851 13.6731C16.4511 13.7917 16.2848 13.8857 16.086 13.9553C15.8915 14.0248 15.6689 14.0596 15.4183 14.0596C15.28 14.0596 15.1395 14.0453 14.9969 14.0166C14.8543 13.988 14.716 13.9471 14.582 13.8939C14.448 13.8408 14.3205 13.7794 14.1995 13.7099C14.0785 13.6403 13.9726 13.5626 13.8819 13.4767L14.1866 13.0166C14.2168 12.9798 14.2622 12.9471 14.3227 12.9185C14.3875 12.8857 14.4588 12.8694 14.5366 12.8694C14.6187 12.8694 14.6922 12.8857 14.757 12.9185C14.8219 12.9512 14.8867 12.988 14.9515 13.0289C15.0207 13.0657 15.092 13.1005 15.1654 13.1332C15.2432 13.1659 15.334 13.1823 15.4377 13.1823C15.5501 13.1823 15.6387 13.1557 15.7035 13.1025C15.7683 13.0493 15.8007 12.9635 15.8007 12.8448C15.8007 12.7508 15.7575 12.6772 15.6711 12.624C15.5846 12.5708 15.4766 12.5238 15.3469 12.4829C15.2173 12.4379 15.0768 12.3929 14.9256 12.3479C14.7743 12.2988 14.6339 12.2313 14.5042 12.1455C14.3746 12.0596 14.2665 11.9471 14.1801 11.808C14.0936 11.669 14.0504 11.487 14.0504 11.262C14.0504 11.1107 14.0828 10.9635 14.1477 10.8203C14.2168 10.6731 14.3162 10.5442 14.4459 10.4338C14.5755 10.3193 14.7333 10.2293 14.9191 10.1639C15.1093 10.0943 15.3253 10.0596 15.5674 10.0596C15.8353 10.0596 16.0903 10.1025 16.3323 10.1884C16.5786 10.2743 16.7861 10.3929 16.9546 10.5442L16.6824 11.0044Z" fill="white"/>
</g>
</g>
</g>
</g>
</g>
<defs>
<filter id="filter0_d_0_1" x="-34" y="-423" width="90" height="662" filterUnits="userSpaceOnUse" color-interpolation-filters="sRGB">
<feFlood flood-opacity="0" result="BackgroundImageFix"/>
<feColorMatrix in="SourceAlpha" type="matrix" values="0 0 0 0 0 0 0 0 0 0 0 0 0 0 0 0 0 0 127 0" result="hardAlpha"/>
<feOffset dy="2"/>
<feComposite in2="hardAlpha" operator="out"/>
<feColorMatrix type="matrix" values="0 0 0 0 0.909804 0 0 0 0 0.929412 0 0 0 0 0.945098 0 0 0 1 0"/>
<feBlend mode="normal" in2="BackgroundImageFix" result="effect1_dropShadow_0_1"/>
<feBlend mode="normal" in="SourceGraphic" in2="effect1_dropShadow_0_1" result="shape"/>
</filter>
</defs>
</svg>
