<svg width="22" height="28" viewBox="0 0 22 28" fill="none" xmlns="http://www.w3.org/2000/svg">
<rect width="22" height="28" fill="#686868"/>
<g id=" Tickets ">
<rect width="1440" height="1457" transform="translate(-1324 -513)" fill="white"/>
<g id="Group 1149">
<g id="Rectangle 283" filter="url(#filter0_d_0_1)">
<rect x="-34" y="-372" width="90" height="660" rx="20" fill="white"/>
<rect x="-33.5" y="-371.5" width="89" height="659" rx="19.5" stroke="#E8EDF1"/>
</g>
<g id="Frame 344">
<g id="Frame 345">
<g id="Frame 490">
<g id="support-admin-icon-gray-vector-graphics_965649-13105 1">
<g id="Group 1401">
<path id="Vector" d="M9.44999 22.9768C10.6548 22.9477 11.5501 22.4343 11.9186 21.1919C12.4823 19.2932 11.3676 17.7032 9.47656 17.6875C8.68873 17.6814 7.90091 17.7711 7.11308 17.7529C6.6614 17.742 6.21204 17.6027 5.6899 17.5071C5.6899 16.2937 5.71416 15.1264 5.67835 13.9603C5.66449 13.4881 5.48659 13.0219 5.44616 12.5472C5.41035 12.1258 5.33295 11.6269 5.49814 11.2806C6.61635 8.93987 8.4681 7.71806 10.961 7.71564C13.4469 7.71322 15.2409 8.99436 16.3487 11.2963C16.515 11.6426 16.4365 12.1415 16.403 12.5629C16.3649 13.0376 16.1812 13.5062 16.1789 13.9773C16.1731 15.7307 16.217 17.4853 16.2355 19.2387C16.2366 19.3537 16.2101 19.4857 16.1546 19.5838C15.1323 21.3432 13.8235 22.7334 11.8343 23.2347C11.0222 23.4393 10.2355 23.311 9.44884 22.9756L9.44999 22.9768Z" fill="#FF6900"/>
<path id="Vector_2" d="M20.8282 16.1449C20.8282 16.9526 20.8421 17.7602 20.8236 18.5667C20.8074 19.2484 20.5002 19.5681 19.8671 19.5948C19.464 19.6117 19.0585 19.6093 18.6542 19.5911C18.0512 19.5645 17.7081 19.2375 17.7012 18.6164C17.6827 16.9816 17.6723 15.3457 17.7139 13.7122C17.7208 13.4203 17.9241 13.0159 18.1551 12.8754C18.5317 12.6453 18.5502 12.4104 18.452 12.0423C17.6053 8.86245 15.6392 6.84507 12.6045 6.07251C8.57992 5.04929 4.40858 7.78716 3.40358 12.0023C3.31117 12.3886 3.29731 12.6284 3.70277 12.8778C3.94998 13.0304 4.13365 13.499 4.14405 13.832C4.19026 15.3445 4.17986 16.8593 4.1556 18.373C4.14751 18.8307 4.31155 19.0244 4.72048 19.1092C5.36045 19.2436 5.98771 19.4579 6.63114 19.5633C6.98693 19.6214 7.36467 19.5136 7.73317 19.5052C8.36852 19.4918 9.00386 19.4943 9.63921 19.5003C10.1336 19.5052 10.2884 19.803 10.2919 20.2898C10.2953 20.7681 10.1683 21.0927 9.66809 21.1048C9.03274 21.1193 8.3974 21.112 7.76205 21.1048C7.65116 21.1036 7.52871 21.0757 7.43167 21.0212C5.79941 20.1239 4.04008 19.7243 2.21953 19.6045C1.31041 19.5451 1.03548 19.3114 1.03201 18.3814C1.02624 16.869 1.03663 15.3554 1.02739 13.8417C1.02392 13.2968 1.21337 12.9348 1.71125 12.7059C1.88568 12.6248 2.04048 12.3438 2.08553 12.1271C3.00851 7.66002 6.56414 4.60973 10.9249 4.56008C15.1459 4.51286 18.921 7.72783 19.7112 12.0641C19.7782 12.4334 19.8533 12.6792 20.2495 12.7822C20.678 12.8948 20.8271 13.2787 20.8282 13.7218C20.8294 14.5295 20.8282 15.3372 20.8282 16.1437V16.1449Z" fill="#FF6900"/>
</g>
</g>
</g>
</g>
</g>
</g>
</g>
<defs>
<filter id="filter0_d_0_1" x="-34" y="-372" width="90" height="662" filterUnits="userSpaceOnUse" color-interpolation-filters="sRGB">
<feFlood flood-opacity="0" result="BackgroundImageFix"/>
<feColorMatrix in="SourceAlpha" type="matrix" values="0 0 0 0 0 0 0 0 0 0 0 0 0 0 0 0 0 0 127 0" result="hardAlpha"/>
<feOffset dy="2"/>
<feComposite in2="hardAlpha" operator="out"/>
<feColorMatrix type="matrix" values="0 0 0 0 0.909804 0 0 0 0 0.929412 0 0 0 0 0.945098 0 0 0 1 0"/>
<feBlend mode="normal" in2="BackgroundImageFix" result="effect1_dropShadow_0_1"/>
<feBlend mode="normal" in="SourceGraphic" in2="effect1_dropShadow_0_1" result="shape"/>
</filter>
</defs>
</svg>
