<svg width="22" height="28" viewBox="0 0 22 28" fill="none" xmlns="http://www.w3.org/2000/svg">
<path d="M19.2166 11.1429C19.1451 9.4269 18.9159 8.37457 18.1744 7.6339C17.1009 6.55957 15.3721 6.55957 11.9154 6.55957H9.16537C5.70862 6.55957 3.97978 6.55957 2.90636 7.6339C1.83295 8.70824 1.83203 10.4362 1.83203 13.8929C1.83203 17.3497 1.83203 19.0785 2.90636 20.1519C3.9807 21.2253 5.70862 21.2262 9.16537 21.2262H11.9154C15.3721 21.2262 17.1009 21.2262 18.1744 20.1519C18.9159 19.4112 19.146 18.3589 19.2166 16.6429" fill="#FD7013"/>
<path d="M19.0969 11.1429H16.7118C15.0755 11.1429 13.75 12.374 13.75 13.8929C13.75 15.4118 15.0764 16.6429 16.7108 16.6429H19.0969C19.1739 16.6429 19.2115 16.6429 19.2436 16.6411C19.7386 16.6108 20.1327 16.245 20.1648 15.7858C20.1667 15.7565 20.1667 15.7207 20.1667 15.6501V12.1356C20.1667 12.0651 20.1667 12.0293 20.1648 12C20.1318 11.5407 19.7386 11.175 19.2436 11.1447C19.2115 11.1429 19.1739 11.1429 19.0969 11.1429Z" fill="white" stroke="#FD7013" stroke-width="1.5"/>
<path d="M5.5 10.2263H9.16667" stroke="white" stroke-width="1.5" stroke-linecap="round" stroke-linejoin="round"/>
<path d="M16.4922 13.8929H16.5004" stroke="#FD7013" stroke-width="2" stroke-linecap="round" stroke-linejoin="round"/>
</svg>
