<svg width="150" height="111" viewBox="0 0 150 111" fill="none" xmlns="http://www.w3.org/2000/svg">
<path d="M112 10.293L96.9136 10.293C85.8679 10.293 76.9136 19.2473 76.9136 30.293L76.9136 79.293C76.9136 90.3387 67.9593 99.293 56.9136 99.293L43 99.293" stroke="url(#paint0_linear_59935_32256)" stroke-width="5"/>
<rect y="88.293" width="51" height="22" rx="11" fill="#FFEDD4"/>
<path d="M10.0753 99.313C10.3153 99.313 10.4873 99.261 10.5913 99.157C10.6953 99.045 10.7473 98.893 10.7473 98.701V97.993H10.1953C9.91527 97.993 9.72727 98.065 9.63127 98.209C9.54327 98.345 9.49927 98.521 9.49927 98.737C9.49927 98.921 9.53927 99.065 9.61927 99.169C9.69927 99.265 9.85127 99.313 10.0753 99.313ZM12.2113 99.049C12.2113 99.449 12.3873 99.649 12.7393 99.649H13.0633C13.1673 99.649 13.2353 99.713 13.2673 99.841C13.3073 99.969 13.3273 100.169 13.3273 100.441C13.3273 100.737 13.3073 100.953 13.2673 101.089C13.2353 101.225 13.1673 101.293 13.0633 101.293H12.7393C12.3073 101.293 11.9673 101.225 11.7193 101.089C11.4713 100.953 11.2793 100.737 11.1433 100.441C10.9433 100.641 10.7193 100.769 10.4713 100.825C10.2313 100.873 9.99527 100.897 9.76327 100.897C9.20327 100.897 8.77527 100.721 8.47927 100.369C8.19127 100.017 8.04727 99.509 8.04727 98.845C8.04727 98.549 8.08727 98.261 8.16727 97.981C8.25527 97.693 8.37927 97.437 8.53927 97.213C8.70727 96.989 8.91527 96.809 9.16327 96.673C9.41127 96.537 9.69927 96.469 10.0273 96.469H10.7473V95.677H12.2113V99.049ZM13.8525 99.649C14.0845 99.649 14.2525 99.597 14.3565 99.493C14.4605 99.381 14.5125 99.209 14.5125 98.977V97.729H16.0365V98.977C16.0365 99.209 16.1085 99.381 16.2525 99.493C16.3965 99.597 16.5845 99.649 16.8165 99.649H17.0805C17.2645 99.649 17.3565 99.913 17.3565 100.441C17.3565 101.009 17.2645 101.293 17.0805 101.293H16.7565C16.4525 101.293 16.1725 101.249 15.9165 101.161C15.6685 101.065 15.4445 100.865 15.2445 100.561C15.0365 100.865 14.8165 101.065 14.5845 101.161C14.3605 101.249 14.1165 101.293 13.8525 101.293H13.0605C12.9565 101.293 12.8885 101.229 12.8565 101.101C12.8165 100.965 12.7965 100.765 12.7965 100.501C12.7965 100.197 12.8165 99.981 12.8565 99.853C12.8885 99.717 12.9565 99.649 13.0605 99.649H13.8525ZM16.7445 96.409H15.2925V95.017H16.7445V96.409ZM14.8965 96.409H13.4445V95.017H14.8965V96.409ZM17.6801 99.649C18.1201 99.649 18.3401 99.425 18.3401 98.977V97.729H19.8521V98.977C19.8521 99.209 19.9201 99.381 20.0561 99.493C20.2001 99.597 20.3721 99.649 20.5721 99.649C20.8361 99.649 21.0241 99.597 21.1361 99.493C21.2481 99.381 21.3041 99.209 21.3041 98.977V97.729H22.8281V98.977C22.8281 99.209 22.8841 99.381 22.9961 99.493C23.1161 99.597 23.2561 99.649 23.4161 99.649C23.8081 99.649 24.0041 99.425 24.0041 98.977V97.729H25.5281V98.977C25.5281 99.209 25.6001 99.381 25.7441 99.493C25.8881 99.597 26.0601 99.649 26.2601 99.649H26.5841C26.6881 99.649 26.7561 99.713 26.7881 99.841C26.8281 99.969 26.8481 100.169 26.8481 100.441C26.8481 100.737 26.8281 100.953 26.7881 101.089C26.7561 101.225 26.6881 101.293 26.5841 101.293H26.2601C25.9561 101.293 25.6761 101.249 25.4201 101.161C25.1641 101.065 24.9361 100.865 24.7361 100.561C24.5361 100.865 24.3161 101.065 24.0761 101.161C23.8361 101.249 23.6161 101.293 23.4161 101.293C23.1521 101.293 22.9041 101.249 22.6721 101.161C22.4481 101.065 22.2361 100.865 22.0361 100.561C21.8361 100.865 21.6081 101.065 21.3521 101.161C21.0961 101.249 20.8361 101.293 20.5721 101.293C20.2761 101.293 20.0001 101.249 19.7441 101.161C19.4881 101.065 19.2601 100.865 19.0601 100.561C18.8601 100.865 18.6441 101.065 18.4121 101.161C18.1881 101.249 17.9441 101.293 17.6801 101.293H17.0801C16.9761 101.293 16.9081 101.229 16.8761 101.101C16.8361 100.965 16.8161 100.765 16.8161 100.501C16.8161 100.197 16.8361 99.981 16.8761 99.853C16.9081 99.717 16.9761 99.649 17.0801 99.649H17.6801ZM22.7681 94.561H21.3041V93.181H22.7681V94.561ZM23.6801 96.409H22.2281V95.017H23.6801V96.409ZM21.8321 96.409H20.3801V95.017H21.8321V96.409ZM29.428 99.649C29.556 99.649 29.64 99.621 29.68 99.565C29.728 99.509 29.752 99.449 29.752 99.385C29.752 99.281 29.732 99.189 29.692 99.109C29.66 99.029 29.592 98.941 29.488 98.845L27.436 96.805V95.089L31.408 93.637L31.732 95.149L28.9 96.145L30.412 97.669C30.604 97.869 30.764 98.053 30.892 98.221C31.02 98.389 31.12 98.553 31.192 98.713C31.272 98.865 31.328 99.017 31.36 99.169C31.392 99.321 31.408 99.481 31.408 99.649C31.408 99.945 31.36 100.197 31.264 100.405C31.168 100.613 31.04 100.785 30.88 100.921C30.72 101.049 30.532 101.145 30.316 101.209C30.1 101.265 29.868 101.293 29.62 101.293H26.584C26.48 101.293 26.412 101.229 26.38 101.101C26.34 100.965 26.32 100.765 26.32 100.501C26.32 100.197 26.34 99.981 26.38 99.853C26.412 99.717 26.48 99.649 26.584 99.649H29.428ZM34.446 101.101C34.446 101.509 34.37 101.901 34.218 102.277C34.074 102.653 33.87 102.981 33.606 103.261C33.35 103.549 33.042 103.777 32.682 103.945C32.33 104.113 31.946 104.197 31.53 104.197H30.738L30.678 102.553H31.134C31.47 102.553 31.754 102.509 31.986 102.421C32.21 102.341 32.39 102.233 32.526 102.097C32.67 101.961 32.77 101.805 32.826 101.629C32.89 101.461 32.922 101.285 32.922 101.101V97.729H34.446V101.101ZM37.4809 101.293C37.2489 101.293 37.0289 101.265 36.8209 101.209C36.6129 101.145 36.4289 101.041 36.2689 100.897C36.1169 100.753 35.9929 100.565 35.8969 100.333C35.8089 100.093 35.7649 99.797 35.7649 99.445V93.853H37.2889V99.049C37.2889 99.449 37.4649 99.649 37.8169 99.649H38.1409C38.3169 99.649 38.4049 99.913 38.4049 100.441C38.4049 101.009 38.3169 101.293 38.1409 101.293H37.4809ZM40.9827 99.649C41.1107 99.649 41.1947 99.621 41.2347 99.565C41.2827 99.509 41.3067 99.449 41.3067 99.385C41.3067 99.281 41.2867 99.189 41.2467 99.109C41.2147 99.029 41.1467 98.941 41.0427 98.845L38.9907 96.805V95.089L42.9627 93.637L43.2867 95.149L40.4547 96.145L41.9667 97.669C42.1587 97.869 42.3187 98.053 42.4467 98.221C42.5747 98.389 42.6747 98.553 42.7467 98.713C42.8267 98.865 42.8827 99.017 42.9147 99.169C42.9467 99.321 42.9627 99.481 42.9627 99.649C42.9627 99.945 42.9147 100.197 42.8187 100.405C42.7227 100.613 42.5947 100.785 42.4347 100.921C42.2747 101.049 42.0867 101.145 41.8707 101.209C41.6547 101.265 41.4227 101.293 41.1747 101.293H38.1387C38.0347 101.293 37.9667 101.229 37.9347 101.101C37.8947 100.965 37.8747 100.765 37.8747 100.501C37.8747 100.197 37.8947 99.981 37.9347 99.853C37.9667 99.717 38.0347 99.649 38.1387 99.649H40.9827Z" fill="#FF6900"/>
<rect x="98.2539" width="51" height="22" rx="11" fill="#BEDBFF"/>
<path d="M109.583 11.02C109.823 11.02 109.995 10.968 110.099 10.864C110.203 10.752 110.255 10.6 110.255 10.408V9.7H109.703C109.423 9.7 109.235 9.772 109.139 9.916C109.051 10.052 109.007 10.228 109.007 10.444C109.007 10.628 109.047 10.772 109.127 10.876C109.207 10.972 109.359 11.02 109.583 11.02ZM111.719 10.756C111.719 11.156 111.895 11.356 112.247 11.356H112.571C112.675 11.356 112.743 11.42 112.775 11.548C112.815 11.676 112.835 11.876 112.835 12.148C112.835 12.444 112.815 12.66 112.775 12.796C112.743 12.932 112.675 13 112.571 13H112.247C111.815 13 111.475 12.932 111.227 12.796C110.979 12.66 110.787 12.444 110.651 12.148C110.451 12.348 110.227 12.476 109.979 12.532C109.739 12.58 109.503 12.604 109.271 12.604C108.711 12.604 108.283 12.428 107.987 12.076C107.699 11.724 107.555 11.216 107.555 10.552C107.555 10.256 107.595 9.968 107.675 9.688C107.763 9.4 107.887 9.144 108.047 8.92C108.215 8.696 108.423 8.516 108.671 8.38C108.919 8.244 109.207 8.176 109.535 8.176H110.255V7.384H111.719V10.756ZM112.568 13C112.464 13 112.396 12.936 112.364 12.808C112.324 12.672 112.304 12.472 112.304 12.208C112.304 11.904 112.324 11.688 112.364 11.56C112.396 11.424 112.464 11.356 112.568 11.356H115.34C115.78 11.356 116 11.132 116 10.684V9.436H117.524V10.816C117.524 11.544 117.348 12.092 116.996 12.46C116.644 12.82 116.136 13 115.472 13H112.568ZM115.136 15.76H113.552V14.308H115.136V15.76ZM120.559 10.684C120.559 10.916 120.627 11.088 120.763 11.2C120.907 11.304 121.079 11.356 121.279 11.356H121.411C121.587 11.356 121.675 11.62 121.675 12.148C121.675 12.716 121.587 13 121.411 13H121.279C121.143 13 121.003 12.98 120.859 12.94C120.723 12.892 120.599 12.8 120.487 12.664V12.808C120.487 13.216 120.415 13.608 120.271 13.984C120.135 14.36 119.939 14.688 119.683 14.968C119.435 15.256 119.135 15.484 118.783 15.652C118.439 15.82 118.059 15.904 117.643 15.904H117.343L117.223 14.26H117.379C117.675 14.26 117.927 14.216 118.135 14.128C118.351 14.048 118.523 13.94 118.651 13.804C118.787 13.668 118.883 13.512 118.939 13.336C119.003 13.168 119.035 12.992 119.035 12.808V9.436H120.559V10.684ZM126.744 11.236C126.84 11.3 126.948 11.336 127.068 11.344C127.196 11.352 127.336 11.356 127.488 11.356H128.076C128.18 11.356 128.248 11.42 128.28 11.548C128.32 11.676 128.34 11.876 128.34 12.148C128.34 12.444 128.32 12.66 128.28 12.796C128.248 12.932 128.18 13 128.076 13H127.428C127.156 13 126.924 12.972 126.732 12.916C126.54 12.86 126.376 12.78 126.24 12.676C126.104 12.572 125.992 12.452 125.904 12.316C125.816 12.172 125.744 12.016 125.688 11.848L124.848 12.34C124.616 12.476 124.392 12.588 124.176 12.676C123.96 12.756 123.732 12.82 123.492 12.868C123.252 12.916 122.992 12.952 122.712 12.976C122.432 12.992 122.112 13 121.752 13H121.416C121.312 13 121.244 12.936 121.212 12.808C121.172 12.672 121.152 12.472 121.152 12.208C121.152 11.904 121.172 11.688 121.212 11.56C121.244 11.424 121.312 11.356 121.416 11.356H121.812C122.108 11.356 122.372 11.356 122.604 11.356C122.844 11.348 123.06 11.332 123.252 11.308C123.452 11.284 123.636 11.244 123.804 11.188C123.98 11.132 124.156 11.056 124.332 10.96L125.508 10.288C125.46 10.224 125.416 10.172 125.376 10.132C125.336 10.084 125.288 10.048 125.232 10.024C125.176 10 125.108 9.984 125.028 9.976C124.948 9.968 124.844 9.964 124.716 9.964H122.268L122.34 8.308H124.98C125.212 8.308 125.436 8.344 125.652 8.416C125.876 8.488 126.084 8.624 126.276 8.824C126.468 9.016 126.644 9.284 126.804 9.628C126.972 9.972 127.112 10.416 127.224 10.96L126.744 11.236ZM125.184 15.76H123.6V14.308H125.184V15.76ZM129.2 11.356C129.432 11.356 129.596 11.304 129.692 11.2C129.796 11.088 129.848 10.916 129.848 10.684V9.436H131.372V10.816C131.372 11.544 131.196 12.092 130.844 12.46C130.5 12.82 129.996 13 129.332 13H128.072C127.968 13 127.9 12.936 127.868 12.808C127.828 12.672 127.808 12.472 127.808 12.208C127.808 11.904 127.828 11.688 127.868 11.56C127.9 11.424 127.968 11.356 128.072 11.356H129.2ZM131.36 8.116H129.908V6.724H131.36V8.116ZM129.512 8.116H128.06V6.724H129.512V8.116ZM135.993 13C135.761 13 135.541 12.972 135.333 12.916C135.125 12.852 134.941 12.748 134.781 12.604C134.629 12.46 134.505 12.272 134.409 12.04C134.321 11.8 134.277 11.504 134.277 11.152V5.56H135.801V10.756C135.801 11.156 135.977 11.356 136.329 11.356H136.653C136.829 11.356 136.917 11.62 136.917 12.148C136.917 12.716 136.829 13 136.653 13H135.993ZM137.778 11.356C138.01 11.356 138.174 11.304 138.27 11.2C138.374 11.088 138.426 10.916 138.426 10.684V9.436H139.95V10.816C139.95 11.544 139.774 12.092 139.422 12.46C139.078 12.82 138.574 13 137.91 13H136.65C136.546 13 136.478 12.936 136.446 12.808C136.406 12.672 136.386 12.472 136.386 12.208C136.386 11.904 136.406 11.688 136.446 11.56C136.478 11.424 136.546 11.356 136.65 11.356H137.778ZM138.498 15.76H136.914V14.308H138.498V15.76Z" fill="#2B7FFF"/>
<defs>
<linearGradient id="paint0_linear_59935_32256" x1="77.2227" y1="77.8376" x2="77.4514" y2="10.2928" gradientUnits="userSpaceOnUse">
<stop stop-color="#FFEDD4"/>
<stop offset="1" stop-color="#BEDBFF"/>
</linearGradient>
</defs>
</svg>
