<svg width="85" height="54" viewBox="0 0 85 54" fill="none" xmlns="http://www.w3.org/2000/svg">
<path fill-rule="evenodd" clip-rule="evenodd" d="M2.78794 18.0526C2.78794 8.98957 8.17579 1.75422 15.4002 0.279297L12.6124 0.745644C5.38798 2.22057 0.00012207 9.45591 0.00012207 18.5189L2.78794 18.0526Z" fill="#1B489C"/>
<path fill-rule="evenodd" clip-rule="evenodd" d="M15.3987 0.275481C16.5748 0.035377 17.7995 -0.0520712 19.0576 0.0301026L68.3959 3.25271C77.3822 3.83967 84.667 12.8585 84.667 23.3969C84.667 32.46 79.2792 39.6953 72.0548 41.1702L69.2669 41.6366C76.4914 40.1617 81.8792 32.9263 81.8792 23.8633C81.8792 13.3249 74.5944 4.30602 65.608 3.71906L16.2698 0.49645C15.0117 0.414276 13.787 0.501724 12.6109 0.741828L15.3987 0.275481Z" fill="#1B489C"/>
<path fill-rule="evenodd" clip-rule="evenodd" d="M72.0562 41.1722C70.8802 41.4124 69.6554 41.4998 68.3973 41.4176L19.0591 38.195C10.0728 37.6081 2.78794 28.5892 2.78794 18.0508L0.00012207 18.5171C0.00012207 29.0555 7.28494 38.0744 16.2713 38.6614L65.6095 41.884C66.8676 41.9661 68.0924 41.8787 69.2684 41.6386L72.0562 41.1722Z" fill="#1B489C"/>
<path fill-rule="evenodd" clip-rule="evenodd" d="M2.78794 18.0508L0.00012207 18.5171L2.78794 18.0508Z" fill="#1B489C"/>
<g filter="url(#filter0_i_59935_32425)">
<path d="M2.78644 18.0488C2.78644 7.51037 10.0713 -0.556853 19.0576 0.0301026L68.3958 3.25271C77.3822 3.83967 84.667 12.8585 84.667 23.3969C84.667 33.9353 77.3822 42.0026 68.3958 41.4156L19.0576 38.193C10.0713 37.6061 2.78644 28.5872 2.78644 18.0488Z" fill="#5091FB"/>
</g>
<g filter="url(#filter1_d_59935_32425)">
<path d="M25.3971 19.9741C25.3948 20.0674 25.4261 20.1482 25.4912 20.2165C25.5565 20.2715 25.6358 20.3001 25.7291 20.3024L26.4889 20.3209C26.5689 20.3229 26.635 20.3445 26.6874 20.3858C26.7534 20.4141 26.7982 20.4886 26.822 20.6092C26.859 20.7301 26.8811 20.9174 26.8882 21.171C26.8954 21.4246 26.8935 21.7713 26.8828 22.2111C26.8714 22.6777 26.8557 23.0441 26.8359 23.3103C26.816 23.5766 26.7845 23.7759 26.7412 23.9082C26.7113 24.0408 26.6627 24.1197 26.5954 24.1447C26.5414 24.17 26.4744 24.1817 26.3945 24.1798L25.5147 24.1583C25.0215 24.1462 24.5506 24.0413 24.102 23.8436C23.667 23.6329 23.3431 23.2449 23.1302 22.6795C22.7904 22.9379 22.4395 23.1094 22.0773 23.1939C21.7288 23.2654 21.3079 23.2951 20.8147 23.283C20.2949 23.2703 19.8168 23.1852 19.3806 23.0278C18.9579 22.8575 18.5906 22.6084 18.2785 22.2807C17.9801 21.9399 17.7503 21.5208 17.5891 21.0234C17.4415 20.513 17.3762 19.9112 17.3932 19.2181C17.4059 18.6982 17.5051 18.1872 17.6908 17.6849C17.8901 17.1696 18.1546 16.716 18.4843 16.3239C18.8273 15.9322 19.2352 15.6154 19.7079 15.3736C20.194 15.1321 20.7369 15.0186 21.3367 15.0333L21.8966 15.047L21.9264 13.8274L25.5453 13.9159L25.3971 19.9741ZM20.7946 19.2013C20.789 19.4279 20.8321 19.5757 20.9238 19.6446C21.0288 19.7138 21.1679 19.7506 21.3412 19.7548C21.5678 19.7604 21.7289 19.7176 21.8245 19.6266C21.9337 19.5226 21.9903 19.3906 21.9942 19.2307L22.0104 18.5709L21.4705 18.5576C21.0307 18.5469 20.8054 18.7614 20.7946 19.2013ZM26.228 22.2952C26.2394 21.8286 26.2551 21.4622 26.2749 21.196C26.2948 20.9297 26.3195 20.7369 26.3491 20.6176C26.3657 20.4846 26.3876 20.4052 26.415 20.3792C26.4426 20.3398 26.4697 20.3205 26.4964 20.3211L29.3555 20.3911C29.5688 20.3963 29.6781 20.2923 29.6833 20.079L29.7562 17.0999L33.3951 17.189L33.3144 20.488C33.2987 21.1278 33.1917 21.6853 32.9933 22.1606C32.8083 22.6362 32.5453 23.0299 32.2042 23.3417C31.8765 23.6538 31.4839 23.8909 31.0265 24.0531C30.5827 24.2023 30.1009 24.2705 29.581 24.2578L26.402 24.18C26.3753 24.1793 26.349 24.1653 26.323 24.138C26.297 24.1107 26.2788 24.0369 26.2684 23.9166C26.245 23.7827 26.2297 23.5889 26.2226 23.3353C26.2154 23.0817 26.2173 22.735 26.228 22.2952ZM30.3863 28.1386L26.7474 28.0496L26.8149 25.2904L30.4538 25.3795L30.3863 28.1386ZM32.6638 25.1134C33.3836 25.1311 33.8937 24.9968 34.1941 24.7108C34.5079 24.425 34.6701 24.0622 34.6809 23.6224L34.8375 17.2243L38.4764 17.3133L38.4025 20.3324C38.3979 20.519 38.5023 20.6149 38.7156 20.6202L39.4753 20.6388C39.5553 20.6407 39.6215 20.6623 39.6738 20.7036C39.7398 20.7319 39.7847 20.8064 39.8084 20.927C39.8454 21.0479 39.8675 21.2352 39.8747 21.4888C39.8818 21.7424 39.88 22.0891 39.8692 22.529C39.8578 22.9955 39.8422 23.3619 39.8223 23.6281C39.8024 23.8944 39.7709 24.0937 39.7276 24.226C39.6977 24.3586 39.6491 24.4375 39.5818 24.4625C39.5278 24.4879 39.4609 24.4996 39.3809 24.4976L39.061 24.4898C38.7411 24.4819 38.4617 24.4551 38.2227 24.4092C38.1267 25.0604 37.932 25.6625 37.6383 26.2155C37.3444 26.7818 36.9724 27.2662 36.5225 27.6686C36.0722 28.0844 35.5442 28.4049 34.9385 28.6302C34.3458 28.8691 33.6962 28.9799 32.9897 28.9626L32.01 28.9386L31.7841 25.0919L32.6638 25.1134ZM40.6123 19.3662L41.0212 15.7351L45.9797 15.8565C46.3663 15.8659 46.7317 15.9215 47.076 16.0233C47.4203 16.1251 47.7421 16.3264 48.0415 16.6271C48.3542 16.9282 48.6437 17.3621 48.9099 17.9288C49.1765 18.4821 49.4319 19.2153 49.6763 20.1282L48.678 20.864L50.7974 20.9158C50.8774 20.9178 50.9435 20.9394 50.9959 20.9807C51.0619 21.009 51.1067 21.0835 51.1305 21.2041C51.1675 21.325 51.1896 21.5123 51.1967 21.7659C51.2039 22.0194 51.202 22.3662 51.1913 22.806C51.1799 23.2726 51.1642 23.639 51.1444 23.9052C51.1245 24.1715 51.093 24.3708 51.0497 24.5031C51.0198 24.6357 50.9712 24.7146 50.9039 24.7396C50.8499 24.7649 50.7829 24.7766 50.703 24.7747L49.0635 24.7346C48.3037 24.716 47.6943 24.5477 47.2353 24.2297C46.7896 23.912 46.4383 23.55 46.1815 23.1436L45.7967 23.3342C45.3507 23.5767 44.9389 23.78 44.5615 23.9442C44.1843 24.095 43.8012 24.219 43.412 24.3162C43.0365 24.4003 42.6348 24.4639 42.207 24.5067C41.7928 24.5366 41.3258 24.5452 40.8059 24.5325L39.3864 24.4977C39.3064 24.4958 39.2401 24.4808 39.1874 24.4529C39.1214 24.4246 39.0765 24.3501 39.0528 24.2295C39.0161 24.0952 38.9942 23.9013 38.987 23.6477C38.9799 23.3941 38.9817 23.0474 38.9925 22.6075C39.0039 22.141 39.0195 21.7746 39.0394 21.5083C39.0592 21.2421 39.0906 21.0495 39.1336 20.9305C39.1635 20.7978 39.2121 20.719 39.2794 20.694C39.3337 20.6553 39.4008 20.6369 39.4808 20.6389L41.0203 20.6766C41.3536 20.6847 41.6801 20.6927 42 20.7005C42.3336 20.6954 42.6743 20.6704 43.0222 20.6255C43.3837 20.5677 43.7657 20.4903 44.1682 20.3935C44.5843 20.2836 45.0418 20.1215 45.5405 19.9069C45.4911 19.7457 45.4137 19.6371 45.3084 19.5811C45.2034 19.5119 45.0643 19.4751 44.891 19.4709L40.6123 19.3662ZM45.9104 28.4985L42.2715 28.4095L42.339 25.6503L45.978 25.7394L45.9104 28.4985ZM52.0252 20.9459C52.1051 20.9478 52.1791 20.923 52.2471 20.8713C52.3153 20.8063 52.3506 20.7271 52.3529 20.6338L52.4258 17.6547L56.0447 17.7433L55.964 21.0423C55.9483 21.6821 55.8413 22.2396 55.643 22.7149C55.4579 23.1905 55.2016 23.5844 54.8738 23.8965C54.5461 24.2085 54.1535 24.4457 53.6961 24.6079C53.2523 24.757 52.7705 24.8253 52.2506 24.8126L50.7111 24.7749C50.6311 24.7729 50.5648 24.758 50.5121 24.73C50.4461 24.7017 50.4013 24.6273 50.3776 24.5066C50.3408 24.3724 50.3189 24.1784 50.3118 23.9249C50.3046 23.6713 50.3065 23.3245 50.3172 22.8847C50.3286 22.4181 50.3443 22.0518 50.3641 21.7855C50.384 21.5192 50.4154 21.3266 50.4583 21.2076C50.4882 21.075 50.5368 20.9961 50.6041 20.9711C50.6584 20.9324 50.7256 20.9141 50.8055 20.916L52.0252 20.9459ZM56.6315 16.6573L50.9132 16.5173L50.9802 13.7782L56.6985 13.9181L56.6315 16.6573ZM64.1112 21.2417C64.1912 21.2436 64.2574 21.2652 64.3097 21.3065C64.3757 21.3348 64.4206 21.4093 64.4443 21.5299C64.4813 21.6508 64.5034 21.8381 64.5106 22.0917C64.5177 22.3453 64.5159 22.692 64.5051 23.1319C64.4937 23.5984 64.4781 23.9648 64.4582 24.231C64.4383 24.4973 64.4068 24.6966 64.3635 24.8289C64.3336 24.9615 64.285 25.0404 64.2177 25.0654C64.1637 25.0908 64.0968 25.1025 64.0168 25.1005L63.0371 25.0765C62.344 25.0596 61.7599 24.9452 61.285 24.7336C60.8236 24.5089 60.4506 24.2197 60.1658 23.8659C59.8811 23.5122 59.6778 23.1004 59.5559 22.6306C59.4343 22.1475 59.3799 21.646 59.3926 21.1262L59.5967 12.7887L63.2356 12.8777L63.0394 20.8953C63.0342 21.1086 63.1382 21.2178 63.3515 21.2231L64.1112 21.2417ZM65.322 21.2713C65.4019 21.2732 65.4759 21.2484 65.5439 21.1967C65.6121 21.1317 65.6474 21.0525 65.6497 20.9592L65.7226 17.9801L69.3415 18.0687L69.2608 21.3677C69.2451 22.0075 69.1381 22.565 68.9398 23.0403C68.7547 23.5159 68.4984 23.9098 68.1706 24.2219C67.8429 24.5339 67.4503 24.7711 66.9929 24.9333C66.5491 25.0824 66.0673 25.1507 65.5474 25.138L64.0079 25.1003C63.9279 25.0983 63.8616 25.0834 63.8089 25.0554C63.7429 25.0271 63.6981 24.9527 63.6744 24.832C63.6376 24.6978 63.6157 24.5038 63.6086 24.2503C63.6014 23.9967 63.6033 23.6499 63.614 23.2101C63.6254 22.7436 63.6411 22.3772 63.6609 22.1109C63.6808 21.8446 63.7122 21.652 63.7551 21.533C63.785 21.4004 63.8336 21.3216 63.9009 21.2965C63.9552 21.2578 64.0224 21.2395 64.1023 21.2414L65.322 21.2713ZM68.4326 29.0497L64.7937 28.9607L64.8612 26.2015L68.5001 26.2905L68.4326 29.0497Z" fill="white"/>
</g>
<g opacity="0.9">
<path d="M23.9328 20.302C23.7127 20.388 22.7706 17.8403 21.8293 14.6107C20.888 11.3811 20.3025 8.6932 20.5233 8.60695C20.7435 8.52088 21.6855 11.0686 22.6268 14.2982C23.5687 17.5277 24.1536 20.2157 23.9328 20.302Z" fill="url(#paint0_radial_59935_32425)" style="mix-blend-mode:color-dodge"/>
<path d="M23.7259 19.615C23.8983 19.5686 23.3577 17.1906 22.5183 14.3027C21.6789 11.4148 20.8589 9.11195 20.6866 9.15828C20.5142 9.20462 21.0548 11.5826 21.8942 14.4705C22.7336 17.3584 23.5536 19.6613 23.7259 19.615Z" fill="url(#paint1_radial_59935_32425)" style="mix-blend-mode:screen"/>
<path d="M22.6805 16.0043C22.734 15.9899 22.5665 15.2535 22.3067 14.3596C22.0469 13.4658 21.7931 12.7526 21.7396 12.767C21.686 12.7814 21.8536 13.5177 22.1134 14.4116C22.3732 15.3055 22.6269 16.0187 22.6805 16.0043Z" fill="url(#paint2_radial_59935_32425)" style="mix-blend-mode:screen"/>
<path d="M22.848 16.5917C22.9206 16.5721 22.6926 15.5685 22.3382 14.3492C21.9838 13.1298 21.6376 12.1579 21.565 12.1775C21.4923 12.197 21.7206 13.2014 22.0748 14.42C22.429 15.6386 22.7754 16.6112 22.848 16.5917Z" fill="url(#paint3_radial_59935_32425)" style="mix-blend-mode:color-dodge"/>
<path d="M16.4519 15.9696C16.3284 15.6442 18.8158 14.7029 22.0084 13.868C25.2008 13.0322 27.8891 12.6187 28.0128 12.945C28.1363 13.2704 25.6489 14.2117 22.4563 15.0466C19.2639 15.8824 16.5756 16.2959 16.4519 15.9696Z" fill="url(#paint4_radial_59935_32425)" style="mix-blend-mode:color-dodge"/>
<path d="M17.1193 15.8198C17.1927 16.0698 19.5707 15.655 22.4316 14.8933C25.2924 14.1315 27.5515 13.3115 27.4781 13.0615C27.4048 12.8116 25.0268 13.2263 22.1659 13.9881C19.305 14.7498 17.046 15.5698 17.1193 15.8198Z" fill="url(#paint5_radial_59935_32425)" style="mix-blend-mode:screen"/>
<path d="M22.3412 14.5799C23.2268 14.3441 23.9263 14.0902 23.9036 14.0128C23.8808 13.9354 23.1445 14.0638 22.2589 14.2996C21.3734 14.5354 20.6739 14.7893 20.6966 14.8667C20.7193 14.9441 21.4556 14.8157 22.3412 14.5799Z" fill="url(#paint6_radial_59935_32425)" style="mix-blend-mode:screen"/>
<path d="M20.1105 15.0231C20.1414 15.1284 21.1451 14.9536 22.353 14.6319C23.5602 14.3105 24.5143 13.964 24.4834 13.8587C24.4525 13.7534 23.4488 13.9282 22.2409 14.2498C21.0329 14.5715 20.0796 14.9177 20.1105 15.0231Z" fill="url(#paint7_radial_59935_32425)" style="mix-blend-mode:color-dodge"/>
<path opacity="0.65" d="M23.401 18.038C25.0626 17.6429 25.9069 15.7934 25.2869 13.9069C24.667 12.0205 22.8174 10.8114 21.1558 11.2065C19.4943 11.6016 18.6499 13.4512 19.2699 15.3376C19.8899 17.2241 21.7395 18.4331 23.401 18.038Z" fill="url(#paint8_radial_59935_32425)" style="mix-blend-mode:lighten"/>
<path opacity="0.67" d="M22.807 16.2255C23.5877 16.0399 23.9845 15.1708 23.6931 14.2843C23.4018 13.3979 22.5327 12.8298 21.752 13.0154C20.9712 13.2011 20.5744 14.0702 20.8658 14.9566C21.1571 15.8431 22.0262 16.4112 22.807 16.2255Z" fill="url(#paint9_radial_59935_32425)" style="mix-blend-mode:lighten"/>
<path d="M20.3631 18.6701C20.2415 18.613 20.9733 16.6781 21.9978 14.3487C23.0224 12.0193 23.9513 10.1777 24.0729 10.2347C24.1944 10.2918 23.4626 12.2267 22.4381 14.5561C21.4136 16.8855 20.4846 18.7272 20.3631 18.6701Z" fill="url(#paint10_radial_59935_32425)" style="mix-blend-mode:color-dodge"/>
<path d="M20.6244 18.1834C20.7098 18.2408 21.5072 16.5966 22.4049 14.5102C23.3026 12.4238 23.9606 10.6866 23.8749 10.6284C23.7895 10.571 22.9921 12.2152 22.0945 14.3016C21.1968 16.388 20.5387 18.1252 20.6244 18.1834Z" fill="url(#paint11_radial_59935_32425)" style="mix-blend-mode:screen"/>
<path d="M21.7467 15.5721C21.7733 15.5899 22.0199 15.0808 22.298 14.4343C22.5761 13.7879 22.78 13.25 22.7534 13.2322C22.7269 13.2143 22.4803 13.7235 22.2021 14.3699C21.924 15.0163 21.7201 15.5542 21.7467 15.5721Z" fill="url(#paint12_radial_59935_32425)" style="mix-blend-mode:screen"/>
<path d="M21.5628 15.9993C21.5989 16.0236 21.9354 15.3295 22.3144 14.4486C22.6934 13.5677 22.9711 12.8341 22.9351 12.8099C22.899 12.7856 22.5624 13.4797 22.1834 14.3606C21.8044 15.2415 21.5267 15.9751 21.5628 15.9993Z" fill="url(#paint13_radial_59935_32425)" style="mix-blend-mode:color-dodge"/>
<path d="M18.3373 11.8557C18.3005 11.9411 19.9616 13.1473 22.048 14.5494C24.1344 15.9515 25.8548 17.0183 25.8923 16.9327C25.929 16.8472 24.268 15.6411 22.1816 14.239C20.0951 12.8369 18.3747 11.7701 18.3373 11.8557Z" fill="url(#paint14_radial_59935_32425)" style="mix-blend-mode:screen"/>
<path d="M21.1095 13.7038C21.0981 13.7304 21.6124 14.1035 22.2588 14.5379C22.9052 14.9723 23.4379 15.3028 23.4494 15.2762C23.4608 15.2496 22.9465 14.8765 22.3001 14.4421C21.6536 14.0077 21.1209 13.6772 21.1095 13.7038Z" fill="url(#paint15_radial_59935_32425)" style="mix-blend-mode:screen"/>
<path d="M20.6836 13.4169C20.668 13.453 21.3692 13.9621 22.2501 14.5541C23.131 15.1461 23.8575 15.5963 23.873 15.5603C23.8885 15.5242 23.1874 15.0151 22.3065 14.4231C21.4256 13.8311 20.6991 13.3809 20.6836 13.4169Z" fill="url(#paint16_radial_59935_32425)" style="mix-blend-mode:color-dodge"/>
<path d="M21.9322 18.1801C22.0552 18.2329 22.2853 16.5509 22.447 14.4238C22.6087 12.2967 22.6402 10.5301 22.5178 10.4771C22.3947 10.4243 22.1647 12.1063 22.003 14.2334C21.8413 16.3605 21.8098 18.1271 21.9322 18.1801Z" fill="url(#paint17_radial_59935_32425)" style="mix-blend-mode:color-dodge"/>
<path d="M26.0773 15.4081C26.0832 15.5583 24.3642 15.1982 22.237 14.6036C20.1098 14.009 18.3809 13.4041 18.375 13.2539C18.3691 13.1037 20.0881 13.4639 22.2153 14.0585C24.3424 14.6531 26.0714 15.2579 26.0773 15.4081Z" fill="url(#paint18_radial_59935_32425)" style="mix-blend-mode:color-dodge"/>
<path d="M25.6611 15.2841C25.6626 15.2632 24.1194 14.8224 22.213 14.2995C20.3074 13.7764 18.7611 13.3701 18.7596 13.391C18.7581 13.4118 20.3014 13.8526 22.2077 14.3756C24.1134 14.8987 25.6596 15.3049 25.6611 15.2841Z" fill="url(#paint19_radial_59935_32425)" style="mix-blend-mode:screen"/>
<path d="M23.2761 14.6294C23.2763 14.6231 22.7988 14.4868 22.2086 14.3244C21.6187 14.1628 21.14 14.0366 21.1391 14.0431C21.1389 14.0494 21.6164 14.1857 22.2065 14.3481C22.7964 14.5096 23.2751 14.6358 23.2761 14.6294Z" fill="url(#paint20_radial_59935_32425)" style="mix-blend-mode:screen"/>
<path d="M23.6678 14.7351C23.6686 14.726 23.0169 14.5398 22.2124 14.3191C21.4078 14.0985 20.7555 13.9266 20.7547 13.9357C20.7539 13.9448 21.4056 14.131 22.2102 14.3517C23.0148 14.5724 23.667 14.7442 23.6678 14.7351Z" fill="url(#paint21_radial_59935_32425)" style="mix-blend-mode:color-dodge"/>
<path d="M21.9451 17.7915C21.9629 17.7963 22.0942 16.2558 22.2383 14.3494C22.3827 12.4438 22.4845 10.8947 22.4667 10.8899C22.4489 10.885 22.3176 12.4255 22.1735 14.3319C22.0291 16.2375 21.9273 17.7866 21.9451 17.7915Z" fill="url(#paint22_radial_59935_32425)" style="mix-blend-mode:screen"/>
<path d="M22.1243 15.413C22.1297 15.4143 22.1702 14.9376 22.2153 14.3475C22.2596 13.7575 22.2915 13.278 22.286 13.276C22.2804 13.2741 22.2401 13.7515 22.195 14.3416C22.1507 14.9315 22.1188 15.4111 22.1243 15.413Z" fill="url(#paint23_radial_59935_32425)" style="mix-blend-mode:screen"/>
<path d="M22.0932 15.7995C22.1009 15.8018 22.1565 15.1513 22.2173 14.3467C22.2781 13.542 22.3214 12.8887 22.3136 12.8864C22.3059 12.8841 22.2503 13.5346 22.1895 14.3392C22.1288 15.1439 22.0854 15.7972 22.0932 15.7995Z" fill="url(#paint24_radial_59935_32425)" style="mix-blend-mode:color-dodge"/>
<path d="M19.4492 16.7758C19.5328 16.9118 20.8404 15.926 22.3704 14.5729C23.9007 13.2207 25.0734 12.0137 24.9905 11.8775C24.9069 11.7414 23.5993 12.7273 22.0693 14.0803C20.5391 15.4326 19.3663 16.6396 19.4492 16.7758Z" fill="url(#paint25_radial_59935_32425)" style="mix-blend-mode:color-dodge"/>
<path d="M24.6826 17.5857C24.6058 17.6791 23.441 16.2943 22.0811 14.4915C20.7213 12.6887 19.6813 11.1521 19.7578 11.0579C19.8343 10.9637 20.9994 12.3492 22.3593 14.152C23.7191 15.9548 24.7591 17.4915 24.6826 17.5857Z" fill="url(#paint26_radial_59935_32425)" style="mix-blend-mode:color-dodge"/>
<path d="M24.4151 17.2277C24.4276 17.2164 23.4478 15.9061 22.2267 14.302C21.0055 12.698 20.0053 11.4065 19.9922 11.4179C19.9798 11.4292 20.9595 12.7395 22.1807 14.3436C23.4019 15.9476 24.402 17.2391 24.4151 17.2277Z" fill="url(#paint27_radial_59935_32425)" style="mix-blend-mode:screen"/>
<path d="M22.8888 15.2228C22.8926 15.2194 22.5896 14.8137 22.2108 14.3167C21.8321 13.8197 21.5226 13.4197 21.519 13.4238C21.5152 13.4272 21.8182 13.8329 22.197 14.3299C22.5751 14.8271 22.8852 15.2269 22.8888 15.2228Z" fill="url(#paint28_radial_59935_32425)" style="mix-blend-mode:screen"/>
<path d="M23.1381 15.5503C23.1436 15.5457 22.73 14.9929 22.2144 14.3154C21.6987 13.638 21.2765 13.093 21.271 13.0976C21.2655 13.1023 21.6791 13.6551 22.1947 14.3325C22.7103 15.0099 23.1326 15.555 23.1381 15.5503Z" fill="url(#paint29_radial_59935_32425)" style="mix-blend-mode:color-dodge"/>
<path d="M19.73 16.54C19.7434 16.5574 20.8625 15.582 22.2283 14.3609C23.594 13.1397 24.6905 12.1356 24.6768 12.1173C24.6634 12.0998 23.5443 13.0753 22.1785 14.2964C20.8128 15.5175 19.7163 16.5217 19.73 16.54Z" fill="url(#paint30_radial_59935_32425)" style="mix-blend-mode:screen"/>
<path d="M21.4344 15.0072C21.4384 15.0125 21.7849 14.7109 22.208 14.3321C22.6314 13.9541 22.9708 13.6426 22.966 13.6375C22.962 13.6321 22.6155 13.9337 22.1923 14.3125C21.769 14.6905 21.4296 15.002 21.4344 15.0072Z" fill="url(#paint31_radial_59935_32425)" style="mix-blend-mode:screen"/>
<path d="M21.1622 15.2606C21.1678 15.2683 21.6399 14.8563 22.2167 14.3408C22.7936 13.8252 23.2563 13.4012 23.2507 13.3935C23.2451 13.3859 22.773 13.7978 22.1962 14.3134C21.6193 14.8289 21.1566 15.253 21.1622 15.2606Z" fill="url(#paint32_radial_59935_32425)" style="mix-blend-mode:color-dodge"/>
<path d="M22.6761 13.5475C22.154 13.2062 21.5367 13.353 21.2984 13.8751C21.06 14.3972 21.2904 15.0981 21.8124 15.4393C22.3345 15.7806 22.9519 15.6338 23.1902 15.1117C23.4285 14.5897 23.1982 13.8888 22.6761 13.5475Z" fill="url(#paint33_radial_59935_32425)" style="mix-blend-mode:screen"/>
<path d="M23.7677 14.9726C23.9304 14.2324 23.3806 13.4189 22.5397 13.1555C21.6988 12.8922 20.8852 13.2788 20.7226 14.0191C20.5599 14.7593 21.1098 15.5728 21.9506 15.8362C22.7915 16.0995 23.6051 15.7129 23.7677 14.9726Z" fill="url(#paint34_radial_59935_32425)" style="mix-blend-mode:color-dodge"/>
</g>
<g filter="url(#filter2_f_59935_32425)">
<ellipse cx="40.769" cy="49.6173" rx="32.3791" ry="0.513953" transform="rotate(-0.294141 40.769 49.6173)" fill="#09192D" fill-opacity="0.35"/>
</g>
<defs>
<filter id="filter0_i_59935_32425" x="0.786438" y="0" width="83.8805" height="43.4453" filterUnits="userSpaceOnUse" color-interpolation-filters="sRGB">
<feFlood flood-opacity="0" result="BackgroundImageFix"/>
<feBlend mode="normal" in="SourceGraphic" in2="BackgroundImageFix" result="shape"/>
<feColorMatrix in="SourceAlpha" type="matrix" values="0 0 0 0 0 0 0 0 0 0 0 0 0 0 0 0 0 0 127 0" result="hardAlpha"/>
<feOffset dx="-2" dy="2"/>
<feGaussianBlur stdDeviation="2"/>
<feComposite in2="hardAlpha" operator="arithmetic" k2="-1" k3="1"/>
<feColorMatrix type="matrix" values="0 0 0 0 0.509615 0 0 0 0 0.696019 0 0 0 0 1 0 0 0 1 0"/>
<feBlend mode="normal" in2="shape" result="effect1_innerShadow_59935_32425"/>
</filter>
<filter id="filter1_d_59935_32425" x="13.1642" y="11.7598" width="60.3006" height="26.0859" filterUnits="userSpaceOnUse" color-interpolation-filters="sRGB">
<feFlood flood-opacity="0" result="BackgroundImageFix"/>
<feColorMatrix in="SourceAlpha" type="matrix" values="0 0 0 0 0 0 0 0 0 0 0 0 0 0 0 0 0 0 127 0" result="hardAlpha"/>
<feOffset dy="4"/>
<feGaussianBlur stdDeviation="2"/>
<feComposite in2="hardAlpha" operator="out"/>
<feColorMatrix type="matrix" values="0 0 0 0 0 0 0 0 0 0 0 0 0 0 0 0 0 0 0.35 0"/>
<feBlend mode="normal" in2="BackgroundImageFix" result="effect1_dropShadow_59935_32425"/>
<feBlend mode="normal" in="SourceGraphic" in2="effect1_dropShadow_59935_32425" result="shape"/>
</filter>
<filter id="filter2_f_59935_32425" x="5.39038" y="46.0762" width="70.7573" height="7.08203" filterUnits="userSpaceOnUse" color-interpolation-filters="sRGB">
<feFlood flood-opacity="0" result="BackgroundImageFix"/>
<feBlend mode="normal" in="SourceGraphic" in2="BackgroundImageFix" result="shape"/>
<feGaussianBlur stdDeviation="1.5" result="effect1_foregroundBlur_59935_32425"/>
</filter>
<radialGradient id="paint0_radial_59935_32425" cx="0" cy="0" r="1" gradientTransform="matrix(0.394227 -0.154346 -2.13511 -5.67465 21.1756 14.8614)" gradientUnits="userSpaceOnUse">
<stop stop-color="#DDD8C7"/>
<stop offset="0.07" stop-color="#D3CCB7" stop-opacity="0.97"/>
<stop offset="0.22" stop-color="#BAB08E" stop-opacity="0.9"/>
<stop offset="0.42" stop-color="#92824D" stop-opacity="0.79"/>
<stop offset="0.57" stop-color="#705B16" stop-opacity="0.69"/>
<stop offset="0.67" stop-color="#5D4C12" stop-opacity="0.58"/>
<stop offset="0.85" stop-color="#2E2509" stop-opacity="0.29"/>
<stop offset="1" stop-opacity="0"/>
</radialGradient>
<radialGradient id="paint1_radial_59935_32425" cx="0" cy="0" r="1" gradientTransform="matrix(-0.317985 0.0854919 -1.51793 -5.22238 22.1919 14.2887)" gradientUnits="userSpaceOnUse">
<stop stop-color="#FF5E00"/>
<stop offset="0.1" stop-color="#F95C00" stop-opacity="0.98"/>
<stop offset="0.23" stop-color="#EA5600" stop-opacity="0.92"/>
<stop offset="0.36" stop-color="#D24D00" stop-opacity="0.83"/>
<stop offset="0.5" stop-color="#B04000" stop-opacity="0.69"/>
<stop offset="0.65" stop-color="#833000" stop-opacity="0.52"/>
<stop offset="0.81" stop-color="#4D1C00" stop-opacity="0.3"/>
<stop offset="0.96" stop-color="#0F0500" stop-opacity="0.06"/>
<stop offset="1" stop-opacity="0"/>
</radialGradient>
<radialGradient id="paint2_radial_59935_32425" cx="0" cy="0" r="1" gradientTransform="matrix(-0.0984984 0.0264816 -0.470191 -1.61767 22.1955 14.287)" gradientUnits="userSpaceOnUse">
<stop stop-color="white"/>
<stop offset="0.1" stop-color="#F9F9F9" stop-opacity="0.98"/>
<stop offset="0.23" stop-color="#EAEAEA" stop-opacity="0.92"/>
<stop offset="0.36" stop-color="#D2D2D2" stop-opacity="0.83"/>
<stop offset="0.5" stop-color="#B0B0B0" stop-opacity="0.69"/>
<stop offset="0.65" stop-color="#838383" stop-opacity="0.52"/>
<stop offset="0.81" stop-color="#4D4D4D" stop-opacity="0.3"/>
<stop offset="0.96" stop-color="#0F0F0F" stop-opacity="0.06"/>
<stop offset="1" stop-opacity="0"/>
</radialGradient>
<radialGradient id="paint3_radial_59935_32425" cx="0" cy="0" r="1" gradientTransform="matrix(-0.13426 0.0360966 -0.6409 -2.20501 22.1921 14.2867)" gradientUnits="userSpaceOnUse">
<stop stop-color="#FF5E00"/>
<stop offset="0.12" stop-color="#FE6004" stop-opacity="0.89"/>
<stop offset="0.38" stop-color="#FC6510" stop-opacity="0.6"/>
<stop offset="0.77" stop-color="#F86E24" stop-opacity="0.14"/>
<stop offset="0.88" stop-color="#F8712A" stop-opacity="0"/>
</radialGradient>
<radialGradient id="paint4_radial_59935_32425" cx="0" cy="0" r="1" gradientTransform="matrix(0.221298 0.58263 5.53436 -2.14895 21.6628 12.9452)" gradientUnits="userSpaceOnUse">
<stop stop-color="#DDD8C7"/>
<stop offset="0.07" stop-color="#D3CCB7" stop-opacity="0.97"/>
<stop offset="0.22" stop-color="#BAB08E" stop-opacity="0.9"/>
<stop offset="0.42" stop-color="#92824D" stop-opacity="0.79"/>
<stop offset="0.57" stop-color="#705B16" stop-opacity="0.69"/>
<stop offset="0.67" stop-color="#5D4C12" stop-opacity="0.58"/>
<stop offset="0.85" stop-color="#2E2509" stop-opacity="0.29"/>
<stop offset="1" stop-opacity="0"/>
</radialGradient>
<radialGradient id="paint5_radial_59935_32425" cx="0" cy="0" r="1" gradientTransform="matrix(-0.135345 -0.461176 5.17351 -1.37756 22.3913 14.4101)" gradientUnits="userSpaceOnUse">
<stop stop-color="#FF5E00"/>
<stop offset="0.1" stop-color="#F95C00" stop-opacity="0.98"/>
<stop offset="0.23" stop-color="#EA5600" stop-opacity="0.92"/>
<stop offset="0.36" stop-color="#D24D00" stop-opacity="0.83"/>
<stop offset="0.5" stop-color="#B04000" stop-opacity="0.69"/>
<stop offset="0.65" stop-color="#833000" stop-opacity="0.52"/>
<stop offset="0.81" stop-color="#4D1C00" stop-opacity="0.3"/>
<stop offset="0.96" stop-color="#0F0500" stop-opacity="0.06"/>
<stop offset="1" stop-opacity="0"/>
</radialGradient>
<radialGradient id="paint6_radial_59935_32425" cx="0" cy="0" r="1" gradientTransform="matrix(-0.0419238 -0.14285 1.60253 -0.426703 22.3933 14.409)" gradientUnits="userSpaceOnUse">
<stop stop-color="white"/>
<stop offset="0.1" stop-color="#F9F9F9" stop-opacity="0.98"/>
<stop offset="0.23" stop-color="#EAEAEA" stop-opacity="0.92"/>
<stop offset="0.36" stop-color="#D2D2D2" stop-opacity="0.83"/>
<stop offset="0.5" stop-color="#B0B0B0" stop-opacity="0.69"/>
<stop offset="0.65" stop-color="#838383" stop-opacity="0.52"/>
<stop offset="0.81" stop-color="#4D4D4D" stop-opacity="0.3"/>
<stop offset="0.96" stop-color="#0F0F0F" stop-opacity="0.06"/>
<stop offset="1" stop-opacity="0"/>
</radialGradient>
<radialGradient id="paint7_radial_59935_32425" cx="0" cy="0" r="1" gradientTransform="matrix(-0.0571456 -0.194719 2.18437 -0.581639 22.3902 14.4101)" gradientUnits="userSpaceOnUse">
<stop stop-color="#FF5E00"/>
<stop offset="0.12" stop-color="#FE6004" stop-opacity="0.89"/>
<stop offset="0.38" stop-color="#FC6510" stop-opacity="0.6"/>
<stop offset="0.77" stop-color="#F86E24" stop-opacity="0.14"/>
<stop offset="0.88" stop-color="#F8712A" stop-opacity="0"/>
</radialGradient>
<radialGradient id="paint8_radial_59935_32425" cx="0" cy="0" r="1" gradientTransform="matrix(2.92112 1.90947 -1.33355 2.92112 22.2793 14.6224)" gradientUnits="userSpaceOnUse">
<stop stop-color="#B0141C"/>
<stop offset="0.13" stop-color="#AA131B" stop-opacity="0.97"/>
<stop offset="0.28" stop-color="#9C1118" stop-opacity="0.89"/>
<stop offset="0.45" stop-color="#830E14" stop-opacity="0.75"/>
<stop offset="0.63" stop-color="#610B0F" stop-opacity="0.55"/>
<stop offset="0.81" stop-color="#350608" stop-opacity="0.3"/>
<stop offset="1" stop-opacity="0"/>
</radialGradient>
<radialGradient id="paint9_radial_59935_32425" cx="0" cy="0" r="1" gradientTransform="matrix(1.37263 0.897257 -0.626634 1.37263 22.2804 14.6206)" gradientUnits="userSpaceOnUse">
<stop stop-color="#FFAF02"/>
<stop offset="0.1" stop-color="#F9AB01" stop-opacity="0.98"/>
<stop offset="0.23" stop-color="#EAA101" stop-opacity="0.92"/>
<stop offset="0.36" stop-color="#D29001" stop-opacity="0.83"/>
<stop offset="0.5" stop-color="#B07801" stop-opacity="0.69"/>
<stop offset="0.65" stop-color="#835A01" stop-opacity="0.52"/>
<stop offset="0.81" stop-color="#4D3500" stop-opacity="0.3"/>
<stop offset="0.96" stop-color="#0F0A00" stop-opacity="0.06"/>
<stop offset="1" stop-opacity="0"/>
</radialGradient>
<radialGradient id="paint10_radial_59935_32425" cx="0" cy="0" r="1" gradientTransform="matrix(0.21898 0.103179 1.14101 -4.56 21.8485 14.2758)" gradientUnits="userSpaceOnUse">
<stop stop-color="#DDD8C7"/>
<stop offset="0.07" stop-color="#D3CCB7" stop-opacity="0.97"/>
<stop offset="0.22" stop-color="#BAB08E" stop-opacity="0.9"/>
<stop offset="0.42" stop-color="#92824D" stop-opacity="0.79"/>
<stop offset="0.57" stop-color="#705B16" stop-opacity="0.69"/>
<stop offset="0.67" stop-color="#5D4C12" stop-opacity="0.58"/>
<stop offset="0.85" stop-color="#2E2509" stop-opacity="0.29"/>
<stop offset="1" stop-opacity="0"/>
</radialGradient>
<radialGradient id="paint11_radial_59935_32425" cx="0" cy="0" r="1" gradientTransform="matrix(-0.15889 -0.106775 1.62361 -3.77363 22.3005 14.3303)" gradientUnits="userSpaceOnUse">
<stop stop-color="#FF5E00"/>
<stop offset="0.1" stop-color="#F95C00" stop-opacity="0.98"/>
<stop offset="0.23" stop-color="#EA5600" stop-opacity="0.92"/>
<stop offset="0.36" stop-color="#D24D00" stop-opacity="0.83"/>
<stop offset="0.5" stop-color="#B04000" stop-opacity="0.69"/>
<stop offset="0.65" stop-color="#833000" stop-opacity="0.52"/>
<stop offset="0.81" stop-color="#4D1C00" stop-opacity="0.3"/>
<stop offset="0.96" stop-color="#0F0500" stop-opacity="0.06"/>
<stop offset="1" stop-opacity="0"/>
</radialGradient>
<radialGradient id="paint12_radial_59935_32425" cx="0" cy="0" r="1" gradientTransform="matrix(-0.0491866 -0.0330537 0.502612 -1.16818 22.301 14.3265)" gradientUnits="userSpaceOnUse">
<stop stop-color="white"/>
<stop offset="0.1" stop-color="#F9F9F9" stop-opacity="0.98"/>
<stop offset="0.23" stop-color="#EAEAEA" stop-opacity="0.92"/>
<stop offset="0.36" stop-color="#D2D2D2" stop-opacity="0.83"/>
<stop offset="0.5" stop-color="#B0B0B0" stop-opacity="0.69"/>
<stop offset="0.65" stop-color="#838383" stop-opacity="0.52"/>
<stop offset="0.81" stop-color="#4D4D4D" stop-opacity="0.3"/>
<stop offset="0.96" stop-color="#0F0F0F" stop-opacity="0.06"/>
<stop offset="1" stop-opacity="0"/>
</radialGradient>
<radialGradient id="paint13_radial_59935_32425" cx="0" cy="0" r="1" gradientTransform="matrix(-0.0670677 -0.0450699 0.685329 -1.59286 22.2993 14.3287)" gradientUnits="userSpaceOnUse">
<stop stop-color="#FF5E00"/>
<stop offset="0.12" stop-color="#FE6004" stop-opacity="0.89"/>
<stop offset="0.38" stop-color="#FC6510" stop-opacity="0.6"/>
<stop offset="0.77" stop-color="#F86E24" stop-opacity="0.14"/>
<stop offset="0.88" stop-color="#F8712A" stop-opacity="0"/>
</radialGradient>
<radialGradient id="paint14_radial_59935_32425" cx="0" cy="0" r="1" gradientTransform="matrix(0.068363 -0.15889 3.77363 2.53589 22.196 14.462)" gradientUnits="userSpaceOnUse">
<stop stop-color="#FF5E00"/>
<stop offset="0.1" stop-color="#F95C00" stop-opacity="0.98"/>
<stop offset="0.23" stop-color="#EA5600" stop-opacity="0.92"/>
<stop offset="0.36" stop-color="#D24D00" stop-opacity="0.83"/>
<stop offset="0.5" stop-color="#B04000" stop-opacity="0.69"/>
<stop offset="0.65" stop-color="#833000" stop-opacity="0.52"/>
<stop offset="0.81" stop-color="#4D1C00" stop-opacity="0.3"/>
<stop offset="0.96" stop-color="#0F0500" stop-opacity="0.06"/>
<stop offset="1" stop-opacity="0"/>
</radialGradient>
<radialGradient id="paint15_radial_59935_32425" cx="0" cy="0" r="1" gradientTransform="matrix(0.0211628 -0.0491866 1.16818 0.785022 22.3607 14.5578)" gradientUnits="userSpaceOnUse">
<stop stop-color="white"/>
<stop offset="0.1" stop-color="#F9F9F9" stop-opacity="0.98"/>
<stop offset="0.23" stop-color="#EAEAEA" stop-opacity="0.92"/>
<stop offset="0.36" stop-color="#D2D2D2" stop-opacity="0.83"/>
<stop offset="0.5" stop-color="#B0B0B0" stop-opacity="0.69"/>
<stop offset="0.65" stop-color="#838383" stop-opacity="0.52"/>
<stop offset="0.81" stop-color="#4D4D4D" stop-opacity="0.3"/>
<stop offset="0.96" stop-color="#0F0F0F" stop-opacity="0.06"/>
<stop offset="1" stop-opacity="0"/>
</radialGradient>
<radialGradient id="paint16_radial_59935_32425" cx="0" cy="0" r="1" gradientTransform="matrix(0.0288562 -0.0670677 1.59286 1.07041 22.3591 14.5561)" gradientUnits="userSpaceOnUse">
<stop stop-color="#FF5E00"/>
<stop offset="0.12" stop-color="#FE6004" stop-opacity="0.89"/>
<stop offset="0.38" stop-color="#FC6510" stop-opacity="0.6"/>
<stop offset="0.77" stop-color="#F86E24" stop-opacity="0.14"/>
<stop offset="0.88" stop-color="#F8712A" stop-opacity="0"/>
</radialGradient>
<radialGradient id="paint17_radial_59935_32425" cx="0" cy="0" r="1" gradientTransform="matrix(-0.226721 -0.0969458 0.721345 -3.66432 21.6484 14.0894)" gradientUnits="userSpaceOnUse">
<stop stop-color="#DDD8C7"/>
<stop offset="0.07" stop-color="#D3CCB7" stop-opacity="0.97"/>
<stop offset="0.22" stop-color="#BAB08E" stop-opacity="0.9"/>
<stop offset="0.42" stop-color="#92824D" stop-opacity="0.79"/>
<stop offset="0.57" stop-color="#705B16" stop-opacity="0.69"/>
<stop offset="0.67" stop-color="#5D4C12" stop-opacity="0.58"/>
<stop offset="0.85" stop-color="#2E2509" stop-opacity="0.29"/>
<stop offset="1" stop-opacity="0"/>
</radialGradient>
<radialGradient id="paint18_radial_59935_32425" cx="0" cy="0" r="1" gradientTransform="matrix(-0.0112468 -0.278176 -3.82633 -0.549733 22.1875 13.2619)" gradientUnits="userSpaceOnUse">
<stop stop-color="#DDD8C7"/>
<stop offset="0.07" stop-color="#D3CCB7" stop-opacity="0.97"/>
<stop offset="0.22" stop-color="#BAB08E" stop-opacity="0.9"/>
<stop offset="0.42" stop-color="#92824D" stop-opacity="0.79"/>
<stop offset="0.57" stop-color="#705B16" stop-opacity="0.69"/>
<stop offset="0.67" stop-color="#5D4C12" stop-opacity="0.58"/>
<stop offset="0.85" stop-color="#2E2509" stop-opacity="0.29"/>
<stop offset="1" stop-opacity="0"/>
</radialGradient>
<radialGradient id="paint19_radial_59935_32425" cx="0" cy="0" r="1" gradientTransform="matrix(-0.00292325 0.0390984 -3.44933 -0.95093 22.0871 14.7354)" gradientUnits="userSpaceOnUse">
<stop stop-color="#FF5E00"/>
<stop offset="0.1" stop-color="#F95C00" stop-opacity="0.98"/>
<stop offset="0.23" stop-color="#EA5600" stop-opacity="0.92"/>
<stop offset="0.36" stop-color="#D24D00" stop-opacity="0.83"/>
<stop offset="0.5" stop-color="#B04000" stop-opacity="0.69"/>
<stop offset="0.65" stop-color="#833000" stop-opacity="0.52"/>
<stop offset="0.81" stop-color="#4D1C00" stop-opacity="0.3"/>
<stop offset="0.96" stop-color="#0F0500" stop-opacity="0.06"/>
<stop offset="1" stop-opacity="0"/>
</radialGradient>
<radialGradient id="paint20_radial_59935_32425" cx="0" cy="0" r="1" gradientTransform="matrix(-0.000904806 0.0121018 -1.06764 -0.294333 22.0839 14.7341)" gradientUnits="userSpaceOnUse">
<stop stop-color="white"/>
<stop offset="0.1" stop-color="#F9F9F9" stop-opacity="0.98"/>
<stop offset="0.23" stop-color="#EAEAEA" stop-opacity="0.92"/>
<stop offset="0.36" stop-color="#D2D2D2" stop-opacity="0.83"/>
<stop offset="0.5" stop-color="#B0B0B0" stop-opacity="0.69"/>
<stop offset="0.65" stop-color="#838383" stop-opacity="0.52"/>
<stop offset="0.81" stop-color="#4D4D4D" stop-opacity="0.3"/>
<stop offset="0.96" stop-color="#0F0F0F" stop-opacity="0.06"/>
<stop offset="1" stop-opacity="0"/>
</radialGradient>
<radialGradient id="paint21_radial_59935_32425" cx="0" cy="0" r="1" gradientTransform="matrix(-0.00123449 0.0165111 -1.45665 -0.401574 22.0876 14.7333)" gradientUnits="userSpaceOnUse">
<stop stop-color="#FF5E00"/>
<stop offset="0.12" stop-color="#FE6004" stop-opacity="0.89"/>
<stop offset="0.38" stop-color="#FC6510" stop-opacity="0.6"/>
<stop offset="0.77" stop-color="#F86E24" stop-opacity="0.14"/>
<stop offset="0.88" stop-color="#F8712A" stop-opacity="0"/>
</radialGradient>
<radialGradient id="paint22_radial_59935_32425" cx="0" cy="0" r="1" gradientTransform="matrix(-0.033347 -0.0092258 0.264707 -3.44862 22.4267 14.3075)" gradientUnits="userSpaceOnUse">
<stop stop-color="#FF5E00"/>
<stop offset="0.1" stop-color="#F95C00" stop-opacity="0.98"/>
<stop offset="0.23" stop-color="#EA5600" stop-opacity="0.92"/>
<stop offset="0.36" stop-color="#D24D00" stop-opacity="0.83"/>
<stop offset="0.5" stop-color="#B04000" stop-opacity="0.69"/>
<stop offset="0.65" stop-color="#833000" stop-opacity="0.52"/>
<stop offset="0.81" stop-color="#4D1C00" stop-opacity="0.3"/>
<stop offset="0.96" stop-color="#0F0500" stop-opacity="0.06"/>
<stop offset="1" stop-opacity="0"/>
</radialGradient>
<radialGradient id="paint23_radial_59935_32425" cx="0" cy="0" r="1" gradientTransform="matrix(-0.0103218 -0.00285562 0.0819343 -1.06744 22.4258 14.311)" gradientUnits="userSpaceOnUse">
<stop stop-color="white"/>
<stop offset="0.1" stop-color="#F9F9F9" stop-opacity="0.98"/>
<stop offset="0.23" stop-color="#EAEAEA" stop-opacity="0.92"/>
<stop offset="0.36" stop-color="#D2D2D2" stop-opacity="0.83"/>
<stop offset="0.5" stop-color="#B0B0B0" stop-opacity="0.69"/>
<stop offset="0.65" stop-color="#838383" stop-opacity="0.52"/>
<stop offset="0.81" stop-color="#4D4D4D" stop-opacity="0.3"/>
<stop offset="0.96" stop-color="#0F0F0F" stop-opacity="0.06"/>
<stop offset="1" stop-opacity="0"/>
</radialGradient>
<radialGradient id="paint24_radial_59935_32425" cx="0" cy="0" r="1" gradientTransform="matrix(-0.014069 -0.00389229 0.11168 -1.45495 22.424 14.3095)" gradientUnits="userSpaceOnUse">
<stop stop-color="#FF5E00"/>
<stop offset="0.12" stop-color="#FE6004" stop-opacity="0.89"/>
<stop offset="0.38" stop-color="#FC6510" stop-opacity="0.6"/>
<stop offset="0.77" stop-color="#F86E24" stop-opacity="0.14"/>
<stop offset="0.88" stop-color="#F8712A" stop-opacity="0"/>
</radialGradient>
<radialGradient id="paint25_radial_59935_32425" cx="0" cy="0" r="1" gradientTransform="matrix(-0.154068 -0.251465 3.05958 -1.97123 21.8224 13.6891)" gradientUnits="userSpaceOnUse">
<stop stop-color="#DDD8C7"/>
<stop offset="0.07" stop-color="#D3CCB7" stop-opacity="0.97"/>
<stop offset="0.22" stop-color="#BAB08E" stop-opacity="0.9"/>
<stop offset="0.42" stop-color="#92824D" stop-opacity="0.79"/>
<stop offset="0.57" stop-color="#705B16" stop-opacity="0.69"/>
<stop offset="0.67" stop-color="#5D4C12" stop-opacity="0.58"/>
<stop offset="0.85" stop-color="#2E2509" stop-opacity="0.29"/>
<stop offset="1" stop-opacity="0"/>
</radialGradient>
<radialGradient id="paint26_radial_59935_32425" cx="0" cy="0" r="1" gradientTransform="matrix(0.14197 -0.172972 -2.72929 -2.93315 22.7673 13.665)" gradientUnits="userSpaceOnUse">
<stop stop-color="#DDD8C7"/>
<stop offset="0.07" stop-color="#D3CCB7" stop-opacity="0.97"/>
<stop offset="0.22" stop-color="#BAB08E" stop-opacity="0.9"/>
<stop offset="0.42" stop-color="#92824D" stop-opacity="0.79"/>
<stop offset="0.57" stop-color="#705B16" stop-opacity="0.69"/>
<stop offset="0.67" stop-color="#5D4C12" stop-opacity="0.58"/>
<stop offset="0.85" stop-color="#2E2509" stop-opacity="0.29"/>
<stop offset="1" stop-opacity="0"/>
</radialGradient>
<radialGradient id="paint27_radial_59935_32425" cx="0" cy="0" r="1" gradientTransform="matrix(-0.0237512 0.0214615 -2.21199 -2.90496 21.9467 14.4228)" gradientUnits="userSpaceOnUse">
<stop stop-color="#FF5E00"/>
<stop offset="0.1" stop-color="#F95C00" stop-opacity="0.98"/>
<stop offset="0.23" stop-color="#EA5600" stop-opacity="0.92"/>
<stop offset="0.36" stop-color="#D24D00" stop-opacity="0.83"/>
<stop offset="0.5" stop-color="#B04000" stop-opacity="0.69"/>
<stop offset="0.65" stop-color="#833000" stop-opacity="0.52"/>
<stop offset="0.81" stop-color="#4D1C00" stop-opacity="0.3"/>
<stop offset="0.96" stop-color="#0F0500" stop-opacity="0.06"/>
<stop offset="1" stop-opacity="0"/>
</radialGradient>
<radialGradient id="paint28_radial_59935_32425" cx="0" cy="0" r="1" gradientTransform="matrix(-0.00735855 0.00664908 -0.685314 -0.899999 21.9473 14.4235)" gradientUnits="userSpaceOnUse">
<stop stop-color="white"/>
<stop offset="0.1" stop-color="#F9F9F9" stop-opacity="0.98"/>
<stop offset="0.23" stop-color="#EAEAEA" stop-opacity="0.92"/>
<stop offset="0.36" stop-color="#D2D2D2" stop-opacity="0.83"/>
<stop offset="0.5" stop-color="#B0B0B0" stop-opacity="0.69"/>
<stop offset="0.65" stop-color="#838383" stop-opacity="0.52"/>
<stop offset="0.81" stop-color="#4D4D4D" stop-opacity="0.3"/>
<stop offset="0.96" stop-color="#0F0F0F" stop-opacity="0.06"/>
<stop offset="1" stop-opacity="0"/>
</radialGradient>
<radialGradient id="paint29_radial_59935_32425" cx="0" cy="0" r="1" gradientTransform="matrix(-0.0100261 0.00905953 -0.933745 -1.22627 21.9481 14.4246)" gradientUnits="userSpaceOnUse">
<stop stop-color="#FF5E00"/>
<stop offset="0.12" stop-color="#FE6004" stop-opacity="0.89"/>
<stop offset="0.38" stop-color="#FC6510" stop-opacity="0.6"/>
<stop offset="0.77" stop-color="#F86E24" stop-opacity="0.14"/>
<stop offset="0.88" stop-color="#F8712A" stop-opacity="0"/>
</radialGradient>
<radialGradient id="paint30_radial_59935_32425" cx="0" cy="0" r="1" gradientTransform="matrix(-0.025695 -0.0333138 2.4734 -2.21202 22.5107 14.5837)" gradientUnits="userSpaceOnUse">
<stop stop-color="#FF5E00"/>
<stop offset="0.1" stop-color="#F95C00" stop-opacity="0.98"/>
<stop offset="0.23" stop-color="#EA5600" stop-opacity="0.92"/>
<stop offset="0.36" stop-color="#D24D00" stop-opacity="0.83"/>
<stop offset="0.5" stop-color="#B04000" stop-opacity="0.69"/>
<stop offset="0.65" stop-color="#833000" stop-opacity="0.52"/>
<stop offset="0.81" stop-color="#4D1C00" stop-opacity="0.3"/>
<stop offset="0.96" stop-color="#0F0500" stop-opacity="0.06"/>
<stop offset="1" stop-opacity="0"/>
</radialGradient>
<radialGradient id="paint31_radial_59935_32425" cx="0" cy="0" r="1" gradientTransform="matrix(-0.00796055 -0.0103208 0.766283 -0.685298 22.5077 14.5768)" gradientUnits="userSpaceOnUse">
<stop stop-color="white"/>
<stop offset="0.1" stop-color="#F9F9F9" stop-opacity="0.98"/>
<stop offset="0.23" stop-color="#EAEAEA" stop-opacity="0.92"/>
<stop offset="0.36" stop-color="#D2D2D2" stop-opacity="0.83"/>
<stop offset="0.5" stop-color="#B0B0B0" stop-opacity="0.69"/>
<stop offset="0.65" stop-color="#838383" stop-opacity="0.52"/>
<stop offset="0.81" stop-color="#4D4D4D" stop-opacity="0.3"/>
<stop offset="0.96" stop-color="#0F0F0F" stop-opacity="0.06"/>
<stop offset="1" stop-opacity="0"/>
</radialGradient>
<radialGradient id="paint32_radial_59935_32425" cx="0" cy="0" r="1" gradientTransform="matrix(-0.0108466 -0.0140628 1.0441 -0.933759 22.5136 14.5817)" gradientUnits="userSpaceOnUse">
<stop stop-color="#FF5E00"/>
<stop offset="0.12" stop-color="#FE6004" stop-opacity="0.89"/>
<stop offset="0.38" stop-color="#FC6510" stop-opacity="0.6"/>
<stop offset="0.77" stop-color="#F86E24" stop-opacity="0.14"/>
<stop offset="0.88" stop-color="#F8712A" stop-opacity="0"/>
</radialGradient>
<radialGradient id="paint33_radial_59935_32425" cx="0" cy="0" r="1" gradientTransform="matrix(0.94574 0.618208 -0.431749 0.945741 22.2443 14.4937)" gradientUnits="userSpaceOnUse">
<stop stop-color="white"/>
<stop offset="0.1" stop-color="#F9F9F9" stop-opacity="0.98"/>
<stop offset="0.23" stop-color="#EAEAEA" stop-opacity="0.92"/>
<stop offset="0.36" stop-color="#D2D2D2" stop-opacity="0.83"/>
<stop offset="0.5" stop-color="#B0B0B0" stop-opacity="0.69"/>
<stop offset="0.65" stop-color="#838383" stop-opacity="0.52"/>
<stop offset="0.81" stop-color="#4D4D4D" stop-opacity="0.3"/>
<stop offset="0.96" stop-color="#0F0F0F" stop-opacity="0.06"/>
<stop offset="1" stop-opacity="0"/>
</radialGradient>
<radialGradient id="paint34_radial_59935_32425" cx="0" cy="0" r="1" gradientTransform="matrix(1.41074 0.778368 -0.644033 1.19075 22.2463 14.494)" gradientUnits="userSpaceOnUse">
<stop stop-color="#FF5E00"/>
<stop offset="0.12" stop-color="#FE6004" stop-opacity="0.89"/>
<stop offset="0.38" stop-color="#FC6510" stop-opacity="0.6"/>
<stop offset="0.77" stop-color="#F86E24" stop-opacity="0.14"/>
<stop offset="0.88" stop-color="#F8712A" stop-opacity="0"/>
</radialGradient>
</defs>
</svg>
