<svg width="85" height="54" viewBox="0 0 85 54" fill="none" xmlns="http://www.w3.org/2000/svg">
<path fill-rule="evenodd" clip-rule="evenodd" d="M2.78782 18.0526C2.78782 8.98957 8.17567 1.75422 15.4001 0.279297L12.6122 0.745644C5.38785 2.22057 0 9.45591 0 18.5189L2.78782 18.0526Z" fill="#036D3D"/>
<path fill-rule="evenodd" clip-rule="evenodd" d="M15.3987 0.275481C16.5747 0.035377 17.7995 -0.0520712 19.0575 0.0301026L68.3958 3.25271C77.3822 3.83967 84.6669 12.8585 84.6669 23.3969C84.6669 32.46 79.2791 39.6953 72.0547 41.1702L69.2669 41.6366C76.4913 40.1617 81.8791 32.9263 81.8791 23.8633C81.8791 13.3249 74.5944 4.30602 65.608 3.71906L16.2697 0.49645C15.0116 0.414276 13.7869 0.501724 12.6108 0.741828L15.3987 0.275481Z" fill="#036D3D"/>
<path fill-rule="evenodd" clip-rule="evenodd" d="M72.0561 41.1722C70.8801 41.4124 69.6553 41.4998 68.3972 41.4176L19.0589 38.195C10.0726 37.6081 2.78782 28.5892 2.78782 18.0508L0 18.5171C0 29.0555 7.28482 38.0744 16.2711 38.6614L65.6094 41.884C66.8675 41.9661 68.0922 41.8787 69.2683 41.6386L72.0561 41.1722Z" fill="#036D3D"/>
<path fill-rule="evenodd" clip-rule="evenodd" d="M2.78782 18.0508L0 18.5171L2.78782 18.0508Z" fill="#036D3D"/>
<g filter="url(#filter0_i_59935_33648)">
<path d="M2.78638 18.0488C2.78638 7.51037 10.0712 -0.556853 19.0575 0.0301026L68.3958 3.25271C77.3822 3.83967 84.6669 12.8585 84.6669 23.3969C84.6669 33.9353 77.3822 42.0026 68.3958 41.4156L19.0575 38.193C10.0712 37.6061 2.78638 28.5872 2.78638 18.0488Z" fill="#08AF63"/>
</g>
<g filter="url(#filter1_d_59935_33648)">
<path d="M25.3825 20.2939C25.4624 20.2958 25.5286 20.3175 25.5809 20.3587C25.6469 20.387 25.6918 20.4615 25.7155 20.5821C25.7526 20.703 25.7747 20.8903 25.7818 21.1439C25.7889 21.3975 25.7871 21.7442 25.7763 22.1841C25.7649 22.6506 25.7493 23.017 25.7294 23.2833C25.7096 23.5495 25.678 23.7488 25.6348 23.8811C25.6049 24.0138 25.5563 24.0926 25.489 24.1176C25.435 24.143 25.368 24.1547 25.288 24.1527L24.3083 24.1287C23.6152 24.1118 23.0312 23.9975 22.5562 23.7858C22.0949 23.5611 21.7219 23.2719 21.4371 22.9181C21.1523 22.5644 20.949 22.1526 20.8271 21.6828C20.7056 21.1997 20.6512 20.6982 20.6639 20.1784L20.8679 11.8409L24.5068 11.9299L24.3106 19.9475C24.3054 20.1608 24.4094 20.2701 24.6227 20.2753L25.3825 20.2939ZM28.6726 20.3744C28.7526 20.3763 28.8187 20.398 28.8711 20.4393C28.937 20.4676 28.9819 20.542 29.0056 20.6626C29.0427 20.7836 29.0648 20.9708 29.0719 21.2244C29.079 21.478 29.0772 21.8247 29.0665 22.2646C29.055 22.7311 29.0394 23.0975 29.0196 23.3638C28.9997 23.63 28.9681 23.8293 28.9249 23.9616C28.895 24.0943 28.8464 24.1731 28.7791 24.1981C28.7251 24.2235 28.6581 24.2352 28.5781 24.2332L25.2791 24.1525C25.1992 24.1505 25.1328 24.1356 25.0802 24.1076C25.0142 24.0793 24.9693 24.0049 24.9456 23.8843C24.9089 23.75 24.8869 23.5561 24.8798 23.3025C24.8727 23.0489 24.8745 22.7022 24.8853 22.2623C24.8967 21.7958 24.9123 21.4294 24.9322 21.1631C24.952 20.8969 24.9834 20.7042 25.0263 20.5852C25.0563 20.4526 25.1049 20.3738 25.1722 20.3487C25.2265 20.3101 25.2936 20.2917 25.3736 20.2937L28.6726 20.3744ZM31.9724 20.4551C32.0524 20.4571 32.1185 20.4787 32.1708 20.52C32.2368 20.5483 32.2817 20.6228 32.3054 20.7434C32.3425 20.8643 32.3646 21.0516 32.3717 21.3052C32.3788 21.5587 32.377 21.9055 32.3662 22.3453C32.3548 22.8119 32.3392 23.1783 32.3193 23.4445C32.2995 23.7108 32.2679 23.9101 32.2247 24.0424C32.1948 24.175 32.1462 24.2539 32.0789 24.2789C32.0249 24.3042 31.9579 24.3159 31.8779 24.314L28.5789 24.2333C28.499 24.2313 28.4326 24.2163 28.38 24.1884C28.314 24.1601 28.2691 24.0856 28.2454 23.965C28.2087 23.8307 28.1867 23.6368 28.1796 23.3832C28.1725 23.1296 28.1743 22.7829 28.1851 22.343C28.1965 21.8765 28.2121 21.5101 28.232 21.2439C28.2518 20.9776 28.2832 20.785 28.3261 20.666C28.356 20.5334 28.4047 20.4545 28.472 20.4295C28.5263 20.3908 28.5934 20.3724 28.6734 20.3744L31.9724 20.4551ZM35.2722 20.5359C35.3521 20.5379 35.4183 20.5595 35.4706 20.6008C35.5366 20.6291 35.5815 20.7035 35.6052 20.8241C35.6423 20.9451 35.6644 21.1323 35.6715 21.3859C35.6786 21.6395 35.6768 21.9862 35.666 22.4261C35.6546 22.8926 35.639 23.259 35.6191 23.5253C35.5993 23.7915 35.5677 23.9908 35.5245 24.1231C35.4946 24.2558 35.446 24.3346 35.3787 24.3596C35.3247 24.385 35.2577 24.3967 35.1777 24.3947L31.8787 24.314C31.7987 24.312 31.7324 24.2971 31.6798 24.2691C31.6138 24.2408 31.5689 24.1664 31.5452 24.0458C31.5085 23.9115 31.4865 23.7176 31.4794 23.464C31.4723 23.2104 31.4741 22.8637 31.4848 22.4238C31.4963 21.9573 31.5119 21.5909 31.5318 21.3246C31.5516 21.0584 31.583 20.8657 31.6259 20.7468C31.6558 20.6141 31.7044 20.5353 31.7717 20.5102C31.826 20.4716 31.8932 20.4532 31.9732 20.4552L35.2722 20.5359ZM38.572 20.6167C38.6519 20.6186 38.7181 20.6402 38.7704 20.6815C38.8364 20.7098 38.8813 20.7843 38.905 20.9049C38.9421 21.0258 38.9642 21.2131 38.9713 21.4667C38.9784 21.7203 38.9766 22.067 38.9658 22.5069C38.9544 22.9734 38.9388 23.3398 38.9189 23.606C38.8991 23.8723 38.8675 24.0716 38.8243 24.2039C38.7944 24.3365 38.7457 24.4154 38.6784 24.4404C38.6245 24.4658 38.5575 24.4775 38.4775 24.4755L35.1785 24.3948C35.0985 24.3928 35.0322 24.3778 34.9796 24.3499C34.9136 24.3216 34.8687 24.2471 34.845 24.1265C34.8083 23.9922 34.7863 23.7983 34.7792 23.5447C34.7721 23.2912 34.7739 22.9444 34.7846 22.5046C34.7961 22.038 34.8117 21.6716 34.8315 21.4054C34.8514 21.1391 34.8828 20.9465 34.9257 20.8275C34.9556 20.6949 35.0042 20.616 35.0715 20.591C35.1258 20.5523 35.193 20.534 35.2729 20.5359L38.572 20.6167ZM41.8718 20.6974C41.9517 20.6994 42.0179 20.721 42.0702 20.7623C42.1362 20.7906 42.1811 20.865 42.2048 20.9856C42.2419 21.1066 42.2639 21.2938 42.2711 21.5474C42.2782 21.801 42.2764 22.1477 42.2656 22.5876C42.2542 23.0541 42.2386 23.4205 42.2187 23.6868C42.1989 23.953 42.1673 24.1523 42.1241 24.2847C42.0941 24.4173 42.0455 24.4961 41.9782 24.5212C41.9243 24.5465 41.8573 24.5582 41.7773 24.5562L38.4783 24.4755C38.3983 24.4736 38.332 24.4586 38.2793 24.4306C38.2134 24.4023 38.1685 24.3279 38.1448 24.2073C38.108 24.073 38.0861 23.8791 38.079 23.6255C38.0719 23.3719 38.0737 23.0252 38.0844 22.5853C38.0959 22.1188 38.1115 21.7524 38.1313 21.4861C38.1512 21.2199 38.1826 21.0272 38.2255 20.9083C38.2554 20.7756 38.304 20.6968 38.3713 20.6718C38.4256 20.6331 38.4928 20.6147 38.5727 20.6167L41.8718 20.6974ZM43.0922 20.7273C43.1721 20.7292 43.2461 20.7044 43.3141 20.6527C43.3823 20.5877 43.4176 20.5085 43.4199 20.4152L43.4928 17.4361L47.1117 17.5247L47.031 20.8237C47.0153 21.4635 46.9083 22.021 46.71 22.4963C46.5249 22.9719 46.2686 23.3658 45.9408 23.6778C45.6131 23.9899 45.2205 24.2271 44.7631 24.3892C44.3193 24.5384 43.8375 24.6067 43.3176 24.5939L41.7781 24.5563C41.6981 24.5543 41.6318 24.5394 41.5791 24.5114C41.5131 24.4831 41.4683 24.4086 41.4446 24.288C41.4078 24.1538 41.3859 23.9598 41.3788 23.7062C41.3716 23.4527 41.3735 23.1059 41.3842 22.6661C41.3956 22.1995 41.4113 21.8331 41.4311 21.5669C41.451 21.3006 41.4824 21.108 41.5253 20.989C41.5552 20.8564 41.6038 20.7775 41.6711 20.7525C41.7254 20.7138 41.7926 20.6955 41.8725 20.6974L43.0922 20.7273ZM45.8821 31.7988L43.023 31.7289L43.0905 28.9697L45.9497 29.0397L45.8821 31.7988ZM47.4024 28.5351L41.6842 28.3951L41.7517 25.6359L47.47 25.7759L47.4024 28.5351ZM57.6105 21.0826C57.6905 21.0845 57.7566 21.1062 57.809 21.1474C57.8616 21.1754 57.8998 21.2497 57.9235 21.3703C57.9606 21.4913 57.9827 21.6785 57.9898 21.9321C57.9969 22.1857 57.9951 22.5324 57.9844 22.9723C57.9729 23.4388 57.9573 23.8052 57.9375 24.0715C57.9176 24.3377 57.886 24.537 57.8428 24.6693C57.8129 24.802 57.7709 24.881 57.717 24.9063C57.663 24.9317 57.596 24.9434 57.516 24.9414L56.3764 24.9135C56.3165 25.7256 56.1458 26.435 55.8642 27.0416C55.5959 27.6486 55.2368 28.1533 54.7868 28.5557C54.3365 28.9715 53.8088 29.2787 53.2038 29.4773C52.5987 29.6759 51.943 29.7665 51.2365 29.7492L48.2574 29.6763L48.1319 25.8121L51.5509 25.8958C51.9908 25.9065 52.2995 25.8274 52.477 25.6583C52.6678 25.4896 52.768 25.212 52.7775 24.8254L52.4576 24.8176C51.6311 24.7974 50.9536 24.6875 50.425 24.4878C49.8964 24.2881 49.4829 24.0179 49.1845 23.6772C48.8997 23.3235 48.7034 22.8985 48.5955 22.4024C48.5009 21.9066 48.461 21.3588 48.4757 20.759C48.4897 20.1858 48.5897 19.6414 48.7757 19.1258C48.9617 18.6102 49.2261 18.1632 49.5688 17.7848C49.9251 17.3934 50.3526 17.0905 50.8514 16.8759C51.3504 16.6481 51.9132 16.5418 52.5397 16.5572C53.0862 16.5705 53.6041 16.6632 54.0933 16.8353C54.5826 17.0073 55.0095 17.2778 55.3739 17.6468C55.7386 18.0025 56.0208 18.4629 56.2203 19.0279C56.4336 19.58 56.5304 20.2559 56.5108 21.0557L57.6105 21.0826ZM51.9005 20.6027C51.8953 20.816 51.9312 20.9836 52.0082 21.1055C52.0853 21.2274 52.2638 21.2918 52.5437 21.2987L53.0835 21.3119L53.0972 20.7521C53.1096 20.2455 52.9092 19.9872 52.496 19.9771C52.1094 19.9677 51.9109 20.1762 51.9005 20.6027ZM60.909 21.1633C60.989 21.1653 61.0552 21.1869 61.1075 21.2282C61.1735 21.2565 61.2183 21.3309 61.2421 21.4515C61.2791 21.5725 61.3012 21.7597 61.3083 22.0133C61.3155 22.2669 61.3137 22.6136 61.3029 23.0535C61.2915 23.52 61.2758 23.8864 61.256 24.1527C61.2361 24.4189 61.2046 24.6182 61.1613 24.7505C61.1314 24.8832 61.0828 24.962 61.0155 24.987C60.9615 25.0124 60.8946 25.0241 60.8146 25.0221L57.5156 24.9414C57.4356 24.9394 57.3693 24.9245 57.3166 24.8965C57.2506 24.8682 57.2058 24.7938 57.182 24.6732C57.1453 24.5389 57.1234 24.345 57.1163 24.0914C57.1091 23.8378 57.1109 23.4911 57.1217 23.0512C57.1331 22.5847 57.1488 22.2183 57.1686 21.952C57.1885 21.6858 57.2198 21.4931 57.2628 21.3742C57.2927 21.2415 57.3413 21.1627 57.4086 21.1376C57.4629 21.099 57.53 21.0806 57.61 21.0826L60.909 21.1633ZM62.1294 21.1932C62.2094 21.1951 62.2834 21.1703 62.3513 21.1186C62.4196 21.0536 62.4549 20.9744 62.4572 20.8811L62.5301 17.902L66.149 17.9905L66.0683 21.2896C66.0526 21.9294 65.9456 22.4869 65.7472 22.9622C65.5622 23.4378 65.3058 23.8317 64.9781 24.1437C64.6504 24.4558 64.2578 24.6929 63.8003 24.8551C63.3566 25.0043 62.8748 25.0726 62.3549 25.0598L60.8154 25.0222C60.7354 25.0202 60.6691 25.0052 60.6164 24.9773C60.5504 24.949 60.5056 24.8745 60.4818 24.7539C60.4451 24.6196 60.4232 24.4257 60.416 24.1721C60.4089 23.9185 60.4107 23.5718 60.4215 23.132C60.4329 22.6654 60.4485 22.299 60.4684 22.0328C60.4883 21.7665 60.5196 21.5739 60.5626 21.4549C60.5925 21.3223 60.6411 21.2434 60.7084 21.2184C60.7627 21.1797 60.8298 21.1614 60.9098 21.1633L62.1294 21.1932ZM66.1959 16.8914L62.557 16.8023L62.624 14.0631L66.2629 14.1522L66.1959 16.8914Z" fill="white"/>
</g>
<g opacity="0.9">
<path d="M22.9289 18.302C22.7087 18.388 21.7667 15.8403 20.8254 12.6107C19.8841 9.38107 19.2986 6.6932 19.5194 6.60695C19.7396 6.52088 20.6816 9.06862 21.6229 12.2982C22.5648 15.5277 23.1497 18.2157 22.9289 18.302Z" fill="url(#paint0_radial_59935_33648)" style="mix-blend-mode:color-dodge"/>
<path d="M22.722 17.6169C22.8943 17.5706 22.3538 15.1926 21.5144 12.3047C20.675 9.41676 19.855 7.1139 19.6827 7.16024C19.5103 7.20657 20.0509 9.58457 20.8903 12.4725C21.7297 15.3604 22.5496 17.6633 22.722 17.6169Z" fill="url(#paint1_radial_59935_33648)" style="mix-blend-mode:screen"/>
<path d="M21.6765 14.0062C21.7301 13.9918 21.5625 13.2555 21.3027 12.3616C21.0429 11.4677 20.7891 10.7545 20.7356 10.7689C20.682 10.7833 20.8496 11.5197 21.1094 12.4136C21.3692 13.3074 21.6229 14.0206 21.6765 14.0062Z" fill="url(#paint2_radial_59935_33648)" style="mix-blend-mode:screen"/>
<path d="M21.8439 14.5936C21.9166 14.5741 21.6886 13.5705 21.3342 12.3511C20.9797 11.1317 20.6336 10.1599 20.5609 10.1794C20.4883 10.199 20.7165 11.2033 21.0707 12.4219C21.4249 13.6406 21.7713 14.6131 21.8439 14.5936Z" fill="url(#paint3_radial_59935_33648)" style="mix-blend-mode:color-dodge"/>
<path d="M15.4477 13.9696C15.3243 13.6442 17.8116 12.7029 21.0043 11.868C24.1966 11.0322 26.8849 10.6187 27.0087 10.945C27.1321 11.2704 24.6448 12.2117 21.4521 13.0466C18.2598 13.8824 15.5715 14.2959 15.4477 13.9696Z" fill="url(#paint4_radial_59935_33648)" style="mix-blend-mode:color-dodge"/>
<path d="M16.1153 13.8198C16.1886 14.0698 18.5666 13.655 21.4275 12.8933C24.2884 12.1315 26.5474 11.3115 26.4741 11.0615C26.4007 10.8116 24.0227 11.2263 21.1618 11.9881C18.3009 12.7498 16.0419 13.5698 16.1153 13.8198Z" fill="url(#paint5_radial_59935_33648)" style="mix-blend-mode:screen"/>
<path d="M21.3371 12.5819C22.2227 12.3461 22.9222 12.0922 22.8995 12.0148C22.8768 11.9373 22.1404 12.0658 21.2549 12.3016C20.3693 12.5374 19.6698 12.7913 19.6925 12.8687C19.7152 12.9461 20.4515 12.8177 21.3371 12.5819Z" fill="url(#paint6_radial_59935_33648)" style="mix-blend-mode:screen"/>
<path d="M19.1064 13.0231C19.1373 13.1284 20.1409 12.9536 21.3489 12.6319C22.5561 12.3105 23.5102 11.964 23.4792 11.8587C23.4483 11.7534 22.4447 11.9282 21.2367 12.2498C20.0288 12.5715 19.0754 12.9177 19.1064 13.0231Z" fill="url(#paint7_radial_59935_33648)" style="mix-blend-mode:color-dodge"/>
<path opacity="0.65" d="M22.397 16.038C24.0585 15.6429 24.9029 13.7934 24.2829 11.9069C23.6629 10.0205 21.8134 8.81145 20.1518 9.20653C18.4903 9.6016 17.6459 11.4512 18.2659 13.3376C18.8859 15.2241 20.7354 16.4331 22.397 16.038Z" fill="url(#paint8_radial_59935_33648)" style="mix-blend-mode:lighten"/>
<path opacity="0.67" d="M21.8029 14.2255C22.5837 14.0399 22.9805 13.1708 22.6891 12.2843C22.3978 11.3979 21.5287 10.8298 20.7479 11.0154C19.9672 11.2011 19.5704 12.0702 19.8617 12.9566C20.1531 13.8431 21.0222 14.4112 21.8029 14.2255Z" fill="url(#paint9_radial_59935_33648)" style="mix-blend-mode:lighten"/>
<path d="M19.3591 16.6701C19.2375 16.613 19.9693 14.6781 20.9938 12.3487C22.0184 10.0193 22.9473 8.17768 23.0689 8.23474C23.1904 8.29181 22.4586 10.2267 21.4341 12.5561C20.4096 14.8855 19.4806 16.7272 19.3591 16.6701Z" fill="url(#paint10_radial_59935_33648)" style="mix-blend-mode:color-dodge"/>
<path d="M19.6203 16.1815C19.7057 16.2389 20.5031 14.5947 21.4008 12.5082C22.2985 10.4218 22.9565 8.68465 22.8708 8.62645C22.7854 8.56904 21.9881 10.2132 21.0904 12.2997C20.1927 14.3861 19.5346 16.1232 19.6203 16.1815Z" fill="url(#paint11_radial_59935_33648)" style="mix-blend-mode:screen"/>
<path d="M20.7428 13.5721C20.7694 13.5899 21.016 13.0808 21.2941 12.4343C21.5722 11.7879 21.7761 11.25 21.7495 11.2322C21.7229 11.2143 21.4763 11.7235 21.1982 12.3699C20.9201 13.0163 20.7162 13.5542 20.7428 13.5721Z" fill="url(#paint12_radial_59935_33648)" style="mix-blend-mode:screen"/>
<path d="M20.5589 13.9993C20.595 14.0236 20.9315 13.3295 21.3105 12.4486C21.6895 11.5677 21.9672 10.8341 21.9311 10.8099C21.8951 10.7856 21.5585 11.4797 21.1795 12.3606C20.8005 13.2415 20.5228 13.9751 20.5589 13.9993Z" fill="url(#paint13_radial_59935_33648)" style="mix-blend-mode:color-dodge"/>
<path d="M17.3333 9.85568C17.2965 9.94112 18.9576 11.1473 21.044 12.5494C23.1305 13.9515 24.8509 15.0183 24.8883 14.9327C24.9251 14.8472 23.264 13.6411 21.1776 12.239C19.0912 10.8369 17.3707 9.7701 17.3333 9.85568Z" fill="url(#paint14_radial_59935_33648)" style="mix-blend-mode:screen"/>
<path d="M20.1055 11.7038C20.0941 11.7304 20.6084 12.1035 21.2548 12.5379C21.9012 12.9723 22.4339 13.3028 22.4454 13.2762C22.4568 13.2496 21.9425 12.8765 21.2961 12.4421C20.6496 12.0077 20.1169 11.6772 20.1055 11.7038Z" fill="url(#paint15_radial_59935_33648)" style="mix-blend-mode:screen"/>
<path d="M19.6796 11.4169C19.6641 11.453 20.3652 11.9621 21.2461 12.5541C22.127 13.1461 22.8535 13.5963 22.869 13.5603C22.8846 13.5242 22.1834 13.0151 21.3025 12.4231C20.4216 11.8311 19.6951 11.3809 19.6796 11.4169Z" fill="url(#paint16_radial_59935_33648)" style="mix-blend-mode:color-dodge"/>
<path d="M20.928 16.1801C21.0511 16.2329 21.2811 14.5509 21.4428 12.4238C21.6046 10.2967 21.636 8.53009 21.5136 8.47712C21.3906 8.42431 21.1605 10.1063 20.9988 12.2334C20.8371 14.3605 20.8056 16.1271 20.928 16.1801Z" fill="url(#paint17_radial_59935_33648)" style="mix-blend-mode:color-dodge"/>
<path d="M25.0731 13.4081C25.079 13.5583 23.36 13.1982 21.2329 12.6036C19.1057 12.009 17.3767 11.4041 17.3708 11.2539C17.3649 11.1037 19.084 11.4639 21.2111 12.0585C23.3383 12.6531 25.0673 13.2579 25.0731 13.4081Z" fill="url(#paint18_radial_59935_33648)" style="mix-blend-mode:color-dodge"/>
<path d="M24.657 13.2841C24.6585 13.2632 23.1153 12.8224 21.2089 12.2995C19.3033 11.7764 17.757 11.3701 17.7555 11.391C17.754 11.4118 19.2973 11.8526 21.2036 12.3756C23.1093 12.8987 24.6556 13.3049 24.657 13.2841Z" fill="url(#paint19_radial_59935_33648)" style="mix-blend-mode:screen"/>
<path d="M22.2718 12.6294C22.272 12.6231 21.7945 12.4868 21.2043 12.3244C20.6144 12.1628 20.1357 12.0366 20.1348 12.0431C20.1346 12.0494 20.6121 12.1857 21.2023 12.3481C21.7922 12.5096 22.2709 12.6358 22.2718 12.6294Z" fill="url(#paint20_radial_59935_33648)" style="mix-blend-mode:screen"/>
<path d="M22.6636 12.7351C22.6644 12.726 22.0128 12.5398 21.2082 12.3191C20.4036 12.0985 19.7514 11.9266 19.7506 11.9357C19.7498 11.9448 20.4014 12.131 21.206 12.3517C22.0106 12.5724 22.6628 12.7442 22.6636 12.7351Z" fill="url(#paint21_radial_59935_33648)" style="mix-blend-mode:color-dodge"/>
<path d="M20.9412 15.7934C20.959 15.7983 21.0903 14.2578 21.2344 12.3514C21.3788 10.4458 21.4805 8.89665 21.4628 8.89181C21.445 8.88697 21.3137 10.4275 21.1696 12.3338C21.0252 14.2394 20.9234 15.7886 20.9412 15.7934Z" fill="url(#paint22_radial_59935_33648)" style="mix-blend-mode:screen"/>
<path d="M21.1202 13.413C21.1255 13.4143 21.1661 12.9376 21.2111 12.3475C21.2555 11.7575 21.2874 11.278 21.2818 11.276C21.2763 11.2741 21.2359 11.7515 21.1909 12.3416C21.1465 12.9315 21.1146 13.4111 21.1202 13.413Z" fill="url(#paint23_radial_59935_33648)" style="mix-blend-mode:screen"/>
<path d="M21.0892 13.7995C21.0969 13.8018 21.1525 13.1513 21.2133 12.3467C21.2741 11.542 21.3174 10.8887 21.3096 10.8864C21.3019 10.8841 21.2463 11.5346 21.1855 12.3392C21.1248 13.1439 21.0814 13.7972 21.0892 13.7995Z" fill="url(#paint24_radial_59935_33648)" style="mix-blend-mode:color-dodge"/>
<path d="M18.4451 14.7758C18.5287 14.9118 19.8364 13.926 21.3663 12.5729C22.8966 11.2207 24.0693 10.0137 23.9865 9.87746C23.9029 9.74142 22.5952 10.7273 21.0653 12.0803C19.535 13.4326 18.3623 14.6396 18.4451 14.7758Z" fill="url(#paint25_radial_59935_33648)" style="mix-blend-mode:color-dodge"/>
<path d="M23.6787 15.5837C23.6019 15.6771 22.4371 14.2924 21.0773 12.4896C19.7174 10.6868 18.6774 9.15011 18.7539 9.05593C18.8304 8.96175 19.9955 10.3473 21.3554 12.1501C22.7153 13.9528 23.7553 15.4895 23.6787 15.5837Z" fill="url(#paint26_radial_59935_33648)" style="mix-blend-mode:color-dodge"/>
<path d="M23.4113 15.2257C23.4237 15.2145 22.444 13.9041 21.2228 12.3001C20.0016 10.696 19.0015 9.40458 18.9884 9.41597C18.9759 9.4272 19.9557 10.7376 21.1768 12.3416C22.398 13.9456 23.3982 15.2371 23.4113 15.2257Z" fill="url(#paint27_radial_59935_33648)" style="mix-blend-mode:screen"/>
<path d="M21.8847 13.2208C21.8885 13.2174 21.5856 12.8117 21.2068 12.3147C20.8281 11.8177 20.5185 11.4177 20.515 11.4219C20.5112 11.4253 20.8142 11.8309 21.1929 12.328C21.571 12.8251 21.8812 13.225 21.8847 13.2208Z" fill="url(#paint28_radial_59935_33648)" style="mix-blend-mode:screen"/>
<path d="M22.1342 13.5503C22.1397 13.5457 21.726 12.9929 21.2104 12.3154C20.6948 11.638 20.2725 11.093 20.267 11.0976C20.2615 11.1023 20.6752 11.6551 21.1908 12.3325C21.7064 13.0099 22.1287 13.555 22.1342 13.5503Z" fill="url(#paint29_radial_59935_33648)" style="mix-blend-mode:color-dodge"/>
<path d="M18.726 14.5361C18.7394 14.5535 19.8585 13.5781 21.2242 12.357C22.59 11.1358 23.6865 10.1316 23.6728 10.1134C23.6593 10.0959 22.5403 11.0714 21.1745 12.2925C19.8087 13.5136 18.7122 14.5178 18.726 14.5361Z" fill="url(#paint30_radial_59935_33648)" style="mix-blend-mode:screen"/>
<path d="M20.4303 13.0052C20.4344 13.0105 20.7809 12.709 21.204 12.3302C21.6274 11.9522 21.9668 11.6407 21.962 11.6355C21.9579 11.6302 21.6114 11.9317 21.1883 12.3106C20.7649 12.6885 20.4256 13.0001 20.4303 13.0052Z" fill="url(#paint31_radial_59935_33648)" style="mix-blend-mode:screen"/>
<path d="M20.1583 13.2567C20.1639 13.2644 20.636 12.8524 21.2128 12.3369C21.7896 11.8213 22.2523 11.3973 22.2467 11.3896C22.2411 11.382 21.769 11.7939 21.1922 12.3095C20.6154 12.825 20.1527 13.2491 20.1583 13.2567Z" fill="url(#paint32_radial_59935_33648)" style="mix-blend-mode:color-dodge"/>
<path d="M21.6721 11.5475C21.1501 11.2062 20.5327 11.353 20.2944 11.8751C20.0561 12.3972 20.2864 13.0981 20.8085 13.4393C21.3306 13.7806 21.9479 13.6338 22.1862 13.1117C22.4246 12.5897 22.1942 11.8888 21.6721 11.5475Z" fill="url(#paint33_radial_59935_33648)" style="mix-blend-mode:screen"/>
<path d="M22.7637 12.9726C22.9264 12.2324 22.3766 11.4189 21.5357 11.1555C20.6948 10.8922 19.8812 11.2788 19.7186 12.0191C19.5559 12.7593 20.1058 13.5728 20.9466 13.8362C21.7875 14.0995 22.6011 13.7129 22.7637 12.9726Z" fill="url(#paint34_radial_59935_33648)" style="mix-blend-mode:color-dodge"/>
</g>
<g filter="url(#filter2_f_59935_33648)">
<ellipse cx="40.769" cy="49.6173" rx="32.3791" ry="0.513953" transform="rotate(-0.294141 40.769 49.6173)" fill="#09192D" fill-opacity="0.35"/>
</g>
<defs>
<filter id="filter0_i_59935_33648" x="0.786377" y="0" width="83.8806" height="43.4453" filterUnits="userSpaceOnUse" color-interpolation-filters="sRGB">
<feFlood flood-opacity="0" result="BackgroundImageFix"/>
<feBlend mode="normal" in="SourceGraphic" in2="BackgroundImageFix" result="shape"/>
<feColorMatrix in="SourceAlpha" type="matrix" values="0 0 0 0 0 0 0 0 0 0 0 0 0 0 0 0 0 0 127 0" result="hardAlpha"/>
<feOffset dx="-2" dy="2"/>
<feGaussianBlur stdDeviation="2"/>
<feComposite in2="hardAlpha" operator="arithmetic" k2="-1" k3="1"/>
<feColorMatrix type="matrix" values="0 0 0 0 1 0 0 0 0 1 0 0 0 0 1 0 0 0 0.3 0"/>
<feBlend mode="normal" in2="shape" result="effect1_innerShadow_59935_33648"/>
</filter>
<filter id="filter1_d_59935_33648" x="16.3948" y="11.8418" width="53.8975" height="28.4453" filterUnits="userSpaceOnUse" color-interpolation-filters="sRGB">
<feFlood flood-opacity="0" result="BackgroundImageFix"/>
<feColorMatrix in="SourceAlpha" type="matrix" values="0 0 0 0 0 0 0 0 0 0 0 0 0 0 0 0 0 0 127 0" result="hardAlpha"/>
<feOffset dy="4"/>
<feGaussianBlur stdDeviation="2"/>
<feComposite in2="hardAlpha" operator="out"/>
<feColorMatrix type="matrix" values="0 0 0 0 0 0 0 0 0 0 0 0 0 0 0 0 0 0 0.35 0"/>
<feBlend mode="normal" in2="BackgroundImageFix" result="effect1_dropShadow_59935_33648"/>
<feBlend mode="normal" in="SourceGraphic" in2="effect1_dropShadow_59935_33648" result="shape"/>
</filter>
<filter id="filter2_f_59935_33648" x="5.39038" y="46.0762" width="70.7573" height="7.08203" filterUnits="userSpaceOnUse" color-interpolation-filters="sRGB">
<feFlood flood-opacity="0" result="BackgroundImageFix"/>
<feBlend mode="normal" in="SourceGraphic" in2="BackgroundImageFix" result="shape"/>
<feGaussianBlur stdDeviation="1.5" result="effect1_foregroundBlur_59935_33648"/>
</filter>
<radialGradient id="paint0_radial_59935_33648" cx="0" cy="0" r="1" gradientTransform="matrix(0.394227 -0.154346 -2.13511 -5.67465 20.1717 12.8614)" gradientUnits="userSpaceOnUse">
<stop stop-color="#DDD8C7"/>
<stop offset="0.07" stop-color="#D3CCB7" stop-opacity="0.97"/>
<stop offset="0.22" stop-color="#BAB08E" stop-opacity="0.9"/>
<stop offset="0.42" stop-color="#92824D" stop-opacity="0.79"/>
<stop offset="0.57" stop-color="#705B16" stop-opacity="0.69"/>
<stop offset="0.67" stop-color="#5D4C12" stop-opacity="0.58"/>
<stop offset="0.85" stop-color="#2E2509" stop-opacity="0.29"/>
<stop offset="1" stop-opacity="0"/>
</radialGradient>
<radialGradient id="paint1_radial_59935_33648" cx="0" cy="0" r="1" gradientTransform="matrix(-0.317985 0.0854919 -1.51793 -5.22238 21.188 12.2907)" gradientUnits="userSpaceOnUse">
<stop stop-color="#FF5E00"/>
<stop offset="0.1" stop-color="#F95C00" stop-opacity="0.98"/>
<stop offset="0.23" stop-color="#EA5600" stop-opacity="0.92"/>
<stop offset="0.36" stop-color="#D24D00" stop-opacity="0.83"/>
<stop offset="0.5" stop-color="#B04000" stop-opacity="0.69"/>
<stop offset="0.65" stop-color="#833000" stop-opacity="0.52"/>
<stop offset="0.81" stop-color="#4D1C00" stop-opacity="0.3"/>
<stop offset="0.96" stop-color="#0F0500" stop-opacity="0.06"/>
<stop offset="1" stop-opacity="0"/>
</radialGradient>
<radialGradient id="paint2_radial_59935_33648" cx="0" cy="0" r="1" gradientTransform="matrix(-0.0984984 0.0264816 -0.470191 -1.61767 21.1915 12.2889)" gradientUnits="userSpaceOnUse">
<stop stop-color="white"/>
<stop offset="0.1" stop-color="#F9F9F9" stop-opacity="0.98"/>
<stop offset="0.23" stop-color="#EAEAEA" stop-opacity="0.92"/>
<stop offset="0.36" stop-color="#D2D2D2" stop-opacity="0.83"/>
<stop offset="0.5" stop-color="#B0B0B0" stop-opacity="0.69"/>
<stop offset="0.65" stop-color="#838383" stop-opacity="0.52"/>
<stop offset="0.81" stop-color="#4D4D4D" stop-opacity="0.3"/>
<stop offset="0.96" stop-color="#0F0F0F" stop-opacity="0.06"/>
<stop offset="1" stop-opacity="0"/>
</radialGradient>
<radialGradient id="paint3_radial_59935_33648" cx="0" cy="0" r="1" gradientTransform="matrix(-0.13426 0.0360966 -0.6409 -2.20501 21.1881 12.2886)" gradientUnits="userSpaceOnUse">
<stop stop-color="#FF5E00"/>
<stop offset="0.12" stop-color="#FE6004" stop-opacity="0.89"/>
<stop offset="0.38" stop-color="#FC6510" stop-opacity="0.6"/>
<stop offset="0.77" stop-color="#F86E24" stop-opacity="0.14"/>
<stop offset="0.88" stop-color="#F8712A" stop-opacity="0"/>
</radialGradient>
<radialGradient id="paint4_radial_59935_33648" cx="0" cy="0" r="1" gradientTransform="matrix(0.221298 0.58263 5.53436 -2.14895 20.6586 10.9452)" gradientUnits="userSpaceOnUse">
<stop stop-color="#DDD8C7"/>
<stop offset="0.07" stop-color="#D3CCB7" stop-opacity="0.97"/>
<stop offset="0.22" stop-color="#BAB08E" stop-opacity="0.9"/>
<stop offset="0.42" stop-color="#92824D" stop-opacity="0.79"/>
<stop offset="0.57" stop-color="#705B16" stop-opacity="0.69"/>
<stop offset="0.67" stop-color="#5D4C12" stop-opacity="0.58"/>
<stop offset="0.85" stop-color="#2E2509" stop-opacity="0.29"/>
<stop offset="1" stop-opacity="0"/>
</radialGradient>
<radialGradient id="paint5_radial_59935_33648" cx="0" cy="0" r="1" gradientTransform="matrix(-0.135345 -0.461176 5.17351 -1.37756 21.3872 12.4101)" gradientUnits="userSpaceOnUse">
<stop stop-color="#FF5E00"/>
<stop offset="0.1" stop-color="#F95C00" stop-opacity="0.98"/>
<stop offset="0.23" stop-color="#EA5600" stop-opacity="0.92"/>
<stop offset="0.36" stop-color="#D24D00" stop-opacity="0.83"/>
<stop offset="0.5" stop-color="#B04000" stop-opacity="0.69"/>
<stop offset="0.65" stop-color="#833000" stop-opacity="0.52"/>
<stop offset="0.81" stop-color="#4D1C00" stop-opacity="0.3"/>
<stop offset="0.96" stop-color="#0F0500" stop-opacity="0.06"/>
<stop offset="1" stop-opacity="0"/>
</radialGradient>
<radialGradient id="paint6_radial_59935_33648" cx="0" cy="0" r="1" gradientTransform="matrix(-0.0419238 -0.14285 1.60253 -0.426703 21.3893 12.4109)" gradientUnits="userSpaceOnUse">
<stop stop-color="white"/>
<stop offset="0.1" stop-color="#F9F9F9" stop-opacity="0.98"/>
<stop offset="0.23" stop-color="#EAEAEA" stop-opacity="0.92"/>
<stop offset="0.36" stop-color="#D2D2D2" stop-opacity="0.83"/>
<stop offset="0.5" stop-color="#B0B0B0" stop-opacity="0.69"/>
<stop offset="0.65" stop-color="#838383" stop-opacity="0.52"/>
<stop offset="0.81" stop-color="#4D4D4D" stop-opacity="0.3"/>
<stop offset="0.96" stop-color="#0F0F0F" stop-opacity="0.06"/>
<stop offset="1" stop-opacity="0"/>
</radialGradient>
<radialGradient id="paint7_radial_59935_33648" cx="0" cy="0" r="1" gradientTransform="matrix(-0.0571456 -0.194719 2.18437 -0.581639 21.3861 12.4101)" gradientUnits="userSpaceOnUse">
<stop stop-color="#FF5E00"/>
<stop offset="0.12" stop-color="#FE6004" stop-opacity="0.89"/>
<stop offset="0.38" stop-color="#FC6510" stop-opacity="0.6"/>
<stop offset="0.77" stop-color="#F86E24" stop-opacity="0.14"/>
<stop offset="0.88" stop-color="#F8712A" stop-opacity="0"/>
</radialGradient>
<radialGradient id="paint8_radial_59935_33648" cx="0" cy="0" r="1" gradientTransform="matrix(2.92112 1.90947 -1.33355 2.92112 21.2753 12.6224)" gradientUnits="userSpaceOnUse">
<stop stop-color="#B0141C"/>
<stop offset="0.13" stop-color="#AA131B" stop-opacity="0.97"/>
<stop offset="0.28" stop-color="#9C1118" stop-opacity="0.89"/>
<stop offset="0.45" stop-color="#830E14" stop-opacity="0.75"/>
<stop offset="0.63" stop-color="#610B0F" stop-opacity="0.55"/>
<stop offset="0.81" stop-color="#350608" stop-opacity="0.3"/>
<stop offset="1" stop-opacity="0"/>
</radialGradient>
<radialGradient id="paint9_radial_59935_33648" cx="0" cy="0" r="1" gradientTransform="matrix(1.37263 0.897257 -0.626634 1.37263 21.2763 12.6206)" gradientUnits="userSpaceOnUse">
<stop stop-color="#FFAF02"/>
<stop offset="0.1" stop-color="#F9AB01" stop-opacity="0.98"/>
<stop offset="0.23" stop-color="#EAA101" stop-opacity="0.92"/>
<stop offset="0.36" stop-color="#D29001" stop-opacity="0.83"/>
<stop offset="0.5" stop-color="#B07801" stop-opacity="0.69"/>
<stop offset="0.65" stop-color="#835A01" stop-opacity="0.52"/>
<stop offset="0.81" stop-color="#4D3500" stop-opacity="0.3"/>
<stop offset="0.96" stop-color="#0F0A00" stop-opacity="0.06"/>
<stop offset="1" stop-opacity="0"/>
</radialGradient>
<radialGradient id="paint10_radial_59935_33648" cx="0" cy="0" r="1" gradientTransform="matrix(0.21898 0.103179 1.14101 -4.56 20.8445 12.2758)" gradientUnits="userSpaceOnUse">
<stop stop-color="#DDD8C7"/>
<stop offset="0.07" stop-color="#D3CCB7" stop-opacity="0.97"/>
<stop offset="0.22" stop-color="#BAB08E" stop-opacity="0.9"/>
<stop offset="0.42" stop-color="#92824D" stop-opacity="0.79"/>
<stop offset="0.57" stop-color="#705B16" stop-opacity="0.69"/>
<stop offset="0.67" stop-color="#5D4C12" stop-opacity="0.58"/>
<stop offset="0.85" stop-color="#2E2509" stop-opacity="0.29"/>
<stop offset="1" stop-opacity="0"/>
</radialGradient>
<radialGradient id="paint11_radial_59935_33648" cx="0" cy="0" r="1" gradientTransform="matrix(-0.15889 -0.106775 1.62361 -3.77363 21.2964 12.3283)" gradientUnits="userSpaceOnUse">
<stop stop-color="#FF5E00"/>
<stop offset="0.1" stop-color="#F95C00" stop-opacity="0.98"/>
<stop offset="0.23" stop-color="#EA5600" stop-opacity="0.92"/>
<stop offset="0.36" stop-color="#D24D00" stop-opacity="0.83"/>
<stop offset="0.5" stop-color="#B04000" stop-opacity="0.69"/>
<stop offset="0.65" stop-color="#833000" stop-opacity="0.52"/>
<stop offset="0.81" stop-color="#4D1C00" stop-opacity="0.3"/>
<stop offset="0.96" stop-color="#0F0500" stop-opacity="0.06"/>
<stop offset="1" stop-opacity="0"/>
</radialGradient>
<radialGradient id="paint12_radial_59935_33648" cx="0" cy="0" r="1" gradientTransform="matrix(-0.0491866 -0.0330537 0.502612 -1.16818 21.297 12.3265)" gradientUnits="userSpaceOnUse">
<stop stop-color="white"/>
<stop offset="0.1" stop-color="#F9F9F9" stop-opacity="0.98"/>
<stop offset="0.23" stop-color="#EAEAEA" stop-opacity="0.92"/>
<stop offset="0.36" stop-color="#D2D2D2" stop-opacity="0.83"/>
<stop offset="0.5" stop-color="#B0B0B0" stop-opacity="0.69"/>
<stop offset="0.65" stop-color="#838383" stop-opacity="0.52"/>
<stop offset="0.81" stop-color="#4D4D4D" stop-opacity="0.3"/>
<stop offset="0.96" stop-color="#0F0F0F" stop-opacity="0.06"/>
<stop offset="1" stop-opacity="0"/>
</radialGradient>
<radialGradient id="paint13_radial_59935_33648" cx="0" cy="0" r="1" gradientTransform="matrix(-0.0670677 -0.0450699 0.685329 -1.59286 21.2954 12.3287)" gradientUnits="userSpaceOnUse">
<stop stop-color="#FF5E00"/>
<stop offset="0.12" stop-color="#FE6004" stop-opacity="0.89"/>
<stop offset="0.38" stop-color="#FC6510" stop-opacity="0.6"/>
<stop offset="0.77" stop-color="#F86E24" stop-opacity="0.14"/>
<stop offset="0.88" stop-color="#F8712A" stop-opacity="0"/>
</radialGradient>
<radialGradient id="paint14_radial_59935_33648" cx="0" cy="0" r="1" gradientTransform="matrix(0.068363 -0.15889 3.77363 2.53589 21.1921 12.462)" gradientUnits="userSpaceOnUse">
<stop stop-color="#FF5E00"/>
<stop offset="0.1" stop-color="#F95C00" stop-opacity="0.98"/>
<stop offset="0.23" stop-color="#EA5600" stop-opacity="0.92"/>
<stop offset="0.36" stop-color="#D24D00" stop-opacity="0.83"/>
<stop offset="0.5" stop-color="#B04000" stop-opacity="0.69"/>
<stop offset="0.65" stop-color="#833000" stop-opacity="0.52"/>
<stop offset="0.81" stop-color="#4D1C00" stop-opacity="0.3"/>
<stop offset="0.96" stop-color="#0F0500" stop-opacity="0.06"/>
<stop offset="1" stop-opacity="0"/>
</radialGradient>
<radialGradient id="paint15_radial_59935_33648" cx="0" cy="0" r="1" gradientTransform="matrix(0.0211628 -0.0491866 1.16818 0.785022 21.3567 12.5578)" gradientUnits="userSpaceOnUse">
<stop stop-color="white"/>
<stop offset="0.1" stop-color="#F9F9F9" stop-opacity="0.98"/>
<stop offset="0.23" stop-color="#EAEAEA" stop-opacity="0.92"/>
<stop offset="0.36" stop-color="#D2D2D2" stop-opacity="0.83"/>
<stop offset="0.5" stop-color="#B0B0B0" stop-opacity="0.69"/>
<stop offset="0.65" stop-color="#838383" stop-opacity="0.52"/>
<stop offset="0.81" stop-color="#4D4D4D" stop-opacity="0.3"/>
<stop offset="0.96" stop-color="#0F0F0F" stop-opacity="0.06"/>
<stop offset="1" stop-opacity="0"/>
</radialGradient>
<radialGradient id="paint16_radial_59935_33648" cx="0" cy="0" r="1" gradientTransform="matrix(0.0288562 -0.0670677 1.59286 1.07041 21.3551 12.5561)" gradientUnits="userSpaceOnUse">
<stop stop-color="#FF5E00"/>
<stop offset="0.12" stop-color="#FE6004" stop-opacity="0.89"/>
<stop offset="0.38" stop-color="#FC6510" stop-opacity="0.6"/>
<stop offset="0.77" stop-color="#F86E24" stop-opacity="0.14"/>
<stop offset="0.88" stop-color="#F8712A" stop-opacity="0"/>
</radialGradient>
<radialGradient id="paint17_radial_59935_33648" cx="0" cy="0" r="1" gradientTransform="matrix(-0.226721 -0.0969458 0.721345 -3.66432 20.6442 12.0894)" gradientUnits="userSpaceOnUse">
<stop stop-color="#DDD8C7"/>
<stop offset="0.07" stop-color="#D3CCB7" stop-opacity="0.97"/>
<stop offset="0.22" stop-color="#BAB08E" stop-opacity="0.9"/>
<stop offset="0.42" stop-color="#92824D" stop-opacity="0.79"/>
<stop offset="0.57" stop-color="#705B16" stop-opacity="0.69"/>
<stop offset="0.67" stop-color="#5D4C12" stop-opacity="0.58"/>
<stop offset="0.85" stop-color="#2E2509" stop-opacity="0.29"/>
<stop offset="1" stop-opacity="0"/>
</radialGradient>
<radialGradient id="paint18_radial_59935_33648" cx="0" cy="0" r="1" gradientTransform="matrix(-0.0112468 -0.278176 -3.82633 -0.549733 21.1833 11.2619)" gradientUnits="userSpaceOnUse">
<stop stop-color="#DDD8C7"/>
<stop offset="0.07" stop-color="#D3CCB7" stop-opacity="0.97"/>
<stop offset="0.22" stop-color="#BAB08E" stop-opacity="0.9"/>
<stop offset="0.42" stop-color="#92824D" stop-opacity="0.79"/>
<stop offset="0.57" stop-color="#705B16" stop-opacity="0.69"/>
<stop offset="0.67" stop-color="#5D4C12" stop-opacity="0.58"/>
<stop offset="0.85" stop-color="#2E2509" stop-opacity="0.29"/>
<stop offset="1" stop-opacity="0"/>
</radialGradient>
<radialGradient id="paint19_radial_59935_33648" cx="0" cy="0" r="1" gradientTransform="matrix(-0.00292325 0.0390984 -3.44933 -0.95093 21.083 12.7354)" gradientUnits="userSpaceOnUse">
<stop stop-color="#FF5E00"/>
<stop offset="0.1" stop-color="#F95C00" stop-opacity="0.98"/>
<stop offset="0.23" stop-color="#EA5600" stop-opacity="0.92"/>
<stop offset="0.36" stop-color="#D24D00" stop-opacity="0.83"/>
<stop offset="0.5" stop-color="#B04000" stop-opacity="0.69"/>
<stop offset="0.65" stop-color="#833000" stop-opacity="0.52"/>
<stop offset="0.81" stop-color="#4D1C00" stop-opacity="0.3"/>
<stop offset="0.96" stop-color="#0F0500" stop-opacity="0.06"/>
<stop offset="1" stop-opacity="0"/>
</radialGradient>
<radialGradient id="paint20_radial_59935_33648" cx="0" cy="0" r="1" gradientTransform="matrix(-0.000904806 0.0121018 -1.06764 -0.294333 21.0797 12.7341)" gradientUnits="userSpaceOnUse">
<stop stop-color="white"/>
<stop offset="0.1" stop-color="#F9F9F9" stop-opacity="0.98"/>
<stop offset="0.23" stop-color="#EAEAEA" stop-opacity="0.92"/>
<stop offset="0.36" stop-color="#D2D2D2" stop-opacity="0.83"/>
<stop offset="0.5" stop-color="#B0B0B0" stop-opacity="0.69"/>
<stop offset="0.65" stop-color="#838383" stop-opacity="0.52"/>
<stop offset="0.81" stop-color="#4D4D4D" stop-opacity="0.3"/>
<stop offset="0.96" stop-color="#0F0F0F" stop-opacity="0.06"/>
<stop offset="1" stop-opacity="0"/>
</radialGradient>
<radialGradient id="paint21_radial_59935_33648" cx="0" cy="0" r="1" gradientTransform="matrix(-0.00123449 0.0165111 -1.45665 -0.401574 21.0834 12.7333)" gradientUnits="userSpaceOnUse">
<stop stop-color="#FF5E00"/>
<stop offset="0.12" stop-color="#FE6004" stop-opacity="0.89"/>
<stop offset="0.38" stop-color="#FC6510" stop-opacity="0.6"/>
<stop offset="0.77" stop-color="#F86E24" stop-opacity="0.14"/>
<stop offset="0.88" stop-color="#F8712A" stop-opacity="0"/>
</radialGradient>
<radialGradient id="paint22_radial_59935_33648" cx="0" cy="0" r="1" gradientTransform="matrix(-0.033347 -0.0092258 0.264707 -3.44862 21.4227 12.3095)" gradientUnits="userSpaceOnUse">
<stop stop-color="#FF5E00"/>
<stop offset="0.1" stop-color="#F95C00" stop-opacity="0.98"/>
<stop offset="0.23" stop-color="#EA5600" stop-opacity="0.92"/>
<stop offset="0.36" stop-color="#D24D00" stop-opacity="0.83"/>
<stop offset="0.5" stop-color="#B04000" stop-opacity="0.69"/>
<stop offset="0.65" stop-color="#833000" stop-opacity="0.52"/>
<stop offset="0.81" stop-color="#4D1C00" stop-opacity="0.3"/>
<stop offset="0.96" stop-color="#0F0500" stop-opacity="0.06"/>
<stop offset="1" stop-opacity="0"/>
</radialGradient>
<radialGradient id="paint23_radial_59935_33648" cx="0" cy="0" r="1" gradientTransform="matrix(-0.0103218 -0.00285562 0.0819343 -1.06744 21.4217 12.311)" gradientUnits="userSpaceOnUse">
<stop stop-color="white"/>
<stop offset="0.1" stop-color="#F9F9F9" stop-opacity="0.98"/>
<stop offset="0.23" stop-color="#EAEAEA" stop-opacity="0.92"/>
<stop offset="0.36" stop-color="#D2D2D2" stop-opacity="0.83"/>
<stop offset="0.5" stop-color="#B0B0B0" stop-opacity="0.69"/>
<stop offset="0.65" stop-color="#838383" stop-opacity="0.52"/>
<stop offset="0.81" stop-color="#4D4D4D" stop-opacity="0.3"/>
<stop offset="0.96" stop-color="#0F0F0F" stop-opacity="0.06"/>
<stop offset="1" stop-opacity="0"/>
</radialGradient>
<radialGradient id="paint24_radial_59935_33648" cx="0" cy="0" r="1" gradientTransform="matrix(-0.014069 -0.00389229 0.11168 -1.45495 21.42 12.3095)" gradientUnits="userSpaceOnUse">
<stop stop-color="#FF5E00"/>
<stop offset="0.12" stop-color="#FE6004" stop-opacity="0.89"/>
<stop offset="0.38" stop-color="#FC6510" stop-opacity="0.6"/>
<stop offset="0.77" stop-color="#F86E24" stop-opacity="0.14"/>
<stop offset="0.88" stop-color="#F8712A" stop-opacity="0"/>
</radialGradient>
<radialGradient id="paint25_radial_59935_33648" cx="0" cy="0" r="1" gradientTransform="matrix(-0.154068 -0.251465 3.05958 -1.97123 20.8184 11.6891)" gradientUnits="userSpaceOnUse">
<stop stop-color="#DDD8C7"/>
<stop offset="0.07" stop-color="#D3CCB7" stop-opacity="0.97"/>
<stop offset="0.22" stop-color="#BAB08E" stop-opacity="0.9"/>
<stop offset="0.42" stop-color="#92824D" stop-opacity="0.79"/>
<stop offset="0.57" stop-color="#705B16" stop-opacity="0.69"/>
<stop offset="0.67" stop-color="#5D4C12" stop-opacity="0.58"/>
<stop offset="0.85" stop-color="#2E2509" stop-opacity="0.29"/>
<stop offset="1" stop-opacity="0"/>
</radialGradient>
<radialGradient id="paint26_radial_59935_33648" cx="0" cy="0" r="1" gradientTransform="matrix(0.14197 -0.172972 -2.72929 -2.93315 21.7634 11.663)" gradientUnits="userSpaceOnUse">
<stop stop-color="#DDD8C7"/>
<stop offset="0.07" stop-color="#D3CCB7" stop-opacity="0.97"/>
<stop offset="0.22" stop-color="#BAB08E" stop-opacity="0.9"/>
<stop offset="0.42" stop-color="#92824D" stop-opacity="0.79"/>
<stop offset="0.57" stop-color="#705B16" stop-opacity="0.69"/>
<stop offset="0.67" stop-color="#5D4C12" stop-opacity="0.58"/>
<stop offset="0.85" stop-color="#2E2509" stop-opacity="0.29"/>
<stop offset="1" stop-opacity="0"/>
</radialGradient>
<radialGradient id="paint27_radial_59935_33648" cx="0" cy="0" r="1" gradientTransform="matrix(-0.0237512 0.0214615 -2.21199 -2.90496 20.9428 12.4208)" gradientUnits="userSpaceOnUse">
<stop stop-color="#FF5E00"/>
<stop offset="0.1" stop-color="#F95C00" stop-opacity="0.98"/>
<stop offset="0.23" stop-color="#EA5600" stop-opacity="0.92"/>
<stop offset="0.36" stop-color="#D24D00" stop-opacity="0.83"/>
<stop offset="0.5" stop-color="#B04000" stop-opacity="0.69"/>
<stop offset="0.65" stop-color="#833000" stop-opacity="0.52"/>
<stop offset="0.81" stop-color="#4D1C00" stop-opacity="0.3"/>
<stop offset="0.96" stop-color="#0F0500" stop-opacity="0.06"/>
<stop offset="1" stop-opacity="0"/>
</radialGradient>
<radialGradient id="paint28_radial_59935_33648" cx="0" cy="0" r="1" gradientTransform="matrix(-0.00735855 0.00664908 -0.685314 -0.899999 20.9433 12.4216)" gradientUnits="userSpaceOnUse">
<stop stop-color="white"/>
<stop offset="0.1" stop-color="#F9F9F9" stop-opacity="0.98"/>
<stop offset="0.23" stop-color="#EAEAEA" stop-opacity="0.92"/>
<stop offset="0.36" stop-color="#D2D2D2" stop-opacity="0.83"/>
<stop offset="0.5" stop-color="#B0B0B0" stop-opacity="0.69"/>
<stop offset="0.65" stop-color="#838383" stop-opacity="0.52"/>
<stop offset="0.81" stop-color="#4D4D4D" stop-opacity="0.3"/>
<stop offset="0.96" stop-color="#0F0F0F" stop-opacity="0.06"/>
<stop offset="1" stop-opacity="0"/>
</radialGradient>
<radialGradient id="paint29_radial_59935_33648" cx="0" cy="0" r="1" gradientTransform="matrix(-0.0100261 0.00905953 -0.933745 -1.22627 20.9441 12.4246)" gradientUnits="userSpaceOnUse">
<stop stop-color="#FF5E00"/>
<stop offset="0.12" stop-color="#FE6004" stop-opacity="0.89"/>
<stop offset="0.38" stop-color="#FC6510" stop-opacity="0.6"/>
<stop offset="0.77" stop-color="#F86E24" stop-opacity="0.14"/>
<stop offset="0.88" stop-color="#F8712A" stop-opacity="0"/>
</radialGradient>
<radialGradient id="paint30_radial_59935_33648" cx="0" cy="0" r="1" gradientTransform="matrix(-0.025695 -0.0333138 2.4734 -2.21202 21.5066 12.5798)" gradientUnits="userSpaceOnUse">
<stop stop-color="#FF5E00"/>
<stop offset="0.1" stop-color="#F95C00" stop-opacity="0.98"/>
<stop offset="0.23" stop-color="#EA5600" stop-opacity="0.92"/>
<stop offset="0.36" stop-color="#D24D00" stop-opacity="0.83"/>
<stop offset="0.5" stop-color="#B04000" stop-opacity="0.69"/>
<stop offset="0.65" stop-color="#833000" stop-opacity="0.52"/>
<stop offset="0.81" stop-color="#4D1C00" stop-opacity="0.3"/>
<stop offset="0.96" stop-color="#0F0500" stop-opacity="0.06"/>
<stop offset="1" stop-opacity="0"/>
</radialGradient>
<radialGradient id="paint31_radial_59935_33648" cx="0" cy="0" r="1" gradientTransform="matrix(-0.00796055 -0.0103208 0.766283 -0.685298 21.5037 12.5749)" gradientUnits="userSpaceOnUse">
<stop stop-color="white"/>
<stop offset="0.1" stop-color="#F9F9F9" stop-opacity="0.98"/>
<stop offset="0.23" stop-color="#EAEAEA" stop-opacity="0.92"/>
<stop offset="0.36" stop-color="#D2D2D2" stop-opacity="0.83"/>
<stop offset="0.5" stop-color="#B0B0B0" stop-opacity="0.69"/>
<stop offset="0.65" stop-color="#838383" stop-opacity="0.52"/>
<stop offset="0.81" stop-color="#4D4D4D" stop-opacity="0.3"/>
<stop offset="0.96" stop-color="#0F0F0F" stop-opacity="0.06"/>
<stop offset="1" stop-opacity="0"/>
</radialGradient>
<radialGradient id="paint32_radial_59935_33648" cx="0" cy="0" r="1" gradientTransform="matrix(-0.0108466 -0.0140628 1.0441 -0.933759 21.5097 12.5778)" gradientUnits="userSpaceOnUse">
<stop stop-color="#FF5E00"/>
<stop offset="0.12" stop-color="#FE6004" stop-opacity="0.89"/>
<stop offset="0.38" stop-color="#FC6510" stop-opacity="0.6"/>
<stop offset="0.77" stop-color="#F86E24" stop-opacity="0.14"/>
<stop offset="0.88" stop-color="#F8712A" stop-opacity="0"/>
</radialGradient>
<radialGradient id="paint33_radial_59935_33648" cx="0" cy="0" r="1" gradientTransform="matrix(0.94574 0.618208 -0.431749 0.945741 21.2404 12.4937)" gradientUnits="userSpaceOnUse">
<stop stop-color="white"/>
<stop offset="0.1" stop-color="#F9F9F9" stop-opacity="0.98"/>
<stop offset="0.23" stop-color="#EAEAEA" stop-opacity="0.92"/>
<stop offset="0.36" stop-color="#D2D2D2" stop-opacity="0.83"/>
<stop offset="0.5" stop-color="#B0B0B0" stop-opacity="0.69"/>
<stop offset="0.65" stop-color="#838383" stop-opacity="0.52"/>
<stop offset="0.81" stop-color="#4D4D4D" stop-opacity="0.3"/>
<stop offset="0.96" stop-color="#0F0F0F" stop-opacity="0.06"/>
<stop offset="1" stop-opacity="0"/>
</radialGradient>
<radialGradient id="paint34_radial_59935_33648" cx="0" cy="0" r="1" gradientTransform="matrix(1.41074 0.778368 -0.644033 1.19075 21.2423 12.494)" gradientUnits="userSpaceOnUse">
<stop stop-color="#FF5E00"/>
<stop offset="0.12" stop-color="#FE6004" stop-opacity="0.89"/>
<stop offset="0.38" stop-color="#FC6510" stop-opacity="0.6"/>
<stop offset="0.77" stop-color="#F86E24" stop-opacity="0.14"/>
<stop offset="0.88" stop-color="#F8712A" stop-opacity="0"/>
</radialGradient>
</defs>
</svg>
