<svg width="151" height="110" viewBox="0 0 151 110" fill="none" xmlns="http://www.w3.org/2000/svg">
<path d="M112.141 10.1094L97.0542 10.1094C86.0085 10.1094 77.0542 19.0637 77.0542 30.1094L77.0542 79.1094C77.0542 90.1551 68.0999 99.1094 57.0542 99.1094L43.1406 99.1094" stroke="url(#paint0_linear_59935_33481)" stroke-width="5"/>
<rect x="99.0469" width="51" height="22" rx="11" fill="#ABEFD0"/>
<path d="M118.727 13C118.495 13 118.275 12.972 118.067 12.916C117.859 12.852 117.675 12.748 117.515 12.604C117.363 12.46 117.239 12.272 117.143 12.04C117.055 11.8 117.011 11.504 117.011 11.152V5.56H118.535V10.756C118.535 11.156 118.711 11.356 119.063 11.356H119.387C119.563 11.356 119.651 11.62 119.651 12.148C119.651 12.716 119.563 13 119.387 13H118.727ZM120.513 11.356C120.745 11.356 120.909 11.304 121.005 11.2C121.109 11.088 121.161 10.916 121.161 10.684V9.436H122.685V10.816C122.685 11.544 122.509 12.092 122.157 12.46C121.813 12.82 121.309 13 120.645 13H119.385C119.281 13 119.213 12.936 119.181 12.808C119.141 12.672 119.121 12.472 119.121 12.208C119.121 11.904 119.141 11.688 119.181 11.56C119.213 11.424 119.281 11.356 119.385 11.356H120.513ZM121.701 17.548H120.237V16.156H121.701V17.548ZM122.613 15.7H121.161V14.308H122.613V15.7ZM120.765 15.7H119.313V14.308H120.765V15.7ZM125.003 14.26C125.539 14.26 125.923 14.136 126.155 13.888C126.387 13.648 126.523 13.352 126.563 13H125.999C125.583 13 125.243 12.956 124.979 12.868C124.715 12.78 124.507 12.648 124.355 12.472C124.203 12.296 124.095 12.084 124.031 11.836C123.975 11.58 123.947 11.288 123.947 10.96C123.947 10.648 123.991 10.352 124.079 10.072C124.167 9.784 124.295 9.536 124.463 9.328C124.639 9.12 124.855 8.956 125.111 8.836C125.375 8.708 125.679 8.644 126.023 8.644C126.295 8.644 126.551 8.688 126.791 8.776C127.039 8.864 127.255 9.004 127.439 9.196C127.623 9.388 127.767 9.64 127.871 9.952C127.983 10.264 128.039 10.644 128.039 11.092V11.356H128.903C129.079 11.356 129.167 11.62 129.167 12.148C129.167 12.716 129.079 13 128.903 13H128.027C128.003 13.392 127.919 13.764 127.775 14.116C127.631 14.468 127.431 14.776 127.175 15.04C126.927 15.304 126.623 15.512 126.263 15.664C125.903 15.824 125.503 15.904 125.063 15.904H123.887L123.815 14.26H125.003ZM125.399 10.84C125.399 11.032 125.439 11.168 125.519 11.248C125.607 11.32 125.767 11.356 125.999 11.356H126.587V11.02C126.587 10.716 126.535 10.508 126.431 10.396C126.335 10.284 126.183 10.228 125.975 10.228C125.591 10.228 125.399 10.432 125.399 10.84ZM130.028 11.356C130.26 11.356 130.424 11.304 130.52 11.2C130.624 11.088 130.676 10.916 130.676 10.684V9.436H132.2V10.816C132.2 11.544 132.024 12.092 131.672 12.46C131.328 12.82 130.824 13 130.16 13H128.9C128.796 13 128.728 12.936 128.696 12.808C128.656 12.672 128.636 12.472 128.636 12.208C128.636 11.904 128.656 11.688 128.696 11.56C128.728 11.424 128.796 11.356 128.9 11.356H130.028ZM131.804 8.116H130.22V6.664H131.804V8.116Z" fill="#02A159"/>
<rect y="88" width="51" height="22" rx="11" fill="#BEDBFF"/>
<path d="M11.3292 99.02C11.5692 99.02 11.7412 98.968 11.8452 98.864C11.9492 98.752 12.0012 98.6 12.0012 98.408V97.7H11.4492C11.1692 97.7 10.9812 97.772 10.8852 97.916C10.7972 98.052 10.7532 98.228 10.7532 98.444C10.7532 98.628 10.7932 98.772 10.8732 98.876C10.9532 98.972 11.1052 99.02 11.3292 99.02ZM13.4652 98.756C13.4652 99.156 13.6412 99.356 13.9932 99.356H14.3172C14.4212 99.356 14.4892 99.42 14.5212 99.548C14.5612 99.676 14.5812 99.876 14.5812 100.148C14.5812 100.444 14.5612 100.66 14.5212 100.796C14.4892 100.932 14.4212 101 14.3172 101H13.9932C13.5612 101 13.2212 100.932 12.9732 100.796C12.7252 100.66 12.5332 100.444 12.3972 100.148C12.1972 100.348 11.9732 100.476 11.7252 100.532C11.4852 100.58 11.2492 100.604 11.0172 100.604C10.4572 100.604 10.0292 100.428 9.73317 100.076C9.44517 99.724 9.30117 99.216 9.30117 98.552C9.30117 98.256 9.34117 97.968 9.42117 97.688C9.50917 97.4 9.63317 97.144 9.79317 96.92C9.96117 96.696 10.1692 96.516 10.4172 96.38C10.6652 96.244 10.9532 96.176 11.2812 96.176H12.0012V95.384H13.4652V98.756ZM14.3145 101C14.2105 101 14.1425 100.936 14.1105 100.808C14.0705 100.672 14.0505 100.472 14.0505 100.208C14.0505 99.904 14.0705 99.688 14.1105 99.56C14.1425 99.424 14.2105 99.356 14.3145 99.356H17.0865C17.5265 99.356 17.7465 99.132 17.7465 98.684V97.436H19.2705V98.816C19.2705 99.544 19.0945 100.092 18.7425 100.46C18.3905 100.82 17.8825 101 17.2185 101H14.3145ZM16.8825 103.76H15.2985V102.308H16.8825V103.76ZM22.3051 98.684C22.3051 98.916 22.3731 99.088 22.5091 99.2C22.6531 99.304 22.8251 99.356 23.0251 99.356H23.1571C23.3331 99.356 23.4211 99.62 23.4211 100.148C23.4211 100.716 23.3331 101 23.1571 101H23.0251C22.8891 101 22.7491 100.98 22.6051 100.94C22.4691 100.892 22.3451 100.8 22.2331 100.664V100.808C22.2331 101.216 22.1611 101.608 22.0171 101.984C21.8811 102.36 21.6851 102.688 21.4291 102.968C21.1811 103.256 20.8811 103.484 20.5291 103.652C20.1851 103.82 19.8051 103.904 19.3891 103.904H19.0891L18.9691 102.26H19.1251C19.4211 102.26 19.6731 102.216 19.8811 102.128C20.0971 102.048 20.2691 101.94 20.3971 101.804C20.5331 101.668 20.6291 101.512 20.6851 101.336C20.7491 101.168 20.7811 100.992 20.7811 100.808V97.436H22.3051V98.684ZM28.4901 99.236C28.5861 99.3 28.6941 99.336 28.8141 99.344C28.9421 99.352 29.0821 99.356 29.2341 99.356H29.8221C29.9261 99.356 29.9941 99.42 30.0261 99.548C30.0661 99.676 30.0861 99.876 30.0861 100.148C30.0861 100.444 30.0661 100.66 30.0261 100.796C29.9941 100.932 29.9261 101 29.8221 101H29.1741C28.9021 101 28.6701 100.972 28.4781 100.916C28.2861 100.86 28.1221 100.78 27.9861 100.676C27.8501 100.572 27.7381 100.452 27.6501 100.316C27.5621 100.172 27.4901 100.016 27.4341 99.848L26.5941 100.34C26.3621 100.476 26.1381 100.588 25.9221 100.676C25.7061 100.756 25.4781 100.82 25.2381 100.868C24.9981 100.916 24.7381 100.952 24.4581 100.976C24.1781 100.992 23.8581 101 23.4981 101H23.1621C23.0581 101 22.9901 100.936 22.9581 100.808C22.9181 100.672 22.8981 100.472 22.8981 100.208C22.8981 99.904 22.9181 99.688 22.9581 99.56C22.9901 99.424 23.0581 99.356 23.1621 99.356H23.5581C23.8541 99.356 24.1181 99.356 24.3501 99.356C24.5901 99.348 24.8061 99.332 24.9981 99.308C25.1981 99.284 25.3821 99.244 25.5501 99.188C25.7261 99.132 25.9021 99.056 26.0781 98.96L27.2541 98.288C27.2061 98.224 27.1621 98.172 27.1221 98.132C27.0821 98.084 27.0341 98.048 26.9781 98.024C26.9221 98 26.8541 97.984 26.7741 97.976C26.6941 97.968 26.5901 97.964 26.4621 97.964H24.0141L24.0861 96.308H26.7261C26.9581 96.308 27.1821 96.344 27.3981 96.416C27.6221 96.488 27.8301 96.624 28.0221 96.824C28.2141 97.016 28.3901 97.284 28.5501 97.628C28.7181 97.972 28.8581 98.416 28.9701 98.96L28.4901 99.236ZM26.9301 103.76H25.3461V102.308H26.9301V103.76ZM30.9464 99.356C31.1784 99.356 31.3424 99.304 31.4384 99.2C31.5424 99.088 31.5944 98.916 31.5944 98.684V97.436H33.1184V98.816C33.1184 99.544 32.9424 100.092 32.5904 100.46C32.2464 100.82 31.7424 101 31.0784 101H29.8184C29.7144 101 29.6464 100.936 29.6144 100.808C29.5744 100.672 29.5544 100.472 29.5544 100.208C29.5544 99.904 29.5744 99.688 29.6144 99.56C29.6464 99.424 29.7144 99.356 29.8184 99.356H30.9464ZM33.1064 96.116H31.6544V94.724H33.1064V96.116ZM31.2584 96.116H29.8064V94.724H31.2584V96.116ZM37.7387 101C37.5067 101 37.2867 100.972 37.0787 100.916C36.8707 100.852 36.6867 100.748 36.5267 100.604C36.3747 100.46 36.2507 100.272 36.1547 100.04C36.0667 99.8 36.0227 99.504 36.0227 99.152V93.56H37.5467V98.756C37.5467 99.156 37.7227 99.356 38.0747 99.356H38.3987C38.5747 99.356 38.6627 99.62 38.6627 100.148C38.6627 100.716 38.5747 101 38.3987 101H37.7387ZM39.5245 99.356C39.7565 99.356 39.9205 99.304 40.0165 99.2C40.1205 99.088 40.1725 98.916 40.1725 98.684V97.436H41.6965V98.816C41.6965 99.544 41.5205 100.092 41.1685 100.46C40.8245 100.82 40.3205 101 39.6565 101H38.3965C38.2925 101 38.2245 100.936 38.1925 100.808C38.1525 100.672 38.1325 100.472 38.1325 100.208C38.1325 99.904 38.1525 99.688 38.1925 99.56C38.2245 99.424 38.2925 99.356 38.3965 99.356H39.5245ZM40.2445 103.76H38.6605V102.308H40.2445V103.76Z" fill="#2B7FFF"/>
<defs>
<linearGradient id="paint0_linear_59935_33481" x1="77.3633" y1="77.654" x2="77.592" y2="10.1092" gradientUnits="userSpaceOnUse">
<stop stop-color="#BEDBFF"/>
<stop offset="1" stop-color="#ABEFD0"/>
</linearGradient>
</defs>
</svg>
