<svg width="150" height="77" viewBox="0 0 150 77" fill="none" xmlns="http://www.w3.org/2000/svg">
<path d="M111.953 11L96.8667 11C85.821 11 76.8667 19.9543 76.8667 31L76.8667 45C76.8667 56.0457 67.9124 65 56.8667 65L42.9531 65" stroke="url(#paint0_linear_59935_28908)" stroke-width="5"/>
<rect x="98.9062" width="51" height="22" rx="11" fill="#E5E7EB"/>
<path d="M112.014 9.904C112.238 10.16 112.402 10.416 112.506 10.672C112.618 10.928 112.674 11.176 112.674 11.416C112.674 11.632 112.634 11.836 112.554 12.028C112.482 12.22 112.366 12.388 112.206 12.532C112.054 12.676 111.862 12.792 111.63 12.88C111.398 12.96 111.13 13 110.826 13H107.718L107.658 11.356H110.562C110.77 11.356 110.874 11.28 110.874 11.128C110.874 11.048 110.834 10.968 110.754 10.888L108.846 8.704L110.034 7.588L112.014 9.904ZM115.651 12.808C115.651 13.216 115.575 13.608 115.423 13.984C115.279 14.36 115.075 14.688 114.811 14.968C114.555 15.256 114.247 15.484 113.887 15.652C113.535 15.82 113.151 15.904 112.735 15.904H111.943L111.883 14.26H112.339C112.675 14.26 112.959 14.216 113.191 14.128C113.415 14.048 113.595 13.94 113.731 13.804C113.875 13.668 113.975 13.512 114.031 13.336C114.095 13.168 114.127 12.992 114.127 12.808V9.436H115.651V12.808ZM116.97 5.56H118.494V13H116.97V5.56ZM120.931 14.26C121.467 14.26 121.851 14.136 122.083 13.888C122.315 13.648 122.451 13.352 122.491 13H121.927C121.511 13 121.171 12.956 120.907 12.868C120.643 12.78 120.435 12.648 120.283 12.472C120.131 12.296 120.023 12.084 119.959 11.836C119.903 11.58 119.875 11.288 119.875 10.96C119.875 10.648 119.919 10.352 120.007 10.072C120.095 9.784 120.223 9.536 120.391 9.328C120.567 9.12 120.783 8.956 121.039 8.836C121.303 8.708 121.607 8.644 121.951 8.644C122.223 8.644 122.479 8.688 122.719 8.776C122.967 8.864 123.183 9.004 123.367 9.196C123.551 9.388 123.695 9.64 123.799 9.952C123.911 10.264 123.967 10.644 123.967 11.092V12.808C123.967 13.216 123.899 13.608 123.763 13.984C123.627 14.36 123.431 14.688 123.175 14.968C122.919 15.256 122.607 15.484 122.239 15.652C121.871 15.82 121.455 15.904 120.991 15.904H119.815L119.743 14.26H120.931ZM121.327 10.84C121.327 11.032 121.367 11.168 121.447 11.248C121.535 11.32 121.695 11.356 121.927 11.356H122.515V11.02C122.515 10.716 122.463 10.508 122.359 10.396C122.263 10.284 122.111 10.228 121.903 10.228C121.519 10.228 121.327 10.432 121.327 10.84ZM126.68 11.152C126.68 10.92 126.708 10.704 126.764 10.504C126.82 10.296 126.9 10.096 127.004 9.904C127.116 9.712 127.248 9.52 127.4 9.328C127.552 9.128 127.728 8.92 127.928 8.704L127.376 8.152L128.396 7.06C128.892 7.54 129.304 7.96 129.632 8.32C129.968 8.68 130.232 9.008 130.424 9.304C130.624 9.6 130.764 9.88 130.844 10.144C130.932 10.408 130.976 10.68 130.976 10.96C130.976 11.256 130.92 11.532 130.808 11.788C130.696 12.036 130.544 12.252 130.352 12.436C130.16 12.612 129.928 12.752 129.656 12.856C129.392 12.952 129.104 13 128.792 13C128.48 13 128.192 12.956 127.928 12.868C127.672 12.78 127.452 12.656 127.268 12.496C127.084 12.336 126.94 12.144 126.836 11.92C126.732 11.688 126.68 11.432 126.68 11.152ZM129.452 10.804C129.452 10.748 129.444 10.692 129.428 10.636C129.42 10.58 129.396 10.516 129.356 10.444C129.316 10.364 129.252 10.272 129.164 10.168C129.084 10.056 128.968 9.924 128.816 9.772C128.536 10.052 128.36 10.272 128.288 10.432C128.224 10.584 128.192 10.712 128.192 10.816C128.192 10.952 128.24 11.076 128.336 11.188C128.44 11.3 128.604 11.356 128.828 11.356C129.052 11.356 129.212 11.3 129.308 11.188C129.404 11.076 129.452 10.948 129.452 10.804ZM133.956 12.808C133.956 13.216 133.88 13.608 133.728 13.984C133.584 14.36 133.38 14.688 133.116 14.968C132.86 15.256 132.552 15.484 132.192 15.652C131.84 15.82 131.456 15.904 131.04 15.904H130.248L130.188 14.26H130.644C130.98 14.26 131.264 14.216 131.496 14.128C131.72 14.048 131.9 13.94 132.036 13.804C132.18 13.668 132.28 13.512 132.336 13.336C132.4 13.168 132.432 12.992 132.432 12.808V9.436H133.956V12.808ZM133.956 8.116H132.372V6.664H133.956V8.116ZM136.991 13C136.759 13 136.539 12.972 136.331 12.916C136.123 12.852 135.939 12.748 135.779 12.604C135.627 12.46 135.503 12.272 135.407 12.04C135.319 11.8 135.275 11.504 135.275 11.152V5.56H136.799V10.756C136.799 11.156 136.975 11.356 137.327 11.356H137.651C137.827 11.356 137.915 11.62 137.915 12.148C137.915 12.716 137.827 13 137.651 13H136.991ZM138.776 11.356C139.008 11.356 139.172 11.304 139.268 11.2C139.372 11.088 139.424 10.916 139.424 10.684V9.436H140.948V10.816C140.948 11.544 140.772 12.092 140.42 12.46C140.076 12.82 139.572 13 138.908 13H137.648C137.544 13 137.476 12.936 137.444 12.808C137.404 12.672 137.384 12.472 137.384 12.208C137.384 11.904 137.404 11.688 137.444 11.56C137.476 11.424 137.544 11.356 137.648 11.356H138.776ZM140.936 8.116H139.484V6.724H140.936V8.116ZM139.088 8.116H137.636V6.724H139.088V8.116Z" fill="#6A7282"/>
<rect y="54.0703" width="51" height="22" rx="11" fill="#ABEFD0"/>
<path d="M19.6801 67.0703C19.4481 67.0703 19.2281 67.0423 19.0201 66.9863C18.8121 66.9223 18.6281 66.8183 18.4681 66.6743C18.3161 66.5303 18.1921 66.3423 18.0961 66.1103C18.0081 65.8703 17.9641 65.5743 17.9641 65.2223V59.6303H19.4881V64.8263C19.4881 65.2263 19.6641 65.4263 20.0161 65.4263H20.3401C20.5161 65.4263 20.6041 65.6903 20.6041 66.2183C20.6041 66.7863 20.5161 67.0703 20.3401 67.0703H19.6801ZM21.4659 65.4263C21.6979 65.4263 21.8619 65.3743 21.9579 65.2703C22.0619 65.1583 22.1139 64.9863 22.1139 64.7543V63.5063H23.6379V64.8863C23.6379 65.6143 23.4619 66.1623 23.1099 66.5303C22.7659 66.8903 22.2619 67.0703 21.5979 67.0703H20.3379C20.2339 67.0703 20.1659 67.0063 20.1339 66.8783C20.0939 66.7423 20.0739 66.5423 20.0739 66.2783C20.0739 65.9743 20.0939 65.7583 20.1339 65.6303C20.1659 65.4943 20.2339 65.4263 20.3379 65.4263H21.4659ZM22.6539 71.6183H21.1899V70.2263H22.6539V71.6183ZM23.5659 69.7703H22.1139V68.3783H23.5659V69.7703ZM21.7179 69.7703H20.2659V68.3783H21.7179V69.7703ZM25.9562 68.3303C26.4922 68.3303 26.8762 68.2063 27.1082 67.9583C27.3402 67.7183 27.4762 67.4223 27.5162 67.0703H26.9522C26.5362 67.0703 26.1962 67.0263 25.9322 66.9383C25.6682 66.8503 25.4602 66.7183 25.3082 66.5423C25.1562 66.3663 25.0482 66.1543 24.9842 65.9063C24.9282 65.6503 24.9002 65.3583 24.9002 65.0303C24.9002 64.7183 24.9442 64.4223 25.0322 64.1423C25.1202 63.8543 25.2482 63.6063 25.4162 63.3983C25.5922 63.1903 25.8082 63.0263 26.0642 62.9063C26.3282 62.7783 26.6322 62.7143 26.9762 62.7143C27.2482 62.7143 27.5042 62.7583 27.7442 62.8463C27.9922 62.9343 28.2082 63.0743 28.3922 63.2663C28.5762 63.4583 28.7202 63.7103 28.8242 64.0223C28.9362 64.3343 28.9922 64.7143 28.9922 65.1623V65.4263H29.8562C30.0322 65.4263 30.1202 65.6903 30.1202 66.2183C30.1202 66.7863 30.0322 67.0703 29.8562 67.0703H28.9802C28.9562 67.4623 28.8722 67.8343 28.7282 68.1863C28.5842 68.5383 28.3842 68.8463 28.1282 69.1103C27.8802 69.3743 27.5762 69.5823 27.2162 69.7343C26.8562 69.8943 26.4562 69.9743 26.0162 69.9743H24.8402L24.7682 68.3303H25.9562ZM26.3522 64.9103C26.3522 65.1023 26.3922 65.2383 26.4722 65.3183C26.5602 65.3903 26.7202 65.4263 26.9522 65.4263H27.5402V65.0903C27.5402 64.7863 27.4882 64.5783 27.3842 64.4663C27.2882 64.3543 27.1362 64.2983 26.9282 64.2983C26.5442 64.2983 26.3522 64.5023 26.3522 64.9103ZM30.9815 65.4263C31.2135 65.4263 31.3775 65.3743 31.4735 65.2703C31.5775 65.1583 31.6295 64.9863 31.6295 64.7543V63.5063H33.1535V64.8863C33.1535 65.6143 32.9775 66.1623 32.6255 66.5303C32.2815 66.8903 31.7775 67.0703 31.1135 67.0703H29.8535C29.7495 67.0703 29.6815 67.0063 29.6495 66.8783C29.6095 66.7423 29.5895 66.5423 29.5895 66.2783C29.5895 65.9743 29.6095 65.7583 29.6495 65.6303C29.6815 65.4943 29.7495 65.4263 29.8535 65.4263H30.9815ZM32.7575 62.1863H31.1735V60.7343H32.7575V62.1863Z" fill="#02A159"/>
<defs>
<linearGradient id="paint0_linear_59935_28908" x1="77.1758" y1="51.9821" x2="77.26" y2="10.9996" gradientUnits="userSpaceOnUse">
<stop stop-color="#ABEFD0"/>
<stop offset="1" stop-color="#E5E7EB"/>
</linearGradient>
</defs>
</svg>
