<svg width="100%" height="100%" viewBox="0 0 24 24" version="1.1" xmlns="http://www.w3.org/2000/svg" fill-rule="evenodd" clip-rule="evenodd"><g id="Share-on-Web"><g id="Assets"><g id="porsline-logo"><rect id="Rectangle" x="0" y="0" width="24" height="24" fill="none"></rect><path id="Combined-Shape" d="M6.039,17.738C7.165,17.738 8.078,18.692 8.078,19.869C8.078,21.046 7.165,22 6.039,22C4.913,22 4,21.046 4,19.869C4,18.692 4.913,17.738 6.039,17.738ZM14.353,2C17.472,2 20,4.642 20,7.902C20,11.103 17.561,13.709 14.519,13.801L14.353,13.803L9.527,13.803L8.808,16.426L4.891,16.426L6.69,9.869L14.353,9.869C15.393,9.869 16.235,8.988 16.235,7.902C16.235,6.854 15.452,5.998 14.464,5.938L14.353,5.935L7.801,5.934L8.88,2L14.353,2Z" fill="#000"></path></g></g></g></svg>