<svg width="100%" height="100%" viewBox="0 0 24 24" version="1.1" xmlns="http://www.w3.org/2000/svg" fill-rule="evenodd" clip-rule="evenodd"><g transform="matrix(1,0,0,1,1.5,1.5)"><g id="Share-on-Web"><g id="Assets"><g id="add"><path id="Fill" d="M10.5,1.5C15.45,1.5 19.5,5.55 19.5,10.5C19.5,15.45 15.45,19.5 10.5,19.5C5.55,19.5 1.5,15.45 1.5,10.5C1.5,5.55 5.55,1.5 10.5,1.5M10.5,0C4.725,0 0,4.725 0,10.5C0,16.275 4.725,21 10.5,21C16.275,21 21,16.275 21,10.5C21,4.725 16.275,0 10.5,0ZM16.5,9.75L11.25,9.75L11.25,4.5L9.75,4.5L9.75,9.75L4.5,9.75L4.5,11.25L9.75,11.25L9.75,16.5L11.25,16.5L11.25,11.25L16.5,11.25L16.5,9.75Z" fill="#000"></path></g></g></g></g></svg>