<svg width="100%" height="100%" viewBox="0 0 24 24" version="1.1" xmlns="http://www.w3.org/2000/svg" fill-rule="evenodd" clip-rule="evenodd"><g transform="matrix(1,0,0,1,1.5,4.5)"><g id="Share-on-Web"><g id="Assets"><g id="email"><path id="Fill" d="M19.5,0L1.5,0C0.672,0 0,0.672 0,1.5L0,13.5C0,14.328 0.672,15 1.5,15L19.5,15C20.328,15 21,14.328 21,13.5L21,1.5C21,0.672 20.328,0 19.5,0ZM17.85,1.5L10.5,6.585L3.15,1.5L17.85,1.5ZM1.5,13.5L1.5,2.183L10.073,8.115C10.33,8.293 10.67,8.293 10.928,8.115L19.5,2.183L19.5,13.5L1.5,13.5Z" fill="#000"></path></g></g></g></g></svg>