<svg width="100%" height="100%" viewBox="0 0 24 24" version="1.1" xmlns="http://www.w3.org/2000/svg" fill-rule="evenodd" clip-rule="evenodd"><g transform="matrix(1,0,0,1,0.96,1.5)"><g id="Share-on-Web"><g id="Assets"><g id="star"><path id="Fill" d="M11.04,3.39L13.11,7.575L13.455,8.325L14.205,8.438L18.825,9.105L15.54,12.33L14.977,12.878L15.113,13.628L15.9,18.225L11.768,16.058L11.04,15.75L10.343,16.118L6.21,18.255L6.96,13.658L7.095,12.908L6.54,12.33L3.225,9.068L7.845,8.4L8.595,8.288L8.94,7.537L11.04,3.39M11.04,0L7.628,6.915L-0,8.018L5.52,13.403L4.215,21L11.04,17.415L17.865,21L16.56,13.403L22.08,8.025L14.453,6.915L11.04,0Z" fill="#000"></path></g></g></g></g></svg>