<svg width="100%" height="100%" viewBox="0 0 24 24" version="1.1" xmlns="http://www.w3.org/2000/svg" fill-rule="evenodd" clip-rule="evenodd"><g transform="matrix(1,0,0,1,3,2.2491)"><g id="Share-on-Web"><g id="Assets"><g id="gift"><path id="Fill" d="M16.5,5.251L14.429,5.251C15.443,3.751 15.09,1.718 13.628,0.649C12.167,-0.42 10.122,-0.141 9,1.281C7.876,-0.133 5.837,-0.408 4.379,0.658C2.921,1.724 2.564,3.751 3.571,5.251L1.5,5.251C0.672,5.252 0.001,5.923 0,6.751L0,9.751C0.001,10.579 0.672,11.25 1.5,11.251L1.5,18.751C1.501,19.579 2.172,20.25 3,20.251L15,20.251C15.828,20.25 16.499,19.579 16.5,18.751L16.5,11.251C17.328,11.25 17.999,10.579 18,9.751L18,6.751C17.999,5.923 17.328,5.252 16.5,5.251ZM9.75,3.376C9.75,2.34 10.589,1.501 11.625,1.501C12.661,1.501 13.5,2.34 13.5,3.376C13.5,4.411 12.661,5.251 11.625,5.251L9.75,5.251L9.75,3.376ZM6.375,1.501C7.41,1.502 8.249,2.341 8.25,3.376L8.25,5.251L6.375,5.251C5.339,5.251 4.5,4.411 4.5,3.376C4.5,2.34 5.339,1.501 6.375,1.501ZM1.5,6.751L8.25,6.751L8.25,9.751L1.5,9.751L1.5,6.751ZM3,11.251L8.25,11.251L8.25,18.751L3,18.751L3,11.251ZM15.001,18.751L9.75,18.751L9.75,11.251L15,11.251L15.001,18.751ZM9.75,9.751L9.75,6.751L16.5,6.751L16.501,9.751L9.75,9.751Z" fill="#000"></path></g></g></g></g></svg>