<svg width="100%" height="100%" viewBox="0 0 24 24" version="1.1" xmlns="http://www.w3.org/2000/svg" fill-rule="evenodd" clip-rule="evenodd"><g transform="matrix(1,0,0,1,0,1.4997)"><g id="Share-on-Web"><g id="Assets"><g id="shopping"><path id="Fill" d="M7.5,21C8.328,21 9,20.329 9,19.5C9,18.672 8.328,18 7.5,18C6.672,18 6,18.672 6,19.5C6,20.329 6.672,21 7.5,21ZM18,21C18.828,21 19.5,20.329 19.5,19.5C19.5,18.672 18.828,18 18,18C17.172,18 16.5,18.672 16.5,19.5C16.5,20.329 17.172,21 18,21ZM21,3.75L4.365,3.75L3.75,0.6C3.678,0.245 3.362,-0.007 3,0L0,0L0,1.5L2.385,1.5L5.25,15.9C5.322,16.255 5.638,16.508 6,16.5L19.5,16.5L19.5,15L6.615,15L6,12L19.5,12C19.857,12.009 20.171,11.764 20.25,11.415L21.75,4.665C21.801,4.44 21.745,4.203 21.598,4.025C21.452,3.846 21.231,3.745 21,3.75ZM18.9,10.5L5.715,10.5L4.665,5.25L20.063,5.25L18.9,10.5Z" fill="currentColor"></path></g></g></g></g></svg>