<svg width="100%" height="100%" viewBox="0 0 24 24" version="1.1" xmlns="http://www.w3.org/2000/svg" fill-rule="evenodd" clip-rule="evenodd"><g transform="matrix(1,0,0,1,1.5,1.5)"><g id="Share-on-Web"><g id="Assets"><g id="magic-wand"><path id="Fill" d="M20.561,16.5L7.5,3.439C6.907,2.873 5.972,2.873 5.379,3.439L3.439,5.379C2.855,5.965 2.855,6.914 3.439,7.5L16.499,20.561C17.085,21.145 18.034,21.145 18.62,20.561L20.561,18.621C20.842,18.339 21,17.958 21,17.56C21,17.162 20.842,16.781 20.561,16.5L20.561,16.5ZM4.5,6.439L6.439,4.5L10.189,8.25L8.249,10.19L4.499,6.44L4.5,6.439ZM0,10.5L1.5,9L3,10.5L1.5,12L0,10.5ZM9,1.5L10.5,0L12,1.5L10.5,3L9,1.5ZM0,1.5L1.5,0L3,1.5L1.5,3L0,1.5Z" fill="#000"></path></g></g></g></g></svg>