<svg width="100%" height="100%" viewBox="0 0 24 24" version="1.1" xmlns="http://www.w3.org/2000/svg" fill-rule="evenodd" clip-rule="evenodd"><g id="Share-on-Web"><g id="Assets"><g id="social-whatsapp"><rect id="Rectangle" x="0" y="0" width="24" height="24" fill="none"></rect><g id="Group-33" transform="matrix(1,0,0,1,3,3)"><path id="Combined-Shape" d="M9.038,0C11.435,0.001 13.685,0.93 15.377,2.616C17.07,4.302 18.001,6.543 18,8.926C17.998,13.844 13.977,17.846 9.038,17.846C7.534,17.845 6.06,17.47 4.751,16.76L0,18L1.272,13.378C0.486,12.022 0.073,10.484 0.075,8.919C0.077,4.001 4.098,0 9.038,0ZM9.04,1.507C4.931,1.507 1.59,4.832 1.588,8.92C1.586,10.315 1.981,11.683 2.727,12.865L2.904,13.145L2.152,15.881L4.971,15.145L5.243,15.306C6.387,15.981 7.698,16.338 9.035,16.339C13.143,16.339 16.485,13.013 16.487,8.926C16.493,6.958 15.708,5.069 14.307,3.681C12.913,2.285 11.017,1.502 9.04,1.507Z" fill="#000"></path><path id="Path" d="M6.798,5.19C6.63,4.819 6.453,4.812 6.294,4.805L5.864,4.8C5.715,4.8 5.472,4.856 5.267,5.079C5.062,5.302 4.484,5.841 4.484,6.938C4.484,8.035 5.286,9.095 5.398,9.244C5.51,9.393 6.947,11.715 9.223,12.609C11.115,13.351 11.5,13.204 11.91,13.167C12.321,13.129 13.235,12.627 13.422,12.107C13.608,11.586 13.608,11.14 13.553,11.047C13.497,10.954 13.347,10.898 13.123,10.787C12.899,10.675 11.798,10.136 11.593,10.061C11.388,9.987 11.239,9.95 11.089,10.173C10.94,10.396 10.511,10.898 10.38,11.047C10.25,11.196 10.119,11.214 9.895,11.103C9.671,10.991 8.95,10.756 8.094,9.996C7.428,9.406 6.979,8.676 6.848,8.453C6.717,8.23 6.834,8.109 6.947,7.998C7.047,7.898 7.171,7.738 7.283,7.607C7.395,7.477 7.432,7.384 7.506,7.236C7.581,7.087 7.544,6.957 7.488,6.845C7.432,6.734 6.997,5.631 6.798,5.19" fill="#000"></path></g></g></g></g></svg>