<svg width="100%" height="100%" viewBox="0 0 24 24" version="1.1" xmlns="http://www.w3.org/2000/svg" fill-rule="evenodd" clip-rule="evenodd"><g transform="matrix(1,0,0,1,1.5,3)"><g id="Share-on-Web"><g id="Assets"><g id="chat"><path id="Fill" d="M11.805,19.5L10.5,18.75L13.5,13.5L18,13.5C18.828,13.5 19.5,12.828 19.5,12L19.5,3C19.5,2.172 18.828,1.5 18,1.5L3,1.5C2.172,1.5 1.5,2.172 1.5,3L1.5,12C1.5,12.828 2.172,13.5 3,13.5L9.75,13.5L9.75,15L3,15C1.343,15 0,13.657 0,12L0,3C0,1.343 1.343,0 3,0L18,0C19.657,0 21,1.343 21,3L21,12C21,13.657 19.657,15 18,15L14.37,15L11.805,19.5ZM4.5,4.5L16.5,4.5L16.5,6L4.5,6L4.5,4.5ZM4.5,9L12,9L12,10.5L4.5,10.5L4.5,9Z" fill="#000"></path></g></g></g></g></svg>