<svg width="100%" height="100%" viewBox="0 0 24 24" version="1.1" xmlns="http://www.w3.org/2000/svg" fill-rule="evenodd" clip-rule="evenodd"><g transform="matrix(1,0,0,1,1.5,1.5)"><g id="Share-on-Web"><g id="Assets"><g id="help"><path id="Fill" d="M10.5,0C4.701,0 0,4.701 0,10.5C0,16.299 4.701,21 10.5,21C16.299,21 21,16.299 21,10.5C21,7.715 19.894,5.045 17.925,3.075C15.955,1.106 13.285,0 10.5,0ZM10.5,19.5C5.529,19.5 1.5,15.471 1.5,10.5C1.5,5.529 5.529,1.5 10.5,1.5C15.471,1.5 19.5,5.529 19.5,10.5C19.5,12.887 18.552,15.176 16.864,16.864C15.176,18.552 12.887,19.5 10.5,19.5ZM10.5,17.25C11.121,17.25 11.625,16.746 11.625,16.125C11.625,15.504 11.121,15 10.5,15C9.879,15 9.375,15.504 9.375,16.125C9.375,16.746 9.879,17.25 10.5,17.25ZM11.25,4.5L10.125,4.5C9.229,4.498 8.37,4.853 7.736,5.486C7.103,6.12 6.748,6.979 6.75,7.875L6.75,8.25L8.25,8.25L8.25,7.875C8.25,6.839 9.089,6 10.125,6L11.25,6C12.286,6 13.125,6.839 13.125,7.875C13.125,8.911 12.286,9.75 11.25,9.75L9.75,9.75L9.75,13.125L11.25,13.125L11.25,11.25C13.114,11.25 14.625,9.739 14.625,7.875C14.625,6.011 13.114,4.5 11.25,4.5Z" fill="#000"></path></g></g></g></g></svg>