<svg width="100%" height="100%" viewBox="0 0 24 24" version="1.1" xmlns="http://www.w3.org/2000/svg" fill-rule="evenodd" clip-rule="evenodd"><g transform="matrix(1,0,0,1,3,1.5)"><g id="Share-on-Web"><g id="Assets"><g id="calendar"><path id="Fill" d="M16.5,1.5L13.5,1.5L13.5,0L12,0L12,1.5L6,1.5L6,0L4.5,0L4.5,1.5L1.5,1.5C0.675,1.5 0,2.175 0,3L0,18C0,18.825 0.675,19.5 1.5,19.5L16.5,19.5C17.325,19.5 18,18.825 18,18L18,3C18,2.175 17.325,1.5 16.5,1.5ZM16.5,18L1.5,18L1.5,7.5L16.5,7.5L16.5,18ZM16.5,6L1.5,6L1.5,3L4.5,3L4.5,4.5L6,4.5L6,3L12,3L12,4.5L13.5,4.5L13.5,3L16.5,3L16.5,6Z" fill="#000"></path></g></g></g></g></svg>