<svg width="100%" height="100%" viewBox="0 0 24 24" version="1.1" xmlns="http://www.w3.org/2000/svg" fill-rule="evenodd" clip-rule="evenodd"><g transform="matrix(1,0,0,1,1.5,1.5)"><g id="Share-on-Web"><g id="Assets"><g id="chat-bot"><path id="Fill" d="M10.5,12.75C8.74,12.751 7.097,11.87 6.125,10.403L7.375,9.573C8.07,10.62 9.243,11.25 10.5,11.25C11.757,11.25 12.93,10.62 13.625,9.573L14.875,10.403C13.903,11.87 12.26,12.751 10.5,12.75ZM13.5,4.5C12.672,4.5 12,5.172 12,6C12,6.828 12.672,7.5 13.5,7.5C14.328,7.5 15,6.828 15,6C15.004,5.601 14.847,5.217 14.565,4.935C14.283,4.653 13.899,4.496 13.5,4.5ZM7.5,4.5C6.672,4.5 6,5.172 6,6C6,6.828 6.672,7.5 7.5,7.5C8.328,7.5 9,6.828 9,6C9.004,5.601 8.847,5.217 8.565,4.935C8.283,4.653 7.899,4.496 7.5,4.5ZM11.802,21L10.5,20.25L13.5,15L18,15C18.398,15.001 18.78,14.843 19.061,14.561C19.343,14.28 19.501,13.898 19.5,13.5L19.5,3C19.501,2.602 19.343,2.22 19.061,1.939C18.78,1.657 18.398,1.499 18,1.5L3,1.5C2.602,1.499 2.22,1.657 1.939,1.939C1.657,2.22 1.499,2.602 1.5,3L1.5,13.5C1.499,13.898 1.657,14.28 1.939,14.561C2.22,14.843 2.602,15.001 3,15L9.75,15L9.75,16.5L3,16.5C2.204,16.5 1.441,16.184 0.879,15.621C0.316,15.059 0,14.296 0,13.5L0,3C-0,2.204 0.316,1.441 0.878,0.878C1.441,0.316 2.204,-0 3,0L18,0C18.796,-0 19.559,0.316 20.122,0.878C20.684,1.441 21,2.204 21,3L21,13.5C21,14.296 20.684,15.059 20.121,15.621C19.559,16.184 18.796,16.5 18,16.5L14.373,16.5L11.802,21Z" fill="#000"></path></g></g></g></g></svg>