<svg width="100%" height="100%" viewBox="0 0 24 24" version="1.1" xmlns="http://www.w3.org/2000/svg" fill-rule="evenodd" clip-rule="evenodd"><g transform="matrix(1,0,0,1,1.5,1.5)"><g id="Share-on-Web"><g id="Assets"><g id="face--wink"><path id="Fill" d="M10.5,0C4.701,0 0,4.701 0,10.5C0,16.299 4.701,21 10.5,21C16.299,21 21,16.299 21,10.5C21,7.715 19.894,5.045 17.925,3.075C15.955,1.106 13.285,0 10.5,0ZM10.5,19.5C5.529,19.5 1.5,15.471 1.5,10.5C1.5,5.529 5.529,1.5 10.5,1.5C15.471,1.5 19.5,5.529 19.5,10.5C19.5,12.887 18.552,15.176 16.864,16.864C15.176,18.552 12.887,19.5 10.5,19.5ZM13.875,6.75C12.839,6.75 12,7.589 12,8.625C12,9.661 12.839,10.5 13.875,10.5C14.911,10.5 15.75,9.661 15.75,8.625C15.75,7.589 14.911,6.75 13.875,6.75ZM4.5,8.25L9,8.25L9,9.75L4.5,9.75L4.5,8.25ZM10.5,16.5C12.606,16.496 14.556,15.389 15.637,13.583L14.355,12.833C13.541,14.184 12.078,15.011 10.5,15.011C8.922,15.011 7.459,14.184 6.645,12.833L5.363,13.583C6.444,15.389 8.394,16.496 10.5,16.5Z" fill="#000"></path></g></g></g></g></svg>