<svg width="100%" height="100%" viewBox="0 0 24 24" version="1.1" xmlns="http://www.w3.org/2000/svg" fill-rule="evenodd" clip-rule="evenodd"><g transform="matrix(1,0,0,1,1.5,1.5)"><g id="Share-on-Web"><g id="Assets"><g id="edit"><path id="Fill" d="M0,18L21,18L21,19.5L0,19.5L0,18ZM17.55,5.25C18.15,4.65 18.15,3.75 17.55,3.15L14.85,0.45C14.25,-0.15 13.35,-0.15 12.75,0.45L1.5,11.7L1.5,16.5L6.3,16.5L17.55,5.25ZM13.8,1.5L16.5,4.2L14.25,6.45L11.55,3.75L13.8,1.5ZM3,15L3,12.3L10.5,4.8L13.2,7.5L5.7,15L3,15Z" fill="#000"></path></g></g></g></g></svg>