<svg width="100%" height="100%" viewBox="0 0 24 24" version="1.1" xmlns="http://www.w3.org/2000/svg" fill-rule="evenodd" clip-rule="evenodd"><g id="Share-on-Web"><g id="Assets"><g id="social-telegram"><rect id="Rectangle" x="0" y="0" width="24" height="24" fill="none"></rect><g id="group" transform="matrix(1,0,0,1,2.4,2.4)"><path id="telegram-4" d="M9.6,0C4.299,0 0,4.298 0,9.6C0,14.902 4.299,19.2 9.6,19.2C14.902,19.2 19.2,14.902 19.2,9.6C19.2,4.298 14.902,0 9.6,0ZM12.179,14.297C12.33,14.403 12.523,14.43 12.696,14.365C12.868,14.299 12.995,14.151 13.034,13.972C13.439,12.066 14.423,7.242 14.792,5.51C14.82,5.378 14.774,5.242 14.671,5.155C14.568,5.068 14.426,5.043 14.299,5.09C12.342,5.814 6.316,8.075 3.853,8.986C3.697,9.045 3.595,9.194 3.6,9.36C3.606,9.525 3.717,9.668 3.877,9.716C4.982,10.046 6.431,10.506 6.431,10.506C6.431,10.506 7.109,12.553 7.462,13.593C7.506,13.724 7.609,13.826 7.743,13.862C7.878,13.897 8.022,13.86 8.122,13.765C8.69,13.23 9.566,12.402 9.566,12.402C9.566,12.402 11.234,13.623 12.179,14.297ZM7.041,10.247L7.825,12.832L7.999,11.195C7.999,11.195 11.026,8.465 12.752,6.909C12.802,6.863 12.809,6.786 12.767,6.733C12.726,6.679 12.649,6.666 12.592,6.703C10.592,7.98 7.041,10.247 7.041,10.247Z" fill="#000"></path></g></g></g></g></svg>