<svg id="Layer_1" data-name="Layer 1" xmlns="http://www.w3.org/2000/svg" viewBox="0 0 80 57.32"><defs><style>.cls-1,.cls-2{fill:#fff;}.cls-1{fill-rule:evenodd;}</style></defs><title>svg</title><path class="cls-1" d="M1.22,53.79h0a1.13,1.13,0,0,1,0-2.25H36.55v2.25Z"/><rect class="cls-2" x="13.23" y="9.59" width="4.67" height="4.67" transform="translate(-3.88 14.51) rotate(-45)"/><rect class="cls-2" x="13.23" y="16.19" width="4.67" height="4.67" transform="translate(-8.54 16.44) rotate(-45)"/><rect class="cls-2" x="74.36" y="9.59" width="4.67" height="4.67" transform="translate(14.03 57.73) rotate(-45)"/><rect class="cls-2" x="74.36" y="16.19" width="4.67" height="4.67" transform="translate(9.36 59.66) rotate(-45)"/><path class="cls-1" d="M33,49.12V42.3H31.23V41.24h5.31V42.3H34.8v6.82Zm-6.61,0V41.24h4.09V42.3H28.19v2.29h2.14v1.06H28.19v2.4h2.38v1.07Zm-6.26,0V41.24h1.83v7.88Zm3.67,0L22,45.23l1.95-4h1l-1.41,2.88,2.28,5Zm-10.83,0,2.24-7.88H17l2.39,7.88H17.4l-.69-2.33h-2.2l-.64,2.33Zm1.86-3.33h1.61L15.56,43ZM10.35,44.6V41.24h1.83v7.88H10.35V45.67h-2v3.45H6.56V41.24H8.39V44.6Z"/><polygon class="cls-1" points="0.27 42.3 0.27 41.24 5.76 41.24 2.62 48.05 5.57 48.05 5.57 49.12 0.09 49.12 3.22 42.3 0.27 42.3"/><path class="cls-1" d="M41.28,23.61l13.4,9.56,0,0v0l-.21,2.59v.07l-.06,0L39,24.82h0V15.28h0l1.15-.16h0L60.07,29.31h0V39.79l-.07,0c-2.28-1.63-2.16-2.41-2.06-3.12a1.43,1.43,0,0,0-.21-1.2v-3.7l.57-.76-.56-.44L41.28,18.8Z"/><polygon class="cls-2" points="38.95 15.07 60.02 0.05 60.09 0 60.09 0.08 60.09 10.53 60.09 10.55 60.07 10.56 50.06 17.74 49.99 17.79 49.99 17.71 49.99 14.94 49.99 14.92 50.01 14.9 57.74 9.35 57.74 4.54 41.72 15.97 41.72 15.97 41.35 16.25 40.82 19.93 40.74 23.49 40.74 23.53 40.71 23.53 38.98 23.6 38.93 23.6 38.93 23.56 38.93 15.11 38.93 15.09 38.95 15.07"/><path class="cls-1" d="M38.93,31.06V31H13.31a19.76,19.76,0,0,1-5-.3h0a9.87,9.87,0,0,1-2.95-1.3A9.59,9.59,0,0,1,3,27.2c-.14-.19-.27-.38-.4-.58l-.28-.47A11,11,0,0,0,2.9,29.2,10.44,10.44,0,0,0,4.35,32,10.58,10.58,0,0,0,6.8,34.45,11.67,11.67,0,0,0,10,36l.72.18.91.16,1,.13.79,0H36.59v2.34H13.45a16.47,16.47,0,0,1-2.19-.19,14.57,14.57,0,0,1-2-.43A12.91,12.91,0,0,1,0,25.43a12.84,12.84,0,0,1,2.33-7.19,13.34,13.34,0,0,1,6-4.73l.06,0v.83h0A7.78,7.78,0,0,0,4.8,17a7.16,7.16,0,0,0-1.39,4.16A7.63,7.63,0,0,0,4.9,25.79a7.2,7.2,0,0,0,4,2.62,19,19,0,0,0,4.38.24H39a2.37,2.37,0,0,1,1.64.71,2.44,2.44,0,0,1,.65,1.7V50.37L57.74,38.61v-4.8l-14.06,10-.06,0V41h0L60,29.36h.13V39.81l0,0-19,13.56a1.87,1.87,0,0,1-.72.41,1.15,1.15,0,0,1-.84-.1h0a1.2,1.2,0,0,1-.47-.48,1.27,1.27,0,0,1-.14-.67V31.06Z"/><path class="cls-2" d="M62.41,41,76.62,30.89l.07,0V41.4h0L59.76,53.51l0,0a1.21,1.21,0,0,1-.89.29,1.13,1.13,0,0,1-.78-.39h0l0,0h0l0-.06a1.15,1.15,0,0,1-.22-.8,1.2,1.2,0,0,1,.41-.79l.07-.06h0L60,50.46l.06-.05h0L74.34,40.2V35.39L62.46,43.88l-.07,0V41.05Z"/><polygon class="cls-2" points="68.69 30.81 68.67 7.27 64.74 10.09 64.75 25.91 64.75 25.94 64.73 25.95 62.48 27.56 62.41 27.61 62.41 27.53 62.4 8.91 62.4 8.89 62.42 8.88 70.93 2.76 71 2.72 71 2.8 71.02 31.99 71.02 32.01 71 32.02 62.49 38.1 62.43 38.15 62.43 38.07 62.42 35.3 62.42 35.27 62.44 35.26 64.69 33.68 64.69 33.68 68.69 30.81"/><rect class="cls-2" x="74.36" y="22.8" width="4.67" height="4.67" transform="translate(4.69 61.6) rotate(-45)"/><polygon class="cls-2" points="43.62 54.44 60 42.78 60.06 42.73 60.06 42.81 60.06 45.58 60.06 45.6 60.05 45.62 57.78 47.23 43.67 57.28 43.6 57.32 43.6 57.24 43.6 54.47 43.6 54.45 43.62 54.44"/></svg>