<svg width="257" height="260" viewBox="0 0 257 260" fill="none" xmlns="http://www.w3.org/2000/svg">
<path fill-rule="evenodd" clip-rule="evenodd" d="M173.437 82.5733L215.808 37.8833L217.392 39.3854L175.021 84.0754L173.437 82.5733Z" fill="url(#paint0_linear_698_289)" fill-opacity="0.6"/>
<path fill-rule="evenodd" clip-rule="evenodd" d="M110.237 85.6017L85.334 57.141L86.977 55.7034L111.88 84.1641L110.237 85.6017Z" fill="url(#paint1_linear_698_289)" fill-opacity="0.6"/>
<path fill-rule="evenodd" clip-rule="evenodd" d="M61.2525 117.443L96.8283 117.443L96.8283 119.626L61.2525 119.626L61.2525 117.443Z" fill="url(#paint2_linear_698_289)" fill-opacity="0.6"/>
<path fill-rule="evenodd" clip-rule="evenodd" d="M142.538 223.536L142.538 161.964L144.721 161.964L144.721 223.536L142.538 223.536Z" fill="url(#paint3_linear_698_289)" fill-opacity="0.6"/>
<path d="M176.281 226C176.281 244.339 161.415 259.205 143.077 259.205C124.739 259.205 109.873 244.339 109.873 226C109.873 207.662 124.739 192.796 143.077 192.796C161.415 192.796 176.281 207.662 176.281 226Z" fill="url(#paint4_linear_698_289)" fill-opacity="0.6"/>
<path fill-rule="evenodd" clip-rule="evenodd" d="M143.077 162.152C168.069 162.152 188.328 141.893 188.328 116.901C188.328 91.9096 168.069 71.65 143.077 71.65C118.085 71.65 97.8258 91.9096 97.8258 116.901C97.8258 141.893 118.085 162.152 143.077 162.152ZM143.077 164.336C169.274 164.336 190.511 143.099 190.511 116.901C190.511 90.7039 169.274 69.4668 143.077 69.4668C116.88 69.4668 95.6426 90.7039 95.6426 116.901C95.6426 143.099 116.88 164.336 143.077 164.336Z" fill="url(#paint5_linear_698_289)" fill-opacity="0.6"/>
<path fill-rule="evenodd" clip-rule="evenodd" d="M141.984 159.592V73.0243H144.168V159.592H141.984Z" fill="url(#paint6_linear_698_289)" fill-opacity="0.6"/>
<path fill-rule="evenodd" clip-rule="evenodd" d="M98.0002 116.995L185.754 115.81L185.783 117.993L98.0297 119.178L98.0002 116.995Z" fill="url(#paint7_linear_698_289)" fill-opacity="0.6"/>
<path fill-rule="evenodd" clip-rule="evenodd" d="M102.742 98.0217L184.566 96.8359L184.598 99.0188L102.773 100.205L102.742 98.0217Z" fill="url(#paint8_linear_698_289)" fill-opacity="0.6"/>
<path fill-rule="evenodd" clip-rule="evenodd" d="M102.744 133.597L184.568 132.412L184.6 134.595L102.775 135.78L102.744 133.597Z" fill="url(#paint9_linear_698_289)" fill-opacity="0.6"/>
<path fill-rule="evenodd" clip-rule="evenodd" d="M120.641 156.035V76.5818H122.824V156.035H120.641Z" fill="url(#paint10_linear_698_289)" fill-opacity="0.6"/>
<path fill-rule="evenodd" clip-rule="evenodd" d="M165.701 156.035V78.9536H167.884V156.035H165.701Z" fill="url(#paint11_linear_698_289)" fill-opacity="0.6"/>
<path d="M256.919 29.1475C256.919 44.8659 244.177 57.6081 228.459 57.6081C212.74 57.6081 199.998 44.8659 199.998 29.1475C199.998 13.4291 212.74 0.686813 228.459 0.686813C244.177 0.686813 256.919 13.4291 256.919 29.1475Z" fill="url(#paint12_linear_698_289)" fill-opacity="0.6"/>
<path d="M64.8099 118.087C64.8099 135.77 50.4749 150.105 32.7917 150.105C15.1085 150.105 0.773438 135.77 0.773438 118.087C0.773438 100.404 15.1085 86.0688 32.7917 86.0688C50.4749 86.0688 64.8099 100.404 64.8099 118.087Z" fill="url(#paint13_linear_698_289)" fill-opacity="0.6"/>
<path d="M98.0139 44.5637C98.0139 57.0074 87.9262 67.095 75.4825 67.095C63.0388 67.095 52.9512 57.0074 52.9512 44.5637C52.9512 32.1199 63.0388 22.0323 75.4825 22.0323C87.9262 22.0323 98.0139 32.1199 98.0139 44.5637Z" fill="url(#paint14_linear_698_289)" fill-opacity="0.6"/>
<defs>
<linearGradient id="paint0_linear_698_289" x1="217.609" y1="60.7542" x2="173.22" y2="61.2045" gradientUnits="userSpaceOnUse">
<stop stop-color="#FFF9F2"/>
<stop offset="1" stop-color="#F9DFBA"/>
</linearGradient>
<linearGradient id="paint1_linear_698_289" x1="98.607" y1="55.7034" x2="98.607" y2="85.6017" gradientUnits="userSpaceOnUse">
<stop stop-color="#FFF9F2"/>
<stop offset="1" stop-color="#F9DFBA"/>
</linearGradient>
<linearGradient id="paint2_linear_698_289" x1="88.4219" y1="127.978" x2="69.659" y2="109.091" gradientUnits="userSpaceOnUse">
<stop stop-color="#FFF9F2"/>
<stop offset="1" stop-color="#F9DFBA"/>
</linearGradient>
<linearGradient id="paint3_linear_698_289" x1="159.565" y1="176.724" x2="127.694" y2="208.776" gradientUnits="userSpaceOnUse">
<stop stop-color="#FFF9F2"/>
<stop offset="1" stop-color="#F9DFBA"/>
</linearGradient>
<linearGradient id="paint4_linear_698_289" x1="143.077" y1="192.796" x2="143.077" y2="259.205" gradientUnits="userSpaceOnUse">
<stop stop-color="#FFF9F2"/>
<stop offset="1" stop-color="#F9DFBA"/>
</linearGradient>
<linearGradient id="paint5_linear_698_289" x1="143.077" y1="69.4668" x2="143.077" y2="164.336" gradientUnits="userSpaceOnUse">
<stop stop-color="#FFF9F2"/>
<stop offset="1" stop-color="#F9DFBA"/>
</linearGradient>
<linearGradient id="paint6_linear_698_289" x1="143.076" y1="73.0243" x2="143.076" y2="159.592" gradientUnits="userSpaceOnUse">
<stop stop-color="#FFF9F2"/>
<stop offset="1" stop-color="#F9DFBA"/>
</linearGradient>
<linearGradient id="paint7_linear_698_289" x1="185.769" y1="116.901" x2="98.015" y2="118.087" gradientUnits="userSpaceOnUse">
<stop stop-color="#FFF9F2"/>
<stop offset="1" stop-color="#F9DFBA"/>
</linearGradient>
<linearGradient id="paint8_linear_698_289" x1="184.584" y1="97.9674" x2="102.756" y2="99.0732" gradientUnits="userSpaceOnUse">
<stop stop-color="#FFF9F2"/>
<stop offset="1" stop-color="#F9DFBA"/>
</linearGradient>
<linearGradient id="paint9_linear_698_289" x1="184.586" y1="133.543" x2="102.758" y2="134.649" gradientUnits="userSpaceOnUse">
<stop stop-color="#FFF9F2"/>
<stop offset="1" stop-color="#F9DFBA"/>
</linearGradient>
<linearGradient id="paint10_linear_698_289" x1="121.732" y1="76.5818" x2="121.732" y2="156.035" gradientUnits="userSpaceOnUse">
<stop stop-color="#FFF9F2"/>
<stop offset="1" stop-color="#F9DFBA"/>
</linearGradient>
<linearGradient id="paint11_linear_698_289" x1="166.793" y1="78.9536" x2="166.793" y2="156.035" gradientUnits="userSpaceOnUse">
<stop stop-color="#FFF9F2"/>
<stop offset="1" stop-color="#F9DFBA"/>
</linearGradient>
<linearGradient id="paint12_linear_698_289" x1="228.459" y1="0.686813" x2="228.459" y2="57.6081" gradientUnits="userSpaceOnUse">
<stop stop-color="#FFF9F2"/>
<stop offset="1" stop-color="#F9DFBA"/>
</linearGradient>
<linearGradient id="paint13_linear_698_289" x1="32.7917" y1="86.0688" x2="32.7917" y2="150.105" gradientUnits="userSpaceOnUse">
<stop stop-color="#FFF9F2"/>
<stop offset="1" stop-color="#F9DFBA"/>
</linearGradient>
<linearGradient id="paint14_linear_698_289" x1="75.4825" y1="22.0323" x2="75.4825" y2="67.095" gradientUnits="userSpaceOnUse">
<stop stop-color="#FFF9F2"/>
<stop offset="1" stop-color="#F9DFBA"/>
</linearGradient>
</defs>
</svg>
