<svg width="59" height="43" viewBox="0 0 59 43" fill="none" xmlns="http://www.w3.org/2000/svg">
<mask id="mask0_698_312" style="mask-type:luminance" maskUnits="userSpaceOnUse" x="0" y="0" width="59" height="43">
<path d="M58.2709 0.686371H0.416016V42.2204H58.2709V0.686371Z" fill="white"/>
</mask>
<g mask="url(#mask0_698_312)">
<path fill-rule="evenodd" clip-rule="evenodd" d="M1.2991 39.6638H1.26966C0.818204 39.6638 0.455078 39.3 0.455078 38.8477C0.455078 38.3954 0.818205 38.0316 1.25985 38.0316H26.8456V39.6638H1.2991Z" fill="#B3B3B3"/>
<path d="M11.6685 6.9425L9.28125 9.33429L11.6685 11.7261L14.0557 9.33429L11.6685 6.9425Z" fill="#4D4D4D"/>
<path d="M11.6763 11.7179L9.28906 14.1097L11.6763 16.5015L14.0636 14.1097L11.6763 11.7179Z" fill="#4D4D4D"/>
<path d="M55.8795 6.94435L53.4922 9.33614L55.8795 11.7279L58.2667 9.33614L55.8795 6.94435Z" fill="#4D4D4D"/>
<path d="M55.8775 11.7199L53.4902 14.1116L55.8775 16.5034L58.2648 14.1116L55.8775 11.7199Z" fill="#4D4D4D"/>
<path fill-rule="evenodd" clip-rule="evenodd" d="M24.2547 36.2714V31.3353H22.9985V30.5684H26.8359V31.3353H25.5797V36.2714H24.2547ZM19.4752 36.2714V30.5585H22.4293V31.3255H20.7903V32.9873H22.341V33.7542H20.7903V35.4946H22.5078V36.2616H19.4654L19.4752 36.2714ZM14.9509 36.2714V30.5585H16.2758V36.2714H14.9509ZM17.6105 36.2714L16.3347 33.4592L17.7479 30.5684H18.4447L17.424 32.6529L19.0728 36.2714H17.6105ZM9.76895 36.2714L11.3883 30.5585H12.6641L14.3914 36.2714H12.988L12.4875 34.5802H10.8976L10.4265 36.2714H9.75912H9.76895ZM11.1135 33.8624H12.2814L11.6729 31.8171L11.1135 33.8624ZM7.89442 33.0069V30.5684H9.21934V36.2813H7.89442V33.7837H6.48117V36.2813H5.15625V30.5684H6.48117V33.0069H7.89442Z" fill="#4D4D4D"/>
<path fill-rule="evenodd" clip-rule="evenodd" d="M0.612009 31.3353V30.5585H4.57696L2.30987 35.5045H4.43956V36.2714H0.474609L2.7417 31.3353H0.612009Z" fill="#FEA000"/>
<path fill-rule="evenodd" clip-rule="evenodd" d="M29.0059 18.9165L39.3501 26.3109L42.5593 23.5773L43.845 21.9451L29.0059 11.3452V18.9165Z" fill="#FEA000"/>
<path d="M29.0059 18.9165L39.3501 26.3109L42.5593 23.5773L43.845 21.9451L29.0059 11.3452V18.9165Z" stroke="#4D4D4D" stroke-width="0.2" stroke-miterlimit="2.6"/>
<path fill-rule="evenodd" clip-rule="evenodd" d="M30.2604 17.7858L39.947 24.7179H39.9568V24.7474L39.8096 26.6255V26.6747L39.7605 26.6452L28.5723 18.6707H28.5625V11.7582H28.5919L29.4262 11.6402H29.4458L43.8531 21.9254H43.8629V29.5164L43.8138 29.4869C42.165 28.3069 42.2435 27.7465 42.3221 27.2253C42.3613 26.95 42.4006 26.6943 42.165 26.36V23.6855L42.5772 23.1348L42.1748 22.8202L30.2505 14.3246V17.8054L30.2604 17.7858Z" fill="#4D4D4D"/>
<path d="M28.5821 11.6107L43.8236 0.715869L43.8727 0.686371V0.745368V8.31667V8.3265L43.853 8.33634L36.6101 13.5379L36.5709 13.5773V13.5183V11.5123V11.4927L36.5807 11.4829L42.1748 7.46121V3.98038L30.5842 12.2596L30.3192 12.4563L29.9364 15.121L29.8776 17.7071V17.7365H29.8481L28.6017 17.7857H28.5723V17.7562V11.6303V11.6205L28.5821 11.6107Z" fill="#4D4D4D"/>
<path fill-rule="evenodd" clip-rule="evenodd" d="M28.563 23.1939V23.1349H10.0337C8.89527 23.1644 7.58016 23.1939 6.44171 22.9186H6.41227C5.65657 22.7121 4.93032 22.3974 4.28258 21.9648C3.64466 21.542 3.07543 21.0208 2.60435 20.3915C2.50621 20.2538 2.39825 20.1162 2.30992 19.9687C2.24122 19.8605 2.17252 19.7425 2.10382 19.6344C2.13326 20.4013 2.27066 21.1486 2.50621 21.8468C2.75156 22.5941 3.10487 23.2824 3.55633 23.9117C4.03723 24.5803 4.63589 25.1703 5.32289 25.6521C6.00007 26.1241 6.76558 26.5076 7.61942 26.7632C7.76663 26.8124 7.9531 26.8517 8.13958 26.891C8.34567 26.9304 8.5714 26.9697 8.79713 27.009C9.06211 27.0484 9.30747 27.0779 9.5332 27.0975C9.74911 27.1172 9.95521 27.127 10.1122 27.1369H26.8749V28.8281H10.1417C9.72948 28.8281 9.15044 28.7691 8.55177 28.6806C8.05125 28.6019 7.54091 28.5036 7.1189 28.3758C5.03828 27.7367 3.34042 26.4977 2.18234 24.895C1.01444 23.2725 0.376516 21.2666 0.415773 19.1132C0.45503 17.0975 1.10277 15.3374 2.10382 13.9117C3.24227 12.2892 4.82236 11.0995 6.46134 10.4898L6.5006 10.4702V11.07H6.48097C5.39159 11.4829 4.49849 12.1712 3.8802 13.0267C3.25209 13.892 2.88896 14.9441 2.87915 16.0356C2.88896 17.3728 3.30116 18.5036 3.95871 19.3689C4.68497 20.3227 5.70565 20.9716 6.83428 21.2666C7.75682 21.4928 8.96397 21.4633 10.0043 21.4436H28.6121C29.093 21.4633 29.4953 21.6599 29.7898 21.9648C30.0842 22.2794 30.2608 22.7022 30.2608 23.1939V37.186L42.1655 28.6708V25.1899L31.998 32.4564L31.9489 32.4859V30.4014H31.9587L43.7652 21.9549H43.8241L43.8536 21.9353V29.5262H43.8437L30.1234 39.3591C29.9664 39.4968 29.7898 39.6049 29.6033 39.6541C29.4168 39.7032 29.2107 39.6934 28.9948 39.5853C28.8378 39.4968 28.7298 39.3788 28.6611 39.2411C28.5826 39.0936 28.5532 38.9265 28.5532 38.7495V23.1939H28.563Z" fill="#4D4D4D"/>
<path d="M45.552 30.4208L55.8275 23.0757L55.8766 23.0462V30.6863H55.8668L43.6382 39.4671C43.6382 39.4671 43.6186 39.4769 43.6186 39.4867C43.4223 39.6539 43.1868 39.7129 42.9709 39.7031C42.7549 39.6834 42.5587 39.5851 42.4114 39.4179L42.3918 39.3983C42.382 39.3884 42.3722 39.3687 42.3624 39.3589C42.2348 39.1918 42.1857 38.9853 42.2053 38.7788C42.225 38.5723 42.3231 38.3658 42.4998 38.2085C42.5194 38.1986 42.5292 38.179 42.5488 38.1691L43.8149 37.2645L43.864 37.235L54.1787 29.8309V26.35L45.5814 32.4956L45.5324 32.5251V30.4405H45.5422L45.552 30.4208Z" fill="#4D4D4D"/>
<path d="M50.085 23.007L50.0752 5.94699L47.2291 7.99223L47.2389 19.4672V19.477L47.2192 19.4868L45.5901 20.657L45.5508 20.6865V20.6275L45.541 7.1466V7.12694L45.5508 7.1171L51.7142 2.69232L51.7534 2.65298V2.71198L51.7731 23.8625V23.8821L51.7632 23.892L45.6097 28.2971L45.5606 28.3266V28.2676V26.2617V26.242L45.5705 26.2322L47.1996 25.0916L50.085 23.007Z" fill="#4D4D4D"/>
<path d="M55.8696 16.512L53.4824 18.9038L55.8696 21.2956L58.2569 18.9038L55.8696 16.512Z" fill="#4D4D4D"/>
<path d="M31.959 40.126L43.8048 31.6796L43.8539 31.6501V31.6992V33.715V33.7248L43.8343 33.7346L42.2051 34.9047L31.9885 42.181L31.9492 42.2204V42.1614V40.1555V40.1358L31.959 40.126Z" fill="#FEA000"/>
</g>
</svg>
