<svg width="42" height="42" viewBox="0 0 42 42" fill="none" xmlns="http://www.w3.org/2000/svg">
<g filter="url(#filter0_d_16035_1844)">
<rect x="4" width="34" height="34" rx="12" fill="#FD7013"/>
<path d="M23.3426 10.8029C23.3426 11.2367 23.2573 11.6662 23.0914 12.0669C22.9256 12.4676 22.6825 12.8317 22.376 13.1384C22.0696 13.4451 21.7058 13.6884 21.3054 13.8544C20.905 14.0204 20.4759 14.1058 20.0425 14.1058C19.6091 14.1058 19.18 14.0204 18.7796 13.8544C18.3792 13.6884 18.0154 13.4451 17.7089 13.1384C17.4025 12.8317 17.1594 12.4676 16.9936 12.0669C16.8277 11.6662 16.7424 11.2367 16.7424 10.8029C16.7424 9.92693 17.09 9.08682 17.7089 8.4674C18.3278 7.84799 19.1672 7.5 20.0425 7.5C20.9177 7.5 21.7571 7.84799 22.376 8.4674C22.9949 9.08682 23.3426 9.92693 23.3426 10.8029ZM19.0996 15.0495C18.4744 15.0495 17.8748 15.2981 17.4328 15.7405C16.9907 16.183 16.7424 16.783 16.7424 17.4088V22.1272C16.7424 22.437 16.8033 22.7438 16.9218 23.03C17.0402 23.3163 17.2139 23.5764 17.4328 23.7954C17.6517 24.0145 17.9115 24.1883 18.1975 24.3068C18.4835 24.4254 18.79 24.4864 19.0996 24.4864H26.6428C26.9523 24.4864 27.2588 24.4254 27.5448 24.3068C27.8308 24.1883 28.0907 24.0145 28.3096 23.7954C28.5285 23.5764 28.7021 23.3163 28.8206 23.03C28.939 22.7438 29 22.437 29 22.1272V17.4088C29 16.783 28.7516 16.183 28.3096 15.7405C27.8675 15.2981 27.2679 15.0495 26.6428 15.0495H19.0996ZM13 15.9357V23.7929C13.0001 23.9327 13.0417 24.0695 13.1194 24.1857C13.1971 24.302 13.3075 24.3926 13.4366 24.4462C13.5658 24.4997 13.7079 24.5137 13.845 24.4864C13.9821 24.4592 14.108 24.3919 14.2069 24.293L16.5349 21.964C16.6676 21.8314 16.7422 21.6515 16.7424 21.4638V18.2468C16.7423 18.1534 16.7237 18.061 16.6878 17.9748C16.6519 17.8887 16.5993 17.8105 16.533 17.7447L14.205 15.4327C14.1059 15.3343 13.9798 15.2675 13.8428 15.2407C13.7057 15.2139 13.5638 15.2283 13.435 15.2821C13.3061 15.3359 13.196 15.4267 13.1186 15.543C13.0412 15.6593 12.9999 15.7959 13 15.9357ZM26.6428 14.1058C27.2679 14.1058 27.8675 13.8573 28.3096 13.4148C28.7516 12.9724 29 12.3723 29 11.7466C29 11.1209 28.7516 10.5208 28.3096 10.0784C27.8675 9.63594 27.2679 9.38738 26.6428 9.38738C26.0176 9.38738 25.418 9.63594 24.9759 10.0784C24.5339 10.5208 24.2855 11.1209 24.2855 11.7466C24.2855 12.3723 24.5339 12.9724 24.9759 13.4148C25.418 13.8573 26.0176 14.1058 26.6428 14.1058Z" stroke="white" stroke-width="1.5"/>
</g>
<defs>
<filter id="filter0_d_16035_1844" x="0" y="0" width="42" height="42" filterUnits="userSpaceOnUse" color-interpolation-filters="sRGB">
<feFlood flood-opacity="0" result="BackgroundImageFix"/>
<feColorMatrix in="SourceAlpha" type="matrix" values="0 0 0 0 0 0 0 0 0 0 0 0 0 0 0 0 0 0 127 0" result="hardAlpha"/>
<feOffset dy="4"/>
<feGaussianBlur stdDeviation="2"/>
<feComposite in2="hardAlpha" operator="out"/>
<feColorMatrix type="matrix" values="0 0 0 0 0.992157 0 0 0 0 0.439216 0 0 0 0 0.0745098 0 0 0 0.25 0"/>
<feBlend mode="normal" in2="BackgroundImageFix" result="effect1_dropShadow_16035_1844"/>
<feBlend mode="normal" in="SourceGraphic" in2="effect1_dropShadow_16035_1844" result="shape"/>
</filter>
</defs>
</svg>
