<svg width="20" height="21" viewBox="0 0 20 21" fill="none" xmlns="http://www.w3.org/2000/svg">
<g id="prime:search">
<path id="Vector" d="M8.97422 16.05C7.73314 16.05 6.51994 15.682 5.48802 14.9925C4.4561 14.303 3.65182 13.3229 3.17688 12.1763C2.70194 11.0297 2.57767 9.76804 2.81979 8.55081C3.06192 7.33358 3.65955 6.21548 4.53713 5.33791C5.4147 4.46033 6.5328 3.8627 7.75003 3.62058C8.96726 3.37845 10.229 3.50272 11.3756 3.97766C12.5222 4.4526 13.5022 5.25688 14.1917 6.2888C14.8812 7.32072 15.2492 8.53392 15.2492 9.775C15.2492 10.599 15.0869 11.415 14.7716 12.1763C14.4562 12.9377 13.994 13.6294 13.4113 14.2121C12.8286 14.7948 12.1369 15.257 11.3756 15.5723C10.6142 15.8877 9.79827 16.05 8.97422 16.05ZM8.97422 4.75834C7.98531 4.75834 7.01862 5.05158 6.19637 5.60099C5.37412 6.15039 4.73326 6.93129 4.35482 7.84492C3.97639 8.75855 3.87737 9.76388 4.07029 10.7338C4.26322 11.7037 4.73942 12.5946 5.43869 13.2939C6.13795 13.9931 7.02886 14.4693 7.99877 14.6623C8.96867 14.8552 9.97401 14.7562 10.8876 14.3777C11.8013 13.9993 12.5822 13.3584 13.1316 12.5362C13.681 11.7139 13.9742 10.7472 13.9742 9.75834C13.9742 8.43225 13.4474 7.16048 12.5098 6.2228C11.5721 5.28512 10.3003 4.75834 8.97422 4.75834Z" fill="#889BAD"/>
<path id="Vector_2" d="M16.2496 17.5079C16.1675 17.5082 16.0862 17.4922 16.0103 17.4607C15.9345 17.4293 15.8657 17.3829 15.808 17.3245L12.783 14.4651C12.6726 14.3467 12.6125 14.19 12.6153 14.028C12.6182 13.8661 12.6838 13.7116 12.7983 13.5971C12.9128 13.4826 13.0673 13.417 13.2292 13.4142C13.3911 13.4113 13.5478 13.4714 13.6663 13.5818L16.6913 16.4412C16.8084 16.5584 16.8741 16.7172 16.8741 16.8829C16.8741 17.0485 16.8084 17.2073 16.6913 17.3245C16.6336 17.3829 16.5648 17.4293 16.489 17.4607C16.4131 17.4922 16.3318 17.5082 16.2496 17.5079Z" fill="#889BAD"/>
</g>
</svg>
