<svg width="28" height="28" viewBox="0 0 28 28" fill="none" xmlns="http://www.w3.org/2000/svg">
<g id="Frame 148">
<g id="Horror rooms icon" filter="url(#filter0_d_21921_14454)">
<rect id="Rectangle 20" x="4" width="20" height="20" rx="6" fill="#FD7013"/>
<g id="Group 88">
<g id="Vector">
<mask id="path-2-inside-1_21921_14454" fill="white">
<path fill-rule="evenodd" clip-rule="evenodd" d="M17.6627 9.37608C17.8279 9.37614 17.9864 9.44201 18.1032 9.55921C18.2201 9.67642 18.2857 9.83536 18.2857 10.0011L18.2854 11.7689C18.2826 11.9327 18.2156 12.0889 18.0991 12.2037C17.9825 12.3186 17.8256 12.3829 17.6622 12.3829C17.4988 12.3829 17.3419 12.3185 17.2253 12.2036C17.1088 12.0887 17.0419 11.9325 17.0391 11.7687L17.0393 10.6258L16.0821 10.6256L16.0819 11.7685C16.079 11.9324 16.0121 12.0885 15.8955 12.2034C15.779 12.3182 15.6221 12.3826 15.4587 12.3825C15.2952 12.3825 15.1384 12.3181 15.0218 12.2032C14.9053 12.0883 14.8384 11.9322 14.8356 11.7683L14.8358 10.6254L13.9068 10.6253C13.755 11.2144 13.3942 11.7279 12.8919 12.0693C12.3897 12.4108 11.7805 12.5568 11.1785 12.48C10.5766 12.4033 10.0232 12.109 9.62217 11.6524C9.22111 11.1957 8.9999 10.6081 9 9.9996C9.0001 9.39111 9.2215 8.80354 9.6227 8.34704C10.0239 7.89054 10.5774 7.59644 11.1793 7.51988C11.7813 7.44331 12.3904 7.58954 12.8926 7.93114C13.3947 8.27275 13.7554 8.78628 13.907 9.37548L17.6627 9.37608ZM10.6114 9.11598C10.8452 8.8816 11.1623 8.74995 11.4929 8.75C11.8235 8.75006 12.1405 8.8818 12.3742 9.11626C12.608 9.35072 12.7392 9.66868 12.7392 10.0002C12.7391 10.3317 12.6078 10.6496 12.374 10.884C12.1402 11.1184 11.8231 11.2501 11.4925 11.25C11.1619 11.2499 10.8449 11.1182 10.6111 10.8837C10.3774 10.6493 10.2461 10.3313 10.2462 9.9998C10.2462 9.66828 10.3776 9.35036 10.6114 9.11598Z"/>
</mask>
<path fill-rule="evenodd" clip-rule="evenodd" d="M17.6627 9.37608C17.8279 9.37614 17.9864 9.44201 18.1032 9.55921C18.2201 9.67642 18.2857 9.83536 18.2857 10.0011L18.2854 11.7689C18.2826 11.9327 18.2156 12.0889 18.0991 12.2037C17.9825 12.3186 17.8256 12.3829 17.6622 12.3829C17.4988 12.3829 17.3419 12.3185 17.2253 12.2036C17.1088 12.0887 17.0419 11.9325 17.0391 11.7687L17.0393 10.6258L16.0821 10.6256L16.0819 11.7685C16.079 11.9324 16.0121 12.0885 15.8955 12.2034C15.779 12.3182 15.6221 12.3826 15.4587 12.3825C15.2952 12.3825 15.1384 12.3181 15.0218 12.2032C14.9053 12.0883 14.8384 11.9322 14.8356 11.7683L14.8358 10.6254L13.9068 10.6253C13.755 11.2144 13.3942 11.7279 12.8919 12.0693C12.3897 12.4108 11.7805 12.5568 11.1785 12.48C10.5766 12.4033 10.0232 12.109 9.62217 11.6524C9.22111 11.1957 8.9999 10.6081 9 9.9996C9.0001 9.39111 9.2215 8.80354 9.6227 8.34704C10.0239 7.89054 10.5774 7.59644 11.1793 7.51988C11.7813 7.44331 12.3904 7.58954 12.8926 7.93114C13.3947 8.27275 13.7554 8.78628 13.907 9.37548L17.6627 9.37608ZM10.6114 9.11598C10.8452 8.8816 11.1623 8.74995 11.4929 8.75C11.8235 8.75006 12.1405 8.8818 12.3742 9.11626C12.608 9.35072 12.7392 9.66868 12.7392 10.0002C12.7391 10.3317 12.6078 10.6496 12.374 10.884C12.1402 11.1184 11.8231 11.2501 11.4925 11.25C11.1619 11.2499 10.8449 11.1182 10.6111 10.8837C10.3774 10.6493 10.2461 10.3313 10.2462 9.9998C10.2462 9.66828 10.3776 9.35036 10.6114 9.11598Z" fill="black"/>
<path d="M17.6627 9.37608L17.6631 7.87608L17.6629 7.87608L17.6627 9.37608ZM18.2857 10.0011L19.7857 10.0013V10.0011L18.2857 10.0011ZM18.2854 11.7689L19.7852 11.7951L19.7854 11.7821L19.7854 11.7691L18.2854 11.7689ZM17.0391 11.7687L15.5391 11.7684L15.5391 11.7814L15.5393 11.7944L17.0391 11.7687ZM17.0393 10.6258L18.5393 10.626L18.5395 9.12603L17.0395 9.12579L17.0393 10.6258ZM16.0821 10.6256L16.0823 9.12564L14.5823 9.1254L14.5821 10.6254L16.0821 10.6256ZM16.0819 11.7685L17.5817 11.7947L17.5819 11.7817L17.5819 11.7687L16.0819 11.7685ZM14.8356 11.7683L13.3356 11.7681L13.3356 11.7811L13.3358 11.7941L14.8356 11.7683ZM14.8358 10.6254L16.3358 10.6257L16.336 9.12568L14.836 9.12544L14.8358 10.6254ZM13.9068 10.6253L13.907 9.12529L12.7443 9.1251L12.4542 10.2511L13.9068 10.6253ZM13.907 9.37548L12.4543 9.74921L12.744 10.8753L13.9067 10.8755L13.907 9.37548ZM17.6622 10.8761C17.4284 10.876 17.205 10.7828 17.0409 10.6182L19.1656 8.50021C18.7678 8.10125 18.2275 7.87626 17.6631 7.87608L17.6622 10.8761ZM17.0409 10.6182C16.877 10.4538 16.7857 10.2317 16.7857 10.0011L19.7857 10.0011C19.7857 9.43898 19.5631 8.89903 19.1656 8.50021L17.0409 10.6182ZM16.7857 10.0008L16.7854 11.7686L19.7854 11.7691L19.7857 10.0013L16.7857 10.0008ZM16.7857 11.7426C16.7897 11.5145 16.8828 11.2963 17.0463 11.1352L19.1518 13.2723C19.5485 12.8814 19.7755 12.3509 19.7852 11.7951L16.7857 11.7426ZM17.0463 11.1352C17.21 10.9739 17.4312 10.8829 17.6624 10.8829L17.6619 13.8829C18.22 13.883 18.755 13.6632 19.1518 13.2723L17.0463 11.1352ZM17.6624 10.8829C17.8936 10.8829 18.1148 10.9741 18.2784 11.1354L16.1723 13.2718C16.569 13.6629 17.1039 13.8828 17.6619 13.8829L17.6624 10.8829ZM18.2784 11.1354C18.4419 11.2966 18.535 11.5148 18.5389 11.7429L15.5393 11.7944C15.5489 12.3502 15.7757 12.8808 16.1723 13.2718L18.2784 11.1354ZM18.5391 11.7689L18.5393 10.626L15.5393 10.6256L15.5391 11.7684L18.5391 11.7689ZM17.0395 9.12579L16.0823 9.12564L16.0818 12.1256L17.0391 12.1258L17.0395 9.12579ZM14.5821 10.6254L14.5819 11.7683L17.5819 11.7687L17.5821 10.6259L14.5821 10.6254ZM14.5821 11.7423C14.5861 11.5142 14.6793 11.296 14.8428 11.1348L16.9483 13.2719C17.345 12.8811 17.572 12.3505 17.5817 11.7947L14.5821 11.7423ZM14.8428 11.1348C15.0065 10.9736 15.2277 10.8825 15.4589 10.8825L15.4584 13.8825C16.0165 13.8826 16.5514 13.6629 16.9483 13.2719L14.8428 11.1348ZM15.4589 10.8825C15.6901 10.8826 15.9113 10.9737 16.0749 11.135L13.9688 13.2714C14.3655 13.6625 14.9003 13.8824 15.4584 13.8825L15.4589 10.8825ZM16.0749 11.135C16.2384 11.2962 16.3315 11.5145 16.3354 11.7425L13.3358 11.7941C13.3454 12.3498 13.5722 12.8805 13.9688 13.2714L16.0749 11.135ZM16.3356 11.7685L16.3358 10.6257L13.3358 10.6252L13.3356 11.7681L16.3356 11.7685ZM14.836 9.12544L13.907 9.12529L13.9065 12.1253L14.8355 12.1254L14.836 9.12544ZM12.4542 10.2511C12.3932 10.4877 12.2486 10.6928 12.0486 10.8288L13.7352 13.3098C14.5397 12.7629 15.1168 11.9412 15.3593 10.9995L12.4542 10.2511ZM12.0486 10.8288C11.8487 10.9647 11.6069 11.0225 11.3683 10.9921L10.9888 13.968C11.9541 14.0911 12.9306 13.8568 13.7352 13.3098L12.0486 10.8288ZM11.3683 10.9921C11.1296 10.9616 10.9094 10.8449 10.7492 10.6625L8.49514 12.6422C9.13707 13.3731 10.0235 13.8449 10.9888 13.968L11.3683 10.9921ZM10.7492 10.6625C10.5889 10.48 10.5 10.2444 10.5 9.99984L7.5 9.99936C7.49985 10.9717 7.85331 11.9114 8.49514 12.6422L10.7492 10.6625ZM10.5 9.99984C10.5 9.75524 10.5891 9.51969 10.7494 9.33726L8.49599 7.35683C7.85392 8.0874 7.50015 9.02699 7.5 9.99936L10.5 9.99984ZM10.7494 9.33726C10.9096 9.15493 11.1299 9.03824 11.3686 9.00789L10.9901 6.03186C10.0248 6.15464 9.13815 6.62615 8.49599 7.35683L10.7494 9.33726ZM11.3686 9.00789C11.6072 8.97754 11.849 9.0354 12.0489 9.17136L13.7363 6.69092C12.9319 6.14367 11.9554 5.90908 10.9901 6.03186L11.3686 9.00789ZM12.0489 9.17136C12.2488 9.3074 12.3934 9.5126 12.4543 9.74921L15.3597 9.00175C15.1174 8.05997 14.5406 7.2381 13.7363 6.69092L12.0489 9.17136ZM11.6734 10.1753C11.6262 10.2227 11.5612 10.25 11.4926 10.25L11.4931 7.25C10.7634 7.24989 10.0643 7.54053 9.54944 8.05663L11.6734 10.1753ZM11.4926 10.25C11.4241 10.25 11.3591 10.2226 11.3119 10.1753L13.4366 8.05726C12.9219 7.54099 12.2229 7.25012 11.4931 7.25L11.4926 10.25ZM11.3119 10.1753C11.2649 10.1281 11.2392 10.0649 11.2392 9.99996L14.2392 10.0004C14.2393 9.27245 13.9511 8.57338 13.4366 8.05726L11.3119 10.1753ZM11.2392 9.99996C11.2392 9.93501 11.2649 9.87188 11.312 9.82468L13.4359 11.9434C13.9506 11.4274 14.2391 10.7284 14.2392 10.0004L11.2392 9.99996ZM11.312 9.82468C11.3592 9.77734 11.4241 9.74999 11.4927 9.75L11.4922 12.75C12.222 12.7501 12.9211 12.4595 13.4359 11.9434L11.312 9.82468ZM11.4927 9.75C11.5613 9.75001 11.6262 9.77738 11.6734 9.82474L9.54882 11.9427C10.0635 12.459 10.7625 12.7499 11.4922 12.75L11.4927 9.75ZM11.6734 9.82474C11.7205 9.87195 11.7462 9.93509 11.7462 10L8.74619 9.99956C8.74607 10.7276 9.0343 11.4266 9.54882 11.9427L11.6734 9.82474ZM11.7462 10C11.7462 10.065 11.7205 10.1281 11.6734 10.1753L9.54944 8.05663C9.03476 8.5726 8.7463 9.27157 8.74619 9.99956L11.7462 10ZM13.9067 10.8755L17.6624 10.8761L17.6629 7.87608L13.9072 7.87548L13.9067 10.8755Z" fill="white" mask="url(#path-2-inside-1_21921_14454)"/>
</g>
</g>
</g>
</g>
<defs>
<filter id="filter0_d_21921_14454" x="0" y="0" width="28" height="28" filterUnits="userSpaceOnUse" color-interpolation-filters="sRGB">
<feFlood flood-opacity="0" result="BackgroundImageFix"/>
<feColorMatrix in="SourceAlpha" type="matrix" values="0 0 0 0 0 0 0 0 0 0 0 0 0 0 0 0 0 0 127 0" result="hardAlpha"/>
<feOffset dy="4"/>
<feGaussianBlur stdDeviation="2"/>
<feComposite in2="hardAlpha" operator="out"/>
<feColorMatrix type="matrix" values="0 0 0 0 0.992157 0 0 0 0 0.439216 0 0 0 0 0.0745098 0 0 0 0.25 0"/>
<feBlend mode="normal" in2="BackgroundImageFix" result="effect1_dropShadow_21921_14454"/>
<feBlend mode="normal" in="SourceGraphic" in2="effect1_dropShadow_21921_14454" result="shape"/>
</filter>
</defs>
</svg>
