<svg width="24" height="25" viewBox="0 0 24 25" fill="none" xmlns="http://www.w3.org/2000/svg">
<g id="mingcute:close-fill">
<g id="Group">
<path id="Vector" fill-rule="evenodd" clip-rule="evenodd" d="M11.5108 15.0575L17.9093 21.4487C18.2489 21.7878 18.7094 21.9784 19.1895 21.9784C19.6697 21.9784 20.1302 21.7878 20.4697 21.4487C20.8093 21.1096 21 20.6496 21 20.17C21 19.6903 20.8093 19.2304 20.4697 18.8912L14.0688 12.5L20.4685 6.10876C20.6366 5.94084 20.7698 5.7415 20.8607 5.52212C20.9517 5.30275 20.9984 5.06764 20.9984 4.83021C20.9983 4.59279 20.9514 4.35769 20.8604 4.13836C20.7694 3.91903 20.636 3.71975 20.4679 3.55191C20.2998 3.38406 20.1002 3.25093 19.8806 3.16013C19.661 3.06932 19.4256 3.02261 19.1879 3.02267C18.9502 3.02272 18.7148 3.06954 18.4953 3.16045C18.2757 3.25136 18.0762 3.38459 17.9081 3.55251L11.5108 9.94375L5.11229 3.55251C4.94542 3.37977 4.74577 3.24195 4.525 3.1471C4.30423 3.05226 4.06677 3.00227 3.82645 3.00008C3.58614 2.99788 3.3478 3.04351 3.12533 3.1343C2.90286 3.22509 2.70072 3.35923 2.53071 3.52889C2.36069 3.69855 2.22621 3.90034 2.1351 4.12247C2.04399 4.3446 1.99809 4.58263 2.00006 4.82267C2.00204 5.06271 2.05185 5.29995 2.1466 5.52056C2.24135 5.74116 2.37913 5.94071 2.55191 6.10756L8.95286 12.5L2.55312 18.8924C2.38034 19.0593 2.24255 19.2588 2.14781 19.4794C2.05306 19.7 2.00324 19.9373 2.00127 20.1773C1.99929 20.4174 2.0452 20.6554 2.13631 20.8775C2.22741 21.0997 2.3619 21.3014 2.53191 21.4711C2.70193 21.6408 2.90406 21.7749 3.12653 21.8657C3.349 21.9565 3.58735 22.0021 3.82766 21.9999C4.06797 21.9977 4.30544 21.9477 4.52621 21.8529C4.74698 21.758 4.94662 21.6202 5.1135 21.4475L11.5108 15.0575Z" fill="#09192D"/>
</g>
</g>
</svg>
