<svg width="59" height="59" viewBox="0 0 59 59" fill="none" xmlns="http://www.w3.org/2000/svg">
<path id="Vector" d="M57.757 34.4506C55.9662 31.353 55.967 27.5345 57.7589 24.4376L58.0556 23.9249C58.4393 23.2609 58.5437 22.4717 58.3457 21.7308C58.1478 20.9899 57.6637 20.358 56.9999 19.9739L56.4711 19.6683C53.3795 17.8814 51.4754 14.5814 51.4754 11.0105V10.4176C51.4754 9.65047 51.1707 8.91478 50.6283 8.37236C50.0858 7.82993 49.3501 7.5252 48.583 7.5252H47.994C44.4225 7.5252 41.1222 5.62047 39.3354 2.52807L39.0324 2.00368C38.649 1.3394 38.0175 0.854574 37.2767 0.655841C36.9097 0.557505 36.527 0.532435 36.1503 0.582063C35.7736 0.631691 35.4104 0.755045 35.0814 0.945077L34.5635 1.24443C31.4661 3.03475 27.6483 3.034 24.5516 1.24247L24.0325 0.942185C23.3682 0.558651 22.5787 0.454715 21.8378 0.65324C21.0969 0.851766 20.4651 1.33649 20.0815 2.00079L19.7759 2.52951C17.989 5.62109 14.6891 7.5252 11.1182 7.5252H10.528C9.76092 7.5252 9.02523 7.82993 8.4828 8.37236C7.94038 8.91478 7.63564 9.65047 7.63564 10.4176V11.0077C7.63564 14.5786 5.73152 17.8785 2.63991 19.6654L2.1112 19.971C1.78213 20.1612 1.49377 20.4144 1.26259 20.716C1.03141 21.0177 0.86196 21.362 0.763914 21.7292C0.665869 22.0964 0.641155 22.4793 0.691184 22.8561C0.741214 23.2328 0.865006 23.596 1.05548 23.9249L1.35081 24.4353C3.14348 27.5335 3.14348 31.3536 1.35081 34.4518L1.05548 34.9622C0.673659 35.6268 0.570063 36.4153 0.767284 37.156C0.964504 37.8967 1.44655 38.5293 2.10831 38.916L2.63702 39.2216C5.72862 41.0086 7.63275 44.3085 7.63275 47.8794V48.4695C7.63275 49.2366 7.93748 49.9723 8.47991 50.5147C9.02233 51.0571 9.75803 51.3619 10.5251 51.3619H11.1182C14.6891 51.3619 17.989 53.266 19.7759 56.3576L20.0815 56.8863C20.3376 57.324 20.7032 57.6875 21.1424 57.9411C21.5816 58.1947 22.0792 58.3296 22.5863 58.3325C23.0896 58.3325 23.59 58.1994 24.0354 57.942L24.5485 57.6451C27.6453 55.8533 31.4634 55.8524 34.561 57.6428L35.0785 57.942C35.7425 58.3258 36.5317 58.4301 37.2726 58.2322C38.0135 58.0342 38.6455 57.5501 39.0295 56.8863L39.3329 56.361C41.1193 53.2675 44.4203 51.3619 47.9926 51.3619H48.5801C49.3472 51.3619 50.0829 51.0571 50.6254 50.5147C51.1678 49.9723 51.4725 49.2366 51.4725 48.4695V47.8794C51.4725 44.3085 53.3766 41.0086 56.4683 39.2216L56.997 38.916C57.326 38.7259 57.6144 38.4727 57.8456 38.171C58.0767 37.8694 58.2462 37.5251 58.3442 37.1579C58.4423 36.7907 58.467 36.4078 58.417 36.031C58.367 35.6543 58.2432 35.291 58.0527 34.9622L57.757 34.4506Z" fill="#FD7013"/>
</svg>
