<svg width="22" height="27" viewBox="0 0 22 27" fill="none" xmlns="http://www.w3.org/2000/svg">
<rect width="22" height="27" fill="#686868"/>
<g id="Group 1147">
<g id="Rectangle 283" filter="url(#filter0_d_0_1)">
<rect x="-234" y="-128" width="264" height="715" rx="20" fill="white"/>
<rect x="-233.5" y="-127.5" width="263" height="714" rx="19.5" stroke="#E2E8F0"/>
</g>
<g id="Frame 344">
<g id="Frame 347">
<g id="Frame 484">
<g id="solar:sale-square-linear">
<g id="Group">
<path id="Vector" d="M1.83301 13.1667C1.83301 8.84553 1.83301 6.68495 3.17501 5.34203C4.51884 4.00003 6.67851 4.00003 10.9997 4.00003C15.3208 4.00003 17.4814 4.00003 18.8234 5.34203C20.1663 6.68586 20.1663 8.84553 20.1663 13.1667C20.1663 17.4879 20.1663 19.6484 18.8234 20.9904C17.4823 22.3334 15.3208 22.3334 10.9997 22.3334C6.67851 22.3334 4.51792 22.3334 3.17501 20.9904C1.83301 19.6494 1.83301 17.4879 1.83301 13.1667Z" fill="#0F172B"/>
<g id="Group_2">
<path id="Vector_2" d="M12 17.6666H10C10 17.9318 10.1054 18.1861 10.2929 18.3737C10.4804 18.5612 10.7348 18.6666 11 18.6666C11.2652 18.6666 11.5196 18.5612 11.7071 18.3737C11.8946 18.1861 12 17.9318 12 17.6666Z" fill="#0F172B" stroke="white" stroke-linecap="round" stroke-linejoin="round"/>
<path id="Vector_3" d="M14.9094 15.2843C15.1199 15.4952 15.2381 15.781 15.2379 16.0789C15.2379 16.2264 15.2089 16.3725 15.1524 16.5088C15.096 16.645 15.0132 16.7688 14.9089 16.8731C14.8047 16.9774 14.6808 17.0602 14.5446 17.1166C14.4083 17.173 14.2622 17.2021 14.1148 17.2021H7.88488C7.73737 17.2021 7.59131 17.1731 7.45502 17.1167C7.31874 17.0602 7.19491 16.9775 7.09061 16.8732C6.98631 16.7689 6.90358 16.6451 6.84715 16.5088C6.79071 16.3725 6.76169 16.2264 6.76172 16.0789C6.76157 15.781 6.87974 15.4952 7.09025 15.2843L7.82131 14.5533V12.4343C7.82131 11.5913 8.15618 10.7829 8.75227 10.1868C9.34836 9.59071 10.1568 9.25583 10.9998 9.25583C11.8428 9.25583 12.6513 9.59071 13.2474 10.1868C13.8434 10.7829 14.1783 11.5913 14.1783 12.4343V14.5533L14.9094 15.2843Z" stroke="white" stroke-width="1.5" stroke-linecap="round" stroke-linejoin="round"/>
<path id="Vector_4" d="M10 8.66656L12 8.66656C12 8.40135 11.8946 8.14699 11.7071 7.95946C11.5196 7.77192 11.2652 7.66656 11 7.66656C10.7348 7.66656 10.4804 7.77192 10.2929 7.95946C10.1054 8.14699 10 8.40135 10 8.66656Z" fill="#0F172B" stroke="white" stroke-linecap="round" stroke-linejoin="round"/>
</g>
</g>
</g>
</g>
</g>
</g>
</g>
<defs>
<filter id="filter0_d_0_1" x="-234" y="-128" width="264" height="717" filterUnits="userSpaceOnUse" color-interpolation-filters="sRGB">
<feFlood flood-opacity="0" result="BackgroundImageFix"/>
<feColorMatrix in="SourceAlpha" type="matrix" values="0 0 0 0 0 0 0 0 0 0 0 0 0 0 0 0 0 0 127 0" result="hardAlpha"/>
<feOffset dy="2"/>
<feComposite in2="hardAlpha" operator="out"/>
<feColorMatrix type="matrix" values="0 0 0 0 0.909804 0 0 0 0 0.929412 0 0 0 0 0.945098 0 0 0 1 0"/>
<feBlend mode="normal" in2="BackgroundImageFix" result="effect1_dropShadow_0_1"/>
<feBlend mode="normal" in="SourceGraphic" in2="effect1_dropShadow_0_1" result="shape"/>
</filter>
</defs>
</svg>
