<svg width="19" height="19" viewBox="0 0 19 19" fill="none" xmlns="http://www.w3.org/2000/svg">
<path d="M0 9.16667C0 4.8455 0 2.68492 1.342 1.342C2.68583 0 4.8455 0 9.16667 0C13.4878 0 15.6484 0 16.9904 1.342C18.3333 2.68583 18.3333 4.8455 18.3333 9.16667C18.3333 13.4878 18.3333 15.6484 16.9904 16.9904C15.6493 18.3333 13.4878 18.3333 9.16667 18.3333C4.8455 18.3333 2.68492 18.3333 1.342 16.9904C0 15.6493 0 13.4878 0 9.16667Z" fill="#FD7013"/>
<path d="M10.167 13.6665H8.16699C8.16699 13.9318 8.27235 14.1861 8.45989 14.3736C8.64742 14.5612 8.90178 14.6665 9.16699 14.6665C9.43221 14.6665 9.68656 14.5612 9.8741 14.3736C10.0616 14.1861 10.167 13.9318 10.167 13.6665Z" fill="#FD7013" stroke="white" stroke-linecap="round" stroke-linejoin="round"/>
<path d="M13.0764 11.2843C13.2869 11.4951 13.4051 11.781 13.4049 12.0789C13.4049 12.2264 13.3759 12.3725 13.3194 12.5087C13.263 12.645 13.1802 12.7688 13.0759 12.8731C12.9716 12.9774 12.8478 13.0601 12.7116 13.1166C12.5753 13.173 12.4292 13.2021 12.2817 13.2021H6.05187C5.90436 13.2021 5.7583 13.1731 5.62202 13.1166C5.48573 13.0602 5.3619 12.9775 5.2576 12.8732C5.1533 12.7689 5.07057 12.645 5.01414 12.5088C4.95771 12.3725 4.92868 12.2264 4.92871 12.0789C4.92856 11.781 5.04673 11.4951 5.25724 11.2843L5.9883 10.5532V8.43431C5.9883 7.59131 6.32318 6.78285 6.91926 6.18676C7.51535 5.59068 8.32381 5.2558 9.16681 5.2558C10.0098 5.2558 10.8183 5.59068 11.4144 6.18676C12.0104 6.78285 12.3453 7.59131 12.3453 8.43431V10.5532L13.0764 11.2843Z" stroke="white" stroke-width="1.5" stroke-linecap="round" stroke-linejoin="round"/>
<path d="M8.16699 4.66653L10.167 4.66653C10.167 4.40132 10.0616 4.14696 9.8741 3.95943C9.68656 3.77189 9.43221 3.66653 9.16699 3.66653C8.90178 3.66653 8.64742 3.77189 8.45989 3.95943C8.27235 4.14696 8.16699 4.40132 8.16699 4.66653Z" fill="#FD7013" stroke="white" stroke-linecap="round" stroke-linejoin="round"/>
</svg>
