<svg width="22" height="23" viewBox="0 0 22 23" fill="none" xmlns="http://www.w3.org/2000/svg">
<path d="M9.44902 20.5304C10.6539 20.5014 11.5491 19.988 11.9176 18.7456C12.4813 16.8468 11.3666 15.2569 9.47559 15.2412C8.68776 15.2351 7.89993 15.3247 7.1121 15.3066C6.66043 15.2957 6.21106 15.1564 5.68893 15.0608C5.68893 13.8474 5.71318 12.6801 5.67737 11.514C5.66351 11.0417 5.48562 10.5755 5.44518 10.1009C5.40937 9.67946 5.33198 9.18057 5.49717 8.83425C6.61538 6.49355 8.46712 5.27174 10.96 5.26932C13.4459 5.2669 15.2399 6.54804 16.3477 8.84999C16.5141 9.19631 16.4355 9.6952 16.402 10.1166C16.3639 10.5913 16.1802 11.0599 16.1779 11.5309C16.1721 13.2843 16.216 15.039 16.2345 16.7924C16.2357 16.9074 16.2091 17.0394 16.1536 17.1375C15.1313 18.8969 13.8225 20.2871 11.8333 20.7884C11.0212 20.993 10.2345 20.8647 9.44786 20.5292L9.44902 20.5304Z" fill="#0F172B"/>
<path d="M20.8272 13.6985C20.8272 14.5062 20.8411 15.3139 20.8226 16.1204C20.8064 16.8021 20.4992 17.1218 19.8661 17.1484C19.463 17.1654 19.0575 17.1629 18.6532 17.1448C18.0502 17.1181 17.7071 16.7912 17.7002 16.17C17.6817 14.5353 17.6713 12.8993 17.7129 11.2658C17.7198 10.974 17.9231 10.5695 18.1542 10.4291C18.5308 10.199 18.5492 9.96408 18.4511 9.59596C17.6043 6.4161 15.6382 4.39872 12.6036 3.62616C8.57894 2.60294 4.40761 5.34081 3.40261 9.556C3.31019 9.94228 3.29633 10.182 3.7018 10.4315C3.949 10.5841 4.13268 11.0527 4.14307 11.3857C4.18928 12.8981 4.17888 14.413 4.15462 15.9266C4.14654 16.3843 4.31057 16.5781 4.7195 16.6628C5.35947 16.7973 5.98673 17.0116 6.63016 17.1169C6.98595 17.1751 7.3637 17.0673 7.7322 17.0588C8.36754 17.0455 9.00289 17.0479 9.63823 17.054C10.1326 17.0588 10.2874 17.3567 10.2909 17.8435C10.2944 18.3218 10.1673 18.6463 9.66711 18.6584C9.03177 18.673 8.39642 18.6657 7.76108 18.6584C7.65018 18.6572 7.52773 18.6294 7.4307 18.5749C5.79844 17.6776 4.03911 17.278 2.21855 17.1581C1.30943 17.0988 1.0345 16.8651 1.03103 15.9351C1.02526 14.4227 1.03566 12.909 1.02641 11.3954C1.02295 10.8505 1.2124 10.4884 1.71028 10.2595C1.88471 10.1784 2.0395 9.89748 2.08455 9.68072C3.00754 5.21367 6.56316 2.16338 10.9239 2.11373C15.1449 2.06651 18.9201 5.28148 19.7102 9.61776C19.7772 9.98708 19.8523 10.2329 20.2485 10.3358C20.6771 10.4484 20.8261 10.8323 20.8272 11.2755C20.8284 12.0832 20.8272 12.8909 20.8272 13.6973V13.6985Z" fill="#FF6900"/>
</svg>
