<svg width="22" height="28" viewBox="0 0 22 28" fill="none" xmlns="http://www.w3.org/2000/svg">
<rect width="22" height="28" fill="#686868"/>
<g id="Checkouts list - seller">
<rect width="1440" height="1429" transform="translate(-1324 -610)" fill="white"/>
<g id="Group 1149">
<g id="Rectangle 283" filter="url(#filter0_d_0_1)">
<rect x="-34" y="-469" width="90" height="660" rx="20" fill="white"/>
<rect x="-33.5" y="-468.5" width="89" height="659" rx="19.5" stroke="#E8EDF1"/>
</g>
<g id="Frame 344">
<g id="support-admin-icon-gray-vector-graphics_965649-13105 2">
<g id="Group">
<path id="Vector" d="M21 12.5596V17.5596C21 18.3552 20.6839 19.1183 20.1213 19.6809C19.5587 20.2435 18.7956 20.5596 18 20.5596H4C3.20435 20.5596 2.44129 20.2435 1.87868 19.6809C1.31607 19.1183 1 18.3552 1 17.5596V12.5596H21ZM17 15.5596H14C13.7348 15.5596 13.4804 15.6649 13.2929 15.8525C13.1054 16.04 13 16.2944 13 16.5596C13 16.8248 13.1054 17.0791 13.2929 17.2667C13.4804 17.4542 13.7348 17.5596 14 17.5596H17C17.2652 17.5596 17.5196 17.4542 17.7071 17.2667C17.8946 17.0791 18 16.8248 18 16.5596C18 16.2944 17.8946 16.04 17.7071 15.8525C17.5196 15.6649 17.2652 15.5596 17 15.5596ZM18 6.55957C18.7956 6.55957 19.5587 6.87564 20.1213 7.43825C20.6839 8.00086 21 8.76392 21 9.55957V10.5596H1V9.55957C1 8.76392 1.31607 8.00086 1.87868 7.43825C2.44129 6.87564 3.20435 6.55957 4 6.55957H18Z" fill="#FD7013"/>
<path id="Vector_2" d="M11.0752 4.05957C11.4084 4.05957 11.7329 4.1703 11.9932 4.375L12.1006 4.46875L12.1025 4.4707L15.0654 7.35059L15.1621 7.4541C15.2539 7.56158 15.3295 7.68215 15.3857 7.8125V7.81348L15.4355 7.94629C15.4781 8.08124 15.5 8.22208 15.5 8.36426C15.5 8.50673 15.4783 8.648 15.4355 8.7832L15.3857 8.91602C15.3295 9.04638 15.2539 9.16692 15.1621 9.27441L15.0654 9.37793C14.9631 9.47625 14.8464 9.55841 14.7207 9.62305L14.5918 9.68164C14.4161 9.7516 14.2282 9.78807 14.0391 9.78809C13.8972 9.78809 13.7559 9.76809 13.6201 9.72852L13.4863 9.68164C13.3106 9.61166 13.1492 9.50909 13.0127 9.37793L13.0078 9.37305L12.5361 8.90723V11.6367C12.536 11.9726 12.4145 12.2934 12.1992 12.5459L12.1016 12.6494C11.8262 12.914 11.4563 13.0596 11.0752 13.0596C10.6941 13.0595 10.3251 12.914 10.0498 12.6494C9.7739 12.3843 9.61436 12.0206 9.61426 11.6367V8.82227L8.98633 9.37695L8.9873 9.37793C8.71192 9.64257 8.34215 9.78809 7.96094 9.78809C7.62757 9.78807 7.30329 9.67658 7.04297 9.47168L6.93457 9.37793C6.65864 9.11266 6.5 8.74827 6.5 8.36426L6.50781 8.22168C6.54195 7.891 6.69304 7.58276 6.93457 7.35059L6.94141 7.34375L7.28125 7.71094L6.94238 7.34473L10.0498 4.46973V4.46875C10.325 4.20459 10.6944 4.05961 11.0752 4.05957Z" fill="#FD7013" stroke="white"/>
</g>
</g>
</g>
</g>
</g>
<defs>
<filter id="filter0_d_0_1" x="-34" y="-469" width="90" height="662" filterUnits="userSpaceOnUse" color-interpolation-filters="sRGB">
<feFlood flood-opacity="0" result="BackgroundImageFix"/>
<feColorMatrix in="SourceAlpha" type="matrix" values="0 0 0 0 0 0 0 0 0 0 0 0 0 0 0 0 0 0 127 0" result="hardAlpha"/>
<feOffset dy="2"/>
<feComposite in2="hardAlpha" operator="out"/>
<feColorMatrix type="matrix" values="0 0 0 0 0.909804 0 0 0 0 0.929412 0 0 0 0 0.945098 0 0 0 1 0"/>
<feBlend mode="normal" in2="BackgroundImageFix" result="effect1_dropShadow_0_1"/>
<feBlend mode="normal" in="SourceGraphic" in2="effect1_dropShadow_0_1" result="shape"/>
</filter>
</defs>
</svg>
