<svg width="16" height="17" viewBox="0 0 16 17" fill="none" xmlns="http://www.w3.org/2000/svg">
<path fill-rule="evenodd" clip-rule="evenodd" d="M0 8.5133C0 4.29822 3.36855 0.5 8.01731 0.5C12.562 0.5 16.0026 4.22621 16.0026 8.4893C16.0026 13.4341 11.9699 16.5026 8.0013 16.5026C6.68909 16.5026 5.23285 16.1505 4.06466 15.4608C3.6566 15.2128 3.31254 15.0288 2.87247 15.1728L1.2562 15.6529C0.848138 15.7809 0.480078 15.4608 0.600098 15.0288L1.13619 13.2333C1.2242 12.9852 1.2082 12.7204 1.08018 12.5116C0.392064 11.2457 0 9.85912 0 8.5133Z" fill="#FF6900"/>
<path d="M7.9862 9.54706C7.41811 9.53906 6.96204 9.08218 6.96204 8.51329C6.96204 7.9524 7.42611 7.48752 7.9862 7.49552C8.25124 7.50599 8.50194 7.61865 8.68576 7.80987C8.86958 8.00109 8.97225 8.25604 8.97225 8.52129C8.97225 8.78654 8.86958 9.04149 8.68576 9.23271C8.50194 9.42394 8.25124 9.53659 7.9862 9.54706Z" fill="white"/>
<path d="M11.6748 9.54706C11.1067 9.54706 10.6506 9.08218 10.6506 8.52129C10.6506 7.9524 11.1067 7.49552 11.6748 7.49552C11.9398 7.50599 12.1905 7.61865 12.3744 7.80987C12.5582 8.00109 12.6608 8.25604 12.6608 8.52129C12.6608 8.78654 12.5582 9.04149 12.3744 9.23271C12.1905 9.42394 11.9398 9.53659 11.6748 9.54706Z" fill="white"/>
<path d="M3.27344 8.52129C3.27344 9.08298 3.73751 9.54706 4.2976 9.54706C4.56886 9.54496 4.82838 9.43616 5.02005 9.2442C5.21171 9.05224 5.3201 8.79255 5.32177 8.52129C5.32177 7.9524 4.8657 7.49552 4.2976 7.49552C3.72951 7.49552 3.27344 7.9524 3.27344 8.52129Z" fill="white"/>
</svg>
