<svg width="22" height="27" viewBox="0 0 22 27" fill="none" xmlns="http://www.w3.org/2000/svg">
<rect width="22" height="27" fill="#686868"/>
<g id="Group 1147">
<g id="Rectangle 283" filter="url(#filter0_d_0_1)">
<rect x="-208" y="-662" width="264" height="715" rx="20" fill="white"/>
<rect x="-207.5" y="-661.5" width="263" height="714" rx="19.5" stroke="#E2E8F0"/>
</g>
<g id="Frame 344">
<g id="Frame 346">
<g id="Frame 491">
<g id="lucide:log-out">
<path id="Vector" d="M13.75 5.5L17.4167 5.5C17.9029 5.5 18.3692 5.69315 18.713 6.03697C19.0568 6.38079 19.25 6.8471 19.25 7.33333L19.25 20.1667C19.25 20.6529 19.0568 21.1192 18.713 21.463C18.3692 21.8068 17.9029 22 17.4167 22L13.75 22M7.33333 9.16667L2.75 13.75M2.75 13.75L7.33333 18.3333M2.75 13.75L13.75 13.75" stroke="#0F172B" stroke-width="2" stroke-linecap="round" stroke-linejoin="round"/>
</g>
</g>
</g>
</g>
</g>
<defs>
<filter id="filter0_d_0_1" x="-208" y="-662" width="264" height="717" filterUnits="userSpaceOnUse" color-interpolation-filters="sRGB">
<feFlood flood-opacity="0" result="BackgroundImageFix"/>
<feColorMatrix in="SourceAlpha" type="matrix" values="0 0 0 0 0 0 0 0 0 0 0 0 0 0 0 0 0 0 127 0" result="hardAlpha"/>
<feOffset dy="2"/>
<feComposite in2="hardAlpha" operator="out"/>
<feColorMatrix type="matrix" values="0 0 0 0 0.909804 0 0 0 0 0.929412 0 0 0 0 0.945098 0 0 0 1 0"/>
<feBlend mode="normal" in2="BackgroundImageFix" result="effect1_dropShadow_0_1"/>
<feBlend mode="normal" in="SourceGraphic" in2="effect1_dropShadow_0_1" result="shape"/>
</filter>
</defs>
</svg>
