<svg width="22" height="28" viewBox="0 0 22 28" fill="none" xmlns="http://www.w3.org/2000/svg">
<rect width="22" height="28" fill="#686868"/>
<g id="Game info">
<rect width="1440" height="1451" transform="translate(-1324 -462)" fill="white"/>
<g id="Group 1149">
<g id="Rectangle 283" filter="url(#filter0_d_0_1)">
<rect x="-34" y="-321" width="90" height="660" rx="20" fill="white"/>
<rect x="-33.5" y="-320.5" width="89" height="659" rx="19.5" stroke="#E8EDF1"/>
</g>
<g id="Frame 344">
<g id="support-admin-icon-gray-vector-graphics_965649-13105 1">
<path id="Vector" fill-rule="evenodd" clip-rule="evenodd" d="M8.768 5.5596C9.03779 5.55963 9.30412 5.61956 9.5473 5.73496C9.79048 5.85035 10.0043 6.01826 10.1729 6.22627L11.4329 7.78182H18.2C18.6774 7.78182 19.1352 7.96912 19.4728 8.30252C19.8104 8.63592 20 9.0881 20 9.5596V19.7818C20 20.2533 19.8104 20.7055 19.4728 21.0389C19.1352 21.3723 18.6774 21.5596 18.2 21.5596H3.8C3.32261 21.5596 2.86477 21.3723 2.52721 21.0389C2.18964 20.7055 2 20.2533 2 19.7818V7.33738C2 6.86588 2.18964 6.4137 2.52721 6.0803C2.86477 5.7469 3.32261 5.5596 3.8 5.5596H8.768ZM10.991 12.6707H10.1C9.87061 12.671 9.64997 12.7577 9.48317 12.9132C9.31637 13.0688 9.21599 13.2813 9.20254 13.5075C9.1891 13.7337 9.26361 13.9564 9.41084 14.1301C9.55807 14.3039 9.76691 14.4155 9.9947 14.4423L10.1 14.4485V17.9952C10.1 18.4574 10.4546 18.8396 10.91 18.8876L11.009 18.8929H11.45C11.6393 18.8929 11.8237 18.834 11.9772 18.7245C12.1306 18.615 12.2451 18.4605 12.3045 18.283C12.3639 18.1055 12.3652 17.9141 12.3081 17.7358C12.2509 17.5576 12.1384 17.4017 11.9864 17.2903L11.9 17.2343V13.5685C11.9 13.1063 11.5454 12.724 11.09 12.676L10.991 12.6707ZM11 10.004C10.7613 10.004 10.5324 10.0977 10.3636 10.2644C10.1948 10.4311 10.1 10.6572 10.1 10.8929C10.1 11.1287 10.1948 11.3548 10.3636 11.5215C10.5324 11.6882 10.7613 11.7818 11 11.7818C11.2387 11.7818 11.4676 11.6882 11.6364 11.5215C11.8052 11.3548 11.9 11.1287 11.9 10.8929C11.9 10.6572 11.8052 10.4311 11.6364 10.2644C11.4676 10.0977 11.2387 10.004 11 10.004Z" fill="#FD7013"/>
</g>
</g>
</g>
</g>
<defs>
<filter id="filter0_d_0_1" x="-34" y="-321" width="90" height="662" filterUnits="userSpaceOnUse" color-interpolation-filters="sRGB">
<feFlood flood-opacity="0" result="BackgroundImageFix"/>
<feColorMatrix in="SourceAlpha" type="matrix" values="0 0 0 0 0 0 0 0 0 0 0 0 0 0 0 0 0 0 127 0" result="hardAlpha"/>
<feOffset dy="2"/>
<feComposite in2="hardAlpha" operator="out"/>
<feColorMatrix type="matrix" values="0 0 0 0 0.909804 0 0 0 0 0.929412 0 0 0 0 0.945098 0 0 0 1 0"/>
<feBlend mode="normal" in2="BackgroundImageFix" result="effect1_dropShadow_0_1"/>
<feBlend mode="normal" in="SourceGraphic" in2="effect1_dropShadow_0_1" result="shape"/>
</filter>
</defs>
</svg>
