<svg width="22" height="28" viewBox="0 0 22 28" fill="none" xmlns="http://www.w3.org/2000/svg">
<path d="M1.83398 13.7263C1.83398 9.4051 1.83398 7.24452 3.17598 5.9016C4.51982 4.5596 6.67948 4.5596 11.0007 4.5596C15.3218 4.5596 17.4824 4.5596 18.8244 5.9016C20.1673 7.24543 20.1673 9.4051 20.1673 13.7263C20.1673 18.0474 20.1673 20.208 18.8244 21.55C17.4833 22.8929 15.3218 22.8929 11.0007 22.8929C6.67948 22.8929 4.5189 22.8929 3.17598 21.55C1.83398 20.2089 1.83398 18.0474 1.83398 13.7263Z" fill="#0F172B"/>
<path fill-rule="evenodd" clip-rule="evenodd" d="M13.4874 12.7183C13.4874 13.1117 13.41 13.5011 13.2595 13.8645C13.109 14.2279 12.8884 14.558 12.6103 14.8361C12.3322 15.1143 12.0021 15.3349 11.6387 15.4854C11.2754 15.6359 10.886 15.7134 10.4927 15.7134C10.0994 15.7134 9.70997 15.6359 9.34663 15.4854C8.98329 15.3349 8.65315 15.1143 8.37506 14.8361C8.09697 14.558 7.87638 14.2279 7.72588 13.8645C7.57538 13.5011 7.49791 13.1117 7.49791 12.7183C7.49791 11.924 7.81343 11.1622 8.37506 10.6005C8.93669 10.0389 9.69842 9.72331 10.4927 9.72331C11.2869 9.72331 12.0487 10.0389 12.6103 10.6005C13.1719 11.1622 13.4874 11.924 13.4874 12.7183ZM13.0951 16.3803C12.1771 17.033 11.0474 17.317 9.92983 17.176C8.81229 17.035 7.7885 16.4793 7.06137 15.6189C6.33423 14.7586 5.95682 13.6564 6.00393 12.5309C6.05104 11.4054 6.51924 10.3387 7.31572 9.5421C8.11221 8.74554 9.17885 8.27731 10.3043 8.23019C11.4297 8.18308 12.5317 8.56052 13.392 9.28772C14.2523 10.0149 14.808 11.0388 14.949 12.1564C15.09 13.2741 14.806 14.4039 14.1533 15.322L16.7617 17.9297C16.8353 17.9982 16.8943 18.0809 16.9352 18.1728C16.9761 18.2646 16.9981 18.3638 16.9999 18.4643C17.0017 18.5648 16.9832 18.6647 16.9455 18.7579C16.9079 18.8512 16.8518 18.9358 16.7807 19.0069C16.7096 19.0781 16.6249 19.1341 16.5317 19.1718C16.4385 19.2094 16.3386 19.2279 16.2381 19.2261C16.1376 19.2244 16.0384 19.2024 15.9466 19.1614C15.8548 19.1205 15.7721 19.0615 15.7036 18.9879L13.0951 16.3803Z" fill="white"/>
</svg>
