<svg width="22" height="23" viewBox="0 0 22 23" fill="none" xmlns="http://www.w3.org/2000/svg">
<path fill-rule="evenodd" clip-rule="evenodd" d="M3 12.0133C3 7.79822 6.36855 4 11.0173 4C15.562 4 19.0026 7.72621 19.0026 11.9893C19.0026 16.9341 14.9699 20.0026 11.0013 20.0026C9.68909 20.0026 8.23285 19.6505 7.06466 18.9608C6.6566 18.7128 6.31254 18.5288 5.87247 18.6728L4.2562 19.1529C3.84814 19.2809 3.48008 18.9608 3.6001 18.5288L4.13619 16.7333C4.2242 16.4852 4.2082 16.2204 4.08018 16.0116C3.39206 14.7457 3 13.3591 3 12.0133Z" fill="#0F172B"/>
<path d="M7.80047 10.9448C7.73565 11.0593 7.62544 11.1166 7.46986 11.1166C7.40071 11.1166 7.33805 11.1043 7.28187 11.0798C7.22568 11.0552 7.16734 11.0286 7.10684 11C7.05065 10.9714 6.99015 10.9448 6.92532 10.9202C6.8605 10.8957 6.78271 10.8834 6.69195 10.8834C6.46722 10.8834 6.35486 10.9775 6.35486 11.1656C6.35486 11.2434 6.39807 11.3067 6.48451 11.3558C6.57094 11.4049 6.67899 11.4519 6.80864 11.4969C6.94261 11.5419 7.08523 11.591 7.23649 11.6442C7.38775 11.6933 7.5282 11.7607 7.65785 11.8466C7.79183 11.9325 7.90203 12.0429 7.98847 12.1779C8.0749 12.3088 8.11812 12.4744 8.11812 12.6748C8.11812 12.8589 8.08138 13.0307 8.00791 13.1902C7.93877 13.3497 7.83721 13.4908 7.70323 13.6135C7.56926 13.7321 7.40287 13.8262 7.20407 13.8957C7.0096 13.9652 6.78703 14 6.53637 14C6.39807 14 6.25762 13.9857 6.115 13.9571C5.97239 13.9284 5.83409 13.8875 5.70012 13.8344C5.56614 13.7812 5.43865 13.7198 5.31765 13.6503C5.19664 13.5808 5.09076 13.5031 5 13.4172L5.30468 12.9571C5.33493 12.9202 5.38031 12.8875 5.44081 12.8589C5.50564 12.8262 5.57695 12.8098 5.65474 12.8098C5.73685 12.8098 5.81032 12.8262 5.87515 12.8589C5.93997 12.8916 6.0048 12.9284 6.06962 12.9693C6.13877 13.0061 6.21008 13.0409 6.28355 13.0736C6.36134 13.1063 6.4521 13.1227 6.55582 13.1227C6.66818 13.1227 6.75678 13.0961 6.8216 13.0429C6.88643 12.9898 6.91884 12.9039 6.91884 12.7853C6.91884 12.6912 6.87562 12.6176 6.78919 12.5644C6.70276 12.5112 6.59471 12.4642 6.46506 12.4233C6.33541 12.3783 6.19495 12.3333 6.04369 12.2883C5.89243 12.2393 5.75198 12.1718 5.62233 12.0859C5.49268 12 5.38463 11.8875 5.2982 11.7485C5.21176 11.6094 5.16855 11.4274 5.16855 11.2025C5.16855 11.0511 5.20096 10.9039 5.26579 10.7607C5.33493 10.6135 5.43433 10.4847 5.56398 10.3742C5.69364 10.2597 5.85138 10.1697 6.03721 10.1043C6.22737 10.0348 6.44345 10 6.68547 10C6.95342 10 7.2084 10.0429 7.45041 10.1288C7.69675 10.2147 7.90419 10.3333 8.07274 10.4847L7.80047 10.9448Z" fill="white"/>
<path d="M13.3874 10.0491V13.9571H12.2529V12.0491C12.1362 12.2699 12.0174 12.4867 11.8964 12.6994C11.7797 12.9121 11.663 13.1268 11.5463 13.3436C11.4988 13.4131 11.4361 13.4703 11.3583 13.5153C11.2805 13.5562 11.1855 13.5767 11.0731 13.5767H10.9564C10.7274 13.5767 10.5696 13.499 10.4832 13.3436L9.77659 12.0307V13.9571H8.64214V10.0491H9.49784C9.61453 10.0491 9.70744 10.0593 9.77659 10.0798C9.85006 10.0961 9.90624 10.1452 9.94514 10.227L11.0083 12.2086L12.0779 10.227C12.1298 10.137 12.1859 10.0859 12.2465 10.0736C12.3113 10.0573 12.4064 10.0491 12.5317 10.0491H13.3874Z" fill="white"/>
<path d="M16.6824 10.9448C16.6175 11.0593 16.5073 11.1166 16.3517 11.1166C16.2826 11.1166 16.2199 11.1043 16.1637 11.0798C16.1076 11.0552 16.0492 11.0286 15.9887 11C15.9325 10.9714 15.872 10.9448 15.8072 10.9202C15.7424 10.8957 15.6646 10.8834 15.5738 10.8834C15.3491 10.8834 15.2367 10.9775 15.2367 11.1656C15.2367 11.2434 15.28 11.3067 15.3664 11.3558C15.4528 11.4049 15.5609 11.4519 15.6905 11.4969C15.8245 11.5419 15.9671 11.591 16.1184 11.6442C16.2696 11.6933 16.4101 11.7607 16.5397 11.8466C16.6737 11.9325 16.7839 12.0429 16.8703 12.1779C16.9568 12.3088 17 12.4744 17 12.6748C17 12.8589 16.9633 13.0307 16.8898 13.1902C16.8206 13.3497 16.7191 13.4908 16.5851 13.6135C16.4511 13.7321 16.2848 13.8262 16.086 13.8957C15.8915 13.9652 15.6689 14 15.4183 14C15.28 14 15.1395 13.9857 14.9969 13.9571C14.8543 13.9284 14.716 13.8875 14.582 13.8344C14.448 13.7812 14.3205 13.7198 14.1995 13.6503C14.0785 13.5808 13.9726 13.5031 13.8819 13.4172L14.1866 12.9571C14.2168 12.9202 14.2622 12.8875 14.3227 12.8589C14.3875 12.8262 14.4588 12.8098 14.5366 12.8098C14.6187 12.8098 14.6922 12.8262 14.757 12.8589C14.8219 12.8916 14.8867 12.9284 14.9515 12.9693C15.0207 13.0061 15.092 13.0409 15.1654 13.0736C15.2432 13.1063 15.334 13.1227 15.4377 13.1227C15.5501 13.1227 15.6387 13.0961 15.7035 13.0429C15.7683 12.9898 15.8007 12.9039 15.8007 12.7853C15.8007 12.6912 15.7575 12.6176 15.6711 12.5644C15.5846 12.5112 15.4766 12.4642 15.3469 12.4233C15.2173 12.3783 15.0768 12.3333 14.9256 12.2883C14.7743 12.2393 14.6339 12.1718 14.5042 12.0859C14.3746 12 14.2665 11.8875 14.1801 11.7485C14.0936 11.6094 14.0504 11.4274 14.0504 11.2025C14.0504 11.0511 14.0828 10.9039 14.1477 10.7607C14.2168 10.6135 14.3162 10.4847 14.4459 10.3742C14.5755 10.2597 14.7333 10.1697 14.9191 10.1043C15.1093 10.0348 15.3253 10 15.5674 10C15.8353 10 16.0903 10.0429 16.3323 10.1288C16.5786 10.2147 16.7861 10.3333 16.9546 10.4847L16.6824 10.9448Z" fill="white"/>
</svg>
