<svg width="22" height="28" viewBox="0 0 22 28" fill="none" xmlns="http://www.w3.org/2000/svg">
<path fill-rule="evenodd" clip-rule="evenodd" d="M12.8075 19.1872L12.8129 17.4346C12.8129 17.202 12.908 16.9788 13.0772 16.8143C13.2464 16.6498 13.4758 16.5574 13.7151 16.5574C13.9544 16.5574 14.1838 16.6498 14.353 16.8143C14.5222 16.9788 14.6173 17.202 14.6173 17.4346V19.1645C14.6173 19.5854 14.6173 19.7962 14.7559 19.9257C14.8954 20.0544 15.1068 20.0456 15.5325 20.0281C17.2091 19.959 18.2395 19.7394 18.9649 19.0341C19.6938 18.3289 19.9197 17.327 19.9908 15.6942C20.0043 15.3705 20.0115 15.2077 19.9494 15.1001C19.8864 14.9925 19.6389 14.8577 19.1422 14.5874C18.8623 14.4357 18.6292 14.2141 18.467 13.9455C18.3047 13.6769 18.2192 13.3711 18.2192 13.0596C18.2192 12.7481 18.3047 12.4423 18.467 12.1737C18.6292 11.9051 18.8623 11.6835 19.1422 11.5319C19.6389 11.2624 19.8873 11.1267 19.9494 11.0191C20.0115 10.9115 20.0043 10.7496 19.9899 10.425C19.9197 8.79223 19.6929 7.79123 18.9649 7.0851C18.1756 6.3186 17.0255 6.12523 15.0754 6.07623C15.0156 6.07471 14.9562 6.08483 14.9006 6.10601C14.845 6.12718 14.7943 6.15897 14.7515 6.19951C14.7087 6.24004 14.6747 6.28849 14.6515 6.34201C14.6283 6.39553 14.6164 6.45302 14.6164 6.5111V8.6846C14.6164 8.91725 14.5213 9.14036 14.3521 9.30487C14.1829 9.46937 13.9535 9.56179 13.7142 9.56179C13.4749 9.56179 13.2455 9.46937 13.0763 9.30487C12.9071 9.14036 12.812 8.91725 12.812 8.6846L12.8057 6.49623C12.8055 6.38035 12.758 6.26929 12.6736 6.18743C12.5892 6.10557 12.4749 6.0596 12.3558 6.0596H9.19518C5.79343 6.0596 4.09255 6.0596 3.03513 7.0851C2.30619 7.79035 2.0803 8.79223 2.00921 10.425C1.99571 10.7487 1.98851 10.9115 2.0506 11.0191C2.1136 11.1267 2.36108 11.2624 2.85784 11.5319C3.13767 11.6835 3.37075 11.9051 3.53301 12.1737C3.69528 12.4423 3.78083 12.7481 3.78083 13.0596C3.78083 13.3711 3.69528 13.6769 3.53301 13.9455C3.37075 14.2141 3.13767 14.4357 2.85784 14.5874C2.36108 14.8577 2.1127 14.9925 2.0506 15.1001C1.98851 15.2077 1.99571 15.3696 2.01011 15.6934C2.0803 17.327 2.30708 18.3289 3.03513 19.0341C4.09255 20.0596 5.79343 20.0596 9.19608 20.0596H11.9049C12.3297 20.0596 12.5411 20.0596 12.6734 19.9319C12.8057 19.8041 12.8066 19.5994 12.8075 19.1872ZM14.6164 13.9346V12.1846C14.6164 11.952 14.5213 11.7288 14.3521 11.5643C14.1829 11.3998 13.9535 11.3074 13.7142 11.3074C13.4749 11.3074 13.2455 11.3998 13.0763 11.5643C12.9071 11.7288 12.812 11.952 12.812 12.1846V13.9346C12.812 14.1674 12.9071 14.3906 13.0764 14.5552C13.2457 14.7198 13.4753 14.8122 13.7147 14.8122C13.954 14.8122 14.1836 14.7198 14.3529 14.5552C14.5222 14.3906 14.6164 14.1674 14.6164 13.9346Z" fill="#FF6900"/>
</svg>
