<svg width="22" height="27" viewBox="0 0 22 27" fill="none" xmlns="http://www.w3.org/2000/svg">
<path fill-rule="evenodd" clip-rule="evenodd" d="M12.8075 18.6276L12.8129 16.875C12.8129 16.6424 12.908 16.4192 13.0772 16.2547C13.2464 16.0902 13.4758 15.9978 13.7151 15.9978C13.9544 15.9978 14.1838 16.0902 14.353 16.2547C14.5222 16.4192 14.6173 16.6424 14.6173 16.875V18.6049C14.6173 19.0257 14.6173 19.2366 14.7559 19.3661C14.8954 19.4948 15.1068 19.486 15.5325 19.4685C17.2091 19.3994 18.2395 19.1797 18.9649 18.4745C19.6938 17.7692 19.9197 16.7674 19.9908 15.1346C20.0043 14.8109 20.0115 14.6481 19.9494 14.5405C19.8864 14.4329 19.6389 14.2981 19.1422 14.0278C18.8623 13.8761 18.6292 13.6545 18.467 13.3859C18.3047 13.1173 18.2192 12.8115 18.2192 12.5C18.2192 12.1885 18.3047 11.8827 18.467 11.6141C18.6292 11.3455 18.8623 11.1239 19.1422 10.9722C19.6389 10.7027 19.8873 10.5671 19.9494 10.4595C20.0115 10.3519 20.0043 10.19 19.9899 9.86538C19.9197 8.23263 19.6929 7.23162 18.9649 6.5255C18.1756 5.759 17.0255 5.56563 15.0754 5.51663C15.0156 5.51511 14.9562 5.52523 14.9006 5.54641C14.845 5.56758 14.7943 5.59937 14.7515 5.6399C14.7087 5.68044 14.6747 5.72889 14.6515 5.78241C14.6283 5.83593 14.6164 5.89342 14.6164 5.9515V8.125C14.6164 8.35764 14.5213 8.58076 14.3521 8.74527C14.1829 8.90977 13.9535 9.00219 13.7142 9.00219C13.4749 9.00219 13.2455 8.90977 13.0763 8.74527C12.9071 8.58076 12.812 8.35764 12.812 8.125L12.8057 5.93663C12.8055 5.82074 12.758 5.70969 12.6736 5.62783C12.5892 5.54597 12.4749 5.5 12.3558 5.5H9.19518C5.79343 5.5 4.09255 5.5 3.03513 6.5255C2.30619 7.23075 2.0803 8.23263 2.00921 9.86538C1.99571 10.1891 1.98851 10.3519 2.0506 10.4595C2.1136 10.5671 2.36108 10.7027 2.85784 10.9722C3.13767 11.1239 3.37075 11.3455 3.53301 11.6141C3.69528 11.8827 3.78083 12.1885 3.78083 12.5C3.78083 12.8115 3.69528 13.1173 3.53301 13.3859C3.37075 13.6545 3.13767 13.8761 2.85784 14.0278C2.36108 14.2981 2.1127 14.4329 2.0506 14.5405C1.98851 14.6481 1.99571 14.81 2.01011 15.1337C2.0803 16.7674 2.30708 17.7692 3.03513 18.4745C4.09255 19.5 5.79343 19.5 9.19608 19.5H11.9049C12.3297 19.5 12.5411 19.5 12.6734 19.3723C12.8057 19.2445 12.8066 19.0398 12.8075 18.6276ZM14.6164 13.375V11.625C14.6164 11.3924 14.5213 11.1692 14.3521 11.0047C14.1829 10.8402 13.9535 10.7478 13.7142 10.7478C13.4749 10.7478 13.2455 10.8402 13.0763 11.0047C12.9071 11.1692 12.812 11.3924 12.812 11.625V13.375C12.812 13.6078 12.9071 13.831 13.0764 13.9956C13.2457 14.1602 13.4753 14.2526 13.7147 14.2526C13.954 14.2526 14.1836 14.1602 14.3529 13.9956C14.5222 13.831 14.6164 13.6078 14.6164 13.375Z" fill="#0F172B"/>
</svg>
