<svg width="22" height="27" viewBox="0 0 22 27" fill="none" xmlns="http://www.w3.org/2000/svg">
<path d="M9.44902 22.4172C10.6539 22.3881 11.5491 21.8747 11.9176 20.6323C12.4813 18.7336 11.3666 17.1437 9.47559 17.1279C8.68776 17.1219 7.89993 17.2115 7.1121 17.1933C6.66043 17.1824 6.21106 17.0432 5.68893 16.9475C5.68893 15.7342 5.71318 14.5669 5.67737 13.4007C5.66351 12.9285 5.48562 12.4623 5.44518 11.9876C5.40937 11.5662 5.33198 11.0673 5.49717 10.721C6.61538 8.3803 8.46712 7.15849 10.96 7.15607C13.4459 7.15365 15.2399 8.43479 16.3477 10.7367C16.5141 11.0831 16.4355 11.582 16.402 12.0033C16.3639 12.478 16.1802 12.9467 16.1779 13.4177C16.1721 15.1711 16.216 16.9257 16.2345 18.6791C16.2357 18.7941 16.2091 18.9261 16.1536 19.0242C15.1313 20.7837 13.8225 22.1738 11.8333 22.6751C11.0212 22.8798 10.2345 22.7514 9.44786 22.416L9.44902 22.4172Z" fill="#0F172B"/>
<path d="M20.8272 15.5853C20.8272 16.393 20.8411 17.2007 20.8226 18.0071C20.8064 18.6889 20.4992 19.0086 19.8661 19.0352C19.463 19.0521 19.0575 19.0497 18.6532 19.0316C18.0502 19.0049 17.7071 18.678 17.7002 18.0568C17.6817 16.422 17.6713 14.7861 17.7129 13.1526C17.7198 12.8608 17.9231 12.4563 18.1542 12.3158C18.5308 12.0858 18.5492 11.8509 18.4511 11.4827C17.6043 8.30288 15.6382 6.2855 12.6036 5.51294C8.57894 4.48972 4.40761 7.22759 3.40261 11.4428C3.31019 11.8291 3.29633 12.0688 3.7018 12.3183C3.949 12.4708 4.13268 12.9395 4.14307 13.2725C4.18928 14.7849 4.17888 16.2997 4.15462 17.8134C4.14654 18.2711 4.31057 18.4649 4.7195 18.5496C5.35947 18.684 5.98673 18.8984 6.63016 19.0037C6.98595 19.0618 7.3637 18.9541 7.7322 18.9456C8.36754 18.9323 9.00289 18.9347 9.63823 18.9407C10.1326 18.9456 10.2874 19.2435 10.2909 19.7303C10.2944 20.2086 10.1673 20.5331 9.66711 20.5452C9.03177 20.5597 8.39642 20.5525 7.76108 20.5452C7.65018 20.544 7.52773 20.5161 7.4307 20.4617C5.79844 19.5644 4.03911 19.1648 2.21855 19.0449C1.30943 18.9855 1.0345 18.7518 1.03103 17.8219C1.02526 16.3094 1.03566 14.7958 1.02641 13.2822C1.02295 12.7372 1.2124 12.3752 1.71028 12.1463C1.88471 12.0652 2.0395 11.7843 2.08455 11.5675C3.00754 7.10045 6.56316 4.05016 10.9239 4.00051C15.1449 3.95329 18.9201 7.16826 19.7102 11.5045C19.7772 11.8739 19.8523 12.1197 20.2485 12.2226C20.6771 12.3352 20.8261 12.7191 20.8272 13.1623C20.8284 13.97 20.8272 14.7776 20.8272 15.5841V15.5853Z" fill="#0F172B"/>
</svg>
