<svg width="22" height="27" viewBox="0 0 22 27" fill="none" xmlns="http://www.w3.org/2000/svg">
<rect width="22" height="27" fill="#686868"/>
<g id="Group 1147">
<g id="Rectangle 283" filter="url(#filter0_d_0_1)">
<rect x="-208" y="-587" width="264" height="715" rx="20" fill="white"/>
<rect x="-207.5" y="-586.5" width="263" height="714" rx="19.5" stroke="#E2E8F0"/>
</g>
<g id="Frame 344">
<g id="Frame 336">
<g id="Frame 484">
<g id="solar:wallet-money-line-duotone">
<g id="Group">
<path id="Vector" d="M19.2176 10.5833C19.1461 8.86733 18.9169 7.815 18.1753 7.07433C17.1019 6 15.3731 6 11.9163 6H9.16634C5.70959 6 3.98076 6 2.90734 7.07433C1.83392 8.14867 1.83301 9.87658 1.83301 13.3333C1.83301 16.7901 1.83301 18.5189 2.90734 19.5923C3.98167 20.6657 5.70959 20.6667 9.16634 20.6667H11.9163C15.3731 20.6667 17.1019 20.6667 18.1753 19.5923C18.9169 18.8517 19.147 17.7993 19.2176 16.0833" fill="#0F172B"/>
<path id="Vector_2" d="M19.0979 10.5833H16.7127C15.0765 10.5833 13.751 11.8144 13.751 13.3333C13.751 14.8522 15.0774 16.0833 16.7118 16.0833H19.0979C19.1749 16.0833 19.2125 16.0833 19.2446 16.0815C19.7396 16.0512 20.1337 15.6855 20.1658 15.2262C20.1676 15.1969 20.1676 15.1611 20.1676 15.0906V11.5761C20.1676 11.5055 20.1676 11.4697 20.1658 11.4404C20.1328 10.9811 19.7396 10.6154 19.2446 10.5851C19.2125 10.5833 19.1749 10.5833 19.0979 10.5833Z" fill="white" stroke="#0F172B" stroke-width="1.5"/>
<path id="Vector_3" d="M5.50098 9.66669H9.16764" stroke="white" stroke-width="1.5" stroke-linecap="round" stroke-linejoin="round"/>
<path id="Vector_4" d="M16.4912 13.3333H16.4995" stroke="#0F172B" stroke-width="2" stroke-linecap="round" stroke-linejoin="round"/>
</g>
</g>
</g>
</g>
</g>
</g>
<defs>
<filter id="filter0_d_0_1" x="-208" y="-587" width="264" height="717" filterUnits="userSpaceOnUse" color-interpolation-filters="sRGB">
<feFlood flood-opacity="0" result="BackgroundImageFix"/>
<feColorMatrix in="SourceAlpha" type="matrix" values="0 0 0 0 0 0 0 0 0 0 0 0 0 0 0 0 0 0 127 0" result="hardAlpha"/>
<feOffset dy="2"/>
<feComposite in2="hardAlpha" operator="out"/>
<feColorMatrix type="matrix" values="0 0 0 0 0.909804 0 0 0 0 0.929412 0 0 0 0 0.945098 0 0 0 1 0"/>
<feBlend mode="normal" in2="BackgroundImageFix" result="effect1_dropShadow_0_1"/>
<feBlend mode="normal" in="SourceGraphic" in2="effect1_dropShadow_0_1" result="shape"/>
</filter>
</defs>
</svg>
