<svg width="206" height="204" viewBox="0 0 206 204" fill="none" xmlns="http://www.w3.org/2000/svg">
<g clip-path="url(#clip0_6014_8)">
<path d="M131.058 203.552L131.57 203.863L131.789 203.996H172.745C181.374 203.988 189.657 200.617 195.825 194.603C199.03 191.482 201.58 187.757 203.327 183.644C205.074 179.531 205.982 175.113 206 170.647V33.0717H205.948C205.929 28.6141 205.001 24.2069 203.219 20.1184C199.744 12.0651 193.221 5.70372 185.067 2.41672C181.15 0.824958 176.961 0.00427474 172.731 0L32.7978 0C28.3419 0.0661525 23.9481 1.05157 19.8933 2.89414C11.9159 6.38302 5.64336 12.8698 2.43979 20.9437C0.846976 24.8544 0.018857 29.0325 8.56214e-06 33.253V170.244C-0.00327005 174.907 0.935067 179.524 2.75915 183.819C4.59011 188.131 7.33525 191.998 10.8063 195.155L10.7841 195.181C13.8219 197.979 17.3553 200.19 21.2042 201.702C25.0413 203.212 29.1289 203.992 33.2546 204H131.793V147.868L145.109 139.785V190.673H172.745C177.9 190.674 182.85 188.666 186.537 185.077C188.478 183.205 190.019 180.961 191.068 178.481C192.117 176.001 192.653 173.335 192.642 170.643V33.0717C192.58 27.8367 190.46 22.8351 186.736 19.1421C183.012 15.4492 177.984 13.3599 172.731 13.3234H99.9456L150.472 43.9969L156.276 47.5202L156.729 47.7977L158.463 48.8488V102.842L95.9202 140.784L118.461 154.437V169.981L61.0354 135.155V160.991L115.327 193.952L115.401 193.996L131.065 203.552H131.058ZM61.0205 13.3234V43.4824V46.632L95.9276 67.8532V52.3092L74.3521 39.1745V13.3234L143.464 55.2774L47.7002 113.412V168.452L84.3043 190.658H33.2546C28.2712 190.655 23.4711 188.785 19.8079 185.418C15.296 181.295 13.3687 175.765 13.3687 170.244V33.253C13.3875 28.1414 15.3548 23.228 18.8721 19.5077C22.7082 15.4811 28.2673 13.3234 32.7978 13.3234H61.0205ZM145.199 95.3438L83.116 133.016L62.0529 120.236L145.135 69.7999V95.3364L145.199 95.3438Z" fill="#E6E7E8"/>
<path d="M131.057 203.552L131.57 203.863L131.789 203.996V147.868L145.106 139.785V190.673H172.742C177.896 190.674 182.846 188.666 186.534 185.077C188.474 183.205 190.015 180.961 191.064 178.481C192.113 176.001 192.649 173.335 192.639 170.643V33.0715C192.577 27.8372 190.456 22.8361 186.734 19.1432C183.011 15.4504 177.983 13.3607 172.731 13.3232H99.9456L150.472 43.9967L156.276 47.52L156.729 47.7976L158.463 48.8487V102.842L95.9202 140.784L118.461 154.437V169.981L61.0354 135.155V160.991L115.327 193.93L115.401 193.974L131.065 203.552H131.057ZM61.0205 13.3232V43.4823V46.6318L95.9276 67.853V52.309L74.3521 39.1744V13.3232L143.464 55.2772L47.7001 113.412V168.452L84.3043 190.658H33.2545C28.2712 190.655 23.4711 188.785 19.8079 185.417C15.296 181.294 13.3687 175.765 13.3687 170.243V33.2491C13.3878 28.1394 15.3536 23.2277 18.8684 19.5075C22.7082 15.4809 28.2673 13.3232 32.7978 13.3232H61.0205ZM145.199 95.3437L83.116 133.016L62.0529 120.236L145.135 69.7997V95.3363L145.199 95.3437Z" fill="#4D4D4D"/>
</g>
<defs>
<clipPath id="clip0_6014_8">
<rect width="206" height="204" fill="white"/>
</clipPath>
</defs>
</svg>
