<svg width="16" height="17" viewBox="0 0 16 17" fill="none" xmlns="http://www.w3.org/2000/svg">
<path d="M8.37905 13.458L11.5248 15.0763C11.6577 15.1447 11.8075 15.1752 11.9573 15.1645C12.107 15.1537 12.2506 15.102 12.3719 15.0153C12.4931 14.9286 12.5871 14.8103 12.6431 14.674C12.6991 14.5376 12.7149 14.3885 12.6887 14.2438L12.0868 10.8177C12.0648 10.6914 12.0745 10.5617 12.1151 10.4399C12.1557 10.3181 12.2259 10.2078 12.3197 10.1184L14.8643 7.69033C14.9728 7.58841 15.0498 7.45871 15.0865 7.31601C15.1233 7.17331 15.1184 7.02336 15.0723 6.88328C15.0262 6.7432 14.9408 6.61863 14.8259 6.52377C14.7109 6.42891 14.5711 6.3676 14.4223 6.34682L10.9075 5.85231C10.7786 5.83371 10.6564 5.78455 10.5513 5.70912C10.4463 5.6337 10.3616 5.53428 10.3048 5.41953L8.69962 2.27714C8.63397 2.14413 8.53135 2.03193 8.40353 1.95341C8.27571 1.8749 8.12788 1.83325 7.97698 1.83325C7.82609 1.83325 7.67826 1.8749 7.55044 1.95341C7.42262 2.03193 7.32 2.14413 7.25435 2.27714L5.65148 5.41953C5.5947 5.53419 5.51019 5.63354 5.40529 5.70896C5.30039 5.78438 5.17827 5.83359 5.04954 5.85231L1.58242 6.34682C1.4332 6.36681 1.29274 6.42751 1.1771 6.52198C1.06145 6.61644 0.975291 6.74086 0.92846 6.881C0.881628 7.02115 0.876017 7.17136 0.912269 7.31448C0.948521 7.4576 1.02517 7.58785 1.13346 7.69033L3.6773 10.1184C3.77177 10.2075 3.84244 10.3179 3.88306 10.4399C3.92368 10.562 3.93301 10.692 3.91023 10.8184L3.30829 14.2431C3.28204 14.3878 3.29777 14.5368 3.35368 14.6731C3.4096 14.8095 3.50346 14.9278 3.6246 15.0146C3.74574 15.1014 3.88931 15.1532 4.039 15.1641C4.1887 15.175 4.33851 15.1445 4.47143 15.0763L7.61797 13.458C7.73493 13.396 7.86586 13.3635 7.99889 13.3635C8.13192 13.3635 8.26208 13.396 8.37905 13.458Z" fill="#FEAE1A"/>
</svg>
