<svg width="29" height="28" viewBox="0 0 29 28" fill="none" xmlns="http://www.w3.org/2000/svg">
<rect x="0.332031" width="28" height="28" rx="8" fill="#049654" fill-opacity="0.1"/>
<path fill-rule="evenodd" clip-rule="evenodd" d="M15.332 9C15.332 8.73478 15.2267 8.48043 15.0391 8.29289C14.8516 8.10536 14.5972 8 14.332 8C14.0668 8 13.8125 8.10536 13.6249 8.29289C13.4374 8.48043 13.332 8.73478 13.332 9V13H9.33203C9.06681 13 8.81246 13.1054 8.62492 13.2929C8.43739 13.4804 8.33203 13.7348 8.33203 14C8.33203 14.2652 8.43739 14.5196 8.62492 14.7071C8.81246 14.8946 9.06681 15 9.33203 15H13.332V19C13.332 19.2652 13.4374 19.5196 13.6249 19.7071C13.8125 19.8946 14.0668 20 14.332 20C14.5972 20 14.8516 19.8946 15.0391 19.7071C15.2267 19.5196 15.332 19.2652 15.332 19V15H19.332C19.5972 15 19.8516 14.8946 20.0391 14.7071C20.2267 14.5196 20.332 14.2652 20.332 14C20.332 13.7348 20.2267 13.4804 20.0391 13.2929C19.8516 13.1054 19.5972 13 19.332 13H15.332V9Z" fill="#02C96F"/>
</svg>
