<svg width="10" height="12" viewBox="0 0 10 12" fill="none" xmlns="http://www.w3.org/2000/svg">
<path d="M2.94858 2.30769C2.73832 2.30769 2.56396 2.13333 2.56396 1.92308V0.384615C2.56396 0.174359 2.73832 0 2.94858 0C3.15884 0 3.3332 0.174359 3.3332 0.384615V1.92308C3.3332 2.13333 3.15884 2.30769 2.94858 2.30769Z" fill="#292D32"/>
<path d="M7.05112 2.30769C6.84086 2.30769 6.6665 2.13333 6.6665 1.92308V0.384615C6.6665 0.174359 6.84086 0 7.05112 0C7.26138 0 7.43573 0.174359 7.43573 0.384615V1.92308C7.43573 2.13333 7.26138 2.30769 7.05112 2.30769Z" fill="#292D32"/>
<path d="M3.2052 6.79599C3.13854 6.79599 3.07187 6.7806 3.01033 6.75496C2.94366 6.72932 2.89238 6.69342 2.8411 6.64727C2.74879 6.54983 2.69238 6.42163 2.69238 6.28316C2.69238 6.2165 2.70777 6.14983 2.73341 6.08829C2.75905 6.02675 2.79495 5.97034 2.8411 5.91906C2.89238 5.87291 2.94366 5.83701 3.01033 5.81137C3.19495 5.73445 3.42572 5.77547 3.56931 5.91906C3.66161 6.0165 3.71802 6.14983 3.71802 6.28316C3.71802 6.31393 3.7129 6.34983 3.70777 6.38573C3.70264 6.4165 3.69238 6.44727 3.677 6.47804C3.66674 6.50881 3.65136 6.53957 3.63084 6.57034C3.61546 6.59599 3.58982 6.62163 3.56931 6.64727C3.47187 6.73958 3.33854 6.79599 3.2052 6.79599Z" fill="#292D32"/>
<path d="M5.00013 6.79436C4.93346 6.79436 4.86679 6.77897 4.80525 6.75333C4.73859 6.72769 4.6873 6.69179 4.63602 6.64564C4.54371 6.5482 4.4873 6.42 4.4873 6.28154C4.4873 6.21487 4.50269 6.1482 4.52833 6.08667C4.55397 6.02513 4.58987 5.96872 4.63602 5.91744C4.6873 5.87128 4.73859 5.83538 4.80525 5.80974C4.98987 5.72769 5.22064 5.77385 5.36423 5.91744C5.45654 6.01487 5.51295 6.1482 5.51295 6.28154C5.51295 6.31231 5.50782 6.3482 5.50269 6.3841C5.49756 6.41487 5.4873 6.44564 5.47192 6.47641C5.46166 6.50718 5.44628 6.53795 5.42577 6.56872C5.41038 6.59436 5.38474 6.62 5.36423 6.64564C5.26679 6.73795 5.13346 6.79436 5.00013 6.79436Z" fill="#292D32"/>
<path d="M6.79505 6.79436C6.72838 6.79436 6.66171 6.77897 6.60018 6.75333C6.53351 6.72769 6.48223 6.69179 6.43094 6.64564C6.41043 6.62 6.38992 6.59436 6.36941 6.56872C6.34889 6.53795 6.33351 6.50718 6.32325 6.47641C6.30787 6.44564 6.29761 6.41487 6.29248 6.3841C6.28736 6.3482 6.28223 6.31231 6.28223 6.28154C6.28223 6.1482 6.33864 6.01487 6.43094 5.91744C6.48223 5.87128 6.53351 5.83538 6.60018 5.80974C6.78992 5.72769 7.01556 5.77385 7.15915 5.91744C7.25146 6.01487 7.30787 6.1482 7.30787 6.28154C7.30787 6.31231 7.30274 6.3482 7.29761 6.3841C7.29248 6.41487 7.28223 6.44564 7.26684 6.47641C7.25659 6.50718 7.2412 6.53795 7.22069 6.56872C7.2053 6.59436 7.17966 6.62 7.15915 6.64564C7.06171 6.73795 6.92838 6.79436 6.79505 6.79436Z" fill="#292D32"/>
<path d="M3.2052 8.59132C3.13854 8.59132 3.07187 8.57599 3.01033 8.55035C2.94879 8.52471 2.89238 8.48876 2.8411 8.4426C2.74879 8.34517 2.69238 8.21184 2.69238 8.0785C2.69238 8.01184 2.70777 7.94517 2.73341 7.88363C2.75905 7.81696 2.79495 7.76061 2.8411 7.71445C3.03084 7.52471 3.37956 7.52471 3.56931 7.71445C3.66161 7.81189 3.71802 7.94517 3.71802 8.0785C3.71802 8.21184 3.66161 8.34517 3.56931 8.4426C3.47187 8.53491 3.33854 8.59132 3.2052 8.59132Z" fill="#292D32"/>
<path d="M5.00013 8.59132C4.86679 8.59132 4.73346 8.53491 4.63602 8.4426C4.54371 8.34517 4.4873 8.21184 4.4873 8.0785C4.4873 8.01184 4.50269 7.94517 4.52833 7.88363C4.55397 7.81696 4.58987 7.76061 4.63602 7.71445C4.82577 7.52471 5.17448 7.52471 5.36423 7.71445C5.41038 7.76061 5.44628 7.81696 5.47192 7.88363C5.49756 7.94517 5.51295 8.01184 5.51295 8.0785C5.51295 8.21184 5.45654 8.34517 5.36423 8.4426C5.26679 8.53491 5.13346 8.59132 5.00013 8.59132Z" fill="#292D32"/>
<path d="M6.79505 8.59018C6.66171 8.59018 6.52838 8.53377 6.43094 8.44146C6.38479 8.39531 6.34889 8.3389 6.32325 8.27223C6.29761 8.21069 6.28223 8.14403 6.28223 8.07736C6.28223 8.01069 6.29761 7.94403 6.32325 7.88249C6.34889 7.81582 6.38479 7.75941 6.43094 7.71326C6.54889 7.59531 6.72838 7.5389 6.89248 7.57479C6.92838 7.57992 6.95915 7.59018 6.98992 7.60556C7.02069 7.61582 7.05146 7.63121 7.08223 7.65172C7.10787 7.6671 7.13351 7.69274 7.15915 7.71326C7.25146 7.81069 7.30787 7.94403 7.30787 8.07736C7.30787 8.21069 7.25146 8.34403 7.15915 8.44146C7.06171 8.53377 6.92838 8.59018 6.79505 8.59018Z" fill="#292D32"/>
<path d="M9.35891 4.40705H0.640963C0.430707 4.40705 0.256348 4.23269 0.256348 4.02243C0.256348 3.81218 0.430707 3.63782 0.640963 3.63782H9.35891C9.56917 3.63782 9.74353 3.81218 9.74353 4.02243C9.74353 4.23269 9.56917 4.40705 9.35891 4.40705Z" fill="#292D32"/>
<path d="M7.05128 11.0257H2.94872C1.07692 11.0257 0 9.94878 0 8.07698V3.71801C0 1.84621 1.07692 0.769287 2.94872 0.769287H7.05128C8.92308 0.769287 10 1.84621 10 3.71801V8.07698C10 9.94878 8.92308 11.0257 7.05128 11.0257ZM2.94872 1.53852C1.48205 1.53852 0.769231 2.25134 0.769231 3.71801V8.07698C0.769231 9.54365 1.48205 10.2565 2.94872 10.2565H7.05128C8.51795 10.2565 9.23077 9.54365 9.23077 8.07698V3.71801C9.23077 2.25134 8.51795 1.53852 7.05128 1.53852H2.94872Z" fill="#292D32"/>
</svg>
