<svg width="92" height="28" viewBox="0 0 92 28" fill="none" xmlns="http://www.w3.org/2000/svg">
<path d="M0.597656 5C0.597656 2.23858 2.83623 0 5.59766 0H86.8977C89.6591 0 91.8977 2.23858 91.8977 5V22.5C91.8977 25.2614 89.6591 27.5 86.8977 27.5H5.59766C2.83623 27.5 0.597656 25.2614 0.597656 22.5V5Z" fill="url(#paint0_linear_103_3232)"/>
<path d="M35.946 12.504H38.598V15.72C38.19 16.024 37.758 16.244 37.302 16.38C36.846 16.516 36.354 16.584 35.826 16.584C35.178 16.584 34.586 16.484 34.05 16.284C33.522 16.084 33.066 15.804 32.682 15.444C32.306 15.084 32.014 14.656 31.806 14.16C31.606 13.656 31.506 13.108 31.506 12.516C31.506 11.908 31.602 11.356 31.794 10.86C31.994 10.356 32.274 9.924 32.634 9.564C33.002 9.204 33.442 8.928 33.954 8.736C34.466 8.536 35.042 8.436 35.682 8.436C36.346 8.436 36.914 8.536 37.386 8.736C37.866 8.936 38.27 9.188 38.598 9.492L38.166 10.128C38.102 10.24 38.014 10.308 37.902 10.332C37.798 10.356 37.686 10.328 37.566 10.248C37.446 10.176 37.322 10.108 37.194 10.044C37.074 9.972 36.938 9.908 36.786 9.852C36.642 9.796 36.478 9.752 36.294 9.72C36.11 9.68 35.894 9.66 35.646 9.66C35.246 9.66 34.886 9.728 34.566 9.864C34.246 10 33.97 10.192 33.738 10.44C33.514 10.688 33.342 10.988 33.222 11.34C33.102 11.692 33.042 12.084 33.042 12.516C33.042 12.98 33.106 13.396 33.234 13.764C33.362 14.124 33.546 14.428 33.786 14.676C34.026 14.924 34.314 15.116 34.65 15.252C34.994 15.38 35.374 15.444 35.79 15.444C36.086 15.444 36.35 15.412 36.582 15.348C36.814 15.284 37.042 15.196 37.266 15.084V13.596H36.246C36.158 13.596 36.086 13.572 36.03 13.524C35.974 13.468 35.946 13.4 35.946 13.32V12.504ZM43.2709 15.348C43.8549 15.348 44.3069 15.164 44.6269 14.796C44.9469 14.42 45.1069 13.92 45.1069 13.296V8.532H46.5949V13.296C46.5949 13.776 46.5189 14.22 46.3669 14.628C46.2149 15.028 45.9949 15.372 45.7069 15.66C45.4189 15.948 45.0669 16.176 44.6509 16.344C44.2429 16.504 43.7829 16.584 43.2709 16.584C42.7589 16.584 42.2989 16.504 41.8909 16.344C41.4829 16.176 41.1349 15.948 40.8469 15.66C40.5589 15.372 40.3389 15.028 40.1869 14.628C40.0349 14.22 39.9589 13.776 39.9589 13.296V8.532H41.4349V13.296C41.4349 13.912 41.5949 14.408 41.9149 14.784C42.2429 15.16 42.6949 15.348 43.2709 15.348ZM52.278 13.5L51.438 11.172C51.358 10.988 51.274 10.784 51.186 10.56C51.106 10.328 51.034 10.096 50.97 9.864C50.906 10.104 50.834 10.336 50.754 10.56C50.674 10.784 50.594 10.988 50.514 11.172L49.674 13.5H52.278ZM54.882 16.5H53.73C53.594 16.5 53.474 16.436 53.37 16.308C53.266 16.18 53.194 16.052 53.154 15.924L52.638 14.508H49.326L48.822 15.924C48.766 16.044 48.686 16.172 48.582 16.308C48.478 16.436 48.358 16.5 48.222 16.5H47.07L50.226 8.532H51.726L54.882 16.5ZM57.9015 12.324C58.4615 12.324 58.8735 12.192 59.1375 11.928C59.4095 11.664 59.5455 11.324 59.5455 10.908C59.5455 10.06 59.0055 9.636 57.9255 9.636H56.9415V12.324H57.9015ZM61.7055 16.5H60.3735C60.1175 16.5 59.9375 16.404 59.8335 16.212L58.1295 13.62C58.0655 13.532 57.9975 13.468 57.9255 13.428C57.8535 13.38 57.7415 13.356 57.5895 13.356H56.9415V16.5H55.4655V8.532H57.9255C58.4615 8.532 58.9215 8.588 59.3055 8.7C59.6975 8.804 60.0175 8.956 60.2655 9.156C60.5135 9.356 60.6935 9.596 60.8055 9.876C60.9255 10.156 60.9855 10.464 60.9855 10.8C60.9855 11.352 60.8255 11.828 60.5055 12.228C60.1935 12.62 59.7495 12.896 59.1735 13.056C59.2775 13.112 59.3735 13.18 59.4615 13.26C59.5575 13.332 59.6375 13.424 59.7015 13.536L61.7055 16.5ZM69.4662 12.516C69.4662 13.1 69.3702 13.636 69.1782 14.124C68.9862 14.612 68.7102 15.032 68.3502 15.384C67.9982 15.736 67.5702 16.012 67.0662 16.212C66.5702 16.404 66.0182 16.5 65.4102 16.5H62.3622V8.532H65.4102C66.0182 8.532 66.5702 8.632 67.0662 8.832C67.5702 9.024 67.9982 9.296 68.3502 9.648C68.7102 9.992 68.9862 10.412 69.1782 10.908C69.3702 11.396 69.4662 11.932 69.4662 12.516ZM67.9542 12.516C67.9542 11.62 67.7262 10.924 67.2702 10.428C66.8222 9.924 66.2022 9.672 65.4102 9.672H63.8502V15.36H65.2902C65.6742 15.36 66.0262 15.308 66.3462 15.204C66.6742 15.092 66.9542 14.92 67.1862 14.688C67.4262 14.456 67.6142 14.16 67.7502 13.8C67.8862 13.44 67.9542 13.012 67.9542 12.516Z" fill="white"/>
<g clip-path="url(#clip0_103_3232)">
<path d="M80.1659 12.8337H75.0325C74.6275 12.8337 74.2992 13.1621 74.2992 13.5671V16.1337C74.2992 16.5387 74.6275 16.8671 75.0325 16.8671H80.1659C80.5709 16.8671 80.8992 16.5387 80.8992 16.1337V13.5671C80.8992 13.1621 80.5709 12.8337 80.1659 12.8337Z" stroke="white" stroke-width="1.5" stroke-linecap="round" stroke-linejoin="round"/>
<path d="M75.7688 12.8337V11.367C75.7688 10.8808 75.962 10.4145 76.3058 10.0707C76.6496 9.72685 77.1159 9.53369 77.6021 9.53369C78.0884 9.53369 78.5547 9.72685 78.8985 10.0707C79.2423 10.4145 79.4355 10.8808 79.4355 11.367V12.8337" stroke="white" stroke-width="1.5" stroke-linecap="round" stroke-linejoin="round"/>
</g>
<path d="M21.7537 8.99458C21.7526 8.73265 21.6986 8.47368 21.5949 8.23344C21.3927 7.76022 21.0131 7.38642 20.5386 7.19328C20.3107 7.09974 20.0669 7.05152 19.8208 7.05127H11.678C11.4188 7.05516 11.1631 7.11306 10.9271 7.22133C10.4629 7.42634 10.0979 7.80751 9.9115 8.28193C9.81882 8.51173 9.77063 8.75724 9.76953 9.00524V17.0549C9.76934 17.3289 9.82394 17.6002 9.93009 17.8526C10.0366 18.106 10.1964 18.3332 10.3984 18.5187L10.3971 18.5202C10.5739 18.6846 10.7795 18.8145 11.0034 18.9034C11.2267 18.9922 11.4645 19.038 11.7046 19.0384H19.8216C20.3237 19.038 20.8057 18.8399 21.1646 18.4865C21.3511 18.3031 21.4995 18.0842 21.6012 17.8425C21.7028 17.6009 21.7557 17.3413 21.7567 17.0788V8.99458H21.7537ZM11.7055 18.2545C11.4152 18.2545 11.1356 18.1446 10.9222 17.9465C10.6596 17.7043 10.5475 17.3794 10.5475 17.0549V9.00502C10.5482 8.81884 10.5927 8.63548 10.6771 8.46983C10.6899 8.44518 10.7033 8.42104 10.7173 8.39741C10.7283 8.37936 10.7389 8.36153 10.7517 8.34413C10.7577 8.33478 10.764 8.32565 10.7707 8.31651L10.7832 8.29955C10.7981 8.27911 10.8141 8.2591 10.8308 8.23953C10.8429 8.22539 10.8554 8.21147 10.8681 8.19777C10.875 8.19038 10.8822 8.18298 10.8897 8.17603C11.1112 7.95312 11.4228 7.83416 11.678 7.83416H13.3203V9.79139L15.3516 11.0384V10.125L14.0961 9.35319V7.83416L18.1178 10.2994L12.5452 13.7154V16.9496L14.6752 18.2545H11.7055ZM18.2187 12.6537L14.6061 14.8674L13.3804 14.1164L18.215 11.1528V12.6533L18.2187 12.6537ZM20.9792 17.0784C20.9802 17.3874 20.86 17.6843 20.6449 17.9048L20.6233 17.9265C20.4087 18.1374 20.1207 18.2554 19.8208 18.2553H18.2133V15.2651L17.4386 15.7401V19.0382L17.4258 19.0304L17.396 19.0121L16.4835 18.4504L16.4791 18.4478L13.3199 16.5123V14.9931L16.6628 17.0395V16.1261L15.3511 15.3238L18.9905 13.0943V9.92188L18.8896 9.86012L18.8633 9.84381L18.5255 9.63677L15.5854 7.83416H19.8208C19.937 7.83478 20.0526 7.85296 20.1635 7.8881C20.1907 7.89658 20.2173 7.90615 20.2434 7.91658C20.2607 7.92354 20.278 7.93094 20.2951 7.93833L20.3204 7.95029C20.3372 7.95856 20.3539 7.96704 20.3701 7.97595L20.3945 7.98965C20.4827 8.04094 20.5639 8.10352 20.6361 8.17581C20.649 8.18886 20.6618 8.20234 20.6743 8.21604C20.6868 8.22974 20.6987 8.24344 20.7108 8.25779C20.7225 8.27193 20.734 8.2865 20.7452 8.30129L20.7616 8.32304C20.901 8.51853 20.9771 8.75248 20.9797 8.99306L20.9792 17.0784Z" fill="white"/>
<defs>
<linearGradient id="paint0_linear_103_3232" x1="0.597656" y1="4.4" x2="91.8977" y2="25.3" gradientUnits="userSpaceOnUse">
<stop stop-color="#7F84F7"/>
<stop offset="1" stop-color="#FF7C8E"/>
</linearGradient>
<clipPath id="clip0_103_3232">
<rect width="8.8" height="8.8" fill="white" transform="translate(73.1992 8.80005)"/>
</clipPath>
</defs>
</svg>
