
<svg xmlns="http://www.w3.org/2000/svg" width="159.851" height="17.761" viewBox="0 0 159.851 17.761">
    <g id="Group_10596" data-name="Group 10596" transform="translate(-126.872 -264.964)">
        <g id="Group_10597" data-name="Group 10597" transform="translate(126.872 264.964)">
            <path id="Path_14224" data-name="Path 14224" d="M314.19,288.311a.924.924,0,0,0-.924-.924H312.5a.924.924,0,0,0-.924.924v1.906a2.393,2.393,0,0,1-2.393,2.393H294.034a2.393,2.393,0,0,1-2.393-2.393v-1.906a.924.924,0,0,0-.924-.924h-.763a.924.924,0,0,0-.924.924v1.91a5,5,0,0,0,5,5h15.157a5,5,0,0,0,5-5Z" transform="translate(-244.957 -281.293)" fill="#213368"/>
            <path id="Path_14225" data-name="Path 14225" d="M515.539,273.865a4.881,4.881,0,0,0-4.922-4.547h-7A3.7,3.7,0,0,1,501,268.233l-1.4-1.395a.925.925,0,0,0-1.309,0l-.538.538a.925.925,0,0,0,0,1.309l1.221,1.221a6.91,6.91,0,0,0,4.885,2.023H510.8a2.179,2.179,0,0,1,2.171,2.02,2.215,2.215,0,0,1-2.232,2.333h-3.207a4.727,4.727,0,0,0,.536-2.185v-.373a.924.924,0,0,0-.924-.924h-.763a.924.924,0,0,0-.924.924v.361a2.2,2.2,0,0,1-2.2,2.2h-.568a2.2,2.2,0,0,1-2.2-2.2v-.361a.924.924,0,0,0-.924-.924h-.763a.925.925,0,0,0-.925.924v.373a4.728,4.728,0,0,0,.536,2.185H494.88a2.393,2.393,0,0,1-2.393-2.393v-8a.924.924,0,0,0-.924-.924H490.8a.924.924,0,0,0-.924.924v8a5,5,0,0,0,5,5h15.88A4.793,4.793,0,0,0,515.539,273.865Z" transform="translate(-391.215 -264.964)" fill="#213368"/>
            <rect id="Rectangle_2698" data-name="Rectangle 2698" width="2.612" height="13.93" rx="1.306" transform="translate(38.849 0)" fill="#213368"/>
            <rect id="Rectangle_2699" data-name="Rectangle 2699" width="2.612" height="12.537" rx="1.306" transform="translate(18.302 0)" fill="#213368"/>
            <rect id="Rectangle_2700" data-name="Rectangle 2700" width="9.49" height="2.612" rx="1.306" transform="translate(51.908 3.483)" fill="#213368"/>
            <rect id="Rectangle_2701" data-name="Rectangle 2701" width="2.612" height="5.277" rx="1.306" transform="translate(6.537 3.483)" fill="#213368"/>
            <path id="Path_14226" data-name="Path 14226" d="M211.209,287.387h-6.785a5,5,0,0,0-5,5v.65a3.4,3.4,0,0,1-3.4,3.4h-.9a.924.924,0,0,0-.924.924v.763a.924.924,0,0,0,.924.924h.905a6.011,6.011,0,0,0,6.011-6.011v-.651A2.393,2.393,0,0,1,204.427,290h6.782a.924.924,0,0,0,.924-.924v-.763A.924.924,0,0,0,211.209,287.387Z" transform="translate(-175.897 -281.293)" fill="#213368"/>
            <rect id="Rectangle_2702" data-name="Rectangle 2702" width="7.487" height="2.612" rx="1.306" transform="translate(28.749 11.318)" fill="#213368"/>
            <path id="Path_14227" data-name="Path 14227" d="M407.495,280.981h-.763a.924.924,0,0,0-.925.924v3.734a2.393,2.393,0,0,1-2.393,2.393h-1.437a1.306,1.306,0,0,1-1.306-1.306v-3.079a.925.925,0,0,0-.925-.925h-.761a.926.926,0,0,0-.925.925v3.079a1.306,1.306,0,0,1-1.306,1.306h-3.308a1.48,1.48,0,0,1-1.48-1.48v-2.906a.925.925,0,0,0-.925-.925h-.761a.926.926,0,0,0-.925.925v2.906a1.48,1.48,0,0,1-1.48,1.48h-5.343a.926.926,0,0,0-.925.925v.674a.926.926,0,0,0,.925.925H387.1a5.013,5.013,0,0,0,3.675-1.589,5.013,5.013,0,0,0,3.675,1.589h1.284a5.013,5.013,0,0,0,3.675-1.589,5.013,5.013,0,0,0,3.675,1.589h.375a4.987,4.987,0,0,0,4.962-5v-3.65A.924.924,0,0,0,407.495,280.981Z" transform="translate(-312.371 -276.628)" fill="#213368"/>
            <path id="Path_14228" data-name="Path 14228" d="M141.632,287.387h-.761a.926.926,0,0,0-.925.925v4.674a3.455,3.455,0,0,1-3.455,3.455h-3.552a3.455,3.455,0,0,1-3.455-3.455v-4.674a.926.926,0,0,0-.925-.925H127.8a.925.925,0,0,0-.925.925v4.571a6.17,6.17,0,0,0,6.17,6.17h3.346a6.17,6.17,0,0,0,6.17-6.17v-4.571A.926.926,0,0,0,141.632,287.387Z" transform="translate(-126.872 -281.293)" fill="#213368"/>
        </g>
        <path id="Path_14229" data-name="Path 14229" d="M643.519,270.325a5.5,5.5,0,0,0-5.09-4.978h0a86.117,86.117,0,0,0-16.222,0h0a5.5,5.5,0,0,0-5.091,4.978,51.713,51.713,0,0,0,0,7.013,5.5,5.5,0,0,0,5.091,4.978l.563.053a80.128,80.128,0,0,0,15.1,0l.563-.053a5.5,5.5,0,0,0,5.09-4.978A51.713,51.713,0,0,0,643.519,270.325ZM627.662,275.6a1.785,1.785,0,1,1-3.57.028v-3.57a1.785,1.785,0,1,1,3.57.027Zm8.88,0a1.785,1.785,0,1,1-3.569.028v-3.57a1.785,1.785,0,1,1,3.569.027Z" transform="translate(-356.915 0)" fill="#26a9e0"/>
    </g>
</svg>
