<svg width="100" height="72" viewBox="0 0 100 72" fill="none" xmlns="http://www.w3.org/2000/svg">
<path d="M1.46152 64.4257C0.698189 64.4257 0.0705566 65.0533 0.0705566 65.8336C0.0705566 66.6139 0.698189 67.2415 1.47849 67.2415H45.6841V64.4257H1.46152Z" fill="white"/>
<path d="M19.4599 27.2935L23.5989 23.1545L19.4769 19.0325L23.5989 14.9105L19.4599 10.7884L15.3379 14.9105L19.4599 19.0325L15.3379 23.1545L19.4599 27.2935Z" fill="white"/>
<path d="M95.878 19.0325L100 14.9105L95.861 10.7884L91.739 14.9105L95.861 19.0325L91.739 23.1545L95.861 27.2935L100 23.1545L95.878 19.0325Z" fill="white"/>
<path d="M27.4153 51.5337H25.1252V61.3893H27.4153V51.5337Z" fill="white"/>
<path d="M20.8845 58.4716L21.7497 61.3893H24.1754L21.1899 51.5337H18.9847L16.1858 61.3893H17.3393L18.1535 58.4716H20.9015H20.8845ZM19.4597 53.6881L20.5114 57.2164H18.4928L19.4597 53.6881Z" fill="white"/>
<path d="M29.96 51.5337L27.5173 56.5378L29.7225 61.3893H32.25L29.4002 55.1469L31.1644 51.5337H29.96Z" fill="white"/>
<path d="M38.0514 52.8738V51.5337H32.9456V61.3893H38.2041V60.0662H35.2356V57.0637H37.9157V55.7406H35.2356V52.8738H38.0514Z" fill="white"/>
<path d="M43.4962 61.3893V52.8738H45.6675V51.5337H39.0349V52.8738H41.2062V61.3893H43.4962Z" fill="white"/>
<path d="M8.19604 51.5337V61.3893H10.4861V57.0807H12.9287V61.3893H15.2187V51.5337H12.9287V55.7575H10.4861V51.5337H8.19604Z" fill="white"/>
<path d="M6.9578 61.3893V60.0662H3.27682L7.19528 51.5337H0.342219V52.8738H4.0232L0.104736 61.3893H6.9578Z" fill="white"/>
<path d="M75.1152 49.7695V49.7356V36.6741V36.6401H75.0983L51.9268 20.1182L52.1643 19.9485L72.1976 5.66565V11.6706L62.5287 18.6084H62.5117V22.2216L62.5965 22.1707L75.1152 13.1972H75.1322V0L75.0474 0.0508891L48.7038 18.829H48.6868V19.1004V31.0084H48.7038L65.8365 43.2048L54.573 51.2453H54.5561V54.8584L54.6409 54.8075L72.2146 42.2719V48.2768L51.6384 62.9668V38.8284C51.6384 37.9802 51.3331 37.2508 50.8072 36.708C50.2983 36.1821 49.5859 35.8429 48.7717 35.809H16.5758C14.7778 35.8429 12.6913 35.8938 11.0968 35.5206C9.12906 35.0117 7.36491 33.8921 6.12661 32.2467C4.99009 30.737 4.27764 28.7863 4.26068 26.4963C4.2946 24.5964 4.90527 22.7983 5.9909 21.3056C7.05958 19.8298 8.60321 18.6424 10.4861 17.9299H10.52V16.8952L10.4522 16.9291C7.61935 17.9978 4.87135 20.0503 2.9206 22.8322C1.19037 25.258 0.070808 28.3113 0.0029559 31.7887C-0.0648962 35.5206 1.0377 38.981 3.07326 41.7799C5.0749 44.5449 8.00951 46.6823 11.6057 47.7849C12.3181 48.0054 13.2002 48.192 14.0823 48.3107C15.1 48.4634 16.1178 48.5482 16.8303 48.5652H45.7522V45.6305H16.7624C16.491 45.6305 16.1518 45.6136 15.7616 45.5797C15.3715 45.5457 14.9474 45.4948 14.4894 45.427C14.0992 45.3761 13.7091 45.3083 13.3529 45.2234C13.0306 45.1556 12.7252 45.0708 12.4538 45.0029C10.995 44.5449 9.65492 43.9003 8.48447 43.0861C7.28009 42.2379 6.26231 41.2371 5.43112 40.0836C4.65083 39.015 4.04016 37.8106 3.61608 36.5214C3.20897 35.317 2.98845 34.0448 2.9206 32.7047C3.03934 32.9083 3.15808 33.0949 3.27682 33.2815C3.44645 33.5359 3.61608 33.7734 3.78571 34.0109C4.59994 35.0965 5.58379 35.9955 6.68639 36.725C7.80595 37.4713 9.06121 38.0141 10.3674 38.3534H10.4183C12.369 38.8284 14.659 38.7775 16.6267 38.7436H48.6529V38.8453V65.6978C48.6529 66.0031 48.7038 66.2915 48.8395 66.546C48.9583 66.7834 49.1448 66.987 49.4163 67.1397C49.7894 67.3263 50.1457 67.3432 50.468 67.2584C50.7903 67.1736 51.0956 66.987 51.367 66.7495L75.0813 49.7865H75.0983L75.1152 49.7695ZM68.3131 41.4237L51.6045 29.4987V23.4938L72.2146 38.1499L72.5369 38.4043L68.3131 41.4237Z" fill="white"/>
<path d="M78.0158 51.2963H77.9988V54.9094L78.0837 54.8585L92.9433 44.2566V50.2615L75.1151 63.0347L75.0303 63.0856L72.8421 64.6462C72.8082 64.6631 72.7742 64.6971 72.7573 64.714C72.435 64.9854 72.2823 65.3417 72.2484 65.6979C72.2144 66.0541 72.3162 66.4103 72.5198 66.6987C72.5367 66.7157 72.5537 66.7496 72.5707 66.7665L72.6046 66.8005C72.859 67.0888 73.1983 67.2585 73.5715 67.2924C73.9447 67.3263 74.3348 67.2076 74.691 66.9192C74.691 66.9192 74.725 66.9023 74.725 66.8853L95.8609 51.7543H95.8779V38.557L95.7931 38.6079L78.0328 51.2793L78.0158 51.2963Z" fill="white"/>
<path d="M78.016 34.401V34.5028L78.0838 34.4519L80.8997 32.4333L80.9336 32.4163V32.3994L80.9167 12.6035L85.8359 9.07521L85.8529 38.5061L80.8658 42.1022L78.0499 44.0699L78.033 44.0869V44.1208V47.5813V47.6831L78.1178 47.6322L88.7536 40.0327L88.7705 40.0158V39.9818L88.7366 3.49437V3.39259L88.6688 3.46045L78.016 11.0938L77.999 11.1108V11.1447L78.016 34.401Z" fill="white"/>
<path d="M95.851 27.3012L91.7249 31.4273L95.851 35.5535L99.9772 31.4273L95.851 27.3012Z" fill="white"/>
<path d="M75.0474 57.0127L75.0813 56.9957V56.9788V53.5013V53.4165L74.9965 53.4674L54.5221 68.0387L54.5051 68.0556V68.0895V71.55V71.6518L54.573 71.5839L72.2315 59.0313L75.0474 57.0127Z" fill="white"/>
</svg>
