<svg width="98" height="98" viewBox="0 0 98 98" fill="none" xmlns="http://www.w3.org/2000/svg">
<rect x="17.25" y="1.25" width="79.5" height="79.5" rx="2.75" fill="white" stroke="#C2C2C2" stroke-width="0.5"/>
<path d="M2.051 51.3353C3.287 51.0053 4.184 50.7563 4.742 50.5883C5.3 50.4203 5.771 50.2523 6.155 50.0843C6.539 49.9163 7.064 49.6613 7.73 49.3193L8.018 49.8143C7.388 50.1383 6.89 50.3813 6.524 50.5433C6.158 50.7053 5.741 50.8613 5.273 51.0113C4.799 51.1613 4.112 51.3593 3.212 51.6053C4.088 51.8273 4.769 52.0163 5.255 52.1723C5.741 52.3283 6.152 52.4843 6.488 52.6403C6.824 52.7903 7.334 53.0393 8.018 53.3873L7.721 53.8823C6.965 53.4983 6.404 53.2253 6.038 53.0633C5.672 52.9013 5.207 52.7393 4.643 52.5773C4.079 52.4093 3.215 52.1813 2.051 51.8933V51.3353ZM7.541 46.9579C7.541 47.2039 7.481 47.4319 7.361 47.6419C7.235 47.8519 7.07 48.0199 6.866 48.1459C6.656 48.2659 6.428 48.3259 6.182 48.3259C5.936 48.3259 5.711 48.2659 5.507 48.1459C5.297 48.0199 5.132 47.8519 5.012 47.6419C4.886 47.4319 4.823 47.2039 4.823 46.9579C4.823 46.7119 4.886 46.4839 5.012 46.2739C5.132 46.0579 5.297 45.8899 5.507 45.7699C5.711 45.6439 5.936 45.5809 6.182 45.5809C6.428 45.5809 6.656 45.6439 6.866 45.7699C7.07 45.8899 7.235 46.0579 7.361 46.2739C7.481 46.4839 7.541 46.7119 7.541 46.9579ZM6.182 47.7409C6.41 47.7409 6.599 47.6659 6.749 47.5159C6.899 47.3659 6.974 47.1799 6.974 46.9579C6.974 46.7299 6.899 46.5439 6.749 46.3999C6.599 46.2499 6.41 46.1749 6.182 46.1749C5.954 46.1749 5.768 46.2499 5.624 46.3999C5.474 46.5439 5.399 46.7299 5.399 46.9579C5.399 47.1799 5.474 47.3659 5.624 47.5159C5.774 47.6659 5.96 47.7409 6.182 47.7409ZM4.832 42.1743V41.7903L5.252 41.7723C4.932 41.5443 4.772 41.2203 4.772 40.8003C4.772 40.4203 4.916 40.1223 5.204 39.9063C5.488 39.6863 5.886 39.5763 6.398 39.5763H6.452C6.772 39.5763 7.054 39.6263 7.298 39.7263C7.538 39.8263 7.726 39.9683 7.862 40.1523C7.994 40.3363 8.06 40.5503 8.06 40.7943C8.06 41.2103 7.918 41.5323 7.634 41.7603H9.218V42.1743H4.832ZM7.196 41.7603C7.364 41.6803 7.492 41.5683 7.58 41.4243C7.668 41.2763 7.712 41.1023 7.712 40.9023C7.712 40.6223 7.604 40.4023 7.388 40.2423C7.168 40.0823 6.852 40.0003 6.44 39.9963H6.386C5.998 39.9923 5.692 40.0723 5.468 40.2363C5.244 40.4003 5.132 40.6243 5.132 40.9083C5.132 41.1043 5.18 41.2743 5.276 41.4183C5.368 41.5623 5.506 41.6763 5.69 41.7603H7.196ZM4.832 38.7923V38.3783H8V38.7923H4.832ZM3.944 38.8463C3.868 38.8463 3.804 38.8223 3.752 38.7743C3.7 38.7263 3.674 38.6623 3.674 38.5823C3.674 38.5023 3.7 38.4383 3.752 38.3903C3.8 38.3383 3.862 38.3123 3.938 38.3123C4.014 38.3123 4.076 38.3363 4.124 38.3843C4.172 38.4323 4.196 38.4983 4.196 38.5823C4.196 38.6623 4.172 38.7263 4.124 38.7743C4.076 38.8223 4.016 38.8463 3.944 38.8463ZM6.392 36.6536L4.832 37.7156L4.832 37.2296L6.074 36.4256L4.832 35.6216V35.1356L6.392 36.1976L8 35.0936V35.5796L6.71 36.4256L8 37.2716V37.7576L6.392 36.6536ZM8.06 33.3088C8.06 33.5808 7.996 33.8248 7.868 34.0408C7.74 34.2568 7.558 34.4288 7.322 34.5568C7.082 34.6808 6.806 34.7428 6.494 34.7428H6.386C6.098 34.7428 5.832 34.6868 5.588 34.5748C5.34 34.4628 5.142 34.3028 4.994 34.0948C4.846 33.8868 4.772 33.6468 4.772 33.3748C4.772 32.9788 4.906 32.6688 5.174 32.4448C5.438 32.2168 5.806 32.1028 6.278 32.1028H6.482V34.3228H6.554C6.778 34.3188 6.978 34.2708 7.154 34.1788C7.33 34.0868 7.468 33.9628 7.568 33.8068C7.664 33.6508 7.712 33.4788 7.712 33.2908C7.712 33.0988 7.676 32.9328 7.604 32.7928C7.528 32.6488 7.42 32.5228 7.28 32.4148L7.478 32.1628C7.866 32.4188 8.06 32.8008 8.06 33.3088ZM6.134 32.5168H6.098C5.802 32.5288 5.566 32.6108 5.39 32.7628C5.21 32.9148 5.12 33.1188 5.12 33.3748C5.12 33.6228 5.212 33.8328 5.396 34.0048C5.58 34.1728 5.826 34.2748 6.134 34.3108V32.5168ZM3.5 31.3919V30.9779H8V31.3919H3.5ZM8.06 28.9353C8.06 29.1873 8.016 29.4093 7.928 29.6013C7.84 29.7933 7.722 29.9413 7.574 30.0453C7.426 30.1493 7.262 30.2013 7.082 30.2013L7.082 29.7813C7.278 29.7733 7.432 29.6933 7.544 29.5413C7.656 29.3893 7.712 29.1873 7.712 28.9353C7.712 28.7073 7.664 28.5233 7.568 28.3833C7.468 28.2393 7.34 28.1673 7.184 28.1673C7.02 28.1673 6.89 28.2313 6.794 28.3593C6.698 28.4833 6.618 28.6933 6.554 28.9893C6.47 29.3773 6.358 29.6593 6.218 29.8353C6.078 30.0073 5.892 30.0933 5.66 30.0933C5.492 30.0933 5.342 30.0453 5.21 29.9493C5.074 29.8533 4.968 29.7193 4.892 29.5473C4.812 29.3713 4.772 29.1733 4.772 28.9533C4.772 28.7213 4.812 28.5173 4.892 28.3413C4.972 28.1613 5.086 28.0213 5.234 27.9213C5.378 27.8213 5.544 27.7713 5.732 27.7713V28.1853C5.56 28.1853 5.416 28.2593 5.3 28.4073C5.18 28.5513 5.12 28.7333 5.12 28.9533C5.12 29.1813 5.17 29.3593 5.27 29.4873C5.366 29.6153 5.492 29.6793 5.648 29.6793C5.812 29.6793 5.934 29.6073 6.014 29.4633C6.094 29.3193 6.162 29.1213 6.218 28.8693C6.302 28.4813 6.418 28.1993 6.566 28.0233C6.71 27.8433 6.908 27.7533 7.16 27.7533C7.428 27.7533 7.646 27.8633 7.814 28.0833C7.978 28.2993 8.06 28.5833 8.06 28.9353Z" fill="#696767"/>
<path d="M12 1.25C12.1381 1.25 12.25 1.13807 12.25 1C12.25 0.861929 12.1381 0.75 12 0.75V1.25ZM7 1V0.75H6.75V1H7ZM7 81H6.75V81.25H7V81ZM12 81.25C12.1381 81.25 12.25 81.1381 12.25 81C12.25 80.8619 12.1381 80.75 12 80.75V81.25ZM7.25 21V20.5H6.75V21H7.25ZM7.25 19.5V18.5H6.75V19.5H7.25ZM7.25 17.5V16.5H6.75V17.5H7.25ZM7.25 15.5V14.5H6.75V15.5H7.25ZM7.25 13.5V12.5H6.75V13.5H7.25ZM7.25 11.5V10.5H6.75V11.5H7.25ZM7.25 9.5V8.5H6.75V9.5H7.25ZM7.25 7.5V6.5H6.75V7.5H7.25ZM7.25 5.5V4.5H6.75V5.5H7.25ZM7.25 3.5V2.5H6.75V3.5H7.25ZM7.25 1.5V1H6.75V1.5H7.25ZM7 1.25H7.41667V0.75H7V1.25ZM8.25 1.25H9.08333V0.75H8.25V1.25ZM9.91667 1.25H10.75V0.75H9.91667V1.25ZM11.5833 1.25H12V0.75H11.5833V1.25ZM6.75 61V61.5H7.25V61H6.75ZM6.75 62.5V63.5H7.25V62.5H6.75ZM6.75 64.5V65.5H7.25V64.5H6.75ZM6.75 66.5V67.5H7.25V66.5H6.75ZM6.75 68.5V69.5H7.25V68.5H6.75ZM6.75 70.5V71.5H7.25V70.5H6.75ZM6.75 72.5V73.5H7.25V72.5H6.75ZM6.75 74.5V75.5H7.25V74.5H6.75ZM6.75 76.5V77.5H7.25V76.5H6.75ZM6.75 78.5V79.5H7.25V78.5H6.75ZM6.75 80.5V81H7.25V80.5H6.75ZM7 81.25H7.41667V80.75H7V81.25ZM8.25 81.25H9.08333V80.75H8.25V81.25ZM9.91667 81.25H10.75V80.75H9.91667V81.25ZM11.5833 81.25H12V80.75H11.5833V81.25Z" fill="#C2C2C2"/>
<path d="M46.6647 86.051C46.9947 87.287 47.2437 88.184 47.4117 88.742C47.5797 89.3 47.7477 89.771 47.9157 90.155C48.0837 90.539 48.3387 91.064 48.6807 91.73L48.1857 92.018C47.8617 91.388 47.6187 90.89 47.4567 90.524C47.2947 90.158 47.1387 89.741 46.9887 89.273C46.8387 88.799 46.6407 88.112 46.3947 87.212C46.1727 88.088 45.9837 88.769 45.8277 89.255C45.6717 89.741 45.5157 90.152 45.3597 90.488C45.2097 90.824 44.9607 91.334 44.6127 92.018L44.1177 91.721C44.5017 90.965 44.7747 90.404 44.9367 90.038C45.0987 89.672 45.2607 89.207 45.4227 88.643C45.5907 88.079 45.8187 87.215 46.1067 86.051H46.6647ZM51.0421 91.541C50.7961 91.541 50.5681 91.481 50.3581 91.361C50.1481 91.235 49.9801 91.07 49.8541 90.866C49.7341 90.656 49.6741 90.428 49.6741 90.182C49.6741 89.936 49.7341 89.711 49.8541 89.507C49.9801 89.297 50.1481 89.132 50.3581 89.012C50.5681 88.886 50.7961 88.823 51.0421 88.823C51.2881 88.823 51.5161 88.886 51.7261 89.012C51.9421 89.132 52.1101 89.297 52.2301 89.507C52.3561 89.711 52.4191 89.936 52.4191 90.182C52.4191 90.428 52.3561 90.656 52.2301 90.866C52.1101 91.07 51.9421 91.235 51.7261 91.361C51.5161 91.481 51.2881 91.541 51.0421 91.541ZM50.2591 90.182C50.2591 90.41 50.3341 90.599 50.4841 90.749C50.6341 90.899 50.8201 90.974 51.0421 90.974C51.2701 90.974 51.4561 90.899 51.6001 90.749C51.7501 90.599 51.8251 90.41 51.8251 90.182C51.8251 89.954 51.7501 89.768 51.6001 89.624C51.4561 89.474 51.2701 89.399 51.0421 89.399C50.8201 89.399 50.6341 89.474 50.4841 89.624C50.3341 89.774 50.2591 89.96 50.2591 90.182ZM55.8257 88.832H56.2097L56.2277 89.252C56.4557 88.932 56.7797 88.772 57.1997 88.772C57.5797 88.772 57.8777 88.916 58.0937 89.204C58.3137 89.488 58.4237 89.886 58.4237 90.398V90.452C58.4237 90.772 58.3737 91.054 58.2737 91.298C58.1737 91.538 58.0317 91.726 57.8477 91.862C57.6637 91.994 57.4497 92.06 57.2057 92.06C56.7897 92.06 56.4677 91.918 56.2397 91.634V93.218H55.8257V88.832ZM56.2397 91.196C56.3197 91.364 56.4317 91.492 56.5757 91.58C56.7237 91.668 56.8977 91.712 57.0977 91.712C57.3777 91.712 57.5977 91.604 57.7577 91.388C57.9177 91.168 57.9997 90.852 58.0037 90.44V90.386C58.0077 89.998 57.9277 89.692 57.7637 89.468C57.5997 89.244 57.3757 89.132 57.0917 89.132C56.8957 89.132 56.7257 89.18 56.5817 89.276C56.4377 89.368 56.3237 89.506 56.2397 89.69V91.196ZM59.2077 88.832H59.6217V92H59.2077V88.832ZM59.1537 87.944C59.1537 87.868 59.1777 87.804 59.2257 87.752C59.2737 87.7 59.3377 87.674 59.4177 87.674C59.4977 87.674 59.5617 87.7 59.6097 87.752C59.6617 87.8 59.6877 87.862 59.6877 87.938C59.6877 88.014 59.6637 88.076 59.6157 88.124C59.5677 88.172 59.5017 88.196 59.4177 88.196C59.3377 88.196 59.2737 88.172 59.2257 88.124C59.1777 88.076 59.1537 88.016 59.1537 87.944ZM61.3464 90.392L60.2844 88.832H60.7704L61.5744 90.074L62.3784 88.832H62.8644L61.8024 90.392L62.9064 92H62.4204L61.5744 90.71L60.7284 92H60.2424L61.3464 90.392ZM64.6912 92.06C64.4192 92.06 64.1752 91.996 63.9592 91.868C63.7432 91.74 63.5712 91.558 63.4432 91.322C63.3192 91.082 63.2572 90.806 63.2572 90.494V90.386C63.2572 90.098 63.3132 89.832 63.4252 89.588C63.5372 89.34 63.6972 89.142 63.9052 88.994C64.1132 88.846 64.3532 88.772 64.6252 88.772C65.0212 88.772 65.3312 88.906 65.5552 89.174C65.7832 89.438 65.8972 89.806 65.8972 90.278V90.482H63.6772V90.554C63.6812 90.778 63.7292 90.978 63.8212 91.154C63.9132 91.33 64.0372 91.468 64.1932 91.568C64.3492 91.664 64.5212 91.712 64.7092 91.712C64.9012 91.712 65.0672 91.676 65.2072 91.604C65.3512 91.528 65.4772 91.42 65.5852 91.28L65.8372 91.478C65.5812 91.866 65.1992 92.06 64.6912 92.06ZM65.4832 90.134V90.098C65.4712 89.802 65.3892 89.566 65.2372 89.39C65.0852 89.21 64.8812 89.12 64.6252 89.12C64.3772 89.12 64.1672 89.212 63.9952 89.396C63.8272 89.58 63.7252 89.826 63.6892 90.134H65.4832ZM66.6081 87.5H67.0221V92H66.6081V87.5ZM69.0647 92.06C68.8127 92.06 68.5907 92.016 68.3987 91.928C68.2067 91.84 68.0587 91.722 67.9547 91.574C67.8507 91.426 67.7987 91.262 67.7987 91.082H68.2187C68.2267 91.278 68.3067 91.432 68.4587 91.544C68.6107 91.656 68.8127 91.712 69.0647 91.712C69.2927 91.712 69.4767 91.664 69.6167 91.568C69.7607 91.468 69.8327 91.34 69.8327 91.184C69.8327 91.02 69.7687 90.89 69.6407 90.794C69.5167 90.698 69.3067 90.618 69.0107 90.554C68.6227 90.47 68.3407 90.358 68.1647 90.218C67.9927 90.078 67.9067 89.892 67.9067 89.66C67.9067 89.492 67.9547 89.342 68.0507 89.21C68.1467 89.074 68.2807 88.968 68.4527 88.892C68.6287 88.812 68.8267 88.772 69.0467 88.772C69.2787 88.772 69.4827 88.812 69.6587 88.892C69.8387 88.972 69.9787 89.086 70.0787 89.234C70.1787 89.378 70.2287 89.544 70.2287 89.732H69.8147C69.8147 89.56 69.7407 89.416 69.5927 89.3C69.4487 89.18 69.2667 89.12 69.0467 89.12C68.8187 89.12 68.6407 89.17 68.5127 89.27C68.3847 89.366 68.3207 89.492 68.3207 89.648C68.3207 89.812 68.3927 89.934 68.5367 90.014C68.6807 90.094 68.8787 90.162 69.1307 90.218C69.5187 90.302 69.8007 90.418 69.9767 90.566C70.1567 90.71 70.2467 90.908 70.2467 91.16C70.2467 91.428 70.1367 91.646 69.9167 91.814C69.7007 91.978 69.4167 92.06 69.0647 92.06Z" fill="#696767"/>
<path d="M17.25 86C17.25 85.8619 17.1381 85.75 17 85.75C16.8619 85.75 16.75 85.8619 16.75 86H17.25ZM17 91H16.75V91.25H17V91ZM97 91V91.25H97.25V91H97ZM97.25 86C97.25 85.8619 97.1381 85.75 97 85.75C96.8619 85.75 96.75 85.8619 96.75 86H97.25ZM37 90.75H36.5V91.25H37V90.75ZM35.5 90.75H34.5V91.25H35.5V90.75ZM33.5 90.75H32.5V91.25H33.5V90.75ZM31.5 90.75H30.5V91.25H31.5V90.75ZM29.5 90.75H28.5V91.25H29.5V90.75ZM27.5 90.75H26.5V91.25H27.5V90.75ZM25.5 90.75H24.5V91.25H25.5V90.75ZM23.5 90.75H22.5V91.25H23.5V90.75ZM21.5 90.75H20.5V91.25H21.5V90.75ZM19.5 90.75H18.5V91.25H19.5V90.75ZM17.5 90.75H17V91.25H17.5V90.75ZM17.25 91V90.5833H16.75V91H17.25ZM17.25 89.75V88.9167H16.75V89.75H17.25ZM17.25 88.0833V87.25H16.75V88.0833H17.25ZM17.25 86.4167V86H16.75V86.4167H17.25ZM77 91.25H77.5V90.75H77V91.25ZM78.5 91.25H79.5V90.75H78.5V91.25ZM80.5 91.25H81.5V90.75H80.5V91.25ZM82.5 91.25H83.5V90.75H82.5V91.25ZM84.5 91.25H85.5V90.75H84.5V91.25ZM86.5 91.25H87.5V90.75H86.5V91.25ZM88.5 91.25H89.5V90.75H88.5V91.25ZM90.5 91.25H91.5V90.75H90.5V91.25ZM92.5 91.25H93.5V90.75H92.5V91.25ZM94.5 91.25H95.5V90.75H94.5V91.25ZM96.5 91.25H97V90.75H96.5V91.25ZM97.25 91V90.5833H96.75V91H97.25ZM97.25 89.75V88.9167H96.75V89.75H97.25ZM97.25 88.0833V87.25H96.75V88.0833H97.25ZM97.25 86.4167V86H96.75V86.4167H97.25Z" fill="#C2C2C2"/>
<path d="M26.9108 56.1489C26.4351 56.1489 26.0439 56.5401 26.0439 57.0263C26.0439 57.5126 26.4351 57.9037 26.9213 57.9037H54.4693V56.1489H26.9108Z" fill="#F1F1F1"/>
<path d="M38.1273 33.0087L40.7067 30.4294L38.1379 27.8606L40.7067 25.2919L38.1273 22.7231L35.5586 25.2919L38.1273 27.8606L35.5586 30.4294L38.1273 33.0087Z" fill="#F1F1F1"/>
<path d="M85.7492 27.8606L88.318 25.2919L85.7387 22.7231L83.1699 25.2919L85.7387 27.8606L83.1699 30.4294L85.7387 33.0087L88.318 30.4294L85.7492 27.8606Z" fill="#F1F1F1"/>
<path d="M43.0843 48.1147H41.6572V54.2565H43.0843V48.1147Z" fill="#F1F1F1"/>
<path d="M39.0151 52.4383L39.5542 54.2565H41.0658L39.2054 48.1147H37.8311L36.0869 54.2565H36.8057L37.3131 52.4383H39.0256H39.0151ZM38.1271 49.4573L38.7825 51.656H37.5246L38.1271 49.4573Z" fill="#F1F1F1"/>
<path d="M44.6707 48.1147L43.1484 51.2332L44.5227 54.2565H46.0977L44.3218 50.3664L45.4212 48.1147H44.6707Z" fill="#F1F1F1"/>
<path d="M49.7131 48.9499V48.1147H46.5312V54.2565H49.8083V53.432H47.9583V51.5609H49.6285V50.7364H47.9583V48.9499H49.7131Z" fill="#F1F1F1"/>
<path d="M53.1063 54.2565V48.9499H54.4594V48.1147H50.3262V48.9499H51.6793V54.2565H53.1063Z" fill="#F1F1F1"/>
<path d="M31.1074 48.1147V54.2565H32.5345V51.5715H34.0567V54.2565H35.4838V48.1147H34.0567V50.7469H32.5345V48.1147H31.1074Z" fill="#F1F1F1"/>
<path d="M30.3361 54.2565V53.432H28.0422L30.4841 48.1147H26.2134V48.9499H28.5073L26.0654 54.2565H30.3361Z" fill="#F1F1F1"/>
<path d="M72.8101 47.0152V46.9941V38.8545V38.8333H72.7996L58.3596 28.5372L58.5076 28.4315L70.9919 19.5307V23.2728L64.9665 27.5964H64.9559V29.848L65.0087 29.8163L72.8101 24.2242H72.8207V16L72.7678 16.0317L56.3511 27.7338H56.3405V27.9029V35.3237H56.3511L67.0278 42.9243L60.0087 47.9349H59.9981V50.1865L60.051 50.1548L71.0025 42.3429V46.085L58.1799 55.2395V40.197C58.1799 39.6684 57.9896 39.2139 57.6619 38.8756C57.3448 38.5479 56.9008 38.3365 56.3934 38.3153H36.3297C35.2092 38.3365 33.9089 38.3682 32.9153 38.1356C31.689 37.8185 30.5896 37.1208 29.818 36.0954C29.1097 35.1546 28.6657 33.9389 28.6552 32.5119C28.6763 31.3279 29.0569 30.2074 29.7334 29.2771C30.3994 28.3575 31.3613 27.6175 32.5347 27.1735H32.5558V26.5287L32.5136 26.5498C30.7482 27.2158 29.0357 28.4949 27.8201 30.2285C26.7418 31.7402 26.0441 33.643 26.0018 35.81C25.9596 38.1356 26.6467 40.2921 27.9152 42.0363C29.1626 43.7594 30.9913 45.0913 33.2324 45.7784C33.6764 45.9159 34.2261 46.0321 34.7758 46.1061C35.41 46.2013 36.0443 46.2541 36.4883 46.2647H54.5118V44.4359H36.446C36.2768 44.4359 36.0654 44.4254 35.8223 44.4042C35.5791 44.3831 35.3149 44.3514 35.0295 44.3091C34.7863 44.2774 34.5432 44.2351 34.3212 44.1822C34.1204 44.1399 33.9301 44.0871 33.7609 44.0448C32.8518 43.7594 32.0167 43.3577 31.2873 42.8503C30.5368 42.3217 29.9025 41.698 29.3846 40.9792C28.8983 40.3133 28.5177 39.5627 28.2535 38.7593C27.9998 38.0088 27.8623 37.216 27.8201 36.3808C27.894 36.5077 27.968 36.624 28.042 36.7403C28.1478 36.8988 28.2535 37.0468 28.3592 37.1948C28.8666 37.8714 29.4797 38.4316 30.1668 38.8862C30.8645 39.3513 31.6467 39.6896 32.4607 39.901H32.4924C33.7081 40.197 35.1352 40.1653 36.3614 40.1441H56.3194V40.2075V56.9414C56.3194 57.1317 56.3511 57.3114 56.4357 57.4699C56.5097 57.6179 56.626 57.7448 56.7951 57.8399C57.0277 57.9562 57.2497 57.9668 57.4505 57.9139C57.6513 57.8611 57.8416 57.7448 58.0108 57.5968L72.789 47.0258H72.7996L72.8101 47.0152ZM68.5712 41.8143L58.1588 34.3829V30.6408L71.0025 39.7741L71.2033 39.9327L68.5712 41.8143Z" fill="#F1F1F1"/>
<path d="M74.6177 47.9666H74.6071V50.2183L74.66 50.1865L83.9201 43.5797V47.3218L72.81 55.2818L72.7572 55.3135L71.3935 56.286C71.3724 56.2966 71.3512 56.3177 71.3407 56.3283C71.1398 56.4974 71.0447 56.7194 71.0235 56.9414C71.0024 57.1634 71.0658 57.3854 71.1927 57.5651C71.2032 57.5757 71.2138 57.5968 71.2244 57.6074L71.2455 57.6285C71.4041 57.8082 71.6155 57.9139 71.8481 57.9351C72.0806 57.9562 72.3238 57.8822 72.5458 57.7025C72.5458 57.7025 72.5669 57.6919 72.5669 57.6814L85.7383 48.2521H85.7489V40.0278L85.6961 40.0595L74.6282 47.9561L74.6177 47.9666Z" fill="#F1F1F1"/>
<path d="M74.618 37.438V37.5014L74.6603 37.4697L76.4151 36.2118L76.4362 36.2012V36.1906L76.4256 23.8543L79.4912 21.6555L79.5018 39.9962L76.3939 42.2372L74.6391 43.4635L74.6286 43.474V43.4952V45.6517V45.7151L74.6814 45.6834L81.3094 40.9476L81.32 40.937V40.9159L81.2989 18.1777V18.1143L81.2566 18.1565L74.618 22.9135L74.6074 22.9241V22.9452L74.618 37.438Z" fill="#F1F1F1"/>
<path d="M85.7325 33.0136L83.1611 35.585L85.7325 38.1563L88.3038 35.585L85.7325 33.0136Z" fill="#F1F1F1"/>
<path d="M72.7673 51.5291L72.7884 51.5186V51.508V49.3409V49.2881L72.7356 49.3198L59.9764 58.4003L59.9658 58.4108V58.432V60.5885V60.6519L60.0081 60.6096L71.0125 52.7871L72.7673 51.5291Z" fill="#F1F1F1"/>
</svg>
