<svg width="21" height="21" viewBox="0 0 21 21" fill="none" xmlns="http://www.w3.org/2000/svg">
<mask id="path-1-outside-1_4233_1736" maskUnits="userSpaceOnUse" x="0" y="0" width="21" height="21" fill="black">
<rect fill="white" width="21" height="21"/>
<path fill-rule="evenodd" clip-rule="evenodd" d="M7.84884 20H13.1512C17.9498 20 20 17.9498 20 13.1512V7.84884C20 3.05023 17.9498 1 13.1512 1H7.84884C3.05023 1 1 3.05023 1 7.84884V13.1512C1 17.9498 3.05023 20 7.84884 20ZM2.32558 7.84884C2.32558 3.77488 3.77488 2.32558 7.84884 2.32558H13.1512C17.2251 2.32558 18.6744 3.77488 18.6744 7.84884V13.1512C18.6744 17.2251 17.2251 18.6744 13.1512 18.6744H7.84884C3.77488 18.6744 2.32558 17.2251 2.32558 13.1512V7.84884ZM10.5032 14.6974C10.1409 14.6974 9.84041 14.3969 9.84041 14.0346V11.1629H6.96604C6.60372 11.1629 6.30325 10.8624 6.30325 10.5001C6.30325 10.1378 6.60372 9.83731 6.96604 9.83731H9.84041V6.96481C9.84041 6.60248 10.1409 6.30202 10.5032 6.30202C10.8655 6.30202 11.166 6.60248 11.166 6.96481V9.83731H14.0358C14.3981 9.83731 14.6986 10.1378 14.6986 10.5001C14.6986 10.8624 14.3981 11.1629 14.0358 11.1629H11.166V14.0346C11.166 14.3969 10.8655 14.6974 10.5032 14.6974Z"/>
</mask>
<path fill-rule="evenodd" clip-rule="evenodd" d="M7.84884 20H13.1512C17.9498 20 20 17.9498 20 13.1512V7.84884C20 3.05023 17.9498 1 13.1512 1H7.84884C3.05023 1 1 3.05023 1 7.84884V13.1512C1 17.9498 3.05023 20 7.84884 20ZM2.32558 7.84884C2.32558 3.77488 3.77488 2.32558 7.84884 2.32558H13.1512C17.2251 2.32558 18.6744 3.77488 18.6744 7.84884V13.1512C18.6744 17.2251 17.2251 18.6744 13.1512 18.6744H7.84884C3.77488 18.6744 2.32558 17.2251 2.32558 13.1512V7.84884ZM10.5032 14.6974C10.1409 14.6974 9.84041 14.3969 9.84041 14.0346V11.1629H6.96604C6.60372 11.1629 6.30325 10.8624 6.30325 10.5001C6.30325 10.1378 6.60372 9.83731 6.96604 9.83731H9.84041V6.96481C9.84041 6.60248 10.1409 6.30202 10.5032 6.30202C10.8655 6.30202 11.166 6.60248 11.166 6.96481V9.83731H14.0358C14.3981 9.83731 14.6986 10.1378 14.6986 10.5001C14.6986 10.8624 14.3981 11.1629 14.0358 11.1629H11.166V14.0346C11.166 14.3969 10.8655 14.6974 10.5032 14.6974Z" fill="white"/>
<path d="M9.84041 11.1629H10.0404V10.9629H9.84041V11.1629ZM9.84041 9.83731V10.0373H10.0404V9.83731H9.84041ZM11.166 9.83731H10.966V10.0373H11.166V9.83731ZM11.166 11.1629V10.9629H10.966V11.1629H11.166ZM13.1512 20V19.8H7.84884V20V20.2H13.1512V20ZM20 13.1512H19.8C19.8 15.5275 19.2916 17.1757 18.2336 18.2336C17.1757 19.2916 15.5275 19.8 13.1512 19.8V20V20.2C15.5734 20.2 17.3496 19.6833 18.5165 18.5165C19.6833 17.3496 20.2 15.5734 20.2 13.1512H20ZM20 7.84884H19.8V13.1512H20H20.2V7.84884H20ZM13.1512 1V1.2C15.5275 1.2 17.1757 1.70843 18.2336 2.76636C19.2916 3.8243 19.8 5.47249 19.8 7.84884H20H20.2C20.2 5.42658 19.6833 3.65036 18.5165 2.48352C17.3496 1.31669 15.5734 0.8 13.1512 0.8V1ZM7.84884 1V1.2H13.1512V1V0.8H7.84884V1ZM1 7.84884H1.2C1.2 5.47249 1.70843 3.8243 2.76636 2.76636C3.8243 1.70843 5.47249 1.2 7.84884 1.2V1V0.8C5.42658 0.8 3.65036 1.31669 2.48352 2.48352C1.31669 3.65036 0.8 5.42658 0.8 7.84884H1ZM1 13.1512H1.2V7.84884H1H0.8V13.1512H1ZM7.84884 20V19.8C5.47249 19.8 3.8243 19.2916 2.76636 18.2336C1.70843 17.1757 1.2 15.5275 1.2 13.1512H1H0.8C0.8 15.5734 1.31669 17.3496 2.48352 18.5165C3.65036 19.6833 5.42658 20.2 7.84884 20.2V20ZM7.84884 2.32558V2.12558C5.79775 2.12558 4.34778 2.48834 3.41806 3.41806C2.48834 4.34778 2.12558 5.79775 2.12558 7.84884H2.32558H2.52558C2.52558 5.82597 2.88748 4.51432 3.7009 3.7009C4.51432 2.88748 5.82597 2.52558 7.84884 2.52558V2.32558ZM13.1512 2.32558V2.12558H7.84884V2.32558V2.52558H13.1512V2.32558ZM18.6744 7.84884H18.8744C18.8744 5.79775 18.5117 4.34778 17.5819 3.41806C16.6522 2.48834 15.2022 2.12558 13.1512 2.12558V2.32558V2.52558C15.174 2.52558 16.4857 2.88748 17.2991 3.7009C18.1125 4.51432 18.4744 5.82597 18.4744 7.84884H18.6744ZM18.6744 13.1512H18.8744V7.84884H18.6744H18.4744V13.1512H18.6744ZM13.1512 18.6744V18.8744C15.2022 18.8744 16.6522 18.5117 17.5819 17.5819C18.5117 16.6522 18.8744 15.2022 18.8744 13.1512H18.6744H18.4744C18.4744 15.174 18.1125 16.4857 17.2991 17.2991C16.4857 18.1125 15.174 18.4744 13.1512 18.4744V18.6744ZM7.84884 18.6744V18.8744H13.1512V18.6744V18.4744H7.84884V18.6744ZM2.32558 13.1512H2.12558C2.12558 15.2022 2.48834 16.6522 3.41806 17.5819C4.34778 18.5117 5.79775 18.8744 7.84884 18.8744V18.6744V18.4744C5.82597 18.4744 4.51432 18.1125 3.7009 17.2991C2.88748 16.4857 2.52558 15.174 2.52558 13.1512H2.32558ZM2.32558 7.84884H2.12558V13.1512H2.32558H2.52558V7.84884H2.32558ZM9.84041 14.0346H9.64041C9.64041 14.5074 10.0304 14.8974 10.5032 14.8974V14.6974V14.4974C10.2513 14.4974 10.0404 14.2864 10.0404 14.0346H9.84041ZM9.84041 11.1629H9.64041V14.0346H9.84041H10.0404V11.1629H9.84041ZM6.96604 11.1629V11.3629H9.84041V11.1629V10.9629H6.96604V11.1629ZM6.30325 10.5001H6.10325C6.10325 10.9729 6.49326 11.3629 6.96604 11.3629V11.1629V10.9629C6.71418 10.9629 6.50325 10.752 6.50325 10.5001H6.30325ZM6.96604 9.83731V9.63731C6.49326 9.63731 6.10325 10.0273 6.10325 10.5001H6.30325H6.50325C6.50325 10.2482 6.71418 10.0373 6.96604 10.0373V9.83731ZM9.84041 9.83731V9.63731H6.96604V9.83731V10.0373H9.84041V9.83731ZM9.84041 6.96481H9.64041V9.83731H9.84041H10.0404V6.96481H9.84041ZM10.5032 6.30202V6.10202C10.0304 6.10202 9.64041 6.49203 9.64041 6.96481H9.84041H10.0404C10.0404 6.71294 10.2513 6.50202 10.5032 6.50202V6.30202ZM11.166 6.96481H11.366C11.366 6.49203 10.976 6.10202 10.5032 6.10202V6.30202V6.50202C10.7551 6.50202 10.966 6.71294 10.966 6.96481H11.166ZM11.166 9.83731H11.366V6.96481H11.166H10.966V9.83731H11.166ZM14.0358 9.83731V9.63731H11.166V9.83731V10.0373H14.0358V9.83731ZM14.6986 10.5001H14.8986C14.8986 10.0273 14.5086 9.63731 14.0358 9.63731V9.83731V10.0373C14.2877 10.0373 14.4986 10.2482 14.4986 10.5001H14.6986ZM14.0358 11.1629V11.3629C14.5086 11.3629 14.8986 10.9729 14.8986 10.5001H14.6986H14.4986C14.4986 10.752 14.2877 10.9629 14.0358 10.9629V11.1629ZM11.166 11.1629V11.3629H14.0358V11.1629V10.9629H11.166V11.1629ZM11.166 14.0346H11.366V11.1629H11.166H10.966V14.0346H11.166ZM10.5032 14.6974V14.8974C10.976 14.8974 11.366 14.5074 11.366 14.0346H11.166H10.966C10.966 14.2864 10.7551 14.4974 10.5032 14.4974V14.6974Z" fill="#FFB01C" mask="url(#path-1-outside-1_4233_1736)"/>
</svg>
