<svg width="92" height="28" viewBox="0 0 92 28" fill="none" xmlns="http://www.w3.org/2000/svg">
<path d="M0.597656 5C0.597656 2.23858 2.83623 0 5.59766 0H86.8977C89.6591 0 91.8977 2.23858 91.8977 5V22.5C91.8977 25.2614 89.6591 27.5 86.8977 27.5H5.59766C2.83623 27.5 0.597656 25.2614 0.597656 22.5V5Z" fill="url(#paint0_linear_103_3235)"/>
<path d="M36.3096 15.348C36.8936 15.348 37.3456 15.164 37.6656 14.796C37.9856 14.42 38.1456 13.92 38.1456 13.296V8.532H39.6336V13.296C39.6336 13.776 39.5576 14.22 39.4056 14.628C39.2536 15.028 39.0336 15.372 38.7456 15.66C38.4576 15.948 38.1056 16.176 37.6896 16.344C37.2816 16.504 36.8216 16.584 36.3096 16.584C35.7976 16.584 35.3376 16.504 34.9296 16.344C34.5216 16.176 34.1736 15.948 33.8856 15.66C33.5976 15.372 33.3776 15.028 33.2256 14.628C33.0736 14.22 32.9976 13.776 32.9976 13.296V8.532H34.4736V13.296C34.4736 13.912 34.6336 14.408 34.9536 14.784C35.2816 15.16 35.7336 15.348 36.3096 15.348ZM43.6607 12.54C44.2127 12.54 44.6207 12.408 44.8847 12.144C45.1567 11.872 45.2927 11.508 45.2927 11.052C45.2927 10.596 45.1567 10.248 44.8847 10.008C44.6207 9.76 44.2127 9.636 43.6607 9.636H42.5327V12.54H43.6607ZM43.6607 8.532C44.1967 8.532 44.6607 8.592 45.0527 8.712C45.4447 8.832 45.7647 9.004 46.0127 9.228C46.2687 9.452 46.4567 9.72 46.5767 10.032C46.7047 10.336 46.7687 10.676 46.7687 11.052C46.7687 11.436 46.7047 11.788 46.5767 12.108C46.4487 12.428 46.2527 12.708 45.9887 12.948C45.7327 13.18 45.4087 13.36 45.0167 13.488C44.6327 13.616 44.1807 13.68 43.6607 13.68H42.5327V16.5H41.0567V8.532H43.6607ZM54.7645 12.516C54.7645 13.1 54.6685 13.636 54.4765 14.124C54.2845 14.612 54.0085 15.032 53.6485 15.384C53.2965 15.736 52.8685 16.012 52.3645 16.212C51.8685 16.404 51.3165 16.5 50.7085 16.5H47.6605V8.532H50.7085C51.3165 8.532 51.8685 8.632 52.3645 8.832C52.8685 9.024 53.2965 9.296 53.6485 9.648C54.0085 9.992 54.2845 10.412 54.4765 10.908C54.6685 11.396 54.7645 11.932 54.7645 12.516ZM53.2525 12.516C53.2525 11.62 53.0245 10.924 52.5685 10.428C52.1205 9.924 51.5005 9.672 50.7085 9.672H49.1485V15.36H50.5885C50.9725 15.36 51.3245 15.308 51.6445 15.204C51.9725 15.092 52.2525 14.92 52.4845 14.688C52.7245 14.456 52.9125 14.16 53.0485 13.8C53.1845 13.44 53.2525 13.012 53.2525 12.516ZM60.1063 13.5L59.2663 11.172C59.1863 10.988 59.1023 10.784 59.0143 10.56C58.9343 10.328 58.8623 10.096 58.7983 9.864C58.7343 10.104 58.6623 10.336 58.5823 10.56C58.5023 10.784 58.4223 10.988 58.3423 11.172L57.5023 13.5H60.1063ZM62.7103 16.5H61.5583C61.4223 16.5 61.3023 16.436 61.1983 16.308C61.0943 16.18 61.0223 16.052 60.9823 15.924L60.4663 14.508H57.1543L56.6503 15.924C56.5943 16.044 56.5143 16.172 56.4103 16.308C56.3063 16.436 56.1863 16.5 56.0503 16.5H54.8983L58.0543 8.532H59.5543L62.7103 16.5ZM68.8858 9.708H66.4738V16.5H64.9978V9.708H62.5738V8.532H68.8858V9.708ZM71.1629 9.672V11.94H73.9829V13.044H71.1629V15.36H74.7269V16.5H69.6749V8.532H74.7269V9.672H71.1629ZM78.1873 12.324C78.7473 12.324 79.1593 12.192 79.4233 11.928C79.6953 11.664 79.8313 11.324 79.8313 10.908C79.8313 10.06 79.2913 9.636 78.2113 9.636H77.2273V12.324H78.1873ZM81.9913 16.5H80.6593C80.4033 16.5 80.2233 16.404 80.1193 16.212L78.4153 13.62C78.3513 13.532 78.2833 13.468 78.2113 13.428C78.1393 13.38 78.0273 13.356 77.8753 13.356H77.2273V16.5H75.7513V8.532H78.2113C78.7473 8.532 79.2073 8.588 79.5913 8.7C79.9833 8.804 80.3033 8.956 80.5513 9.156C80.7993 9.356 80.9793 9.596 81.0913 9.876C81.2113 10.156 81.2713 10.464 81.2713 10.8C81.2713 11.352 81.1113 11.828 80.7913 12.228C80.4793 12.62 80.0353 12.896 79.4593 13.056C79.5633 13.112 79.6593 13.18 79.7473 13.26C79.8433 13.332 79.9233 13.424 79.9873 13.536L81.9913 16.5Z" fill="white"/>
<path d="M22.8552 8.99458C22.8542 8.73265 22.8001 8.47368 22.6964 8.23344C22.4942 7.76022 22.1147 7.38642 21.6402 7.19328C21.4122 7.09974 21.1685 7.05152 20.9223 7.05127H12.7796C12.5203 7.05516 12.2646 7.11306 12.0287 7.22133C11.5645 7.42634 11.1995 7.80751 11.0131 8.28193C10.9204 8.51173 10.8722 8.75724 10.8711 9.00524V17.0549C10.8709 17.3289 10.9255 17.6002 11.0316 17.8526C11.1382 18.106 11.2979 18.3332 11.4999 18.5187L11.4986 18.5202C11.6755 18.6846 11.881 18.8145 12.105 18.9034C12.3283 18.9922 12.5661 19.038 12.8062 19.0384H20.9232C21.4253 19.038 21.9073 18.8399 22.2662 18.4865C22.4527 18.3031 22.6011 18.0842 22.7027 17.8425C22.8044 17.6009 22.8573 17.3413 22.8583 17.0788V8.99458H22.8552ZM12.807 18.2545C12.5168 18.2545 12.2371 18.1446 12.0237 17.9465C11.7612 17.7043 11.649 17.3794 11.649 17.0549V9.00502C11.6498 8.81884 11.6942 8.63548 11.7787 8.46983C11.7915 8.44518 11.8049 8.42104 11.8189 8.39741C11.8299 8.37936 11.8405 8.36153 11.8532 8.34413C11.8593 8.33478 11.8655 8.32565 11.8722 8.31651L11.8848 8.29955C11.8997 8.27911 11.9157 8.2591 11.9323 8.23953C11.9444 8.22539 11.9569 8.21147 11.9697 8.19777C11.9766 8.19038 11.9837 8.18298 11.9913 8.17603C12.2128 7.95312 12.5244 7.83416 12.7796 7.83416H14.4219V9.79139L16.4531 11.0384V10.125L15.1977 9.35319V7.83416L19.2193 10.2994L13.6468 13.7154V16.9496L15.7768 18.2545H12.807ZM19.3202 12.6537L15.7076 14.8674L14.482 14.1164L19.3166 11.1528V12.6533L19.3202 12.6537ZM22.0808 17.0784C22.0817 17.3874 21.9616 17.6843 21.7465 17.9048L21.7249 17.9265C21.5103 18.1374 21.2222 18.2554 20.9223 18.2553H19.3148V15.2651L18.5401 15.7401V19.0382L18.5274 19.0304L18.4976 19.0121L17.585 18.4504L17.5807 18.4478L14.4215 16.5123V14.9931L17.7644 17.0395V16.1261L16.4527 15.3238L20.0921 13.0943V9.92188L19.9912 9.86012L19.9648 9.84381L19.6271 9.63677L16.687 7.83416H20.9223C21.0386 7.83478 21.1541 7.85296 21.265 7.8881C21.2923 7.89658 21.3188 7.90615 21.345 7.91658C21.3623 7.92354 21.3796 7.93094 21.3966 7.93833L21.4219 7.95029C21.4388 7.95856 21.4554 7.96704 21.4716 7.97595L21.496 7.98965C21.5842 8.04094 21.6654 8.10352 21.7376 8.17581C21.7506 8.18886 21.7633 8.20234 21.7759 8.21604C21.7884 8.22974 21.8003 8.24344 21.8124 8.25779C21.8241 8.27193 21.8355 8.2865 21.8468 8.30129L21.8632 8.32304C22.0025 8.51853 22.0787 8.75248 22.0812 8.99306L22.0808 17.0784Z" fill="white"/>
<defs>
<linearGradient id="paint0_linear_103_3235" x1="3.89766" y1="1.1" x2="94.6477" y2="30.25" gradientUnits="userSpaceOnUse">
<stop stop-color="#ECA665"/>
<stop offset="1" stop-color="#71B89D"/>
</linearGradient>
</defs>
</svg>
