<svg width="65" height="57" viewBox="0 0 65 57" fill="none" xmlns="http://www.w3.org/2000/svg">
<path fill-rule="evenodd" clip-rule="evenodd" d="M37.1507 56.8637C37.6056 57.0216 38.2121 57.0216 38.6671 56.8637C38.3638 55.9161 37.9089 55.1265 36.9991 54.4948C36.5442 54.179 36.0893 54.021 35.6343 53.8631C35.1794 53.7052 34.7245 53.7052 34.2696 53.7052C34.4213 54.6527 34.8762 55.6003 35.6343 56.232C36.0893 56.5478 36.6958 56.8637 37.1507 56.8637ZM34.2696 52.1259C34.7245 52.1259 35.1794 51.968 35.4827 51.6521C35.9376 51.3363 36.2409 51.0204 36.5442 50.7046C36.9991 49.915 37.1507 48.9674 37.1507 48.0198C36.8474 48.1778 36.3925 48.3357 36.0893 48.4936C35.786 48.8095 35.4827 49.1253 35.1794 49.4412C34.5729 50.2308 34.2696 51.1784 34.2696 52.1259ZM41.6998 54.9686C42.6096 55.4424 43.8227 55.4424 44.7325 55.1265C44.2776 54.3369 43.671 53.5473 42.6096 53.2314C42.1547 53.0735 41.6998 52.9155 41.2449 52.9155C40.79 52.9155 40.335 52.9155 39.8801 52.9155C40.1834 53.7052 40.79 54.4948 41.6998 54.9686ZM39.4252 51.1784C39.8801 51.0204 40.1834 50.8625 40.6383 50.5467C40.9416 50.2308 41.2449 49.915 41.3965 49.4412C41.6998 48.4936 41.6998 47.5461 41.3965 46.5985C40.6383 46.9144 40.1834 47.5461 39.7285 48.4936C39.2736 49.2833 39.2736 50.2308 39.4252 51.1784ZM47.3103 52.5997C48.3717 52.9155 49.4332 52.5997 50.343 52.1259C49.7365 51.3363 48.9783 50.8625 47.9168 50.7046C47.4619 50.5467 46.8554 50.5467 46.4005 50.5467C45.9456 50.5467 45.4907 50.7046 45.0357 50.8625C45.4907 51.6521 46.2488 52.2838 47.3103 52.5997ZM45.9456 47.0723C46.0972 46.1247 45.9456 45.1772 45.4907 44.3876C44.8841 44.8613 44.4292 45.651 44.2776 46.5985C44.1259 47.5461 44.1259 48.4936 44.4292 49.4412C44.7325 49.1253 45.1874 48.9674 45.4907 48.4936C45.6423 48.0198 45.7939 47.5461 45.9456 47.0723ZM55.1953 48.0198C54.4372 47.3881 53.5273 47.0723 52.6175 47.0723C52.1626 47.0723 51.5561 47.0723 51.1012 47.2302C50.6463 47.3881 50.1914 47.5461 49.8881 47.8619C50.4946 48.6515 51.2528 49.1253 52.3143 49.1253C53.3757 49.1253 54.2855 48.6515 55.1953 48.0198ZM48.9783 41.387C48.5234 42.0187 48.2201 42.8083 48.0685 43.7559C48.0685 44.7034 48.2201 45.651 48.8266 46.4406C49.1299 46.1247 49.4332 45.8089 49.5848 45.3351C49.7365 44.8613 49.8881 44.3876 49.8881 43.9138C49.8881 42.9662 49.5848 42.0187 48.9783 41.387ZM58.6829 43.5979C58.8346 43.44 58.9862 43.2821 59.2895 42.9662C58.5313 42.4924 57.4699 42.3345 56.56 42.4924C56.1051 42.6504 55.6502 42.8083 55.1953 42.9662C54.7404 43.1242 54.4371 43.44 53.9822 43.7559C54.7404 44.3876 55.6502 44.7034 56.7117 44.5455C57.1666 44.5455 57.7731 44.2296 58.228 43.9138C58.228 43.9138 58.5313 43.7559 58.6829 43.5979ZM53.2241 41.5449C53.3757 41.0711 53.3757 40.5973 53.2241 40.1236C53.0724 39.176 52.4659 38.3864 51.8593 37.7547C51.7077 37.9126 51.7077 38.0705 51.5561 38.2285C51.5561 38.3864 51.4044 38.7022 51.4044 38.8602C51.2528 39.3339 51.4044 39.8077 51.4044 40.2815C51.5561 41.229 52.011 42.1766 52.6175 42.8083C52.9208 42.3345 53.2241 42.0187 53.2241 41.5449ZM61.8673 38.0705C62.0189 37.9126 62.1706 37.5967 62.3222 37.4388C61.4124 37.123 60.5026 37.123 59.5928 37.5967C59.1378 37.7547 58.6829 38.0705 58.3797 38.3864C58.0764 38.7022 57.6215 39.0181 57.4699 39.4919C58.228 39.9656 59.2895 40.1236 60.1993 39.6498C60.6542 39.4919 61.1091 39.176 61.564 38.8602C61.564 38.3864 61.7157 38.2284 61.8673 38.0705ZM56.1051 36.965C56.1051 36.4913 56.1051 36.0175 55.9535 35.5437C55.6502 34.5962 54.8921 33.9645 54.1339 33.4907C54.1339 33.6486 53.9822 33.8065 53.9822 34.1224C53.9822 34.2803 53.9822 34.5962 53.9822 34.7541C53.9822 35.2279 54.1339 35.5437 54.2855 36.0175C54.5888 36.965 55.1953 37.7547 55.9535 38.2285C55.9535 37.9126 56.1051 37.4388 56.1051 36.965ZM62.3222 33.6486C63.232 33.0169 63.8386 32.2273 64.1418 31.1218C63.232 30.9639 62.3222 31.2797 61.4124 31.7535C60.9575 32.0693 60.6542 32.3852 60.3509 32.7011C60.0477 33.0169 59.7444 33.4907 59.5928 33.9645C60.5026 34.2803 61.4124 34.1224 62.3222 33.6486ZM55.4986 29.0688C55.347 29.8584 55.4986 30.648 55.9535 31.5956C56.4084 32.3852 57.1666 33.0169 57.9248 33.4907C58.0764 33.0169 58.0764 32.5431 58.0764 32.0693C58.0764 31.5956 57.9248 31.1218 57.6215 30.8059C57.1666 29.8584 56.4084 29.3846 55.4986 29.0688ZM64.7484 25.4365C64.7484 25.1206 64.9 24.9627 64.9 24.6468C64.4451 24.6468 63.9902 24.8048 63.5353 24.9627C63.0804 25.1206 62.7771 25.4365 62.3222 25.7523C62.0189 26.0682 61.7157 26.5419 61.4124 27.0157C61.1091 27.4895 60.9575 27.9633 60.9575 28.4371C61.8673 28.595 62.7771 28.2791 63.5353 27.4895C63.9902 27.1736 64.2935 26.6999 64.4451 26.2261C64.5967 25.9102 64.7484 25.7523 64.7484 25.4365ZM57.015 26.6999C57.6215 27.3316 58.5313 27.9633 59.2895 28.1212C59.2895 27.6474 59.2895 27.1736 59.1379 26.6999C58.9862 26.2261 58.6829 25.9102 58.3797 25.4365C58.0764 25.1206 57.6215 24.8048 57.3182 24.6468C56.8633 24.4889 56.4084 24.331 55.9535 24.331C55.9535 24.4889 55.9535 24.8048 56.1051 24.9627C56.1051 25.1206 56.2568 25.4365 56.2568 25.5944C56.56 25.9102 56.7117 26.384 57.015 26.6999ZM64.4451 18.1719C63.9902 18.3298 63.5353 18.4877 63.232 18.8036C62.7771 19.1194 62.4738 19.4353 62.1706 19.9091C62.0189 20.067 61.8673 20.3828 61.8673 20.5408C61.7157 20.6987 61.7157 21.0145 61.564 21.1725C61.4124 21.6462 61.4124 22.12 61.2608 22.5938C61.7157 22.5938 62.1706 22.4359 62.6255 22.12C63.0804 21.9621 63.3836 21.4883 63.6869 21.1725C63.9902 20.6987 64.2935 20.2249 64.2935 19.7511C64.2935 19.4353 64.4451 19.2774 64.4451 18.9615C64.5967 18.6457 64.5967 18.3298 64.4451 18.1719ZM58.3797 22.4359C58.8346 22.5938 59.2895 22.7517 59.7444 22.7517C59.7444 22.2779 59.5928 21.8042 59.2895 21.4883C59.1378 21.3304 58.9862 21.1725 58.8346 20.8566C58.6829 20.6987 58.5313 20.5408 58.3797 20.3828C57.9248 20.067 57.6215 19.9091 57.1666 19.7511C56.7117 19.5932 56.2568 19.5932 55.8019 19.7511C55.8019 19.9091 55.9535 20.067 55.9535 20.3828C56.1051 20.5408 56.1051 20.6987 56.2568 20.8566C56.56 21.1725 56.7117 21.4883 57.1666 21.8042C57.4699 21.9621 57.9248 22.278 58.3797 22.4359ZM60.6542 14.6975C60.6542 15.0134 60.5026 15.1713 60.5026 15.4871C60.5026 15.6451 60.5026 15.9609 60.5026 16.1188C60.5026 16.4347 60.5026 16.5926 60.5026 16.9085C60.9575 16.7505 61.4124 16.5926 61.7157 16.2768C62.0189 15.9609 62.4738 15.6451 62.6255 15.0134C62.7771 14.5396 62.9287 14.0658 63.0804 13.4341C63.0804 12.9603 63.0804 12.3286 62.9287 11.8549C62.1706 12.3286 61.4124 12.9603 60.9575 13.9079C60.9575 14.0658 60.8058 14.2237 60.8058 14.2237C60.8058 14.3817 60.6542 14.5396 60.6542 14.6975ZM57.6215 15.3292C57.4699 15.3292 57.4699 15.1713 57.3182 15.1713C56.4084 14.6975 55.4986 14.6975 54.5888 15.0134C54.7404 15.3292 54.8921 15.6451 55.1953 15.9609C55.4986 16.2768 55.8019 16.5926 56.2568 16.7505C56.7117 16.9085 57.1666 17.0664 57.6215 17.2243C58.0764 17.2243 58.5313 17.2243 58.9862 17.2243C58.9862 17.0664 58.8346 16.7505 58.6829 16.5926C58.5313 16.4347 58.3797 16.2768 58.228 15.9609C58.0764 15.803 57.9248 15.6451 57.7731 15.4871L57.6215 15.3292ZM58.5313 8.38048C58.3797 8.85426 58.3797 9.48596 58.3797 9.95974C58.3797 10.2756 58.3797 10.4335 58.5313 10.7494C58.5313 11.0652 58.6829 11.2231 58.6829 11.3811C59.4411 10.9073 60.1993 10.1177 60.3509 9.17011C60.5026 8.69634 60.5026 8.06463 60.5026 7.59085C60.5026 7.11708 60.1993 6.48537 60.0477 6.0116C59.2895 6.48537 58.8346 7.43293 58.5313 8.38048ZM56.4084 11.0652C56.1051 10.7494 55.6502 10.5914 55.1953 10.4335C54.2855 10.2756 53.3757 10.4335 52.6175 10.9073C52.7692 11.2231 53.0724 11.539 53.5273 11.6969C53.8306 12.0128 54.2855 12.1707 54.7404 12.1707C55.6502 12.4866 56.56 12.3286 57.4699 12.0128C57.3182 11.8548 57.1666 11.6969 57.1666 11.3811C56.7117 11.3811 56.56 11.0652 56.4084 11.0652ZM55.1953 3.48478C55.1953 3.95856 55.1953 4.59026 55.347 5.06404C55.4986 5.53782 55.6502 6.0116 55.9535 6.48537C56.7117 5.85367 57.1666 5.06404 57.1666 3.95856C57.1666 2.85308 56.8633 1.7476 56.2568 0.957972C55.6502 1.43175 55.347 2.3793 55.1953 3.48478ZM49.7364 7.11708C50.343 7.59086 51.1012 8.06463 52.011 8.06463C52.9208 8.06463 53.8306 7.90671 54.5888 7.43293C54.2855 7.11708 53.9822 6.80123 53.5273 6.6433C53.0724 6.48537 52.6175 6.32745 52.1626 6.32745C51.4044 6.0116 50.4946 6.48538 49.7364 7.11708ZM30.782 52.1259C30.782 51.1784 30.4787 50.2308 30.0238 49.4412C29.7206 48.9674 29.4173 48.6516 29.114 48.4936C28.8107 48.1778 28.3558 48.0198 28.0526 48.0198C27.9009 48.9674 28.0526 49.915 28.6591 50.7046C28.9624 51.1784 29.2657 51.4942 29.7206 51.6521C29.8722 51.8101 30.3271 51.968 30.782 52.1259ZM30.6304 53.7052C30.1755 53.7052 29.7206 53.8631 29.2657 53.8631C28.8107 54.021 28.3558 54.179 27.9009 54.4948C27.1428 55.1265 26.5362 55.9161 26.2329 56.8637C26.6878 56.8637 27.2944 56.8637 27.7493 56.8637C28.2042 56.7058 28.8107 56.5478 29.114 56.232C30.0238 55.6003 30.4787 54.6527 30.6304 53.7052ZM25.4748 51.1784C25.6264 50.2308 25.4748 49.2833 25.1715 48.3357C24.7166 47.3881 24.2617 46.9144 23.5035 46.4406C23.2002 47.3881 23.2002 48.3357 23.5035 49.2833C23.6551 49.757 23.9584 50.0729 24.2617 50.3887C24.7166 50.8625 25.1715 51.0204 25.4748 51.1784ZM23.2002 54.9686C24.11 54.4948 24.7166 53.7052 25.0199 52.7576C24.565 52.5997 24.11 52.5997 23.6551 52.7576C23.2002 52.7576 22.7453 52.9155 22.2904 53.0735C21.3806 53.5472 20.6224 54.179 20.1675 54.9686C21.229 55.4424 22.2904 55.4424 23.2002 54.9686ZM19.1061 47.0723C19.2577 47.5461 19.4093 48.0198 19.7126 48.3357C20.0159 48.6515 20.3192 48.9674 20.7741 49.2833C21.0773 48.3357 21.229 47.3881 20.9257 46.4406C20.7741 45.493 20.3192 44.8613 19.7126 44.2296C19.1061 45.1772 18.8028 46.1247 19.1061 47.0723ZM19.8643 50.8625C19.4093 50.7046 18.9544 50.5467 18.4995 50.5467C18.0446 50.5467 17.5897 50.5467 16.9832 50.7046C15.9217 50.8625 15.1636 51.4942 14.557 52.1259C15.4668 52.7576 16.5283 52.9155 17.5897 52.5997C18.6512 52.2838 19.4093 51.6521 19.8643 50.8625ZM15.0119 43.9138C15.0119 44.3876 15.1636 44.8613 15.3152 45.3351C15.4668 45.8089 15.7701 46.1247 16.0734 46.4406C16.5283 45.651 16.8315 44.7034 16.8315 43.7559C16.8315 42.8083 16.5283 42.0187 15.9217 41.387C15.3152 42.0187 15.0119 42.9662 15.0119 43.9138ZM9.85631 48.0198C10.6145 48.8095 11.6759 49.1253 12.7374 49.1253C13.7988 49.1253 14.557 48.6515 15.1636 47.8619C14.7086 47.5461 14.4054 47.3881 13.9505 47.2302C13.4956 47.0723 13.0407 47.0723 12.4341 47.0723C11.3727 47.0723 10.4629 47.3881 9.85631 48.0198ZM13.4956 38.8602C13.4956 38.7022 13.3439 38.3864 13.3439 38.2285C13.3439 38.0705 13.1923 37.9126 13.0407 37.7547C12.2825 38.3864 11.8276 39.176 11.6759 40.1236C11.5243 40.5973 11.6759 41.0711 11.6759 41.5449C11.8276 42.0187 11.9792 42.3345 12.2825 42.8083C12.889 42.1766 13.3439 41.229 13.4956 40.2815C13.4956 39.8077 13.4956 39.3339 13.4956 38.8602ZM8.33995 44.7034C9.4014 44.8613 10.3112 44.5455 11.0694 43.9138C10.7661 43.5979 10.3112 43.2821 9.85631 43.1241C9.4014 42.8083 8.9465 42.6504 8.49159 42.6504C7.43014 42.4924 6.52033 42.6504 5.76215 43.1241C5.91379 43.2821 6.06542 43.5979 6.36869 43.7559C6.52033 43.9138 6.8236 44.0717 6.97523 44.2296C7.27851 44.3876 7.88505 44.5455 8.33995 44.7034ZM8.79486 36.965C8.79486 37.4388 8.9465 37.9126 9.09813 38.2285C9.85631 37.7547 10.4629 36.965 10.7661 36.0175C10.9178 35.5437 11.0694 35.0699 11.0694 34.7541C11.0694 34.5962 11.0694 34.2803 11.0694 34.1224C11.0694 33.9645 11.0694 33.6486 10.9178 33.4907C10.1596 33.9645 9.4014 34.5962 9.09813 35.5437C8.79486 36.0175 8.79486 36.4913 8.79486 36.965ZM3.63925 38.5443C4.09416 38.8602 4.39743 39.176 5.00397 39.3339C6.06542 39.6498 6.97523 39.4919 7.73341 39.176C7.43014 38.7022 7.12687 38.3864 6.8236 38.0705C6.52033 37.7547 6.06542 37.4388 5.61051 37.2809C4.7007 36.965 3.63925 36.8071 2.88107 37.123C3.03271 37.4388 3.18435 37.5967 3.33598 37.7547C3.18435 38.2284 3.48762 38.3864 3.63925 38.5443ZM6.8236 32.0693C6.8236 32.5431 6.8236 33.0169 6.97523 33.4907C7.73341 33.1748 8.49159 32.3852 8.94649 31.5956C9.4014 30.8059 9.55304 29.8584 9.4014 29.0688C8.49159 29.3846 7.73341 29.8584 7.2785 30.648C6.97523 31.1218 6.8236 31.5956 6.8236 32.0693ZM0.758178 31.1218C1.06145 32.2273 1.66799 33.1748 2.5778 33.6486C3.48762 34.1224 4.39743 34.2803 5.30724 33.9645C5.15561 33.4907 4.85234 33.0169 4.54907 32.7011C4.24579 32.3852 3.94252 31.9114 3.48762 31.7535C2.5778 31.1218 1.66799 30.9639 0.758178 31.1218ZM5.76215 26.6999C5.61051 27.1736 5.61051 27.6474 5.61051 28.1212C6.52033 27.9633 7.27851 27.4895 7.88505 26.6999C8.18832 26.384 8.49159 25.9102 8.64323 25.5944C8.79486 25.4365 8.79486 25.2785 8.79486 24.9627C8.79486 24.8048 8.94649 24.4889 8.94649 24.331C8.49159 24.331 8.03668 24.4889 7.58178 24.6468C7.12687 24.8048 6.8236 25.1206 6.52033 25.4365C6.06542 25.9102 5.91379 26.384 5.76215 26.6999ZM0.151636 25.4365C0.151636 25.7523 0.303271 25.9102 0.454907 26.2261C0.606542 26.6999 0.909812 27.1736 1.36472 27.4895C2.1229 28.2791 3.03271 28.4371 3.94252 28.4371C3.79089 27.9633 3.63925 27.4895 3.48762 27.0157C3.18435 26.5419 3.03271 26.2261 2.5778 25.7523C2.27453 25.4365 1.81963 25.1206 1.36472 24.9627C0.909812 24.8048 0.454907 24.6468 0 24.6468C0 24.9627 5.76184e-07 25.1206 0.151636 25.4365ZM5.30724 22.5938C5.76215 22.5938 6.21706 22.4359 6.67196 22.2779C7.12687 22.12 7.58178 21.9621 7.88505 21.6462C8.18832 21.3304 8.49159 21.0145 8.79486 20.6987C8.94649 20.5408 8.9465 20.3828 9.09813 20.2249C9.24977 20.067 9.24977 19.9091 9.24977 19.5932C8.79486 19.5932 8.33995 19.5932 7.88505 19.5932C7.43014 19.7511 6.97523 19.9091 6.67196 20.2249C6.52033 20.3828 6.36869 20.5408 6.21706 20.6987C6.06542 20.8566 5.91379 21.0145 5.76215 21.3304C5.45888 21.8042 5.30724 22.12 5.30724 22.5938ZM0.454907 18.1719C0.454907 18.4877 0.454907 18.6457 0.454907 18.9615C0.454907 19.2774 0.454906 19.4353 0.606541 19.7511C0.758177 20.2249 0.909813 20.6987 1.21308 21.1725C1.51636 21.6462 1.97126 21.9621 2.27453 22.12C2.72944 22.2779 3.18435 22.4359 3.63925 22.5938C3.63925 22.12 3.48762 21.6462 3.33598 21.1725C3.33598 20.8566 3.18435 20.6987 3.03271 20.5408C2.88107 20.3828 2.72944 20.067 2.72944 19.9091C2.42617 19.4353 2.1229 19.1194 1.66799 18.8036C1.36472 18.4877 0.909813 18.1719 0.454907 18.1719ZM6.67196 15.9609C6.52033 16.1188 6.36869 16.2768 6.21706 16.5926C6.06542 16.7505 6.06542 17.0664 5.91378 17.2243C6.36869 17.3823 6.8236 17.3823 7.2785 17.2243C7.73341 17.2243 8.18832 17.0664 8.64323 16.7505C9.09813 16.5926 9.4014 16.2768 9.70467 15.9609C10.0079 15.6451 10.1596 15.3292 10.3112 15.0134C9.4014 14.6975 8.49159 14.6975 7.58178 15.1713C7.43014 15.1713 7.43014 15.3292 7.2785 15.3292C7.12687 15.3292 7.12687 15.4871 6.97523 15.4871C6.97523 15.6451 6.8236 15.803 6.67196 15.9609ZM1.81963 13.4341C1.81963 13.9079 1.97126 14.5396 2.27453 15.0134C2.42617 15.4871 2.88108 15.9609 3.18435 16.2768C3.48762 16.5926 3.94252 16.7505 4.39743 16.9085C4.39743 16.5926 4.39743 16.4347 4.39743 16.1188C4.39743 15.9609 4.39743 15.6451 4.39743 15.4871C4.39743 15.1713 4.24579 15.0134 4.24579 14.6975C4.24579 14.5396 4.24579 14.3817 4.09416 14.3817C4.09416 14.2237 3.94252 14.0658 3.94252 14.0658C3.48762 13.1183 2.88108 12.3286 1.97126 12.0128C1.97126 12.3286 1.81963 12.8024 1.81963 13.4341ZM8.03668 11.539C7.88505 11.6969 7.73341 11.8548 7.73341 12.1707C8.64323 12.4866 9.55304 12.4866 10.4629 12.3286C10.9178 12.1707 11.3727 12.0128 11.6759 11.8549C11.9792 11.6969 12.2825 11.3811 12.5857 11.0652C11.8276 10.5914 10.9178 10.4335 10.0079 10.5914C9.55304 10.7494 9.09813 10.9073 8.79486 11.2231C8.33995 11.0652 8.18832 11.3811 8.03668 11.539ZM4.39743 7.43293C4.39743 7.90671 4.39743 8.53841 4.54907 9.01219C4.85234 10.1177 5.45888 10.7494 6.21706 11.2231C6.36869 11.0652 6.36869 10.7494 6.36869 10.5914C6.36869 10.2756 6.52033 10.1177 6.52033 9.80181C6.52033 9.32804 6.52033 8.85426 6.36869 8.22256C6.21706 7.275 5.61051 6.32745 4.85234 5.85367C4.54907 6.48537 4.39743 6.95915 4.39743 7.43293ZM11.3727 6.48537C10.9178 6.6433 10.6145 6.95915 10.3112 7.275C11.0694 7.74878 11.9792 8.06463 12.889 7.90671C13.7988 7.90671 14.557 7.43293 15.1636 6.95915C14.4054 6.32745 13.6472 6.0116 12.5857 6.0116C12.1308 6.16952 11.6759 6.16952 11.3727 6.48537ZM8.64323 0.800049C8.03668 1.58968 7.58178 2.69516 7.73341 3.80064C7.88505 4.90612 8.33995 5.69575 8.94649 6.32745C9.24977 5.85367 9.4014 5.53782 9.55304 4.90612C9.70467 4.43234 9.70467 3.95856 9.70467 3.32686C9.70467 2.3793 9.24977 1.43175 8.64323 0.800049Z" fill="#EAEAEA"/>
<path d="M43.5772 17.7272C43.5752 17.246 43.4759 16.7702 43.2854 16.3288C42.914 15.4593 42.2165 14.7725 41.3448 14.4177C40.926 14.2458 40.4781 14.1572 40.0258 14.1567H25.0651C24.5887 14.1639 24.119 14.2703 23.6855 14.4692C22.8326 14.8459 22.1619 15.5462 21.8194 16.4179C21.6491 16.8401 21.5606 17.2911 21.5586 17.7468V32.5365C21.5582 33.04 21.6586 33.5385 21.8536 34.0021C22.0493 34.4677 22.3428 34.8852 22.7139 35.226L22.7116 35.2288C23.0365 35.5308 23.4142 35.7695 23.8256 35.9328C24.2359 36.0959 24.6729 36.1801 25.114 36.1809H40.0274C40.9499 36.18 41.8355 35.8161 42.4949 35.1668C42.8376 34.8299 43.1103 34.4277 43.297 33.9836C43.4838 33.5396 43.5809 33.0627 43.5828 32.5805V17.7272H43.5772ZM25.1155 34.7405C24.5822 34.7406 24.0684 34.5386 23.6763 34.1747C23.1939 33.7296 22.9879 33.1327 22.9879 32.5365V17.7464C22.9893 17.4043 23.0709 17.0674 23.2261 16.7631C23.2497 16.7178 23.2743 16.6734 23.2999 16.63C23.3202 16.5969 23.3397 16.5641 23.3631 16.5321C23.3742 16.5149 23.3857 16.4982 23.398 16.4814L23.421 16.4502C23.4484 16.4127 23.4778 16.3759 23.5084 16.3399C23.5306 16.314 23.5536 16.2884 23.5771 16.2632C23.5898 16.2496 23.6029 16.2361 23.6168 16.2233C24.0237 15.8137 24.5962 15.5952 25.0651 15.5952H28.0825V19.1912L31.8146 21.4823V19.8041L29.5078 18.3861V15.5952L36.8969 20.1246L26.6584 26.4009V32.3432L30.5719 34.7405H25.1155ZM37.0823 24.4502L30.4448 28.5174L28.1929 27.1377L37.0755 21.6925V24.4494L37.0823 24.4502ZM42.1543 32.5797C42.156 33.1474 41.9353 33.6929 41.5401 34.098L41.5004 34.138C41.1061 34.5254 40.5769 34.7423 40.0258 34.7421H37.0724V29.2482L35.649 30.1208V36.1805L35.6256 36.1662L35.5708 36.1326L33.8942 35.1005L33.8862 35.0957L28.0817 31.5396V28.7483L34.2237 32.5082V30.83L31.8138 29.356L38.5005 25.2597V19.4309L38.3151 19.3175L38.2666 19.2875L37.6461 18.9071L32.2441 15.5952H40.0258C40.2395 15.5963 40.4517 15.6297 40.6555 15.6942C40.7055 15.7098 40.7544 15.7274 40.8024 15.7466C40.8342 15.7594 40.8659 15.773 40.8973 15.7865L40.9438 15.8085C40.9747 15.8237 41.0053 15.8393 41.0351 15.8557L41.0799 15.8808C41.242 15.9751 41.3912 16.09 41.5238 16.2229C41.5476 16.2468 41.5711 16.2716 41.5941 16.2968C41.6171 16.322 41.639 16.3471 41.6612 16.3735C41.6826 16.3995 41.7037 16.4262 41.7243 16.4534L41.7545 16.4934C42.0105 16.8526 42.1504 17.2824 42.1551 17.7244L42.1543 32.5797Z" fill="#EAEAEA"/>
<path d="M23.5755 16.2636C23.5521 16.2888 23.5291 16.3143 23.5073 16.3403C23.5295 16.3143 23.5525 16.2888 23.5759 16.2636C23.5887 16.25 23.6018 16.2364 23.6156 16.2236L23.5755 16.2636ZM23.2258 16.7638C23.2493 16.7186 23.2739 16.6742 23.2996 16.6308C23.2729 16.6745 23.2483 16.7188 23.2258 16.7638Z" fill="#EAEAEA"/>
</svg>
