<svg width="10" height="10" viewBox="0 0 10 10" fill="none" xmlns="http://www.w3.org/2000/svg">
<path d="M7.79785 1.64175C7.84352 1.65083 7.88841 1.66391 7.93164 1.68179L8.05566 1.7482C8.09425 1.77403 8.13009 1.80407 8.16309 1.83707L8.25195 1.94449C8.27785 1.98322 8.30043 2.02429 8.31836 2.06754C8.3542 2.15407 8.37207 2.24731 8.37207 2.34097C8.37207 2.38766 8.36744 2.43407 8.3584 2.47964L8.31836 2.61343C8.30041 2.65678 8.27791 2.69864 8.25195 2.73746L8.16309 2.84488L6.00879 4.99918L8.16309 7.15445L8.25195 7.26382C8.32948 7.38013 8.37207 7.51749 8.37207 7.65933C8.37202 7.84843 8.2968 8.02953 8.16309 8.16324C8.02937 8.29695 7.84827 8.37217 7.65918 8.37222C7.51734 8.37222 7.37998 8.32964 7.26367 8.25211L7.1543 8.16324L4.99902 6.00894L2.84473 8.16324C2.71098 8.29694 2.52994 8.37222 2.34082 8.37222C2.19893 8.37222 2.06164 8.32969 1.94531 8.25211L1.83691 8.16324C1.7032 8.02953 1.62798 7.84843 1.62793 7.65933C1.62793 7.47017 1.70315 7.28821 1.83691 7.15445L3.99023 4.99918L1.83691 2.84488H1.83594C1.70256 2.71112 1.62794 2.52988 1.62793 2.34097C1.62793 2.15207 1.70257 1.97083 1.83594 1.83707L1.83691 1.83609L1.94531 1.74722C2.06158 1.66985 2.1991 1.62808 2.34082 1.62808C2.52973 1.62809 2.71097 1.70272 2.84473 1.83609V1.83707L4.99902 3.99039L7.1543 1.83707L7.2627 1.7482C7.30144 1.7223 7.34248 1.69973 7.38574 1.68179L7.51953 1.64175C7.56536 1.63261 7.61223 1.62808 7.65918 1.62808L7.79785 1.64175Z" fill="#F21543" stroke="#F21543" stroke-width="0.2"/>
</svg>
