<svg width="15" height="15" viewBox="0 0 15 15" fill="none" xmlns="http://www.w3.org/2000/svg">
<path d="M3.20781 1.77514L3.20786 1.77507C3.48479 1.43415 3.80718 1.37527 4.54575 1.25077C5.46685 1.0999 6.39891 1.026 7.33228 1.02983H7.33269C8.46903 1.02983 9.40516 1.12989 10.12 1.25073L10.12 1.25073C10.8582 1.37527 11.1812 1.43412 11.4575 1.77499L11.4575 1.77507C11.7339 2.11537 11.7246 2.47716 11.6915 3.29993L11.6915 3.30001C11.6339 4.75599 11.442 6.38648 10.813 7.65044C10.4993 8.28084 10.0784 8.8167 9.51414 9.1952C8.95053 9.57326 8.23772 9.79848 7.33269 9.79848C6.42766 9.79848 5.71485 9.5733 5.15124 9.19529C4.58696 8.81683 4.1661 8.28104 3.85237 7.65068C3.22335 6.3868 3.03148 4.75631 2.97391 3.30001C2.94141 2.47699 2.93146 2.11476 3.20781 1.77514Z" fill="url(#paint0_radial_18876_5086)" stroke="#DF9100" stroke-width="0.2"/>
<g filter="url(#filter0_d_18876_5086)">
<path d="M7.54209 2.96838C7.45644 2.81262 7.23103 2.81262 7.14525 2.96838C7.03245 3.17347 6.93947 3.38887 6.86756 3.61164C6.86417 3.62035 6.8582 3.62783 6.85046 3.63306C6.84271 3.6383 6.83356 3.64105 6.82421 3.64095C6.6315 3.64596 6.43942 3.66511 6.24952 3.69825C6.07389 3.72888 5.99652 3.9397 6.12998 4.07022C6.14679 4.0867 6.16378 4.10308 6.18095 4.11938C6.30952 4.2412 6.44566 4.35477 6.58855 4.45941C6.59505 4.46372 6.59996 4.47003 6.60257 4.47737C6.60517 4.48472 6.60533 4.49272 6.603 4.50016C6.53087 4.71673 6.47932 4.93963 6.44905 5.16589C6.42409 5.35306 6.62218 5.46793 6.77679 5.38855C6.96449 5.29229 7.14396 5.18076 7.31339 5.05509C7.32227 5.04881 7.33287 5.04543 7.34374 5.04543C7.3546 5.04543 7.36521 5.04881 7.37408 5.05509C7.54341 5.18091 7.7229 5.29245 7.91068 5.38855C8.06529 5.46793 8.26338 5.35306 8.23842 5.16589C8.20819 4.93963 8.15669 4.71673 8.0846 4.50016C8.08228 4.49272 8.08243 4.48472 8.08503 4.47737C8.08764 4.47003 8.09256 4.46372 8.09905 4.45941C8.26095 4.34084 8.41415 4.21082 8.55749 4.07035C8.69095 3.9397 8.61358 3.72888 8.43795 3.69825C8.24801 3.66511 8.05588 3.64595 7.86313 3.64095C7.8538 3.64102 7.84468 3.63826 7.83696 3.63302C7.82924 3.62779 7.82329 3.62033 7.81991 3.61164C7.74823 3.38878 7.65511 3.17337 7.54209 2.96838Z" fill="#FFF0C0"/>
<path d="M7.05763 2.92019L7.05766 2.92014C7.1814 2.69544 7.506 2.6953 7.62969 2.92015M7.05763 2.92019L7.54209 2.96838M7.05763 2.92019C6.94833 3.11892 6.85714 3.32706 6.78516 3.54209M7.05763 2.92019L6.78516 3.54209M7.62969 2.92015C7.6297 2.92016 7.6297 2.92018 7.62971 2.92019L7.54209 2.96838M7.62969 2.92015C7.62968 2.92013 7.62967 2.92011 7.62966 2.9201L7.54209 2.96838M7.62969 2.92015C7.73919 3.11876 7.83053 3.32694 7.90235 3.5421M7.54209 2.96838C7.65511 3.17337 7.74823 3.38878 7.81991 3.61164L7.86275 3.59496L7.86278 3.59496L7.86434 3.59435L7.9131 3.57537C7.90914 3.56517 7.90216 3.55642 7.89309 3.55026C7.88496 3.54475 7.8755 3.54157 7.86572 3.54103C7.86459 3.54097 7.86345 3.54094 7.86231 3.54095L7.86573 3.54092L7.86572 3.54098C7.87794 3.5413 7.89015 3.54167 7.90235 3.5421M7.90235 3.5421C8.08771 3.54859 8.27241 3.56785 8.45515 3.59974M7.90235 3.5421C7.90668 3.55505 7.91093 3.56802 7.91511 3.58102L7.86426 3.59737L7.86278 3.59785L7.86027 3.59865L8.45515 3.59974M8.45515 3.59974C8.70388 3.64312 8.82425 3.94915 8.62745 4.14181M8.45515 3.59974L8.55749 4.07035M8.62745 4.14181L8.55749 4.07035M8.62745 4.14181C8.62746 4.1418 8.62747 4.14179 8.62748 4.14178L8.55749 4.07035M8.62745 4.14181C8.49137 4.27516 8.3466 4.39931 8.19411 4.51345M8.55749 4.07035C8.41415 4.21082 8.26095 4.34084 8.09905 4.45941C8.09256 4.46372 8.08764 4.47003 8.08503 4.47737C8.08243 4.48472 8.08228 4.49272 8.0846 4.50016M8.19411 4.51345C8.18933 4.49847 8.18445 4.4835 8.17948 4.46857L8.12021 4.4883L8.1186 4.48884L8.11796 4.48905L8.0846 4.50016M8.19411 4.51345C8.26056 4.72187 8.30856 4.93576 8.33754 5.15265L8.33754 5.15267C8.35556 5.28777 8.29161 5.3999 8.19591 5.46133C8.10216 5.5215 7.97607 5.53453 7.865 5.4775L7.91068 5.38855C8.06529 5.46793 8.26338 5.35306 8.23842 5.16589C8.20819 4.93963 8.15669 4.71673 8.0846 4.50016M8.19411 4.51345C8.18216 4.52239 8.17017 4.53127 8.15814 4.54009L8.15443 4.5428L8.15437 4.54271C8.15565 4.54186 8.15689 4.54097 8.1581 4.54004C8.1678 4.53254 8.17517 4.5224 8.17928 4.5108C8.18391 4.49775 8.18418 4.48356 8.18005 4.47035L8.12065 4.4889L8.11899 4.48942L8.11898 4.48942L8.0846 4.50016M6.06006 4.14172C5.86314 3.94913 5.98367 3.64311 6.23233 3.59974L6.06006 4.14172ZM6.06006 4.14172C6.07723 4.15854 6.09457 4.17526 6.11209 4.1919L6.11217 4.19197C6.23297 4.30642 6.36029 4.41376 6.49349 4.51345M6.06006 4.14172L6.77679 5.38855L6.82247 5.4775C6.71141 5.53453 6.58531 5.5215 6.49156 5.46133C6.39586 5.3999 6.33191 5.28777 6.34993 5.15267L6.34993 5.15263C6.37895 4.93574 6.42699 4.72185 6.49349 4.51345M6.49349 4.51345C6.49827 4.49846 6.50315 4.48349 6.50813 4.46855L6.5674 4.4883L6.56901 4.48883L6.56965 4.48905L6.603 4.50016L6.56862 4.48942L6.56861 4.48942L6.56696 4.4889L6.50755 4.47035C6.50342 4.48356 6.50369 4.49775 6.50832 4.5108C6.51243 4.5224 6.5198 4.53255 6.52951 4.54004C6.53071 4.54097 6.53195 4.54186 6.53323 4.54271L6.52941 4.54018L6.52947 4.54009C6.51743 4.53127 6.50544 4.52239 6.49349 4.51345ZM7.343 5.09692L7.31339 5.05509L7.34371 5.09596M7.343 5.09692L7.31444 5.13535C7.32416 5.14258 7.33392 5.14976 7.34371 5.1569C7.3535 5.14978 7.36325 5.14261 7.37297 5.1354L7.34445 5.09695M7.343 5.09692L7.34371 5.09596M7.343 5.09692L7.34374 5.09796M7.34445 5.09695L7.37408 5.05509L7.34374 5.09592L7.34371 5.09596M7.34445 5.09695L7.34374 5.09796M7.34445 5.09695L7.34374 5.096L7.34371 5.09596M7.34374 5.09796L7.31631 5.13671C7.32432 5.14238 7.33391 5.14543 7.34374 5.14543C7.35357 5.14543 7.36315 5.14238 7.37117 5.13671L7.34374 5.09796ZM6.78516 3.54209C6.5998 3.54859 6.41509 3.56785 6.23234 3.59974L6.78516 3.54209ZM6.18095 4.11938C6.30952 4.2412 6.44566 4.35477 6.58855 4.45941L6.24952 3.69825C6.07389 3.72888 5.99652 3.9397 6.12998 4.07022C6.14679 4.0867 6.16378 4.10308 6.18095 4.11938Z" stroke="#DF9100" stroke-width="0.2"/>
</g>
<mask id="path-4-inside-1_18876_5086" fill="white">
<path d="M10.9568 7.60623L12.7614 6.60366C13.2431 6.33588 13.484 6.20199 13.6172 5.9765C13.7499 5.751 13.7499 5.47553 13.7499 4.92396V4.8772C13.7499 4.20903 13.7499 3.87463 13.5686 3.62287C13.3873 3.3711 13.0702 3.2654 12.4359 3.054L11.828 2.85156L11.8171 2.90602C11.8137 3.02688 11.809 3.15949 11.803 3.30384C11.7466 4.72921 11.5615 6.33588 10.9574 7.60623M2.88498 3.30384C2.94071 4.72921 3.12585 6.33588 3.73059 7.60623L1.92597 6.60366C1.44423 6.33588 1.20272 6.20199 1.07011 5.9765C0.9375 5.751 0.9375 5.47553 0.9375 4.92396V4.8772C0.9375 4.20903 0.9375 3.87463 1.11879 3.62287C1.30009 3.3711 1.6172 3.2654 2.25141 3.054L2.85935 2.85156L2.87024 2.9073C2.87366 3.02731 2.87836 3.1597 2.88434 3.30448"/>
</mask>
<path d="M10.9568 7.60623L12.7614 6.60366C13.2431 6.33588 13.484 6.20199 13.6172 5.9765C13.7499 5.751 13.7499 5.47553 13.7499 4.92396V4.8772C13.7499 4.20903 13.7499 3.87463 13.5686 3.62287C13.3873 3.3711 13.0702 3.2654 12.4359 3.054L11.828 2.85156L11.8171 2.90602C11.8137 3.02688 11.809 3.15949 11.803 3.30384C11.7466 4.72921 11.5615 6.33588 10.9574 7.60623M2.88498 3.30384C2.94071 4.72921 3.12585 6.33588 3.73059 7.60623L1.92597 6.60366C1.44423 6.33588 1.20272 6.20199 1.07011 5.9765C0.9375 5.751 0.9375 5.47553 0.9375 4.92396V4.8772C0.9375 4.20903 0.9375 3.87463 1.11879 3.62287C1.30009 3.3711 1.6172 3.2654 2.25141 3.054L2.85935 2.85156L2.87024 2.9073C2.87366 3.02731 2.87836 3.1597 2.88434 3.30448" fill="#DF9100"/>
<path d="M12.7614 6.60366L12.8585 6.77849L12.8585 6.77847L12.7614 6.60366ZM13.6172 5.9765L13.7894 6.07824L13.7896 6.07788L13.6172 5.9765ZM12.4359 3.054L12.4992 2.86426L12.4991 2.86424L12.4359 3.054ZM11.828 2.85156L11.8912 2.66181L11.6763 2.59025L11.6319 2.81234L11.828 2.85156ZM11.8171 2.90602L11.621 2.86679L11.6177 2.88342L11.6172 2.90036L11.8171 2.90602ZM11.803 3.30384L11.6032 3.29556L11.6032 3.29593L11.803 3.30384ZM3.73059 7.60623L3.63346 7.78106L4.17982 8.08459L3.91118 7.52026L3.73059 7.60623ZM1.92597 6.60366L1.8288 6.77847L1.82884 6.77849L1.92597 6.60366ZM2.25141 3.054L2.18822 2.86424L2.18816 2.86426L2.25141 3.054ZM2.85935 2.85156L3.05564 2.81321L3.01201 2.58993L2.79617 2.66181L2.85935 2.85156ZM2.87024 2.9073L3.07016 2.9016L3.06969 2.88512L3.06653 2.86894L2.87024 2.9073ZM11.0539 7.78106L12.8585 6.77849L12.6643 6.42883L10.8596 7.4314L11.0539 7.78106ZM12.8585 6.77847C13.096 6.64649 13.2869 6.54065 13.434 6.43854C13.5848 6.33388 13.703 6.22444 13.7894 6.07824L13.4451 5.87475C13.3982 5.95405 13.3293 6.0243 13.206 6.10991C13.0789 6.19806 12.9085 6.29305 12.6642 6.42885L12.8585 6.77847ZM13.7896 6.07788C13.8757 5.9315 13.914 5.77504 13.9323 5.59238C13.9501 5.41417 13.9499 5.1958 13.9499 4.92396H13.5499C13.5499 5.2037 13.5496 5.39885 13.5343 5.55263C13.5194 5.70197 13.4914 5.796 13.4448 5.87511L13.7896 6.07788ZM13.9499 4.92396V4.8772H13.5499V4.92396H13.9499ZM13.9499 4.8772C13.9499 4.54771 13.9502 4.28374 13.9259 4.0712C13.9011 3.85357 13.8488 3.66973 13.7309 3.50599L13.4063 3.73974C13.4697 3.82777 13.508 3.93701 13.5285 4.11656C13.5496 4.3012 13.5499 4.53851 13.5499 4.8772H13.9499ZM13.7309 3.50599C13.6129 3.34222 13.4551 3.23439 13.2565 3.14197C13.0625 3.05172 12.8119 2.96851 12.4992 2.86426L12.3727 3.24373C12.6942 3.35089 12.9192 3.42624 13.0877 3.50463C13.2515 3.58085 13.3429 3.65175 13.4063 3.73974L13.7309 3.50599ZM12.4991 2.86424L11.8912 2.66181L11.7648 3.04132L12.3728 3.24375L12.4991 2.86424ZM11.6319 2.81234L11.621 2.86679L12.0132 2.94524L12.0241 2.89079L11.6319 2.81234ZM11.6172 2.90036C11.6138 3.0202 11.6091 3.15192 11.6032 3.29556L12.0028 3.31212C12.0089 3.16705 12.0136 3.03355 12.017 2.91167L11.6172 2.90036ZM11.6032 3.29593C11.547 4.7162 11.3626 6.28852 10.7768 7.52034L11.138 7.69212C11.7604 6.38325 11.9463 4.74223 12.0029 3.31174L11.6032 3.29593ZM2.68513 3.31165C2.74107 4.74221 2.9269 6.38327 3.55001 7.69219L3.91118 7.52026C3.3248 6.28849 3.14036 4.71622 3.08483 3.29602L2.68513 3.31165ZM3.82772 7.4314L2.0231 6.42883L1.82884 6.77849L3.63346 7.78106L3.82772 7.4314ZM2.02314 6.42885C1.77877 6.29302 1.60821 6.19804 1.48109 6.10988C1.35762 6.02425 1.28896 5.95411 1.24251 5.87511L0.897708 6.07788C0.983862 6.22438 1.10227 6.33394 1.25314 6.43857C1.40036 6.54067 1.59143 6.64653 1.8288 6.77847L2.02314 6.42885ZM1.24251 5.87511C1.19598 5.796 1.168 5.70197 1.15309 5.55263C1.13773 5.39885 1.1375 5.2037 1.1375 4.92396H0.7375C0.7375 5.1958 0.73727 5.41417 0.755066 5.59238C0.773306 5.77504 0.811625 5.9315 0.897708 6.07788L1.24251 5.87511ZM1.1375 4.92396V4.8772H0.7375V4.92396H1.1375ZM1.1375 4.8772C1.1375 4.53851 1.1378 4.3012 1.15887 4.11656C1.17936 3.93701 1.2177 3.82777 1.28109 3.73974L0.956496 3.50599C0.838593 3.66973 0.786286 3.85357 0.761451 4.0712C0.737198 4.28374 0.7375 4.54771 0.7375 4.8772H1.1375ZM1.28109 3.73974C1.34445 3.65175 1.43583 3.58085 1.59963 3.50463C1.7681 3.42624 1.99317 3.35089 2.31465 3.24373L2.18816 2.86426C1.87543 2.96851 1.62484 3.05172 1.43088 3.14197C1.23225 3.23439 1.07443 3.34222 0.956496 3.50599L1.28109 3.73974ZM2.31459 3.24375L2.92254 3.04132L2.79617 2.66181L2.18822 2.86424L2.31459 3.24375ZM2.66307 2.88992L2.67396 2.94565L3.06653 2.86894L3.05564 2.81321L2.66307 2.88992ZM2.67032 2.91299C2.67377 3.034 2.6785 3.16727 2.68451 3.31273L3.08417 3.29623C3.07822 3.15213 3.07355 3.02061 3.07016 2.9016L2.67032 2.91299Z" fill="#DF9100" mask="url(#path-4-inside-1_18876_5086)"/>
<path d="M3.11953 13.7461C3.11953 13.6452 3.15962 13.5484 3.23097 13.4771C3.30232 13.4057 3.39909 13.3656 3.49999 13.3656H11.1874C11.2883 13.3656 11.3851 13.4057 11.4564 13.4771C11.5278 13.5484 11.5679 13.6452 11.5679 13.7461C11.5679 13.847 11.5278 13.9438 11.4564 14.0151C11.3851 14.0865 11.2883 14.1266 11.1874 14.1266H3.49999C3.39909 14.1266 3.30232 14.0865 3.23097 14.0151C3.15962 13.9438 3.11953 13.847 3.11953 13.7461Z" fill="#FCC417" stroke="#DF9100" stroke-width="0.2"/>
<path d="M8.74011 11.7172L8.74007 11.7172L5.94704 11.7172L8.74011 11.7172ZM8.74011 11.7172C8.86513 11.7171 8.98631 11.7604 9.08301 11.8397C9.17935 11.9186 9.24545 12.0284 9.27018 12.1505L9.44038 13.1533M8.74011 11.7172L9.44038 13.1533M9.44038 13.1533H5.24731M9.44038 13.1533H5.24731M5.24731 13.1533L5.41751 12.1505C5.44221 12.0285 5.50824 11.9188 5.60447 11.8398C5.70104 11.7606 5.82206 11.7173 5.94697 11.7172L5.24731 13.1533Z" fill="#DF9100" stroke="#DF9100" stroke-width="0.2"/>
<path d="M7.72421 9.98352V11.5239H6.96328V9.98361L7.72421 9.98352ZM7.72421 9.98352C7.59757 9.99256 7.47064 9.99699 7.34366 9.99678L7.72421 9.98352Z" fill="#DF9100" stroke="#DF9100" stroke-width="0.2"/>
<defs>
<filter id="filter0_d_18876_5086" x="4.86133" y="1.64844" width="4.96484" height="4.96875" filterUnits="userSpaceOnUse" color-interpolation-filters="sRGB">
<feFlood flood-opacity="0" result="BackgroundImageFix"/>
<feColorMatrix in="SourceAlpha" type="matrix" values="0 0 0 0 0 0 0 0 0 0 0 0 0 0 0 0 0 0 127 0" result="hardAlpha"/>
<feOffset/>
<feGaussianBlur stdDeviation="0.5"/>
<feComposite in2="hardAlpha" operator="out"/>
<feColorMatrix type="matrix" values="0 0 0 0 0.952941 0 0 0 0 0.635294 0 0 0 0 0.0431373 0 0 0 1 0"/>
<feBlend mode="normal" in2="BackgroundImageFix" result="effect1_dropShadow_18876_5086"/>
<feBlend mode="normal" in="SourceGraphic" in2="effect1_dropShadow_18876_5086" result="shape"/>
</filter>
<radialGradient id="paint0_radial_18876_5086" cx="0" cy="0" r="1" gradientUnits="userSpaceOnUse" gradientTransform="translate(7.33299 5.41401) rotate(91.8476) scale(9.93474 9.91483)">
<stop stop-color="#FCC417"/>
<stop offset="0.329043" stop-color="#FFCC2F"/>
<stop offset="1" stop-color="#E08D08"/>
</radialGradient>
</defs>
</svg>
