<svg width="36" height="36" viewBox="0 0 36 36" fill="none" xmlns="http://www.w3.org/2000/svg" class="rounded-xl mx-0">
    <rect width="36" height="36" fill="#F0F3F6"/>
    <path fill-rule="evenodd" clip-rule="evenodd" d="M27.46 14.149V22.299C27.46 25.319 25.57 27.449 22.55 27.449H13.9C10.88 27.449 9 25.319 9 22.299V14.149C9 11.129 10.89 9 13.9 9H22.55C25.57 9 27.46 11.129 27.46 14.149Z" stroke="#fd7013" stroke-linecap="round" stroke-linejoin="round"/>
    <path d="M11.5313 22.6813L13.0603 21.0683C13.6113 20.4863 14.5363 20.4833 15.0923 21.0603L15.9773 21.9633C16.5743 22.5723 17.5673 22.5283 18.1083 21.8693L20.3373 19.1583C20.9773 18.3793 22.1513 18.3313 22.8523 19.0543L24.9283 21.1963" stroke="#fd7013" stroke-linecap="round" stroke-linejoin="round"/>
    <path fill-rule="evenodd" clip-rule="evenodd" d="M16.5635 15.3834C16.5635 16.3514 15.7775 17.1374 14.8095 17.1374C13.8415 17.1374 13.0565 16.3514 13.0565 15.3834C13.0565 14.4154 13.8415 13.6294 14.8095 13.6294C15.7775 13.6294 16.5635 14.4154 16.5635 15.3834Z" stroke="#fd7013" stroke-linecap="round" stroke-linejoin="round"/>
</svg>