<svg width="124" height="27" viewBox="0 0 124 27" fill="none" xmlns="http://www.w3.org/2000/svg">
<path d="M19.3105 16C19.0012 16 18.7078 15.9627 18.4305 15.888C18.1532 15.8027 17.9078 15.664 17.6945 15.472C17.4918 15.28 17.3265 15.0293 17.1985 14.72C17.0812 14.4 17.0225 14.0053 17.0225 13.536V6.08H19.0545V13.008C19.0545 13.5413 19.2892 13.808 19.7585 13.808H20.1905C20.4252 13.808 20.5425 14.16 20.5425 14.864C20.5425 15.6213 20.4252 16 20.1905 16H19.3105ZM24.0275 11.424C23.7822 11.424 23.5795 11.504 23.4195 11.664C23.2595 11.824 23.1795 12.0373 23.1795 12.304C23.1795 12.5173 23.2488 12.7467 23.3875 12.992C23.5262 13.2373 23.7502 13.4507 24.0595 13.632C24.3688 13.4507 24.5768 13.2373 24.6835 12.992C24.7902 12.7467 24.8435 12.5173 24.8435 12.304C24.8435 12.0373 24.7635 11.824 24.6035 11.664C24.4542 11.504 24.2622 11.424 24.0275 11.424ZM20.1875 16C20.0488 16 19.9582 15.9147 19.9155 15.744C19.8622 15.5627 19.8355 15.296 19.8355 14.944C19.8355 14.5387 19.8622 14.2507 19.9155 14.08C19.9582 13.8987 20.0488 13.808 20.1875 13.808H21.9475C21.7235 13.4987 21.5635 13.1893 21.4675 12.88C21.3715 12.5707 21.3235 12.2613 21.3235 11.952C21.3235 11.6 21.3875 11.264 21.5155 10.944C21.6435 10.624 21.8302 10.3467 22.0755 10.112C22.3208 9.86667 22.6142 9.67467 22.9555 9.536C23.3075 9.38667 23.7075 9.312 24.1555 9.312C24.5928 9.312 24.9715 9.38667 25.2915 9.536C25.6115 9.68533 25.8728 9.88267 26.0755 10.128C26.2888 10.3733 26.4435 10.6507 26.5395 10.96C26.6462 11.2587 26.6995 11.5627 26.6995 11.872C26.6995 12.2667 26.6408 12.624 26.5235 12.944C26.4168 13.2533 26.2728 13.5413 26.0915 13.808H27.9315C28.2088 13.808 28.3475 13.7067 28.3475 13.504C28.3475 13.4507 28.3315 13.3973 28.2995 13.344C28.2782 13.2907 28.2248 13.2053 28.1395 13.088L25.6435 9.92L27.1475 8.512L29.6915 11.776C30.0115 12.1813 30.2355 12.5547 30.3635 12.896C30.5022 13.2373 30.5715 13.568 30.5715 13.888C30.5715 14.176 30.5182 14.448 30.4115 14.704C30.3155 14.96 30.1608 15.184 29.9475 15.376C29.7448 15.568 29.4888 15.7227 29.1795 15.84C28.8702 15.9467 28.5128 16 28.1075 16H26.3475C25.8568 16 25.4195 15.9787 25.0355 15.936C24.6622 15.8827 24.3688 15.7867 24.1555 15.648C23.9955 15.7333 23.8035 15.8027 23.5795 15.856C23.3662 15.8987 23.1422 15.9307 22.9075 15.952C22.6835 15.9733 22.4595 15.9893 22.2355 16C22.0222 16 21.8408 16 21.6915 16H20.1875ZM41.8386 13.808C42.148 13.808 42.372 13.7387 42.5106 13.6C42.6493 13.4507 42.7186 13.2213 42.7186 12.912V11.248H44.7506V12.912C44.7506 13.2213 44.8466 13.4507 45.0386 13.6C45.2413 13.7387 45.4973 13.808 45.8066 13.808H46.1586C46.2973 13.808 46.388 13.8933 46.4306 14.064C46.484 14.2347 46.5106 14.5013 46.5106 14.864C46.5106 15.2587 46.484 15.5467 46.4306 15.728C46.388 15.9093 46.2973 16 46.1586 16H45.7266C45.3213 16 44.948 15.9413 44.6066 15.824C44.2653 15.696 43.9613 15.4293 43.6946 15.024C43.428 15.4293 43.14 15.696 42.8306 15.824C42.5213 15.9413 42.1906 16 41.8386 16H36.6546C36.2173 16 35.8386 15.936 35.5186 15.808C35.2093 15.6693 34.9533 15.488 34.7506 15.264C34.5586 15.04 34.4146 14.7787 34.3186 14.48C34.2333 14.1813 34.1906 13.8667 34.1906 13.536V11.168H36.2066V13.008C36.2066 13.136 36.212 13.2533 36.2226 13.36C36.244 13.456 36.2866 13.5413 36.3506 13.616C36.4146 13.68 36.5053 13.728 36.6226 13.76C36.74 13.792 36.9 13.808 37.1026 13.808H41.8386ZM41.6626 10.016H39.7266V8.16H41.6626V10.016ZM39.1986 10.016H37.2626V8.16H39.1986V10.016ZM46.9563 13.808C47.5429 13.808 47.8363 13.5093 47.8363 12.912V11.248H49.8523V12.912C49.8523 13.2213 49.9429 13.4507 50.1243 13.6C50.3163 13.7387 50.5456 13.808 50.8123 13.808C51.1643 13.808 51.4149 13.7387 51.5643 13.6C51.7136 13.4507 51.7883 13.2213 51.7883 12.912V11.248H53.8203V12.912C53.8203 13.2213 53.8949 13.4507 54.0443 13.6C54.2043 13.7387 54.3909 13.808 54.6042 13.808C55.1269 13.808 55.3883 13.5093 55.3883 12.912V11.248H57.4203V13.088C57.4203 14.0587 57.1856 14.7893 56.7163 15.28C56.2469 15.76 55.5696 16 54.6843 16C54.3429 16 54.0016 15.9413 53.6603 15.824C53.3296 15.696 53.0309 15.4293 52.7643 15.024C52.4976 15.4293 52.1936 15.696 51.8523 15.824C51.5109 15.9413 51.1643 16 50.8123 16C50.4176 16 50.0496 15.9413 49.7083 15.824C49.3669 15.696 49.0629 15.4293 48.7963 15.024C48.5296 15.4293 48.2416 15.696 47.9323 15.824C47.6336 15.9413 47.3083 16 46.9563 16H46.1562C46.0176 16 45.9269 15.9147 45.8842 15.744C45.8309 15.5627 45.8042 15.296 45.8042 14.944C45.8042 14.5387 45.8309 14.2507 45.8842 14.08C45.9269 13.8987 46.0176 13.808 46.1562 13.808H46.9563ZM59.1788 6.08H61.2108V16H59.1788V6.08ZM64.4599 17.68C65.1745 17.68 65.6865 17.5147 65.9959 17.184C66.3052 16.864 66.4865 16.4693 66.5399 16H65.7879C65.2332 16 64.7799 15.9413 64.4279 15.824C64.0759 15.7067 63.7985 15.5307 63.5959 15.296C63.3932 15.0613 63.2492 14.7787 63.1639 14.448C63.0892 14.1067 63.0519 13.7173 63.0519 13.28C63.0519 12.864 63.1105 12.4693 63.2279 12.096C63.3452 11.712 63.5159 11.3813 63.7399 11.104C63.9745 10.8267 64.2625 10.608 64.6039 10.448C64.9559 10.2773 65.3612 10.192 65.8199 10.192C66.1825 10.192 66.5239 10.2507 66.8439 10.368C67.1745 10.4853 67.4625 10.672 67.7079 10.928C67.9532 11.184 68.1452 11.52 68.2839 11.936C68.4332 12.352 68.5079 12.8587 68.5079 13.456V13.808H69.6599C69.8945 13.808 70.0119 14.16 70.0119 14.864C70.0119 15.6213 69.8945 16 69.6599 16H68.4919C68.4599 16.5227 68.3479 17.0187 68.1559 17.488C67.9639 17.9573 67.6972 18.368 67.3559 18.72C67.0252 19.072 66.6199 19.3493 66.1399 19.552C65.6599 19.7653 65.1265 19.872 64.5399 19.872H62.9719L62.8759 17.68H64.4599ZM64.9879 13.12C64.9879 13.376 65.0412 13.5573 65.1479 13.664C65.2652 13.76 65.4785 13.808 65.7879 13.808H66.5719V13.36C66.5719 12.9547 66.5025 12.6773 66.3639 12.528C66.2359 12.3787 66.0332 12.304 65.7559 12.304C65.2439 12.304 64.9879 12.576 64.9879 13.12ZM74.2323 15.12C73.9229 15.3013 73.6243 15.4507 73.3363 15.568C73.0483 15.6747 72.7443 15.76 72.4243 15.824C72.1043 15.888 71.7576 15.936 71.3843 15.968C71.0109 15.9893 70.5843 16 70.1043 16H69.6562C69.5176 16 69.4269 15.9147 69.3842 15.744C69.3309 15.5627 69.3042 15.296 69.3042 14.944C69.3042 14.5387 69.3309 14.2507 69.3842 14.08C69.4269 13.8987 69.5176 13.808 69.6562 13.808H70.1842C70.5789 13.808 70.9309 13.808 71.2403 13.808C71.5603 13.7973 71.8483 13.776 72.1043 13.744C72.3709 13.712 72.6163 13.6587 72.8403 13.584C73.0749 13.5093 73.3096 13.408 73.5443 13.28L75.1123 12.384C75.0483 12.2987 74.9896 12.2293 74.9363 12.176C74.8829 12.112 74.8189 12.064 74.7443 12.032C74.6696 12 74.5789 11.9787 74.4723 11.968C74.3656 11.9573 74.2269 11.952 74.0563 11.952H70.7923L70.8883 9.744H74.4083C74.7176 9.744 75.0163 9.792 75.3043 9.888C75.6029 9.984 75.8803 10.1653 76.1363 10.432C76.3923 10.688 76.6269 11.0453 76.8403 11.504C77.0643 11.9627 77.2509 12.5547 77.4003 13.28L74.2323 15.12ZM74.6803 8.16H72.5683V6.224H74.6803V8.16ZM81.2796 15.744C81.2796 16.288 81.1783 16.8107 80.9756 17.312C80.7836 17.8133 80.5116 18.2507 80.1596 18.624C79.8183 19.008 79.4076 19.312 78.9276 19.536C78.4583 19.76 77.9463 19.872 77.3916 19.872H76.3356L76.2556 17.68H76.8636C77.3116 17.68 77.6903 17.6213 77.9996 17.504C78.2983 17.3973 78.5383 17.2533 78.7196 17.072C78.9116 16.8907 79.045 16.6827 79.1196 16.448C79.205 16.224 79.2476 15.9893 79.2476 15.744V11.248H81.2796V15.744ZM88.4141 11.872C88.7128 12.2133 88.9315 12.5547 89.0701 12.896C89.2195 13.2373 89.2941 13.568 89.2941 13.888C89.2941 14.176 89.2408 14.448 89.1341 14.704C89.0381 14.96 88.8835 15.184 88.6701 15.376C88.4675 15.568 88.2115 15.7227 87.9021 15.84C87.5928 15.9467 87.2355 16 86.8301 16H82.6861L82.6061 13.808H86.4781C86.7555 13.808 86.8941 13.7067 86.8941 13.504C86.8941 13.3973 86.8408 13.2907 86.7341 13.184L84.1901 10.272L85.7741 8.784L88.4141 11.872Z" fill="#0F172B"/>
<path d="M103.833 13.1667C103.833 8.84553 103.833 6.68495 105.175 5.34203C106.519 4.00003 108.679 4.00003 113 4.00003C117.321 4.00003 119.481 4.00003 120.823 5.34203C122.166 6.68586 122.166 8.84553 122.166 13.1667C122.166 17.4879 122.166 19.6484 120.823 20.9904C119.482 22.3334 117.321 22.3334 113 22.3334C108.679 22.3334 106.518 22.3334 105.175 20.9904C103.833 19.6494 103.833 17.4879 103.833 13.1667Z" fill="#0F172B"/>
<path d="M114 17.6666H112C112 17.9318 112.105 18.1861 112.293 18.3737C112.48 18.5612 112.735 18.6666 113 18.6666C113.265 18.6666 113.52 18.5612 113.707 18.3737C113.895 18.1861 114 17.9318 114 17.6666Z" fill="#0F172B" stroke="white" stroke-linecap="round" stroke-linejoin="round"/>
<path d="M116.909 15.2843C117.12 15.4952 117.238 15.781 117.238 16.0789C117.238 16.2264 117.209 16.3725 117.152 16.5088C117.096 16.645 117.013 16.7688 116.909 16.8731C116.805 16.9774 116.681 17.0602 116.545 17.1166C116.408 17.173 116.262 17.2021 116.115 17.2021H109.885C109.737 17.2021 109.591 17.1731 109.455 17.1167C109.319 17.0602 109.195 16.9775 109.091 16.8732C108.986 16.7689 108.904 16.6451 108.847 16.5088C108.791 16.3725 108.762 16.2264 108.762 16.0789C108.762 15.781 108.88 15.4952 109.09 15.2843L109.821 14.5533V12.4343C109.821 11.5913 110.156 10.7829 110.752 10.1868C111.348 9.59071 112.157 9.25583 113 9.25583C113.843 9.25583 114.651 9.59071 115.247 10.1868C115.843 10.7829 116.178 11.5913 116.178 12.4343V14.5533L116.909 15.2843Z" stroke="white" stroke-width="1.5" stroke-linecap="round" stroke-linejoin="round"/>
<path d="M112 8.66656L114 8.66656C114 8.40135 113.895 8.14699 113.707 7.95946C113.52 7.77192 113.265 7.66656 113 7.66656C112.735 7.66656 112.48 7.77192 112.293 7.95946C112.105 8.14699 112 8.40135 112 8.66656Z" fill="#0F172B" stroke="white" stroke-linecap="round" stroke-linejoin="round"/>
</svg>
