<svg width="24" height="24" viewBox="0 0 24 24" fill="none" xmlns="http://www.w3.org/2000/svg">
<rect y="0.000244141" width="24" height="24" rx="12" fill="#9AA8B7"/>
<path d="M17.4504 19.5487C16.3249 17.5594 15.1999 15.5695 14.0672 13.5677C14.5319 13.0919 14.873 12.5506 15.0589 11.9133C15.6768 9.79373 14.3864 7.56157 12.2885 7.12598C10.1381 6.67944 8.11178 8.15661 7.84368 10.3664C7.52809 12.9685 9.82967 15.0803 12.3565 14.5029C12.4816 14.4743 12.5715 14.4498 12.6516 14.5952C13.0658 15.3429 13.4896 16.0843 13.9094 16.8289C13.9252 16.857 13.9319 16.8914 13.9518 16.9492C13.8808 16.9534 13.8262 16.9607 13.7715 16.9597C12.8278 16.9482 11.881 16.9831 10.9409 16.9143C8.3518 16.7252 6.10996 14.6441 5.62023 12.0285C4.99058 8.66567 7.06542 5.49875 10.3546 4.80368C13.6919 4.09818 17.0153 6.51427 17.4565 9.97037C17.4917 10.245 17.5132 10.5237 17.5137 10.8004C17.5178 13.6401 17.5163 16.4793 17.5157 19.319C17.5157 19.393 17.5071 19.4675 17.5025 19.5414C17.4851 19.5441 17.4677 19.5461 17.4504 19.5487Z" fill="white"/>
<path d="M11.8698 7.92578C11.2805 8.51717 10.7356 9.0627 10.1922 9.6098C10.0166 9.78644 9.83376 9.95682 9.67392 10.147C9.52633 10.3226 9.40429 10.5211 9.22862 10.7696C9.09482 10.7467 8.8737 10.7082 8.65462 10.6707C8.70314 9.00122 10.2208 7.71216 11.8698 7.92578Z" fill="white"/>
</svg>
