<svg width="48" height="48" viewBox="0 0 48 48" fill="none" xmlns="http://www.w3.org/2000/svg">
<path d="M25.9085 1.59213C25.5035 1.95213 22.3535 8.20338 22.3535 8.20338L20.0098 17.6571L29.1298 16.8209C29.1298 16.8209 36.716 2.71338 36.8698 2.38713C37.1435 1.79463 37.2898 1.55088 36.2435 1.55088C35.1973 1.54713 26.2873 1.25463 25.9085 1.59213Z" fill="#049654"/>
<path d="M30.6296 16.236C30.1758 15.9922 16.8108 15.7822 16.4958 16.236C16.2108 16.6485 16.3721 18.8122 16.4808 19.071C16.6758 19.521 20.9921 21.4822 20.9921 21.4822L20.9096 22.3747C20.9096 22.3747 21.2621 22.4647 23.7708 22.4647C26.2796 22.4647 26.7746 22.3372 26.7746 22.3372L26.7821 21.531C26.7821 21.531 30.6671 19.641 30.8621 19.3785C31.0271 19.161 31.0833 16.4797 30.6296 16.236ZM26.6508 19.656C26.6508 19.656 26.7746 19.1047 26.5158 18.9772C26.2571 18.846 21.8171 18.906 21.4646 18.9247C21.1121 18.9435 21.1121 19.5735 21.1121 19.5735L18.3146 18.1335L18.2621 17.5972L28.8746 17.6722L28.8371 18.1785L26.6508 19.656Z" fill="#F79429"/>
<path d="M22.223 19.4609C21.8705 19.4609 21.668 19.8284 21.668 20.4622C21.668 21.0547 21.8705 21.5534 22.3167 21.5159C22.6842 21.4859 22.8117 20.9234 22.778 20.4247C22.7442 19.8284 22.6692 19.4609 22.223 19.4609Z" fill="#FDFFFF"/>
<path d="M10.9922 34.535C10.9922 43.52 19.1334 47.2588 24.5372 47.0975C30.8334 46.91 37.6059 42.1325 37.0472 33.56C36.5222 25.5163 29.7497 21.8263 23.8322 21.8675C16.9547 21.92 10.9922 26.6863 10.9922 34.535Z" fill="#F79429"/>
<path d="M24.2516 45.7381C24.1579 45.7381 24.0604 45.7381 23.9666 45.7344C21.1541 45.6406 18.3754 44.4556 16.3429 42.4869C14.1679 40.3794 12.9754 37.5294 12.9904 34.4656C13.0241 26.9844 19.5641 23.5156 24.0004 23.5156H24.0379C30.0491 23.5419 34.9841 28.2144 35.1229 34.5481C35.1829 37.3681 34.2829 40.1731 32.0179 42.4006C29.9029 44.4706 26.8429 45.7381 24.2516 45.7381ZM23.9929 24.7606C20.0141 24.7606 14.1304 28.0156 14.1154 34.4656C14.1041 39.2881 17.8391 44.2456 24.0604 44.4556C26.4304 44.5306 29.1041 43.6531 31.0729 41.7181C33.1204 39.7044 34.0391 37.0794 33.9979 34.5669C33.9079 29.1181 29.4529 24.7831 24.0454 24.7606C24.0341 24.7531 24.0041 24.7606 23.9929 24.7606Z" fill="#D25116"/>
<path d="M21.7842 23.0503C21.5254 22.694 18.8742 22.7953 16.0204 25.2515C13.1854 27.6928 12.7617 30.3928 13.2717 30.5353C13.8529 30.6965 14.5617 28.0865 17.0104 25.8928C19.2604 23.8865 22.2979 23.759 21.7842 23.0503ZM33.1804 32.864C32.2767 32.9915 33.2142 35.699 31.1179 38.729C29.2992 41.3578 27.2367 42.3103 27.4767 42.8878C27.7992 43.6603 31.1029 41.7365 32.6329 38.6015C34.0167 35.7628 33.8517 32.7665 33.1804 32.864Z" fill="#FEFFFA"/>
<path d="M9.56705 1.39418C9.3308 1.61168 18.3646 17.6992 18.3646 17.6992C18.3646 17.6992 19.8796 17.8942 23.2621 17.9242C26.6446 17.9542 28.3208 17.7292 28.3208 17.7292C28.3208 17.7292 21.2971 1.55543 20.8771 1.39418C20.6708 1.31168 17.8883 1.28168 15.1696 1.25168C12.4471 1.21793 9.79205 1.18418 9.56705 1.39418Z" fill="#02C96F"/>
<path d="M28.1059 31.389C27.6709 27.6203 23.2834 27.3053 21.4647 28.7528C19.6947 30.1628 19.8634 32.1278 21.1047 32.3565C22.0834 32.5365 22.3384 31.7603 22.6234 31.404C23.2684 30.6053 24.2959 30.5303 24.9672 31.1715C25.7284 31.9028 25.2597 33.6503 24.1159 33.7215C23.2647 33.774 22.8334 33.729 22.7247 33.8753C22.5709 34.0815 22.5934 35.7053 22.7509 35.8853C22.9309 36.0915 23.6509 35.964 24.2697 35.9865C25.1209 36.0203 26.0247 37.2803 25.4284 38.2253C24.8097 39.204 23.1634 38.7653 22.5709 38.1728C21.7872 37.389 21.0034 37.839 20.7409 38.1465C20.3284 38.634 19.8897 39.744 21.4122 40.824C22.9309 41.904 27.5397 42.1103 28.4697 38.7653C29.2797 35.844 27.3897 34.644 27.3897 34.644C27.3897 34.644 28.3534 33.5378 28.1059 31.389Z" fill="#D25116"/>
</svg>
