<svg width="20" height="19" viewBox="0 0 20 19" fill="none" xmlns="http://www.w3.org/2000/svg">
<path d="M9.90723 0.253906C12.0531 0.316424 14.1099 1.15324 15.6924 2.61816L16.001 2.91895C17.5042 4.45204 18.4068 6.4816 18.5312 8.63477C18.6594 10.8543 17.9485 13.0359 16.5498 14.7568L18.9902 17.1963L18.9932 17.1992L19.0518 17.2666C19.1625 17.4064 19.2301 17.5753 19.2461 17.7529L19.25 17.8428C19.2479 18.0827 19.1521 18.3127 18.9824 18.4824C18.834 18.6308 18.6395 18.7229 18.4326 18.7451L18.3428 18.75C18.1029 18.7521 17.8718 18.6598 17.6992 18.4932L15.2568 16.0508C13.5359 17.4492 11.3541 18.1594 9.13477 18.0312C6.9816 17.9068 4.95204 17.0042 3.41895 15.501L3.11816 15.1924C1.55548 13.5043 0.707681 11.2765 0.751953 8.97656L0.770508 8.54688C0.915453 6.4046 1.83133 4.38156 3.35645 2.85645L3.66797 2.55957C5.25777 1.11648 7.3202 0.293464 9.47656 0.251953L9.90723 0.253906ZM9.64746 2.08008C7.77324 2.0802 5.97567 2.82511 4.65039 4.15039C3.32511 5.47567 2.5802 7.27324 2.58008 9.14746C2.58008 11.0218 3.325 12.8201 4.65039 14.1455C5.97567 15.4708 7.77326 16.2147 9.64746 16.2148C11.5218 16.2148 13.3201 15.4709 14.6455 14.1455C15.9709 12.8201 16.7148 11.0218 16.7148 9.14746C16.7147 7.27326 15.9708 5.47567 14.6455 4.15039C13.3201 2.825 11.5218 2.08008 9.64746 2.08008Z" fill="white" stroke="white" stroke-width="0.5"/>
</svg>
