<svg width="24" height="24" viewBox="0 0 24 24" fill="none" xmlns="http://www.w3.org/2000/svg">
<rect width="24" height="24" rx="12" fill="#5091FB"/>
<path d="M11.2444 16.431L17.276 10.1225C17.4894 9.88333 17.6056 9.56689 17.6002 9.23987C17.5948 8.91285 17.4682 8.6008 17.2471 8.36952C17.026 8.13826 16.7276 8.00584 16.4149 8.00019C16.1023 7.99454 15.7997 8.1161 15.5711 8.33924L10.392 13.7562L8.42968 11.7038C8.20105 11.4807 7.8985 11.3591 7.58584 11.3647C7.27317 11.3704 6.97482 11.5028 6.75369 11.7341C6.53258 11.9654 6.40597 12.2774 6.40057 12.6044C6.39517 12.9315 6.5114 13.2479 6.72474 13.487L9.53949 16.431C9.76568 16.6673 10.0723 16.8 10.392 16.8C10.7116 16.8 11.0182 16.6673 11.2444 16.431Z" fill="white"/>
</svg>
