<svg width="8" height="14" viewBox="0 0 8 14" fill="none" xmlns="http://www.w3.org/2000/svg">
<path d="M0.509441 7.96925L4.9287 12.6879C5.25867 12.9811 5.69531 13.1409 6.14656 13.1334C6.5978 13.126 7.02839 12.952 7.34753 12.6481C7.66664 12.3442 7.84937 11.9341 7.85716 11.5044C7.86496 11.0746 7.69722 10.6588 7.38931 10.3446L4.20035 6.79759L7.38931 3.65543C7.69721 3.34119 7.86495 2.92536 7.85716 2.49562C7.84936 2.06588 7.66664 1.65582 7.34752 1.3519C7.02839 1.04799 6.5978 0.873974 6.14656 0.86655C5.69531 0.859126 5.25867 1.01887 4.9287 1.3121L0.509441 5.62593C0.183409 5.9368 0.00028014 6.35821 0.000280121 6.79759C0.000280102 7.23696 0.183409 7.65837 0.509441 7.96925Z" fill="#FF6900"/>
</svg>
