<svg width="160" height="160" viewBox="0 0 160 160" fill="none" xmlns="http://www.w3.org/2000/svg">
<g filter="url(#filter0_d_18924_3146)">
<rect x="4" width="152" height="152" rx="20" fill="#D5DCE1"/>
</g>
<path d="M110.659 115C104.848 104.563 99.0396 94.1241 93.1917 83.6219C95.5909 81.1262 97.3522 78.2861 98.3119 74.943C101.502 63.823 94.8395 52.1126 84.0086 49.8274C72.906 47.4848 62.4442 55.2343 61.06 66.8272C59.4306 80.4784 71.3135 91.5573 84.3592 88.5286C85.0052 88.3782 85.4692 88.2498 85.8831 89.0124C88.0214 92.935 90.2097 96.8248 92.377 100.731C92.4587 100.879 92.493 101.059 92.5958 101.362C92.2293 101.384 91.9472 101.423 91.6651 101.417C86.7927 101.357 81.9046 101.54 77.0507 101.179C63.6833 100.187 52.1089 89.2694 49.5804 75.5471C46.3295 57.9049 57.0419 41.2906 74.0239 37.6441C91.2538 33.9429 108.413 46.6182 110.69 64.7497C110.872 66.1902 110.983 67.6527 110.986 69.1042C111.007 84.0019 110.999 98.8968 110.996 113.795C110.996 114.183 110.952 114.574 110.928 114.962C110.838 114.975 110.749 114.986 110.659 115Z" fill="#889BAD"/>
<path d="M81.8466 54.0233C78.804 57.1259 75.9908 59.9879 73.1855 62.8581C72.2785 63.7847 71.3346 64.6786 70.5094 65.6763C69.7474 66.5975 69.1173 67.639 68.2103 68.9429C67.5195 68.8226 66.3779 68.6203 65.2468 68.4235C65.4973 59.6653 73.3332 52.9026 81.8466 54.0233Z" fill="#889BAD"/>
<defs>
<filter id="filter0_d_18924_3146" x="0" y="0" width="160" height="160" filterUnits="userSpaceOnUse" color-interpolation-filters="sRGB">
<feFlood flood-opacity="0" result="BackgroundImageFix"/>
<feColorMatrix in="SourceAlpha" type="matrix" values="0 0 0 0 0 0 0 0 0 0 0 0 0 0 0 0 0 0 127 0" result="hardAlpha"/>
<feOffset dy="4"/>
<feGaussianBlur stdDeviation="2"/>
<feComposite in2="hardAlpha" operator="out"/>
<feColorMatrix type="matrix" values="0 0 0 0 0 0 0 0 0 0 0 0 0 0 0 0 0 0 0.25 0"/>
<feBlend mode="normal" in2="BackgroundImageFix" result="effect1_dropShadow_18924_3146"/>
<feBlend mode="normal" in="SourceGraphic" in2="effect1_dropShadow_18924_3146" result="shape"/>
</filter>
</defs>
</svg>
