<svg width="66" height="66" viewBox="0 0 66 66" fill="none" xmlns="http://www.w3.org/2000/svg">
<rect width="66" height="66" fill="#686868"/>
<g id="Checkouts list - seller">
<rect width="1440" height="1429" transform="translate(-152 -334)" fill="white"/>
<g id="Rectangle 298" filter="url(#filter0_d_0_1)">
<rect x="-92" y="-193" width="1204" height="1078" rx="20" fill="white"/>
<rect x="-91.5" y="-192.5" width="1203" height="1077" rx="19.5" stroke="#E8EDF1"/>
</g>
<g id="Frame 1497">
<rect id="Rectangle 499" x="-63" y="65" width="1152" height="72" fill="#E8EDF1" fill-opacity="0.3"/>
<g id="Frame 1707481039">
<g id="Frame 1511">
<g id="Group 659">
<g id="Union" filter="url(#filter1_d_0_1)">
<mask id="path-4-inside-1_0_1" fill="white">
<path d="M33 10.8062C43.048 10.8062 51.1942 18.9516 51.1943 28.9995C51.1943 39.0476 43.0481 47.1938 33 47.1938C22.9521 47.1937 14.8066 39.0475 14.8066 28.9995C14.8068 18.9517 22.9522 10.8063 33 10.8062Z"/>
</mask>
<path d="M33 10.8062C43.048 10.8062 51.1942 18.9516 51.1943 28.9995C51.1943 39.0476 43.0481 47.1938 33 47.1938C22.9521 47.1937 14.8066 39.0475 14.8066 28.9995C14.8068 18.9517 22.9522 10.8063 33 10.8062Z" fill="white"/>
<path d="M33 10.8062V9.80615H33L33 10.8062ZM51.1943 28.9995H52.1943V28.9995L51.1943 28.9995ZM33 47.1938L33 48.1938H33V47.1938ZM14.8066 28.9995L13.8066 28.9995V28.9995H14.8066ZM33 10.8062V11.8062C42.4957 11.8062 50.1942 19.5039 50.1943 28.9995L51.1943 28.9995L52.1943 28.9995C52.1942 18.3992 43.6002 9.80615 33 9.80615V10.8062ZM51.1943 28.9995H50.1943C50.1943 38.4953 42.4958 46.1938 33 46.1938V47.1938V48.1938C43.6003 48.1938 52.1943 39.5999 52.1943 28.9995H51.1943ZM33 47.1938L33 46.1938C23.5044 46.1937 15.8066 38.4952 15.8066 28.9995H14.8066H13.8066C13.8066 39.5997 22.3997 48.1937 33 48.1938L33 47.1938ZM14.8066 28.9995L15.8066 28.9995C15.8068 19.504 23.5045 11.8063 33 11.8062L33 10.8062L33 9.80615C22.3999 9.80633 13.8068 18.3994 13.8066 28.9995L14.8066 28.9995Z" fill="#FD2F5A" fill-opacity="0.5" mask="url(#path-4-inside-1_0_1)"/>
</g>
<g id="Group 662">
<path id="Union_2" d="M37.1895 21.3655C38.1765 20.3785 39.7767 20.3785 40.7637 21.3655C41.7504 22.3525 41.7506 23.9528 40.7637 24.9397L36.582 29.1213L40.7637 33.303C41.7506 34.2899 41.7504 35.8902 40.7637 36.8772C39.7767 37.8642 38.1765 37.8642 37.1895 36.8772L33.0078 32.6956L28.9414 36.762C27.9545 37.7489 26.3542 37.7487 25.3672 36.762C24.3802 35.775 24.3802 34.1747 25.3672 33.1878L29.4336 29.1213L25.3672 25.0549C24.3802 24.0679 24.3802 22.4677 25.3672 21.4807C26.3542 20.494 27.9545 20.4938 28.9414 21.4807L33.0078 25.5471L37.1895 21.3655Z" fill="#FD2F5A"/>
</g>
</g>
</g>
</g>
<g id="Frame 1707481043">
</g>
</g>
</g>
<defs>
<filter id="filter0_d_0_1" x="-92" y="-193" width="1204" height="1080" filterUnits="userSpaceOnUse" color-interpolation-filters="sRGB">
<feFlood flood-opacity="0" result="BackgroundImageFix"/>
<feColorMatrix in="SourceAlpha" type="matrix" values="0 0 0 0 0 0 0 0 0 0 0 0 0 0 0 0 0 0 127 0" result="hardAlpha"/>
<feOffset dy="2"/>
<feComposite in2="hardAlpha" operator="out"/>
<feColorMatrix type="matrix" values="0 0 0 0 0.909804 0 0 0 0 0.929412 0 0 0 0 0.945098 0 0 0 1 0"/>
<feBlend mode="normal" in2="BackgroundImageFix" result="effect1_dropShadow_0_1"/>
<feBlend mode="normal" in="SourceGraphic" in2="effect1_dropShadow_0_1" result="shape"/>
</filter>
<filter id="filter1_d_0_1" x="0.806641" y="0.806152" width="64.3887" height="64.3877" filterUnits="userSpaceOnUse" color-interpolation-filters="sRGB">
<feFlood flood-opacity="0" result="BackgroundImageFix"/>
<feColorMatrix in="SourceAlpha" type="matrix" values="0 0 0 0 0 0 0 0 0 0 0 0 0 0 0 0 0 0 127 0" result="hardAlpha"/>
<feOffset dy="4"/>
<feGaussianBlur stdDeviation="7"/>
<feComposite in2="hardAlpha" operator="out"/>
<feColorMatrix type="matrix" values="0 0 0 0 0 0 0 0 0 0 0 0 0 0 0 0 0 0 0.15 0"/>
<feBlend mode="normal" in2="BackgroundImageFix" result="effect1_dropShadow_0_1"/>
<feBlend mode="normal" in="SourceGraphic" in2="effect1_dropShadow_0_1" result="shape"/>
</filter>
</defs>
</svg>
