<svg width="22" height="22" viewBox="0 0 22 22" fill="none" xmlns="http://www.w3.org/2000/svg">
<path fill-rule="evenodd" clip-rule="evenodd" d="M3 11.5133C3 7.29822 6.36855 3.5 11.0173 3.5C15.562 3.5 19.0026 7.22621 19.0026 11.4893C19.0026 16.4341 14.9699 19.5026 11.0013 19.5026C9.68909 19.5026 8.23285 19.1505 7.06466 18.4608C6.6566 18.2128 6.31254 18.0288 5.87247 18.1728L4.2562 18.6529C3.84814 18.7809 3.48008 18.4608 3.6001 18.0288L4.13619 16.2333C4.2242 15.9852 4.2082 15.7204 4.08018 15.5116C3.39206 14.2457 3 12.8591 3 11.5133Z" fill="#FF6900"/>
<path d="M10.9862 12.5471C10.4181 12.5391 9.96204 12.0822 9.96204 11.5133C9.96204 10.9524 10.4261 10.4875 10.9862 10.4955C11.2512 10.506 11.5019 10.6186 11.6858 10.8099C11.8696 11.0011 11.9722 11.256 11.9722 11.5213C11.9722 11.7865 11.8696 12.0415 11.6858 12.2327C11.5019 12.4239 11.2512 12.5366 10.9862 12.5471Z" fill="white"/>
<path d="M14.6748 12.5471C14.1067 12.5471 13.6506 12.0822 13.6506 11.5213C13.6506 10.9524 14.1067 10.4955 14.6748 10.4955C14.9398 10.506 15.1905 10.6186 15.3744 10.8099C15.5582 11.0011 15.6608 11.256 15.6608 11.5213C15.6608 11.7865 15.5582 12.0415 15.3744 12.2327C15.1905 12.4239 14.9398 12.5366 14.6748 12.5471Z" fill="white"/>
<path d="M6.27344 11.5213C6.27344 12.083 6.73751 12.5471 7.2976 12.5471C7.56886 12.545 7.82838 12.4362 8.02005 12.2442C8.21171 12.0522 8.3201 11.7925 8.32177 11.5213C8.32177 10.9524 7.8657 10.4955 7.2976 10.4955C6.72951 10.4955 6.27344 10.9524 6.27344 11.5213Z" fill="white"/>
</svg>
