<svg width="19" height="19" viewBox="0 0 19 19" fill="none" xmlns="http://www.w3.org/2000/svg">
<rect width="19" height="19" fill="#686868"/>
<g id=" Sessions Managment">
<rect width="1440" height="1213" transform="translate(-468 -550)" fill="white"/>
<g id="Rectangle 298" filter="url(#filter0_d_0_1)">
<rect x="-408" y="-408" width="1204" height="955" rx="20" fill="white"/>
<rect x="-407.5" y="-407.5" width="1203" height="954" rx="19.5" stroke="#E8EDF1"/>
</g>
<g id="Frame 1059">
<g id="Group 10">
<g id="Rectangle 46" filter="url(#filter1_d_0_1)">
<rect x="-26.334" y="-49" width="200" height="88" rx="12" fill="#F1F5F9"/>
<rect x="-26.334" y="-49" width="200" height="88" rx="12" stroke="#FF6900"/>
</g>
<g id="Users Compo in 12px" filter="url(#filter2_d_0_1)">
<rect x="-10" y="-10" width="168" height="39" rx="8" fill="white" shape-rendering="crispEdges"/>
<g id="hugeicons:view">
<rect x="0.5" y="0.5" width="18" height="18" rx="4" fill="#FF6900"/>
<g id="Group">
<path id="Vector" d="M14.9397 8.95573C15.113 9.19853 15.1996 9.3205 15.1996 9.50003C15.1996 9.68013 15.113 9.80153 14.9397 10.0443C14.1612 11.1363 12.1727 13.4896 9.5002 13.4896C6.82717 13.4896 4.83921 11.1358 4.06067 10.0443C3.88741 9.80153 3.80078 9.67956 3.80078 9.50003C3.80078 9.31993 3.88741 9.19853 4.06067 8.95573C4.83921 7.86373 6.82774 5.51044 9.5002 5.51044C12.1732 5.51044 14.1612 7.8643 14.9397 8.95573Z" stroke="white" stroke-linecap="round" stroke-linejoin="round"/>
<path id="Vector_2" d="M11.2107 9.49999C11.2107 9.04651 11.0305 8.61161 10.7099 8.29096C10.3892 7.9703 9.95431 7.79016 9.50084 7.79016C9.04737 7.79016 8.61247 7.9703 8.29181 8.29096C7.97116 8.61161 7.79102 9.04651 7.79102 9.49999C7.79102 9.95346 7.97116 10.3884 8.29181 10.709C8.61247 11.0297 9.04737 11.2098 9.50084 11.2098C9.95431 11.2098 10.3892 11.0297 10.7099 10.709C11.0305 10.3884 11.2107 9.95346 11.2107 9.49999Z" stroke="white" stroke-linecap="round" stroke-linejoin="round"/>
</g>
</g>
</g>
</g>
</g>
</g>
<defs>
<filter id="filter0_d_0_1" x="-408" y="-408" width="1204" height="957" filterUnits="userSpaceOnUse" color-interpolation-filters="sRGB">
<feFlood flood-opacity="0" result="BackgroundImageFix"/>
<feColorMatrix in="SourceAlpha" type="matrix" values="0 0 0 0 0 0 0 0 0 0 0 0 0 0 0 0 0 0 127 0" result="hardAlpha"/>
<feOffset dy="2"/>
<feComposite in2="hardAlpha" operator="out"/>
<feColorMatrix type="matrix" values="0 0 0 0 0.909804 0 0 0 0 0.929412 0 0 0 0 0.945098 0 0 0 1 0"/>
<feBlend mode="normal" in2="BackgroundImageFix" result="effect1_dropShadow_0_1"/>
<feBlend mode="normal" in="SourceGraphic" in2="effect1_dropShadow_0_1" result="shape"/>
</filter>
<filter id="filter1_d_0_1" x="-26.834" y="-49.5" width="201" height="90" filterUnits="userSpaceOnUse" color-interpolation-filters="sRGB">
<feFlood flood-opacity="0" result="BackgroundImageFix"/>
<feColorMatrix in="SourceAlpha" type="matrix" values="0 0 0 0 0 0 0 0 0 0 0 0 0 0 0 0 0 0 127 0" result="hardAlpha"/>
<feOffset dy="1"/>
<feComposite in2="hardAlpha" operator="out"/>
<feColorMatrix type="matrix" values="0 0 0 0 1 0 0 0 0 0.411765 0 0 0 0 0 0 0 0 1 0"/>
<feBlend mode="normal" in2="BackgroundImageFix" result="effect1_dropShadow_0_1"/>
<feBlend mode="normal" in="SourceGraphic" in2="effect1_dropShadow_0_1" result="shape"/>
</filter>
<filter id="filter2_d_0_1" x="-16" y="-15" width="180" height="51" filterUnits="userSpaceOnUse" color-interpolation-filters="sRGB">
<feFlood flood-opacity="0" result="BackgroundImageFix"/>
<feColorMatrix in="SourceAlpha" type="matrix" values="0 0 0 0 0 0 0 0 0 0 0 0 0 0 0 0 0 0 127 0" result="hardAlpha"/>
<feOffset dy="1"/>
<feGaussianBlur stdDeviation="3"/>
<feComposite in2="hardAlpha" operator="out"/>
<feColorMatrix type="matrix" values="0 0 0 0 0 0 0 0 0 0 0 0 0 0 0 0 0 0 0.06 0"/>
<feBlend mode="normal" in2="BackgroundImageFix" result="effect1_dropShadow_0_1"/>
<feBlend mode="normal" in="SourceGraphic" in2="effect1_dropShadow_0_1" result="shape"/>
</filter>
</defs>
</svg>
