<svg width="27" height="28" viewBox="0 0 27 28" fill="none" xmlns="http://www.w3.org/2000/svg">
<rect y="0.5" width="27" height="27" rx="6" fill="#FD7013"/>
<path d="M9.33333 10.6638H8.64667C7.39917 10.6638 6.775 10.6638 6.38833 10.2971C6 9.93293 6 9.34376 6 8.16626C6 6.98876 6 6.3996 6.3875 6.0346C6.775 5.66876 7.39917 5.66876 8.64667 5.66876H18.3525C19.6008 5.66876 20.225 5.66876 20.6125 6.0346C21 6.40043 21 6.98793 21 8.16543C21 9.34293 21 9.9321 20.6125 10.2979C20.225 10.6638 19.6008 10.6638 18.3525 10.6638H17.25" stroke="white" stroke-width="1.5" stroke-linecap="round" stroke-linejoin="round"/>
<path d="M18.5252 22.3263C18.4835 20.8979 18.6002 20.7096 18.7093 20.3929C18.8193 20.0746 19.4985 18.9471 19.7702 18.1279C20.6468 15.4796 19.976 15.0321 18.9252 14.2279C17.7218 13.3054 15.6835 12.8363 14.4127 12.9379V9.5296C14.4127 8.81043 13.7243 8.1846 12.9527 8.1846C12.181 8.1846 11.4977 8.81043 11.4977 9.5296V15.9896L9.85515 14.5913C9.41182 14.1438 8.70265 14.1846 8.18849 14.5238C8.02859 14.6295 7.90042 14.7767 7.81765 14.9496C7.58432 15.4404 7.65099 15.9954 8.01932 16.4496L8.95265 17.6538M8.95265 17.6538C9.17599 17.9238 9.40182 18.2388 9.68515 18.5971M8.95265 17.6538L9.68515 18.5971M11.4402 22.3313V21.5429C11.501 20.5738 10.621 19.7963 9.68515 18.5971M9.68515 18.5971C9.61765 18.5104 9.74849 18.6779 9.68515 18.5971ZM9.68515 18.5971L10.6077 19.7254" stroke="white" stroke-width="1.5" stroke-linecap="round" stroke-linejoin="round"/>
</svg>
