<svg width="46" height="46" viewBox="0 0 46 46" fill="none" xmlns="http://www.w3.org/2000/svg">
<rect width="46" height="46" fill="#686868"/>
<g id="Frame 1443">
<g id="Group 8" filter="url(#filter0_d_0_1)">
<g id="Rectangle 46" filter="url(#filter1_d_0_1)">
<rect x="-30" y="-30" width="355" height="194" rx="12" fill="white"/>
<rect x="-30" y="-30" width="355" height="194" rx="12" stroke="#DBE2EA"/>
</g>
</g>
<g id="Frame 1467">
<g id="Call">
<rect id="Rectangle 99" width="46" height="46" rx="23" fill="#02C96F"/>
<g id="Vector" filter="url(#filter2_d_0_1)">
<path d="M29.9295 34.4998C28.9272 34.4998 27.5192 34.1373 25.4107 32.9596C22.8469 31.5221 20.8637 30.1949 18.3137 27.6521C15.8551 25.1955 14.6586 23.605 12.9841 20.5584C11.0924 17.1187 11.4149 15.3156 11.7753 14.545C12.2046 13.624 12.8383 13.0731 13.6573 12.5263C14.1225 12.2216 14.6148 11.9604 15.128 11.746C15.1793 11.7239 15.2271 11.7028 15.2697 11.6838C15.5239 11.5693 15.909 11.3963 16.3968 11.5812C16.7224 11.7033 17.013 11.9534 17.468 12.4026C18.401 13.3226 19.676 15.3716 20.1464 16.3778C20.4622 17.056 20.6712 17.5037 20.6717 18.0058C20.6717 18.5937 20.3759 19.047 20.017 19.5363C19.9497 19.6282 19.8829 19.716 19.8182 19.8012C19.4275 20.3146 19.3417 20.463 19.3982 20.7279C19.5127 21.2603 20.3667 22.8451 21.77 24.2452C23.1734 25.6452 24.7129 26.4451 25.2475 26.5591C25.5237 26.6181 25.6752 26.5288 26.2051 26.1242C26.2811 26.0662 26.3592 26.0061 26.4408 25.9461C26.9882 25.5389 27.4206 25.2509 27.9947 25.2509H27.9977C28.4974 25.2509 28.9251 25.4676 29.6338 25.8249C30.5581 26.2911 32.669 27.5494 33.5949 28.4833C34.0452 28.9371 34.2963 29.2267 34.419 29.5517C34.6039 30.0409 34.4298 30.4244 34.3163 30.6811C34.2973 30.7237 34.2763 30.7705 34.2542 30.8223C34.0381 31.3345 33.7752 31.8256 33.4691 32.2896C32.9232 33.1059 32.3702 33.7379 31.4469 34.1676C30.9728 34.3919 30.454 34.5055 29.9295 34.4998Z" fill="white"/>
</g>
</g>
</g>
</g>
<defs>
<filter id="filter0_d_0_1" x="-44.5" y="-36.5" width="384" height="223" filterUnits="userSpaceOnUse" color-interpolation-filters="sRGB">
<feFlood flood-opacity="0" result="BackgroundImageFix"/>
<feColorMatrix in="SourceAlpha" type="matrix" values="0 0 0 0 0 0 0 0 0 0 0 0 0 0 0 0 0 0 127 0" result="hardAlpha"/>
<feOffset dy="8"/>
<feGaussianBlur stdDeviation="7"/>
<feComposite in2="hardAlpha" operator="out"/>
<feColorMatrix type="matrix" values="0 0 0 0 0 0 0 0 0 0 0 0 0 0 0 0 0 0 0.25 0"/>
<feBlend mode="normal" in2="BackgroundImageFix" result="effect1_dropShadow_0_1"/>
<feBlend mode="normal" in="SourceGraphic" in2="effect1_dropShadow_0_1" result="shape"/>
</filter>
<filter id="filter1_d_0_1" x="-30.5" y="-30.5" width="356" height="196" filterUnits="userSpaceOnUse" color-interpolation-filters="sRGB">
<feFlood flood-opacity="0" result="BackgroundImageFix"/>
<feColorMatrix in="SourceAlpha" type="matrix" values="0 0 0 0 0 0 0 0 0 0 0 0 0 0 0 0 0 0 127 0" result="hardAlpha"/>
<feOffset dy="1"/>
<feComposite in2="hardAlpha" operator="out"/>
<feColorMatrix type="matrix" values="0 0 0 0 0.858824 0 0 0 0 0.886275 0 0 0 0 0.917647 0 0 0 1 0"/>
<feBlend mode="normal" in2="BackgroundImageFix" result="effect1_dropShadow_0_1"/>
<feBlend mode="normal" in="SourceGraphic" in2="effect1_dropShadow_0_1" result="shape"/>
</filter>
<filter id="filter2_d_0_1" x="7.5" y="11.5" width="31" height="31" filterUnits="userSpaceOnUse" color-interpolation-filters="sRGB">
<feFlood flood-opacity="0" result="BackgroundImageFix"/>
<feColorMatrix in="SourceAlpha" type="matrix" values="0 0 0 0 0 0 0 0 0 0 0 0 0 0 0 0 0 0 127 0" result="hardAlpha"/>
<feOffset dy="4"/>
<feGaussianBlur stdDeviation="2"/>
<feComposite in2="hardAlpha" operator="out"/>
<feColorMatrix type="matrix" values="0 0 0 0 0 0 0 0 0 0 0 0 0 0 0 0 0 0 0.25 0"/>
<feBlend mode="normal" in2="BackgroundImageFix" result="effect1_dropShadow_0_1"/>
<feBlend mode="normal" in="SourceGraphic" in2="effect1_dropShadow_0_1" result="shape"/>
</filter>
</defs>
</svg>
