<svg width="24" height="24" viewBox="0 0 24 24" fill="none" xmlns="http://www.w3.org/2000/svg">
<path d="M16.6292 15.891L17.0852 15.438L16.0262 14.374L15.5722 14.827L16.6292 15.891ZM18.6142 15.248L20.5252 16.287L21.2402 14.969L19.3302 13.931L18.6142 15.248ZM20.8922 18.351L19.4722 19.764L20.5292 20.827L21.9492 19.415L20.8922 18.351ZM18.6062 20.218C17.1562 20.354 13.4062 20.233 9.34417 16.195L8.28617 17.258C12.7182 21.665 16.9372 21.881 18.7462 21.712L18.6062 20.218ZM9.34417 16.195C5.47317 12.345 4.83117 9.10802 4.75117 7.70302L3.25317 7.78802C3.35317 9.55602 4.14817 13.144 8.28617 17.258L9.34417 16.195ZM10.7192 10.015L11.0062 9.72902L9.95017 8.66602L9.66317 8.95102L10.7192 10.015ZM11.2342 6.09402L9.97417 4.41002L8.77317 5.31002L10.0332 6.99302L11.2342 6.09402ZM5.73317 4.04302L4.16317 5.60302L5.22117 6.66702L6.79017 5.10702L5.73317 4.04302ZM10.1912 9.48302C9.66117 8.95102 9.66117 8.95102 9.66117 8.95302H9.65917L9.65617 8.95702C9.60865 9.00493 9.5661 9.05754 9.52917 9.11402C9.47517 9.19402 9.41617 9.29902 9.36617 9.43202C9.24445 9.77535 9.21412 10.1444 9.27817 10.503C9.41217 11.368 10.0082 12.511 11.5342 14.029L12.5922 12.965C11.1632 11.545 10.8232 10.681 10.7602 10.273C10.7302 10.079 10.7612 9.98302 10.7702 9.96102C10.7762 9.94769 10.7762 9.94569 10.7702 9.95502C10.7613 9.96882 10.7512 9.98186 10.7402 9.99402L10.7302 10.004L10.7202 10.013L10.1912 9.48302ZM11.5342 14.029C13.0612 15.547 14.2102 16.139 15.0762 16.271C15.5192 16.339 15.8762 16.285 16.1472 16.184C16.299 16.1285 16.4408 16.0488 16.5672 15.948L16.6172 15.903L16.6242 15.897L16.6272 15.894L16.6282 15.892C16.6282 15.892 16.6292 15.891 16.1002 15.359C15.5702 14.827 15.5732 14.826 15.5732 14.826L15.5752 14.824L15.5772 14.822L15.5832 14.817L15.5932 14.807L15.6312 14.777C15.6405 14.771 15.6382 14.7717 15.6242 14.779C15.5992 14.788 15.5012 14.819 15.3042 14.789C14.8902 14.725 14.0202 14.385 12.5922 12.965L11.5342 14.029ZM9.97417 4.40902C8.95417 3.04902 6.95017 2.83302 5.73317 4.04302L6.79017 5.10702C7.32217 4.57802 8.26617 4.63302 8.77317 5.31002L9.97417 4.40902ZM4.75217 7.70402C4.73217 7.35802 4.89117 6.99602 5.22117 6.66802L4.16217 5.60402C3.62517 6.13802 3.20217 6.89402 3.25317 7.78802L4.75217 7.70402ZM19.4722 19.764C19.1982 20.038 18.9022 20.192 18.6072 20.219L18.7462 21.712C19.4812 21.643 20.0822 21.273 20.5302 20.828L19.4722 19.764ZM11.0062 9.72902C11.9912 8.75002 12.0642 7.20302 11.2352 6.09502L10.0342 6.99402C10.4372 7.53302 10.3772 8.24002 9.94917 8.66702L11.0062 9.72902ZM20.5262 16.288C21.3432 16.732 21.4702 17.778 20.8932 18.352L21.9512 19.415C23.2912 18.082 22.8782 15.859 21.2412 14.97L20.5262 16.288ZM17.0852 15.439C17.4692 15.057 18.0872 14.963 18.6152 15.249L19.3312 13.932C18.2472 13.342 16.9032 13.505 16.0272 14.375L17.0852 15.439Z" fill="#9AA8B7"/>
</svg>
