<svg width="87" height="54" viewBox="0 0 87 54" fill="none" xmlns="http://www.w3.org/2000/svg">
<path fill-rule="evenodd" clip-rule="evenodd" d="M2.10225 0.144379C1.40722 0.0770398 0.706445 0.0288654 0 0.000244141L1.60385 0.144379H2.10225ZM8.78659 0.789876C12.4285 1.28811 16.2744 2.14356 19.3886 3.60095C25.9482 6.10355 32.5805 11.6258 38.2031 16.85C45.2801 23.4255 49.0111 27.1756 51.7446 29.9231C55.0577 33.2533 56.9055 35.1105 61.4698 38.7406C67.3583 43.4238 71.9542 45.6529 78.7044 45.6529C81.4906 45.6529 83.9098 45.2732 86.2043 44.4978L79.2792 49.8293C65.2055 58.9607 57.4944 50.8129 53.8538 46.966C53.7049 46.8086 53.5627 46.6585 53.4273 46.517C53.4273 46.517 44.2355 35.5719 35.1873 22.3225C26.9292 10.2301 16.2784 2.09638 3.67162 0.330204L8.78659 0.789876ZM3.03305 0.246405C3.24646 0.272524 3.45932 0.300462 3.67162 0.330204L2.33707 0.210271C2.56462 0.221124 2.79675 0.233133 3.03305 0.246405Z" fill="#91A0AD"/>
</svg>
