<svg width="21" height="21" viewBox="0 0 21 21" fill="none" xmlns="http://www.w3.org/2000/svg">
<rect width="21" height="21" fill="#686868"/>
<g id="Group 1147">
<g id="Rectangle 283" filter="url(#filter0_d_0_1)">
<rect x="10" y="-93" width="264" height="715" rx="20" fill="white"/>
<rect x="10.5" y="-92.5" width="263" height="714" rx="19.5" stroke="#E2E8F0"/>
</g>
<g id="Side menu opener">
<g id="Ellipse 61" filter="url(#filter1_d_0_1)">
<circle cx="8.5" cy="8.5" r="8.5" transform="matrix(-1 0 0 1 19 1)" fill="white"/>
<circle cx="8.5" cy="8.5" r="8" transform="matrix(-1 0 0 1 19 1)" stroke="#E2E8F0"/>
</g>
<path id="Vector 1" d="M12 7L13.9 9.37506C13.9585 9.4481 13.9585 9.5519 13.9 9.62494L12 12" stroke="#90A1B9" stroke-linecap="round"/>
<path id="Vector 2" d="M8 7L9.90005 9.37506C9.95848 9.4481 9.95848 9.5519 9.90005 9.62494L8 12" stroke="#90A1B9" stroke-linecap="round"/>
</g>
</g>
<defs>
<filter id="filter0_d_0_1" x="10" y="-93" width="264" height="717" filterUnits="userSpaceOnUse" color-interpolation-filters="sRGB">
<feFlood flood-opacity="0" result="BackgroundImageFix"/>
<feColorMatrix in="SourceAlpha" type="matrix" values="0 0 0 0 0 0 0 0 0 0 0 0 0 0 0 0 0 0 127 0" result="hardAlpha"/>
<feOffset dy="2"/>
<feComposite in2="hardAlpha" operator="out"/>
<feColorMatrix type="matrix" values="0 0 0 0 0.909804 0 0 0 0 0.929412 0 0 0 0 0.945098 0 0 0 1 0"/>
<feBlend mode="normal" in2="BackgroundImageFix" result="effect1_dropShadow_0_1"/>
<feBlend mode="normal" in="SourceGraphic" in2="effect1_dropShadow_0_1" result="shape"/>
</filter>
<filter id="filter1_d_0_1" x="0" y="0" width="21" height="21" filterUnits="userSpaceOnUse" color-interpolation-filters="sRGB">
<feFlood flood-opacity="0" result="BackgroundImageFix"/>
<feColorMatrix in="SourceAlpha" type="matrix" values="0 0 0 0 0 0 0 0 0 0 0 0 0 0 0 0 0 0 127 0" result="hardAlpha"/>
<feOffset dy="1"/>
<feGaussianBlur stdDeviation="1"/>
<feComposite in2="hardAlpha" operator="out"/>
<feColorMatrix type="matrix" values="0 0 0 0 0.305882 0 0 0 0 0.360784 0 0 0 0 0.427451 0 0 0 0.25 0"/>
<feBlend mode="normal" in2="BackgroundImageFix" result="effect1_dropShadow_0_1"/>
<feBlend mode="normal" in="SourceGraphic" in2="effect1_dropShadow_0_1" result="shape"/>
</filter>
</defs>
</svg>
