<svg width="43" height="36" viewBox="0 0 43 36" fill="none" xmlns="http://www.w3.org/2000/svg">
<g id="Component 36">
<path id="Vector" d="M20.3791 34.4836L41.3565 11.6923C43.872 8.59606 42.8483 4.82513 42.4805 3.34061C41.9288 2.04166 42.1211 5.43863 41.2413 4.48813C40.3614 3.53768 39.1743 2.99347 37.9302 2.97026C36.6862 2.94704 35.4823 3.44663 34.5726 4.36369L16.3673 23.3815L8.45982 15.959C7.55011 15.042 8.02648 14.6363 6.7824 14.6595C5.53832 14.6827 4.3512 15.2269 3.47135 16.1774C2.59155 17.1279 1.12634 16.2003 1.10485 17.5443C1.08335 18.8883 1.4641 21.4591 3.35615 23.3815L13.5952 34.4836C14.4952 35.4546 15.7152 36 16.9872 36C18.2591 36 19.4791 35.4546 20.3791 34.4836Z" fill="#DA600F"/>
<g id="Vector_2" filter="url(#filter0_i_133_10)">
<path d="M18.4522 32.3567L41.4282 8.14562C42.2409 7.22788 42.6836 6.01346 42.663 4.75841C42.6425 3.50336 42.1602 2.30578 41.3179 1.41817C40.4756 0.530606 39.3391 0.0224034 38.1481 0.000723152C36.957 -0.0209571 35.8046 0.445577 34.9337 1.30195L15.2049 22.0912L7.73009 14.2145C6.85917 13.3581 5.70669 12.8916 4.51567 12.9133C3.32465 12.935 2.18815 13.4432 1.34582 14.3307C0.503538 15.2183 0.0212606 16.4159 0.000686263 17.671C-0.0198881 18.926 0.422847 20.1404 1.23554 21.0582L11.9577 32.3567C12.8193 33.2635 13.9872 33.7728 15.2049 33.7728C16.4227 33.7728 17.5906 33.2635 18.4522 32.3567Z" fill="url(#paint0_linear_133_10)"/>
</g>
</g>
<defs>
<filter id="filter0_i_133_10" x="0" y="-3" width="42.6638" height="36.7728" filterUnits="userSpaceOnUse" color-interpolation-filters="sRGB">
<feFlood flood-opacity="0" result="BackgroundImageFix"/>
<feBlend mode="normal" in="SourceGraphic" in2="BackgroundImageFix" result="shape"/>
<feColorMatrix in="SourceAlpha" type="matrix" values="0 0 0 0 0 0 0 0 0 0 0 0 0 0 0 0 0 0 127 0" result="hardAlpha"/>
<feOffset dy="-3"/>
<feGaussianBlur stdDeviation="1.5"/>
<feComposite in2="hardAlpha" operator="arithmetic" k2="-1" k3="1"/>
<feColorMatrix type="matrix" values="0 0 0 0 0.85 0 0 0 0 0.371966 0 0 0 0 0.0566667 0 0 0 1 0"/>
<feBlend mode="normal" in2="shape" result="effect1_innerShadow_133_10"/>
</filter>
<linearGradient id="paint0_linear_133_10" x1="76.5005" y1="-0.742259" x2="29.103" y2="-2.17738" gradientUnits="userSpaceOnUse">
<stop stop-color="#FD7013"/>
<stop offset="1" stop-color="#FF8C40"/>
</linearGradient>
</defs>
</svg>
