<svg width="29" height="29" viewBox="0 0 29 29" fill="none" xmlns="http://www.w3.org/2000/svg">
<g id="Frame 149">
<g id="Horror rooms icon" filter="url(#filter0_d_21921_14468)">
<rect id="Rectangle 20" x="4.83984" y="0.5" width="20" height="20" rx="6" fill="#FD7013"/>
<path id="Vector" d="M15.8759 6.03295C15.8759 6.32454 15.8149 6.61328 15.6964 6.88268C15.578 7.15207 15.4043 7.39686 15.1854 7.60304C14.9666 7.80923 14.7067 7.97279 14.4207 8.08438C14.1347 8.19596 13.8282 8.2534 13.5186 8.2534C13.2091 8.2534 12.9025 8.19596 12.6166 8.08438C12.3306 7.97279 12.0707 7.80923 11.8518 7.60304C11.6329 7.39686 11.4593 7.15207 11.3408 6.88268C11.2224 6.61328 11.1614 6.32454 11.1614 6.03295C11.1614 5.44405 11.4097 4.87927 11.8518 4.46285C12.2939 4.04644 12.8935 3.8125 13.5186 3.8125C14.1438 3.8125 14.7434 4.04644 15.1854 4.46285C15.6275 4.87927 15.8759 5.44405 15.8759 6.03295ZM12.8451 8.88781C12.3986 8.88781 11.9703 9.05491 11.6545 9.35235C11.3388 9.64979 11.1614 10.0532 11.1614 10.4738V13.6459C11.1614 13.8542 11.2049 14.0604 11.2896 14.2529C11.3742 14.4453 11.4982 14.6201 11.6545 14.7674C11.8109 14.9147 11.9965 15.0315 12.2008 15.1112C12.4051 15.1909 12.624 15.232 12.8451 15.232H18.2331C18.4542 15.232 18.6732 15.1909 18.8775 15.1112C19.0817 15.0315 19.2673 14.9147 19.4237 14.7674C19.58 14.6201 19.7041 14.4453 19.7887 14.2529C19.8733 14.0604 19.9169 13.8542 19.9169 13.6459V10.4738C19.9169 10.0532 19.7395 9.64979 19.4237 9.35235C19.1079 9.05491 18.6797 8.88781 18.2331 8.88781H12.8451ZM8.48828 9.48355V14.7657C8.48837 14.8597 8.51804 14.9516 8.57355 15.0298C8.62906 15.108 8.70792 15.1689 8.80016 15.2049C8.89241 15.2409 8.9939 15.2503 9.09183 15.232C9.18975 15.2136 9.27972 15.1684 9.35036 15.1019L11.0132 13.5362C11.108 13.447 11.1613 13.3261 11.1614 13.1999V11.0372C11.1613 10.9745 11.1481 10.9123 11.1224 10.8544C11.0968 10.7965 11.0592 10.7439 11.0119 10.6997L9.34901 9.14541C9.27818 9.07927 9.18815 9.03436 9.09026 9.01635C8.99238 8.99833 8.89102 9.00802 8.79897 9.04418C8.70692 9.08034 8.62829 9.14136 8.573 9.21955C8.51771 9.29774 8.48823 9.3896 8.48828 9.48355ZM18.2331 8.2534C18.6797 8.2534 19.1079 8.0863 19.4237 7.78886C19.7395 7.49142 19.9169 7.08801 19.9169 6.66736C19.9169 6.24672 19.7395 5.84331 19.4237 5.54587C19.1079 5.24843 18.6797 5.08133 18.2331 5.08133C17.7866 5.08133 17.3583 5.24843 17.0425 5.54587C16.7268 5.84331 16.5494 6.24672 16.5494 6.66736C16.5494 7.08801 16.7268 7.49142 17.0425 7.78886C17.3583 8.0863 17.7866 8.2534 18.2331 8.2534Z" stroke="white"/>
</g>
</g>
<defs>
<filter id="filter0_d_21921_14468" x="0.839844" y="0.5" width="28" height="28" filterUnits="userSpaceOnUse" color-interpolation-filters="sRGB">
<feFlood flood-opacity="0" result="BackgroundImageFix"/>
<feColorMatrix in="SourceAlpha" type="matrix" values="0 0 0 0 0 0 0 0 0 0 0 0 0 0 0 0 0 0 127 0" result="hardAlpha"/>
<feOffset dy="4"/>
<feGaussianBlur stdDeviation="2"/>
<feComposite in2="hardAlpha" operator="out"/>
<feColorMatrix type="matrix" values="0 0 0 0 0.992157 0 0 0 0 0.439216 0 0 0 0 0.0745098 0 0 0 0.25 0"/>
<feBlend mode="normal" in2="BackgroundImageFix" result="effect1_dropShadow_21921_14468"/>
<feBlend mode="normal" in="SourceGraphic" in2="effect1_dropShadow_21921_14468" result="shape"/>
</filter>
</defs>
</svg>
