<svg width="14" height="14" viewBox="0 0 14 14" fill="none" xmlns="http://www.w3.org/2000/svg">
<g id="Frame 1209">
<path id="Vector" d="M7 0.5C8.32608 0.5 9.59785 1.02032 10.5355 1.94651C11.4732 2.87269 12 4.12886 12 5.43868C12 7.52559 10.5154 9.79991 7.58462 12.286C7.42165 12.4242 7.21388 12.5002 6.99904 12.5C6.7842 12.4998 6.57656 12.4235 6.41385 12.285L6.22 12.1188C3.41897 9.69759 2 7.47899 2 5.43868C2 4.12886 2.52678 2.87269 3.46447 1.94651C4.40215 1.02032 5.67392 0.5 7 0.5ZM7 3.53919C6.48997 3.53919 6.00083 3.73931 5.64018 4.09554C5.27953 4.45176 5.07692 4.9349 5.07692 5.43868C5.07692 5.94245 5.27953 6.4256 5.64018 6.78182C6.00083 7.13805 6.48997 7.33817 7 7.33817C7.51003 7.33817 7.99917 7.13805 8.35982 6.78182C8.72047 6.4256 8.92308 5.94245 8.92308 5.43868C8.92308 4.9349 8.72047 4.45176 8.35982 4.09554C7.99917 3.73931 7.51003 3.53919 7 3.53919Z" fill="#FD7013"/>
</g>
</svg>
