<svg width="48" height="48" viewBox="0 0 48 48" fill="none" xmlns="http://www.w3.org/2000/svg">
<path d="M25.9085 1.59213C25.5035 1.95213 22.3535 8.20338 22.3535 8.20338L20.0098 17.6571L29.1298 16.8209C29.1298 16.8209 36.716 2.71338 36.8698 2.38713C37.1435 1.79463 37.2898 1.55088 36.2435 1.55088C35.1973 1.54713 26.2873 1.25463 25.9085 1.59213Z" fill="#B44903"/>
<path d="M30.6293 16.236C30.1755 15.9922 16.8105 15.7822 16.4955 16.236C16.2105 16.6485 16.2518 18.5347 16.3905 18.7785C16.5293 19.0222 21.0218 21.111 21.0218 21.111L21.018 21.8722C21.018 21.8722 21.2655 22.4685 23.7705 22.4685C26.2755 22.4685 26.5343 21.9622 26.5343 21.9622L26.5568 21.1935C26.5568 21.1935 30.4905 19.2285 30.6968 19.056C30.9068 18.8797 31.083 16.4797 30.6293 16.236ZM26.5118 19.3597C26.5118 19.3597 26.5005 18.8347 26.2418 18.7035C25.983 18.5722 21.8168 18.5947 21.4643 18.6135C21.1118 18.6322 21.1118 19.2622 21.1118 19.2622L18.2618 17.8747V17.5972L28.8743 17.6722L28.893 17.9872L26.5118 19.3597Z" fill="#FCC417"/>
<path d="M22.223 19.1875C21.8705 19.1875 21.668 19.555 21.668 20.1888C21.668 20.7813 21.8705 21.28 22.3167 21.2425C22.6842 21.2125 22.8117 20.65 22.778 20.1513C22.7442 19.5588 22.6692 19.1875 22.223 19.1875Z" fill="#FDFFFF"/>
<path d="M10.8672 34.0197C10.8672 43.0047 18.9897 47.006 24.3897 46.8147C30.3447 46.601 37.4772 41.9585 37.0459 33.386C36.6372 25.2635 29.8047 21.4122 23.8872 21.4535C17.0097 21.5022 10.8672 26.171 10.8672 34.0197Z" fill="#FCC417"/>
<path d="M24.1989 45.2537C24.1051 45.2537 24.0076 45.2538 23.9139 45.25C21.1014 45.1563 18.3226 43.9713 16.2901 42.0025C14.1151 39.895 12.9226 37.045 12.9376 33.9813C12.9714 26.5 19.5114 23.0312 23.9476 23.0312H23.9851C29.9964 23.0575 34.9314 27.73 35.0701 34.0638C35.1301 36.8838 33.9751 39.8425 31.7101 42.07C29.5951 44.1438 26.7901 45.2537 24.1989 45.2537ZM23.9401 24.2763C19.9614 24.2763 14.0776 27.5312 14.0626 33.9813C14.0514 38.8038 17.7864 43.7612 24.0076 43.9713C26.3776 44.0462 28.8189 43.1388 30.7914 41.2C32.8389 39.1863 33.9901 36.5913 33.9489 34.0788C33.8589 28.63 29.4039 24.295 23.9964 24.2725C23.9814 24.2725 23.9514 24.2763 23.9401 24.2763Z" fill="#FA912C"/>
<path d="M21.682 22.7313C21.4233 22.375 18.4908 22.4425 15.7195 25.15C13.0458 27.7638 12.757 30.2275 13.2708 30.37C13.852 30.5313 14.5608 27.9213 17.0095 25.7275C19.2595 23.7175 22.1995 23.44 21.682 22.7313ZM33.0258 32.4325C32.122 32.56 33.0595 35.2675 30.9633 38.2975C29.1445 40.9263 27.082 41.8788 27.322 42.4563C27.6445 43.2288 30.9483 41.305 32.4783 38.17C33.8658 35.3313 33.7008 32.335 33.0258 32.4325Z" fill="#FEFFFA"/>
<path d="M20.9447 28.8824C20.7497 29.1712 20.926 31.7024 21.0422 31.8149C21.2672 32.0399 22.9772 31.2337 22.9772 31.2337L22.9135 38.0024C22.9135 38.0024 21.6572 37.9874 21.526 38.0362C21.2672 38.1337 21.301 40.7437 21.4922 40.8712C21.6835 40.9987 26.8097 41.0662 27.0047 40.8074C27.1997 40.5487 27.151 38.2649 27.061 38.1599C26.8997 37.9649 25.6735 38.0437 25.6735 38.0437C25.6735 38.0437 25.7785 28.0762 25.7447 27.7574C25.711 27.4387 25.3585 27.2399 24.9385 27.3374C24.5185 27.4349 21.0685 28.6949 20.9447 28.8824Z" fill="#E97A10"/>
<path d="M9.56705 1.39418C9.3308 1.61168 18.3646 17.6992 18.3646 17.6992C18.3646 17.6992 19.8796 17.8942 23.2621 17.9242C26.6446 17.9542 28.3208 17.7292 28.3208 17.7292C28.3208 17.7292 21.2971 1.55543 20.8771 1.39418C20.6708 1.31168 17.8883 1.28168 15.1696 1.25168C12.4471 1.21793 9.79205 1.18418 9.56705 1.39418Z" fill="#FD7013"/>
</svg>
