<svg width="48" height="48" viewBox="0 0 48 48" fill="none" xmlns="http://www.w3.org/2000/svg">
<path d="M25.9085 1.59213C25.5035 1.95213 22.3535 8.20338 22.3535 8.20338L20.0098 17.6571L29.1298 16.8209C29.1298 16.8209 36.716 2.71338 36.8698 2.38713C37.1435 1.79463 37.2898 1.55088 36.2435 1.55088C35.1973 1.54713 26.2873 1.25463 25.9085 1.59213Z" fill="#176CC7"/>
<path d="M30.6296 16.236C30.1758 15.9922 16.8108 15.7822 16.4958 16.236C16.2108 16.6485 16.3721 18.8122 16.4808 19.071C16.6758 19.521 20.9921 21.4822 20.9921 21.4822L20.9096 22.3747C20.9096 22.3747 21.2621 22.4647 23.7708 22.4647C26.2796 22.4647 26.7746 22.3372 26.7746 22.3372L26.7821 21.531C26.7821 21.531 30.6671 19.641 30.8621 19.3785C31.0271 19.161 31.0833 16.4797 30.6296 16.236ZM26.6508 19.656C26.6508 19.656 26.7746 19.1047 26.5158 18.9772C26.2571 18.846 21.8171 18.906 21.4646 18.9247C21.1121 18.9435 21.1121 19.5735 21.1121 19.5735L18.2621 17.8747V17.5972L28.8746 17.6722L28.8933 17.9872L26.6508 19.656Z" fill="#CECDD2"/>
<path d="M22.223 19.1875C21.8705 19.1875 21.668 19.555 21.668 20.1888C21.668 20.7813 21.8705 21.28 22.3167 21.2425C22.6842 21.2125 22.8117 20.65 22.778 20.1513C22.7442 19.5588 22.6692 19.1875 22.223 19.1875Z" fill="#FDFFFF"/>
<path d="M10.8633 34.46C10.8633 43.445 19.132 47.2588 24.5358 47.0975C30.832 46.91 37.477 42.1325 37.0458 33.56C36.637 25.4375 29.7483 21.8263 23.8308 21.8675C16.9533 21.92 10.8633 26.6113 10.8633 34.46Z" fill="#CECDD2"/>
<path d="M24.1989 45.4256C24.1051 45.4256 24.0076 45.4256 23.9139 45.4219C21.1014 45.3281 18.3226 44.1431 16.2901 42.1744C14.1151 40.0669 12.9226 37.2169 12.9376 34.1531C12.9714 26.6719 19.5114 23.2031 23.9476 23.2031H23.9851C29.9964 23.2294 34.9314 27.9019 35.0701 34.2356C35.1301 37.0556 33.9751 40.0144 31.7101 42.2419C29.5951 44.3156 26.7901 45.4256 24.1989 45.4256ZM23.9401 24.4481C19.9614 24.4481 14.0776 27.7031 14.0626 34.1531C14.0514 38.9756 17.7864 43.9331 24.0076 44.1431C26.3776 44.2181 28.8189 43.3106 30.7914 41.3719C32.8389 39.3581 33.9901 36.7631 33.9489 34.2506C33.8514 28.8019 29.3964 24.4669 23.9889 24.4406C23.9814 24.4406 23.9514 24.4481 23.9401 24.4481Z" fill="#9B9B9D"/>
<path d="M21.7842 23.0503C21.5254 22.694 18.8742 22.7953 16.0204 25.2515C13.1854 27.6928 12.7617 30.3928 13.2717 30.5353C13.8529 30.6965 14.5617 28.0865 17.0104 25.8928C19.2604 23.8865 22.2979 23.759 21.7842 23.0503ZM32.9554 32.894C32.0517 33.0215 32.9892 35.729 30.8929 38.759C29.0742 41.3878 27.0117 42.3403 27.2517 42.9178C27.5742 43.6903 30.8779 41.7665 32.4079 38.6315C33.7917 35.7965 33.6267 32.8003 32.9554 32.894Z" fill="#FEFFFA"/>
<path d="M9.56705 1.39418C9.3308 1.61168 18.3646 17.6992 18.3646 17.6992C18.3646 17.6992 19.8796 17.8942 23.2621 17.9242C26.6446 17.9542 28.3208 17.7292 28.3208 17.7292C28.3208 17.7292 21.2971 1.55543 20.8771 1.39418C20.6708 1.31168 17.8883 1.28168 15.1696 1.25168C12.4471 1.21793 9.79205 1.18418 9.56705 1.39418Z" fill="#2E9DF4"/>
<path d="M21.3187 32.3847C21.7087 32.3884 22.0575 31.8597 22.38 31.5372C23.0662 30.8472 23.7862 30.2997 24.6075 31.0422C26.625 32.8759 22.575 34.7359 21.0375 37.2784C19.89 39.1759 19.6575 40.6347 19.9762 41.0247C20.295 41.4147 28.0537 41.3959 28.1587 41.2009C28.2637 41.0059 28.3725 38.4072 28.1925 38.2834C28.0125 38.1597 24.1987 38.2309 24.1987 38.2309C24.1987 38.2309 24.5175 37.4884 25.8262 36.3559C27.2625 35.1147 28.4137 33.4084 28.1062 31.3909C27.4687 27.2209 23.2687 27.0672 21.45 28.5184C19.6762 29.9322 20.0587 32.3697 21.3187 32.3847Z" fill="#9B9B9D"/>
</svg>
