<svg width="100px" height="89px" viewBox="0 0 100 89" version="1.1" xmlns="http://www.w3.org/2000/svg"><title>share on web - fullscreen</title><g id="Share-on-Web" stroke="none" stroke-width="1" fill="none" fill-rule="evenodd"><g id="Assets" transform="translate(-189, -386)"><g id="share-on-web---fullscreen" transform="translate(189, 386)"><g id="Group-6" transform="translate(0, 9)"><path d="M99.5,0.5 L99.5,76 C99.5,76.9664983 99.1082492,77.8414983 98.4748737,78.4748737 C97.8414983,79.1082492 96.9664983,79.5 96,79.5 L4,79.5 C3.03350169,79.5 2.15850169,79.1082492 1.52512627,78.4748737 C0.891750844,77.8414983 0.5,76.9664983 0.5,76 L0.5,0.5 L99.5,0.5 Z" id="Rectangle" stroke="#D8DBE0" fill="#F7F8FA"></path><path d="M1,1 L99,1 L99,76 C99,77.6568542 97.6568542,79 96,79 L4,79 C2.34314575,79 1,77.6568542 1,76 L1,1 L1,1 Z" id="Rectangle" fill="#6F6AC7"></path></g><g id="Group-2"><path d="M4,0 L96,0 C98.209139,-4.05812251e-16 100,1.790861 100,4 L100,9 L100,9 L0,9 L0,4 C-2.705415e-16,1.790861 1.790861,2.705415e-16 4,0 Z" id="Rectangle" fill="#D8DBE0"></path><circle id="Oval" fill="#FF5F57" cx="8.5" cy="4.5" r="1.5"></circle><circle id="Oval" fill="#FAA03D" cx="13.5" cy="4.5" r="1.5"></circle><circle id="Oval" fill="#2BC840" cx="18.5" cy="4.5" r="1.5"></circle></g></g></g></g></svg>